<?xml version="1.0" encoding="utf-8"?>
<!-- Generator: Adobe Illustrator 18.1.1, SVG Export Plug-In . SVG Version: 6.00 Build 0)  -->
<svg version="1.1" id="Layer_1" xmlns="http://www.w3.org/2000/svg" xmlns:xlink="http://www.w3.org/1999/xlink" x="0px" y="0px"
	 viewBox="0 0 160 160" enable-background="new 0 0 160 160" xml:space="preserve">
<g>
	<g>
		<path d="M46.2,35c8,0,14.8,3.1,20.4,9.3c2.7,2.9,4.8,6.4,6.4,10.5c1.6,4.1,2.4,8.3,2.4,12.4c0,8.8-2.9,17.7-8.6,26.7
			c-5.7,9-13.4,16.7-23.1,23c-8.2,5.4-14.5,8.1-19.2,8.1c-1.9,0-3.4-0.6-4.6-1.7c-1.2-1.1-1.8-2.6-1.8-4.4c0-2.8,1.8-5.1,5.3-6.9
			c8.4-4.4,14.6-8.7,18.5-12.9c3.7-4,5.6-6.9,5.6-8.8c0-1.8-1.4-2.8-4.2-3.2l-1.8-0.3l-2.1-0.1c-6-0.9-10.9-3.7-14.7-8.4
			s-5.6-10.4-5.6-17c0-6.9,2.3-12.8,6.9-17.8C31.3,37.8,38,35,46.2,35z"/>
		<path d="M112.7,35c8,0,14.8,3.1,20.4,9.3c2.7,2.9,4.8,6.4,6.4,10.5c1.6,4.1,2.4,8.3,2.4,12.4c0,8.8-2.9,17.7-8.6,26.7
			c-5.7,9-13.4,16.7-23.1,23c-8.2,5.4-14.5,8.1-19.2,8.1c-1.9,0-3.4-0.6-4.6-1.7c-1.2-1.1-1.8-2.6-1.8-4.4c0-2.8,1.8-5.1,5.3-6.9
			c8.4-4.4,14.6-8.7,18.5-12.9c3.7-4,5.6-6.9,5.6-8.8c0-1.8-1.4-2.8-4.2-3.2l-1.8-0.3l-2.1-0.1c-6-0.9-10.9-3.7-14.7-8.4
			c-3.8-4.7-5.6-10.4-5.6-17c0-6.9,2.3-12.8,6.9-17.8C97.9,37.8,104.6,35,112.7,35z"/>
	</g>
</g>
</svg>
