<?xml version="1.0" encoding="utf-8"?>
<!-- Generator: Adobe Illustrator 18.1.1, SVG Export Plug-In . SVG Version: 6.00 Build 0)  -->
<svg version="1.1" id="Layer_1" xmlns="http://www.w3.org/2000/svg" xmlns:xlink="http://www.w3.org/1999/xlink" x="0px" y="0px"
	 viewBox="0 0 286 336" enable-background="new 0 0 286 336" xml:space="preserve">
<rect width="286" height="336"/>
<g>
	<path fill="#FFFFFF" d="M39.5,55.5c-1.8,0-3.5-0.3-5.1-0.9c-1.6-0.6-2.9-1.5-4.1-2.6c-1.1-1.1-2-2.4-2.7-4c-0.6-1.5-1-3.2-1-5
		c0-1.8,0.3-3.5,1-5c0.6-1.5,1.5-2.8,2.7-4c1.2-1.1,2.5-2,4.1-2.6c1.6-0.6,3.3-0.9,5.1-0.9c1.8,0,3.4,0.3,5,0.9
		c1.6,0.6,2.9,1.5,4,2.7l-1.6,1.6c-1-1-2.1-1.8-3.3-2.2c-1.2-0.5-2.5-0.7-3.9-0.7c-1.5,0-2.8,0.3-4.1,0.8c-1.3,0.5-2.4,1.2-3.3,2.1
		c-0.9,0.9-1.7,2-2.2,3.2s-0.8,2.6-0.8,4s0.3,2.8,0.8,4s1.3,2.3,2.2,3.2c0.9,0.9,2,1.6,3.3,2.1c1.3,0.5,2.6,0.8,4.1,0.8
		c1.4,0,2.7-0.2,3.9-0.7s2.3-1.2,3.3-2.2l1.6,1.6c-1.1,1.2-2.4,2.1-4,2.7C43,55.2,41.3,55.5,39.5,55.5z"/>
	<path fill="#FFFFFF" d="M53.5,55.3V36.9h2.4v5L55.6,41c0.5-1.4,1.4-2.5,2.6-3.2c1.2-0.7,2.7-1.1,4.5-1.1v2.4c-0.1,0-0.2,0-0.3,0
		s-0.2,0-0.3,0c-1.9,0-3.5,0.6-4.5,1.8c-1.1,1.2-1.6,2.9-1.6,5v9.4H53.5z"/>
	<path fill="#FFFFFF" d="M71.1,55.4c-1.4,0-2.6-0.2-3.6-0.7c-1-0.5-1.8-1.1-2.3-1.9c-0.5-0.8-0.8-1.7-0.8-2.8c0-1,0.2-1.8,0.7-2.6
		c0.5-0.8,1.2-1.4,2.2-1.9c1-0.5,2.4-0.7,4.2-0.7h6.3v1.9h-6.3c-1.8,0-3,0.3-3.7,0.9c-0.7,0.6-1,1.4-1,2.3c0,1,0.4,1.9,1.2,2.5
		c0.8,0.6,2,0.9,3.4,0.9c1.4,0,2.6-0.3,3.6-1c1-0.6,1.8-1.6,2.2-2.8l0.6,1.7c-0.5,1.2-1.3,2.2-2.4,2.9
		C74.3,55.1,72.8,55.4,71.1,55.4z M77.4,55.3v-4.1l-0.1-0.7v-6.8c0-1.6-0.4-2.8-1.3-3.6c-0.9-0.8-2.2-1.3-3.9-1.3
		c-1.2,0-2.3,0.2-3.4,0.6c-1.1,0.4-2,0.9-2.7,1.6l-1.1-1.9c0.9-0.8,2.1-1.4,3.4-1.8c1.3-0.4,2.7-0.6,4.1-0.6c2.4,0,4.2,0.6,5.5,1.8
		c1.3,1.2,1.9,3,1.9,5.4v11.4H77.4z"/>
	<path fill="#FFFFFF" d="M83.7,38.9v-2.1H95v2.1H83.7z M87,55.3V34.6c0-1.6,0.5-3,1.4-4c1-1,2.3-1.5,4.1-1.5c0.7,0,1.4,0.1,2,0.3
		c0.7,0.2,1.2,0.5,1.6,0.9l-0.8,1.9c-0.4-0.3-0.8-0.5-1.2-0.7c-0.5-0.2-1-0.2-1.5-0.2c-1.1,0-1.9,0.3-2.4,0.9
		c-0.6,0.6-0.8,1.4-0.8,2.6v2.8l0.1,1.2v16.6H87z"/>
	<path fill="#FFFFFF" d="M95.5,38.9v-2.1h11.4v2.1H95.5z M104.2,55.4c-1.7,0-3.1-0.5-4-1.4c-0.9-0.9-1.4-2.3-1.4-4V32.8h2.5v17.1
		c0,1.1,0.3,1.9,0.8,2.5c0.5,0.6,1.3,0.9,2.4,0.9c1.1,0,2-0.3,2.7-0.9l0.9,1.8c-0.5,0.4-1.1,0.8-1.8,1
		C105.6,55.3,104.9,55.4,104.2,55.4z"/>
	<path fill="#FFFFFF" d="M113.9,32.8c-0.5,0-0.9-0.2-1.3-0.5c-0.4-0.4-0.5-0.8-0.5-1.3c0-0.5,0.2-0.9,0.5-1.2
		c0.3-0.3,0.8-0.5,1.3-0.5c0.5,0,0.9,0.2,1.3,0.5c0.4,0.3,0.5,0.7,0.5,1.2c0,0.5-0.2,0.9-0.5,1.3C114.8,32.6,114.4,32.8,113.9,32.8z
		 M112.6,55.3V36.9h2.5v18.4H112.6z"/>
	<path fill="#FFFFFF" d="M131.4,36.7c1.5,0,2.8,0.3,3.9,0.9c1.1,0.6,2,1.4,2.7,2.6c0.6,1.2,1,2.6,1,4.4v10.7h-2.5V44.8
		c0-1.9-0.5-3.4-1.5-4.4s-2.3-1.5-4.1-1.5c-1.3,0-2.4,0.3-3.4,0.8c-1,0.5-1.7,1.3-2.2,2.3c-0.5,1-0.8,2.2-0.8,3.6v9.7H122V36.9h2.4
		v5L124,41c0.6-1.3,1.5-2.4,2.8-3.1C128.1,37.1,129.6,36.7,131.4,36.7z"/>
	<path fill="#FFFFFF" d="M153.1,54.6c-1.8,0-3.3-0.4-4.7-1.1c-1.4-0.8-2.5-1.8-3.3-3.2c-0.8-1.4-1.2-2.9-1.2-4.7s0.4-3.3,1.2-4.6
		s1.9-2.4,3.3-3.1c1.4-0.7,3-1.1,4.7-1.1c1.6,0,3.1,0.3,4.4,1c1.3,0.7,2.3,1.7,3.1,3c0.8,1.3,1.2,3,1.2,4.9c0,1.9-0.4,3.5-1.2,4.9
		c-0.8,1.3-1.8,2.3-3.1,3S154.7,54.6,153.1,54.6z M153.5,62.2c-1.7,0-3.3-0.2-4.8-0.7c-1.5-0.5-2.8-1.2-3.7-2.1l1.3-1.9
		c0.9,0.8,1.9,1.4,3.2,1.8c1.3,0.5,2.6,0.7,4,0.7c2.3,0,4-0.5,5.1-1.6s1.6-2.8,1.6-5.1v-4.6l0.4-3.2l-0.2-3.1v-5.6h2.4V53
		c0,3.2-0.8,5.5-2.3,7C158.9,61.5,156.6,62.2,153.5,62.2z M153.3,52.4c1.4,0,2.6-0.3,3.6-0.9c1-0.6,1.9-1.4,2.5-2.4s0.9-2.2,0.9-3.5
		s-0.3-2.5-0.9-3.5c-0.6-1-1.4-1.8-2.5-2.4c-1.1-0.6-2.3-0.9-3.6-0.9c-1.3,0-2.5,0.3-3.6,0.9c-1.1,0.6-1.9,1.4-2.5,2.4
		c-0.6,1-0.9,2.2-0.9,3.5s0.3,2.5,0.9,3.5s1.4,1.8,2.5,2.4C150.8,52.1,152,52.4,153.3,52.4z"/>
	<path fill="#FFFFFF" d="M28.3,104.3V85.9h2.4v5L30.5,90c0.5-1.4,1.4-2.5,2.6-3.2c1.2-0.7,2.7-1.1,4.5-1.1v2.4c-0.1,0-0.2,0-0.3,0
		s-0.2,0-0.3,0c-1.9,0-3.5,0.6-4.5,1.8c-1.1,1.2-1.6,2.9-1.6,5v9.4H28.3z"/>
	<path fill="#FFFFFF" d="M49.7,104.4c-1.9,0-3.6-0.4-5-1.2c-1.4-0.8-2.6-1.9-3.4-3.3c-0.8-1.4-1.2-3-1.2-4.8c0-1.8,0.4-3.4,1.2-4.8
		c0.8-1.4,1.9-2.5,3.2-3.3c1.4-0.8,2.9-1.2,4.6-1.2c1.7,0,3.3,0.4,4.6,1.2c1.3,0.8,2.4,1.9,3.2,3.3c0.8,1.4,1.2,3,1.2,4.9
		c0,0.1,0,0.2,0,0.4c0,0.1,0,0.3,0,0.4h-16V94h14.7l-1,0.7c0-1.3-0.3-2.5-0.9-3.6c-0.6-1-1.3-1.8-2.3-2.4c-1-0.6-2.1-0.9-3.4-0.9
		c-1.3,0-2.4,0.3-3.4,0.9c-1,0.6-1.8,1.4-2.3,2.5c-0.6,1-0.8,2.3-0.8,3.6v0.4c0,1.4,0.3,2.6,0.9,3.7c0.6,1.1,1.5,1.9,2.6,2.5
		c1.1,0.6,2.4,0.9,3.8,0.9c1.1,0,2.2-0.2,3.1-0.6c1-0.4,1.8-1,2.5-1.8l1.4,1.6c-0.8,1-1.8,1.7-3.1,2.2
		C52.5,104.2,51.2,104.4,49.7,104.4z"/>
	<path fill="#FFFFFF" d="M68,104.4c-1.5,0-3-0.2-4.3-0.6c-1.4-0.4-2.4-1-3.2-1.6l1.1-2c0.7,0.6,1.7,1,2.9,1.5
		c1.2,0.4,2.4,0.6,3.7,0.6c1.8,0,3-0.3,3.8-0.8c0.8-0.5,1.2-1.3,1.2-2.2c0-0.7-0.2-1.2-0.6-1.6c-0.4-0.4-1-0.7-1.7-0.9
		c-0.7-0.2-1.5-0.4-2.3-0.5s-1.7-0.3-2.6-0.5c-0.9-0.2-1.6-0.5-2.3-0.8c-0.7-0.4-1.3-0.9-1.7-1.5c-0.4-0.6-0.6-1.5-0.6-2.5
		c0-1,0.3-1.9,0.8-2.7c0.6-0.8,1.4-1.4,2.5-1.9c1.1-0.5,2.4-0.7,4-0.7c1.2,0,2.4,0.2,3.6,0.5c1.2,0.3,2.2,0.7,2.9,1.2l-1.1,2
		c-0.8-0.6-1.7-1-2.6-1.2c-0.9-0.2-1.9-0.4-2.8-0.4c-1.7,0-2.9,0.3-3.7,0.9c-0.8,0.6-1.2,1.3-1.2,2.2c0,0.7,0.2,1.2,0.6,1.6
		c0.4,0.4,1,0.7,1.7,0.9c0.7,0.2,1.5,0.4,2.3,0.5c0.9,0.1,1.7,0.3,2.6,0.5c0.9,0.2,1.6,0.5,2.3,0.8c0.7,0.3,1.3,0.8,1.7,1.4
		c0.4,0.6,0.6,1.4,0.6,2.4c0,1.1-0.3,2-0.9,2.8c-0.6,0.8-1.5,1.4-2.6,1.8C71,104.2,69.6,104.4,68,104.4z"/>
	<path fill="#FFFFFF" d="M80.1,111V85.9h2.4v5.5l-0.2,3.7l0.4,3.7V111H80.1z M89.6,104.4c-1.6,0-3-0.4-4.3-1.1
		c-1.3-0.7-2.3-1.8-3.1-3.2c-0.8-1.4-1.1-3.1-1.1-5.1c0-2,0.4-3.7,1.1-5.1c0.7-1.4,1.8-2.4,3-3.2s2.7-1.1,4.3-1.1
		c1.8,0,3.3,0.4,4.7,1.2c1.4,0.8,2.5,1.9,3.3,3.3c0.8,1.4,1.2,3,1.2,4.9c0,1.9-0.4,3.5-1.2,4.9c-0.8,1.4-1.9,2.5-3.3,3.3
		C92.9,104,91.4,104.4,89.6,104.4z M89.4,102.2c1.3,0,2.5-0.3,3.5-0.9c1-0.6,1.8-1.4,2.5-2.5c0.6-1.1,0.9-2.3,0.9-3.8
		c0-1.4-0.3-2.7-0.9-3.7c-0.6-1.1-1.4-1.9-2.5-2.5c-1-0.6-2.2-0.9-3.5-0.9c-1.3,0-2.5,0.3-3.5,0.9c-1,0.6-1.9,1.4-2.4,2.5
		c-0.6,1.1-0.9,2.3-0.9,3.7c0,1.4,0.3,2.7,0.9,3.8c0.6,1.1,1.4,1.9,2.4,2.5C87,101.9,88.1,102.2,89.4,102.2z"/>
	<path fill="#FFFFFF" d="M111.4,104.4c-1.8,0-3.4-0.4-4.8-1.2c-1.4-0.8-2.5-1.9-3.3-3.3c-0.8-1.4-1.2-3-1.2-4.8
		c0-1.8,0.4-3.5,1.2-4.9c0.8-1.4,1.9-2.5,3.3-3.3c1.4-0.8,3-1.2,4.8-1.2c1.8,0,3.4,0.4,4.8,1.2c1.4,0.8,2.5,1.9,3.3,3.3
		c0.8,1.4,1.2,3,1.2,4.9c0,1.8-0.4,3.4-1.2,4.8c-0.8,1.4-1.9,2.5-3.3,3.3C114.8,104,113.1,104.4,111.4,104.4z M111.4,102.2
		c1.3,0,2.5-0.3,3.5-0.9c1-0.6,1.8-1.4,2.4-2.5c0.6-1.1,0.9-2.3,0.9-3.8c0-1.4-0.3-2.7-0.9-3.8c-0.6-1.1-1.4-1.9-2.4-2.5
		c-1-0.6-2.2-0.9-3.5-0.9c-1.3,0-2.5,0.3-3.5,0.9c-1,0.6-1.8,1.4-2.5,2.5c-0.6,1.1-0.9,2.3-0.9,3.8c0,1.4,0.3,2.7,0.9,3.8
		c0.6,1.1,1.4,1.9,2.5,2.5C108.9,101.9,110.1,102.2,111.4,102.2z"/>
	<path fill="#FFFFFF" d="M135.2,85.7c1.5,0,2.8,0.3,3.9,0.9c1.1,0.6,2,1.4,2.7,2.6c0.6,1.2,1,2.6,1,4.4v10.7h-2.5V93.8
		c0-1.9-0.5-3.4-1.5-4.4s-2.3-1.5-4.1-1.5c-1.3,0-2.4,0.3-3.4,0.8c-1,0.5-1.7,1.3-2.2,2.3c-0.5,1-0.8,2.2-0.8,3.6v9.7h-2.5V85.9h2.4
		v5l-0.4-0.9c0.6-1.3,1.5-2.4,2.8-3.1C131.9,86.1,133.4,85.7,135.2,85.7z"/>
	<path fill="#FFFFFF" d="M154.4,104.4c-1.5,0-3-0.2-4.3-0.6c-1.4-0.4-2.4-1-3.2-1.6l1.1-2c0.7,0.6,1.7,1,2.9,1.5s2.4,0.6,3.7,0.6
		c1.8,0,3-0.3,3.8-0.8c0.8-0.5,1.2-1.3,1.2-2.2c0-0.7-0.2-1.2-0.6-1.6c-0.4-0.4-1-0.7-1.7-0.9c-0.7-0.2-1.5-0.4-2.3-0.5
		s-1.7-0.3-2.6-0.5c-0.9-0.2-1.6-0.5-2.3-0.8c-0.7-0.4-1.3-0.9-1.7-1.5c-0.4-0.6-0.6-1.5-0.6-2.5c0-1,0.3-1.9,0.8-2.7
		c0.6-0.8,1.4-1.4,2.5-1.9c1.1-0.5,2.4-0.7,4-0.7c1.2,0,2.4,0.2,3.6,0.5s2.2,0.7,2.9,1.2l-1.1,2c-0.8-0.6-1.7-1-2.6-1.2
		c-0.9-0.2-1.9-0.4-2.8-0.4c-1.7,0-2.9,0.3-3.7,0.9c-0.8,0.6-1.2,1.3-1.2,2.2c0,0.7,0.2,1.2,0.6,1.6c0.4,0.4,1,0.7,1.7,0.9
		c0.7,0.2,1.5,0.4,2.3,0.5c0.9,0.1,1.7,0.3,2.6,0.5c0.9,0.2,1.6,0.5,2.3,0.8c0.7,0.3,1.3,0.8,1.7,1.4c0.4,0.6,0.6,1.4,0.6,2.4
		c0,1.1-0.3,2-0.9,2.8c-0.6,0.8-1.5,1.4-2.6,1.8C157.4,104.2,156,104.4,154.4,104.4z"/>
	<path fill="#FFFFFF" d="M167.8,81.8c-0.5,0-0.9-0.2-1.3-0.5c-0.4-0.4-0.5-0.8-0.5-1.3c0-0.5,0.2-0.9,0.5-1.2
		c0.3-0.3,0.8-0.5,1.3-0.5c0.5,0,0.9,0.2,1.3,0.5c0.3,0.3,0.5,0.7,0.5,1.2c0,0.5-0.2,0.9-0.5,1.3C168.8,81.6,168.3,81.8,167.8,81.8z
		 M166.5,104.3V85.9h2.5v18.4H166.5z"/>
	<path fill="#FFFFFF" d="M180.7,104.3l-8.2-18.4h2.6l7.5,17h-1.2l7.6-17h2.5l-8.2,18.4H180.7z"/>
	<path fill="#FFFFFF" d="M202.2,104.4c-1.9,0-3.6-0.4-5-1.2c-1.4-0.8-2.6-1.9-3.4-3.3c-0.8-1.4-1.2-3-1.2-4.8c0-1.8,0.4-3.4,1.2-4.8
		c0.8-1.4,1.9-2.5,3.2-3.3c1.4-0.8,2.9-1.2,4.6-1.2c1.7,0,3.3,0.4,4.6,1.2s2.4,1.9,3.2,3.3c0.8,1.4,1.2,3,1.2,4.9c0,0.1,0,0.2,0,0.4
		c0,0.1,0,0.3,0,0.4h-16V94h14.7l-1,0.7c0-1.3-0.3-2.5-0.9-3.6c-0.6-1-1.3-1.8-2.3-2.4c-1-0.6-2.1-0.9-3.4-0.9
		c-1.3,0-2.4,0.3-3.4,0.9c-1,0.6-1.8,1.4-2.3,2.5c-0.6,1-0.8,2.3-0.8,3.6v0.4c0,1.4,0.3,2.6,0.9,3.7c0.6,1.1,1.5,1.9,2.6,2.5
		c1.1,0.6,2.4,0.9,3.8,0.9c1.1,0,2.2-0.2,3.1-0.6c1-0.4,1.8-1,2.5-1.8l1.4,1.6c-0.8,1-1.8,1.7-3.1,2.2
		C205,104.2,203.7,104.4,202.2,104.4z"/>
	<path fill="#FFFFFF" d="M214,109.4l1.5-6.5l0.3,1.5c-0.5,0-1-0.2-1.3-0.5c-0.4-0.4-0.5-0.8-0.5-1.4s0.2-1,0.5-1.4
		c0.4-0.3,0.8-0.5,1.3-0.5c0.5,0,1,0.2,1.3,0.6c0.3,0.4,0.5,0.8,0.5,1.3c0,0.2,0,0.4,0,0.6c0,0.2-0.1,0.4-0.1,0.6
		c-0.1,0.2-0.2,0.5-0.3,0.8l-1.5,4.8H214z"/>
	<path fill="#FFFFFF" d="M35.9,153.4c-1.6,0-2.9-0.3-4.1-0.9c-1.2-0.6-2.1-1.5-2.7-2.6c-0.6-1.2-1-2.6-1-4.4v-10.7h2.5v10.4
		c0,2,0.5,3.4,1.5,4.4c1,1,2.3,1.5,4.1,1.5c1.3,0,2.4-0.3,3.3-0.8s1.7-1.3,2.2-2.3c0.5-1,0.8-2.2,0.8-3.6v-9.6h2.5v18.4h-2.4v-5
		l0.4,0.9c-0.6,1.4-1.5,2.4-2.7,3.2C39,153.1,37.6,153.4,35.9,153.4z"/>
	<path fill="#FFFFFF" d="M56.8,153.4c-1.5,0-3-0.2-4.3-0.6c-1.4-0.4-2.4-1-3.2-1.6l1.1-2c0.7,0.6,1.7,1,2.9,1.5
		c1.2,0.4,2.4,0.6,3.7,0.6c1.8,0,3-0.3,3.8-0.8c0.8-0.5,1.2-1.3,1.2-2.2c0-0.7-0.2-1.2-0.6-1.6s-1-0.7-1.7-0.9s-1.5-0.4-2.3-0.5
		c-0.9-0.1-1.7-0.3-2.6-0.5c-0.9-0.2-1.6-0.5-2.3-0.8c-0.7-0.4-1.3-0.9-1.7-1.5c-0.4-0.6-0.6-1.5-0.6-2.5c0-1,0.3-1.9,0.8-2.7
		c0.6-0.8,1.4-1.4,2.5-1.9s2.4-0.7,4-0.7c1.2,0,2.4,0.2,3.6,0.5c1.2,0.3,2.2,0.7,2.9,1.2l-1.1,2c-0.8-0.6-1.7-1-2.6-1.2
		s-1.9-0.4-2.8-0.4c-1.7,0-2.9,0.3-3.7,0.9c-0.8,0.6-1.2,1.3-1.2,2.2c0,0.7,0.2,1.2,0.6,1.6c0.4,0.4,1,0.7,1.7,0.9
		c0.7,0.2,1.5,0.4,2.3,0.5c0.9,0.1,1.7,0.3,2.6,0.5c0.9,0.2,1.6,0.5,2.3,0.8c0.7,0.3,1.3,0.8,1.7,1.4c0.4,0.6,0.6,1.4,0.6,2.4
		c0,1.1-0.3,2-0.9,2.8c-0.6,0.8-1.5,1.4-2.6,1.8C59.8,153.2,58.4,153.4,56.8,153.4z"/>
	<path fill="#FFFFFF" d="M76.7,153.4c-1.9,0-3.6-0.4-5-1.2c-1.4-0.8-2.6-1.9-3.4-3.3c-0.8-1.4-1.2-3-1.2-4.8s0.4-3.4,1.2-4.8
		c0.8-1.4,1.9-2.5,3.2-3.3c1.4-0.8,2.9-1.2,4.6-1.2c1.7,0,3.3,0.4,4.6,1.2c1.3,0.8,2.4,1.9,3.2,3.3c0.8,1.4,1.2,3,1.2,4.9
		c0,0.1,0,0.2,0,0.4c0,0.1,0,0.3,0,0.4H69V143h14.7l-1,0.7c0-1.3-0.3-2.5-0.9-3.6c-0.6-1-1.3-1.8-2.3-2.4c-1-0.6-2.1-0.9-3.4-0.9
		c-1.3,0-2.4,0.3-3.4,0.9c-1,0.6-1.8,1.4-2.3,2.5c-0.6,1-0.8,2.3-0.8,3.6v0.4c0,1.4,0.3,2.6,0.9,3.7c0.6,1.1,1.5,1.9,2.6,2.5
		c1.1,0.6,2.4,0.9,3.8,0.9c1.1,0,2.2-0.2,3.1-0.6c1-0.4,1.8-1,2.5-1.8l1.4,1.6c-0.8,1-1.8,1.7-3.1,2.2S78.2,153.4,76.7,153.4z"/>
	<path fill="#FFFFFF" d="M90.1,153.3v-18.4h2.4v5l-0.2-0.9c0.5-1.4,1.4-2.5,2.6-3.2c1.2-0.7,2.7-1.1,4.5-1.1v2.4c-0.1,0-0.2,0-0.3,0
		s-0.2,0-0.3,0c-1.9,0-3.5,0.6-4.5,1.8c-1.1,1.2-1.6,2.9-1.6,5v9.4H90.1z"/>
	<path fill="#FFFFFF" d="M102.4,144.9v-2.2h9.2v2.2H102.4z"/>
	<path fill="#FFFFFF" d="M114.2,136.9v-2.1h11.4v2.1H114.2z M117.5,153.3v-20.7c0-1.6,0.5-3,1.4-4c1-1,2.3-1.5,4.1-1.5
		c0.7,0,1.4,0.1,2,0.3c0.7,0.2,1.2,0.5,1.6,0.9l-0.8,1.9c-0.4-0.3-0.8-0.5-1.2-0.7c-0.5-0.2-1-0.2-1.5-0.2c-1.1,0-1.9,0.3-2.4,0.9
		s-0.8,1.4-0.8,2.6v2.8l0.1,1.2v16.6H117.5z"/>
	<path fill="#FFFFFF" d="M129,153.3v-18.4h2.4v5l-0.2-0.9c0.5-1.4,1.4-2.5,2.6-3.2c1.2-0.7,2.7-1.1,4.5-1.1v2.4c-0.1,0-0.2,0-0.3,0
		s-0.2,0-0.3,0c-1.9,0-3.5,0.6-4.5,1.8c-1.1,1.2-1.6,2.9-1.6,5v9.4H129z"/>
	<path fill="#FFFFFF" d="M144,130.8c-0.5,0-0.9-0.2-1.3-0.5c-0.4-0.3-0.5-0.8-0.5-1.3c0-0.5,0.2-0.9,0.5-1.2
		c0.3-0.3,0.8-0.5,1.3-0.5c0.5,0,0.9,0.2,1.3,0.5c0.4,0.3,0.5,0.7,0.5,1.2c0,0.5-0.2,0.9-0.5,1.3S144.5,130.8,144,130.8z
		 M142.7,153.3v-18.4h2.5v18.4H142.7z"/>
	<path fill="#FFFFFF" d="M159.9,153.4c-1.9,0-3.6-0.4-5-1.2c-1.4-0.8-2.6-1.9-3.4-3.3c-0.8-1.4-1.2-3-1.2-4.8s0.4-3.4,1.2-4.8
		c0.8-1.4,1.9-2.5,3.2-3.3c1.4-0.8,2.9-1.2,4.6-1.2c1.7,0,3.3,0.4,4.6,1.2c1.3,0.8,2.4,1.9,3.2,3.3c0.8,1.4,1.2,3,1.2,4.9
		c0,0.1,0,0.2,0,0.4c0,0.1,0,0.3,0,0.4h-16V143h14.7l-1,0.7c0-1.3-0.3-2.5-0.9-3.6c-0.6-1-1.3-1.8-2.3-2.4c-1-0.6-2.1-0.9-3.4-0.9
		c-1.3,0-2.4,0.3-3.4,0.9c-1,0.6-1.8,1.4-2.3,2.5c-0.6,1-0.8,2.3-0.8,3.6v0.4c0,1.4,0.3,2.6,0.9,3.7s1.5,1.9,2.6,2.5
		c1.1,0.6,2.4,0.9,3.8,0.9c1.1,0,2.2-0.2,3.1-0.6c1-0.4,1.8-1,2.5-1.8l1.4,1.6c-0.8,1-1.8,1.7-3.1,2.2
		C162.7,153.2,161.4,153.4,159.9,153.4z"/>
	<path fill="#FFFFFF" d="M182.6,134.7c1.5,0,2.8,0.3,3.9,0.9c1.1,0.6,2,1.4,2.7,2.6c0.6,1.2,1,2.6,1,4.4v10.7h-2.5v-10.4
		c0-1.9-0.5-3.4-1.5-4.4c-1-1-2.3-1.5-4.1-1.5c-1.3,0-2.4,0.3-3.4,0.8c-1,0.5-1.7,1.3-2.2,2.3c-0.5,1-0.8,2.2-0.8,3.6v9.7h-2.5
		v-18.4h2.4v5l-0.4-0.9c0.6-1.3,1.5-2.4,2.8-3.1C179.3,135.1,180.9,134.7,182.6,134.7z"/>
	<path fill="#FFFFFF" d="M204.2,153.4c-1.8,0-3.3-0.4-4.7-1.2c-1.4-0.8-2.5-1.9-3.3-3.3s-1.2-3-1.2-4.9c0-1.9,0.4-3.5,1.2-4.9
		c0.8-1.4,1.9-2.5,3.3-3.3c1.4-0.8,3-1.2,4.7-1.2c1.6,0,3.1,0.4,4.3,1.1c1.3,0.7,2.3,1.8,3,3.2c0.8,1.4,1.1,3.1,1.1,5.1
		c0,2-0.4,3.7-1.1,5.1c-0.7,1.4-1.8,2.5-3,3.2C207.3,153.1,205.9,153.4,204.2,153.4z M204.4,151.2c1.3,0,2.5-0.3,3.5-0.9
		c1-0.6,1.9-1.4,2.5-2.5s0.9-2.3,0.9-3.8c0-1.4-0.3-2.7-0.9-3.8c-0.6-1.1-1.4-1.9-2.5-2.5s-2.2-0.9-3.5-0.9c-1.3,0-2.4,0.3-3.5,0.9
		c-1,0.6-1.8,1.4-2.5,2.5c-0.6,1.1-0.9,2.3-0.9,3.8c0,1.4,0.3,2.7,0.9,3.8s1.4,1.9,2.5,2.5C202,150.9,203.1,151.2,204.4,151.2z
		 M211.3,153.3v-5.5l0.2-3.7l-0.3-3.7v-13h2.5v26H211.3z"/>
	<path fill="#FFFFFF" d="M220.7,153.3v-26h2.5v26H220.7z"/>
	<path fill="#FFFFFF" d="M230.2,160.2c-0.9,0-1.7-0.1-2.5-0.4c-0.8-0.3-1.5-0.7-2-1.3l1.2-1.9c0.5,0.4,1,0.8,1.5,1
		c0.5,0.2,1.2,0.4,1.8,0.4c0.8,0,1.5-0.2,2.1-0.7s1.2-1.3,1.7-2.4l1.2-2.7l0.3-0.4l7.6-17h2.5l-9.2,20.6c-0.5,1.2-1.1,2.1-1.7,2.8
		c-0.6,0.7-1.3,1.2-2,1.5C231.9,160.1,231.1,160.2,230.2,160.2z M235.1,153.8l-8.5-18.9h2.6l7.5,16.9L235.1,153.8z"/>
	<path fill="#FFFFFF" d="M32.1,202.3l-6.9-18.4h2.4l6.3,17h-1.1l6.5-17h2.1l6.4,17h-1.1l6.4-17h2.3l-7,18.4H46l-6.2-16h0.7l-6.2,16
		H32.1z"/>
	<path fill="#FFFFFF" d="M66.4,202.4c-1.9,0-3.6-0.4-5-1.2c-1.4-0.8-2.6-1.9-3.4-3.3c-0.8-1.4-1.2-3-1.2-4.8s0.4-3.4,1.2-4.8
		c0.8-1.4,1.9-2.5,3.2-3.3c1.4-0.8,2.9-1.2,4.6-1.2c1.7,0,3.3,0.4,4.6,1.2c1.3,0.8,2.4,1.9,3.2,3.3c0.8,1.4,1.2,3,1.2,4.9
		c0,0.1,0,0.2,0,0.4c0,0.1,0,0.3,0,0.4h-16V192h14.7l-1,0.7c0-1.3-0.3-2.5-0.9-3.6c-0.6-1-1.3-1.8-2.3-2.4c-1-0.6-2.1-0.9-3.4-0.9
		c-1.3,0-2.4,0.3-3.4,0.9c-1,0.6-1.8,1.4-2.3,2.5c-0.6,1-0.8,2.3-0.8,3.6v0.4c0,1.4,0.3,2.6,0.9,3.7c0.6,1.1,1.5,1.9,2.6,2.5
		c1.1,0.6,2.4,0.9,3.8,0.9c1.1,0,2.2-0.2,3.1-0.6c1-0.4,1.8-1,2.5-1.8l1.4,1.6c-0.8,1-1.8,1.7-3.1,2.2S67.8,202.4,66.4,202.4z"/>
	<path fill="#FFFFFF" d="M79.7,202.3v-26h2.5v13l-0.4,3.7l0.2,3.7v5.5H79.7z M89.2,202.4c-1.6,0-3.1-0.4-4.3-1.1
		c-1.3-0.7-2.3-1.8-3-3.2c-0.7-1.4-1.1-3.1-1.1-5.1c0-2,0.4-3.7,1.1-5.1c0.8-1.4,1.8-2.4,3.1-3.2c1.3-0.7,2.7-1.1,4.3-1.1
		c1.8,0,3.3,0.4,4.7,1.2c1.4,0.8,2.5,1.9,3.3,3.3c0.8,1.4,1.2,3,1.2,4.9c0,1.8-0.4,3.5-1.2,4.9c-0.8,1.4-1.9,2.5-3.3,3.3
		C92.5,202,90.9,202.4,89.2,202.4z M89,200.2c1.3,0,2.5-0.3,3.5-0.9c1-0.6,1.8-1.4,2.5-2.5c0.6-1.1,0.9-2.3,0.9-3.8
		c0-1.4-0.3-2.7-0.9-3.8c-0.6-1.1-1.4-1.9-2.5-2.5c-1-0.6-2.2-0.9-3.5-0.9c-1.3,0-2.5,0.3-3.5,0.9c-1,0.6-1.9,1.4-2.4,2.5
		c-0.6,1.1-0.9,2.3-0.9,3.8c0,1.4,0.3,2.7,0.9,3.8c0.6,1.1,1.4,1.9,2.4,2.5C86.5,199.9,87.7,200.2,89,200.2z"/>
	<path fill="#FFFFFF" d="M108.4,202.4c-1.5,0-3-0.2-4.3-0.6c-1.4-0.4-2.4-1-3.2-1.6l1.1-2c0.7,0.6,1.7,1,2.9,1.5
		c1.2,0.4,2.4,0.6,3.7,0.6c1.8,0,3-0.3,3.8-0.8c0.8-0.5,1.2-1.3,1.2-2.2c0-0.7-0.2-1.2-0.6-1.6s-1-0.7-1.7-0.9s-1.5-0.4-2.3-0.5
		c-0.9-0.1-1.7-0.3-2.6-0.5c-0.9-0.2-1.6-0.5-2.3-0.8c-0.7-0.4-1.3-0.9-1.7-1.5c-0.4-0.6-0.6-1.5-0.6-2.5c0-1,0.3-1.9,0.8-2.7
		c0.6-0.8,1.4-1.4,2.5-1.9s2.4-0.7,4-0.7c1.2,0,2.4,0.2,3.6,0.5c1.2,0.3,2.2,0.7,2.9,1.2l-1.1,2c-0.8-0.6-1.7-1-2.6-1.2
		s-1.9-0.4-2.8-0.4c-1.7,0-2.9,0.3-3.7,0.9c-0.8,0.6-1.2,1.3-1.2,2.2c0,0.7,0.2,1.2,0.6,1.6c0.4,0.4,1,0.7,1.7,0.9
		c0.7,0.2,1.5,0.4,2.3,0.5c0.9,0.1,1.7,0.3,2.6,0.5c0.9,0.2,1.6,0.5,2.3,0.8c0.7,0.3,1.3,0.8,1.7,1.4c0.4,0.6,0.6,1.4,0.6,2.4
		c0,1.1-0.3,2-0.9,2.8c-0.6,0.8-1.5,1.4-2.6,1.8C111.4,202.2,110,202.4,108.4,202.4z"/>
	<path fill="#FFFFFF" d="M121.8,179.8c-0.5,0-0.9-0.2-1.3-0.5c-0.4-0.3-0.5-0.8-0.5-1.3c0-0.5,0.2-0.9,0.5-1.2
		c0.3-0.3,0.8-0.5,1.3-0.5c0.5,0,0.9,0.2,1.3,0.5c0.4,0.3,0.5,0.7,0.5,1.2c0,0.5-0.2,0.9-0.5,1.3
		C122.8,179.6,122.3,179.8,121.8,179.8z M120.5,202.3v-18.4h2.5v18.4H120.5z"/>
	<path fill="#FFFFFF" d="M127.1,185.9v-2.1h11.4v2.1H127.1z M135.7,202.4c-1.7,0-3.1-0.5-4-1.4c-0.9-0.9-1.4-2.3-1.4-4v-17.3h2.5
		v17.1c0,1.1,0.3,1.9,0.8,2.5c0.5,0.6,1.3,0.9,2.4,0.9c1.1,0,2-0.3,2.7-0.9l0.9,1.8c-0.5,0.4-1.1,0.8-1.8,1
		C137.2,202.3,136.5,202.4,135.7,202.4z"/>
	<path fill="#FFFFFF" d="M151.3,202.4c-1.9,0-3.6-0.4-5-1.2c-1.4-0.8-2.6-1.9-3.4-3.3c-0.8-1.4-1.2-3-1.2-4.8s0.4-3.4,1.2-4.8
		c0.8-1.4,1.9-2.5,3.2-3.3c1.4-0.8,2.9-1.2,4.6-1.2c1.7,0,3.3,0.4,4.6,1.2c1.3,0.8,2.4,1.9,3.2,3.3c0.8,1.4,1.2,3,1.2,4.9
		c0,0.1,0,0.2,0,0.4c0,0.1,0,0.3,0,0.4h-16V192h14.7l-1,0.7c0-1.3-0.3-2.5-0.9-3.6c-0.6-1-1.3-1.8-2.3-2.4c-1-0.6-2.1-0.9-3.4-0.9
		c-1.3,0-2.4,0.3-3.4,0.9c-1,0.6-1.8,1.4-2.3,2.5s-0.8,2.3-0.8,3.6v0.4c0,1.4,0.3,2.6,0.9,3.7c0.6,1.1,1.5,1.9,2.6,2.5
		c1.1,0.6,2.4,0.9,3.8,0.9c1.1,0,2.2-0.2,3.1-0.6c1-0.4,1.8-1,2.5-1.8l1.4,1.6c-0.8,1-1.8,1.7-3.1,2.2
		C154.1,202.2,152.8,202.4,151.3,202.4z"/>
	<path fill="#FFFFFF" d="M169.6,202.4c-1.5,0-3-0.2-4.3-0.6c-1.4-0.4-2.4-1-3.2-1.6l1.1-2c0.7,0.6,1.7,1,2.9,1.5s2.4,0.6,3.7,0.6
		c1.8,0,3-0.3,3.8-0.8c0.8-0.5,1.2-1.3,1.2-2.2c0-0.7-0.2-1.2-0.6-1.6s-1-0.7-1.7-0.9s-1.5-0.4-2.3-0.5c-0.9-0.1-1.7-0.3-2.6-0.5
		s-1.6-0.5-2.3-0.8c-0.7-0.4-1.3-0.9-1.7-1.5c-0.4-0.6-0.6-1.5-0.6-2.5c0-1,0.3-1.9,0.8-2.7c0.6-0.8,1.4-1.4,2.5-1.9s2.4-0.7,4-0.7
		c1.2,0,2.4,0.2,3.6,0.5c1.2,0.3,2.2,0.7,2.9,1.2l-1.1,2c-0.8-0.6-1.7-1-2.6-1.2c-0.9-0.2-1.9-0.4-2.8-0.4c-1.7,0-2.9,0.3-3.7,0.9
		c-0.8,0.6-1.2,1.3-1.2,2.2c0,0.7,0.2,1.2,0.6,1.6s1,0.7,1.7,0.9c0.7,0.2,1.5,0.4,2.3,0.5c0.9,0.1,1.7,0.3,2.6,0.5s1.6,0.5,2.3,0.8
		c0.7,0.3,1.3,0.8,1.7,1.4c0.4,0.6,0.6,1.4,0.6,2.4c0,1.1-0.3,2-0.9,2.8c-0.6,0.8-1.5,1.4-2.6,1.8
		C172.5,202.2,171.2,202.4,169.6,202.4z"/>
	<path fill="#FFFFFF" d="M25.5,234.9v-2.1h11.4v2.1H25.5z M34.1,251.4c-1.7,0-3.1-0.5-4-1.4c-0.9-0.9-1.4-2.3-1.4-4v-17.3h2.5v17.1
		c0,1.1,0.3,1.9,0.8,2.5c0.5,0.6,1.3,0.9,2.4,0.9c1.1,0,2-0.3,2.7-0.9l0.9,1.8c-0.5,0.4-1.1,0.8-1.8,1
		C35.6,251.3,34.9,251.4,34.1,251.4z"/>
	<path fill="#FFFFFF" d="M47.7,251.4c-1.4,0-2.6-0.2-3.6-0.7c-1-0.5-1.8-1.1-2.3-1.9c-0.5-0.8-0.8-1.7-0.8-2.8c0-1,0.2-1.8,0.7-2.6
		c0.5-0.8,1.2-1.4,2.2-1.9c1-0.5,2.4-0.7,4.2-0.7h6.3v1.9h-6.3c-1.8,0-3,0.3-3.7,0.9c-0.7,0.6-1,1.4-1,2.3c0,1,0.4,1.9,1.2,2.5
		c0.8,0.6,2,0.9,3.4,0.9c1.4,0,2.6-0.3,3.6-1c1-0.6,1.8-1.6,2.2-2.8l0.6,1.7c-0.5,1.2-1.3,2.2-2.4,2.9
		C50.9,251.1,49.5,251.4,47.7,251.4z M54.1,251.3v-4.1l-0.1-0.7v-6.8c0-1.6-0.4-2.8-1.3-3.6s-2.2-1.3-3.9-1.3
		c-1.2,0-2.3,0.2-3.4,0.6c-1.1,0.4-2,0.9-2.7,1.6l-1.1-1.9c0.9-0.8,2.1-1.4,3.4-1.8c1.3-0.4,2.7-0.6,4.1-0.6c2.4,0,4.2,0.6,5.5,1.8
		s1.9,3,1.9,5.4v11.4H54.1z"/>
	<path fill="#FFFFFF" d="M64.5,228.8c-0.5,0-0.9-0.2-1.3-0.5c-0.4-0.3-0.5-0.8-0.5-1.3c0-0.5,0.2-0.9,0.5-1.2
		c0.3-0.3,0.8-0.5,1.3-0.5c0.5,0,0.9,0.2,1.3,0.5c0.4,0.3,0.5,0.7,0.5,1.2c0,0.5-0.2,0.9-0.5,1.3C65.4,228.6,65,228.8,64.5,228.8z
		 M63.2,251.3v-18.4h2.5v18.4H63.2z"/>
	<path fill="#FFFFFF" d="M72.6,251.3v-26h2.5v26H72.6z"/>
	<path fill="#FFFFFF" d="M89.5,251.4c-1.8,0-3.4-0.4-4.8-1.2c-1.4-0.8-2.5-1.9-3.3-3.3c-0.8-1.4-1.2-3-1.2-4.8
		c0-1.8,0.4-3.5,1.2-4.9c0.8-1.4,1.9-2.5,3.3-3.3c1.4-0.8,3-1.2,4.8-1.2c1.8,0,3.4,0.4,4.8,1.2c1.4,0.8,2.5,1.9,3.3,3.3
		c0.8,1.4,1.2,3,1.2,4.9c0,1.8-0.4,3.4-1.2,4.8c-0.8,1.4-1.9,2.5-3.3,3.3C92.9,251,91.3,251.4,89.5,251.4z M89.5,249.2
		c1.3,0,2.5-0.3,3.5-0.9c1-0.6,1.8-1.4,2.4-2.5c0.6-1.1,0.9-2.3,0.9-3.8c0-1.4-0.3-2.7-0.9-3.8c-0.6-1.1-1.4-1.9-2.4-2.5
		c-1-0.6-2.2-0.9-3.5-0.9c-1.3,0-2.5,0.3-3.5,0.9c-1,0.6-1.8,1.4-2.5,2.5c-0.6,1.1-0.9,2.3-0.9,3.8c0,1.4,0.3,2.7,0.9,3.8
		c0.6,1.1,1.4,1.9,2.5,2.5C87.1,248.9,88.2,249.2,89.5,249.2z"/>
	<path fill="#FFFFFF" d="M104,251.3v-18.4h2.4v5l-0.2-0.9c0.5-1.4,1.4-2.5,2.6-3.2c1.2-0.7,2.7-1.1,4.5-1.1v2.4c-0.1,0-0.2,0-0.3,0
		s-0.2,0-0.3,0c-1.9,0-3.5,0.6-4.5,1.8c-1.1,1.2-1.6,2.9-1.6,5v9.4H104z"/>
	<path fill="#FFFFFF" d="M125.4,251.4c-1.9,0-3.6-0.4-5-1.2c-1.4-0.8-2.6-1.9-3.4-3.3c-0.8-1.4-1.2-3-1.2-4.8s0.4-3.4,1.2-4.8
		c0.8-1.4,1.9-2.5,3.2-3.3c1.4-0.8,2.9-1.2,4.6-1.2c1.7,0,3.3,0.4,4.6,1.2c1.3,0.8,2.4,1.9,3.2,3.3c0.8,1.4,1.2,3,1.2,4.9
		c0,0.1,0,0.2,0,0.4c0,0.1,0,0.3,0,0.4h-16V241h14.7l-1,0.7c0-1.3-0.3-2.5-0.9-3.6c-0.6-1-1.3-1.8-2.3-2.4c-1-0.6-2.1-0.9-3.4-0.9
		c-1.3,0-2.4,0.3-3.4,0.9c-1,0.6-1.8,1.4-2.3,2.5c-0.6,1-0.8,2.3-0.8,3.6v0.4c0,1.4,0.3,2.6,0.9,3.7c0.6,1.1,1.5,1.9,2.6,2.5
		c1.1,0.6,2.4,0.9,3.8,0.9c1.1,0,2.2-0.2,3.1-0.6c1-0.4,1.8-1,2.5-1.8l1.4,1.6c-0.8,1-1.8,1.7-3.1,2.2S126.8,251.4,125.4,251.4z"/>
	<path fill="#FFFFFF" d="M146,251.4c-1.8,0-3.3-0.4-4.7-1.2s-2.5-1.9-3.3-3.3c-0.8-1.4-1.2-3-1.2-4.9c0-1.9,0.4-3.5,1.2-4.9
		c0.8-1.4,1.9-2.5,3.3-3.3c1.4-0.8,3-1.2,4.7-1.2c1.6,0,3.1,0.4,4.3,1.1c1.3,0.7,2.3,1.8,3,3.2c0.8,1.4,1.1,3.1,1.1,5.1
		c0,2-0.4,3.7-1.1,5.1c-0.7,1.4-1.8,2.5-3,3.2C149.1,251.1,147.6,251.4,146,251.4z M146.2,249.2c1.3,0,2.5-0.3,3.5-0.9
		c1-0.6,1.9-1.4,2.5-2.5s0.9-2.3,0.9-3.8c0-1.4-0.3-2.7-0.9-3.8c-0.6-1.1-1.4-1.9-2.5-2.5s-2.2-0.9-3.5-0.9c-1.3,0-2.4,0.3-3.5,0.9
		c-1,0.6-1.8,1.4-2.5,2.5c-0.6,1.1-0.9,2.3-0.9,3.8c0,1.4,0.3,2.7,0.9,3.8c0.6,1.1,1.4,1.9,2.5,2.5
		C143.7,248.9,144.9,249.2,146.2,249.2z M153.1,251.3v-5.5l0.2-3.7l-0.3-3.7v-13h2.5v26H153.1z"/>
	<path fill="#FFFFFF" d="M168.7,234.9v-2.1h11.4v2.1H168.7z M177.4,251.4c-1.7,0-3.1-0.5-4-1.4c-0.9-0.9-1.4-2.3-1.4-4v-17.3h2.5
		v17.1c0,1.1,0.3,1.9,0.8,2.5s1.3,0.9,2.4,0.9c1.1,0,2-0.3,2.7-0.9l0.9,1.8c-0.5,0.4-1.1,0.8-1.8,1S178.1,251.4,177.4,251.4z"/>
	<path fill="#FFFFFF" d="M192.6,251.4c-1.8,0-3.4-0.4-4.8-1.2c-1.4-0.8-2.5-1.9-3.3-3.3c-0.8-1.4-1.2-3-1.2-4.8
		c0-1.8,0.4-3.5,1.2-4.9c0.8-1.4,1.9-2.5,3.3-3.3c1.4-0.8,3-1.2,4.8-1.2c1.8,0,3.4,0.4,4.8,1.2c1.4,0.8,2.5,1.9,3.3,3.3
		c0.8,1.4,1.2,3,1.2,4.9c0,1.8-0.4,3.4-1.2,4.8c-0.8,1.4-1.9,2.5-3.3,3.3C196,251,194.4,251.4,192.6,251.4z M192.6,249.2
		c1.3,0,2.5-0.3,3.5-0.9c1-0.6,1.8-1.4,2.4-2.5s0.9-2.3,0.9-3.8c0-1.4-0.3-2.7-0.9-3.8c-0.6-1.1-1.4-1.9-2.4-2.5
		c-1-0.6-2.2-0.9-3.5-0.9s-2.5,0.3-3.5,0.9c-1,0.6-1.8,1.4-2.5,2.5c-0.6,1.1-0.9,2.3-0.9,3.8c0,1.4,0.3,2.7,0.9,3.8s1.4,1.9,2.5,2.5
		C190.2,248.9,191.3,249.2,192.6,249.2z"/>
	<path fill="#FFFFFF" d="M28.5,307.2c-0.9,0-1.7-0.1-2.5-0.4c-0.8-0.3-1.5-0.7-2-1.3l1.2-1.9c0.5,0.4,1,0.8,1.5,1
		c0.5,0.2,1.2,0.4,1.8,0.4c0.8,0,1.5-0.2,2.1-0.7c0.6-0.5,1.2-1.3,1.7-2.4l1.2-2.7l0.3-0.4l7.6-17h2.5l-9.2,20.6
		c-0.5,1.2-1.1,2.1-1.7,2.8c-0.6,0.7-1.3,1.2-2,1.5C30.2,307.1,29.4,307.2,28.5,307.2z M33.4,300.8l-8.5-18.9h2.6l7.5,16.9
		L33.4,300.8z"/>
	<path fill="#FFFFFF" d="M54.3,300.4c-1.8,0-3.4-0.4-4.8-1.2c-1.4-0.8-2.5-1.9-3.3-3.3c-0.8-1.4-1.2-3-1.2-4.8
		c0-1.8,0.4-3.5,1.2-4.9c0.8-1.4,1.9-2.5,3.3-3.3c1.4-0.8,3-1.2,4.8-1.2c1.8,0,3.4,0.4,4.8,1.2c1.4,0.8,2.5,1.9,3.3,3.3
		c0.8,1.4,1.2,3,1.2,4.9c0,1.8-0.4,3.4-1.2,4.8c-0.8,1.4-1.9,2.5-3.3,3.3C57.7,300,56.1,300.4,54.3,300.4z M54.3,298.2
		c1.3,0,2.5-0.3,3.5-0.9c1-0.6,1.8-1.4,2.4-2.5c0.6-1.1,0.9-2.3,0.9-3.8c0-1.4-0.3-2.7-0.9-3.8c-0.6-1.1-1.4-1.9-2.4-2.5
		c-1-0.6-2.2-0.9-3.5-0.9c-1.3,0-2.5,0.3-3.5,0.9c-1,0.6-1.8,1.4-2.5,2.5c-0.6,1.1-0.9,2.3-0.9,3.8c0,1.4,0.3,2.7,0.9,3.8
		c0.6,1.1,1.4,1.9,2.5,2.5C51.8,297.9,53,298.2,54.3,298.2z"/>
	<path fill="#FFFFFF" d="M76.3,300.4c-1.6,0-2.9-0.3-4.1-0.9c-1.2-0.6-2.1-1.5-2.7-2.6c-0.6-1.2-1-2.6-1-4.4v-10.7H71v10.4
		c0,2,0.5,3.4,1.5,4.4c1,1,2.3,1.5,4.1,1.5c1.3,0,2.4-0.3,3.3-0.8s1.7-1.3,2.2-2.3c0.5-1,0.8-2.2,0.8-3.6v-9.6h2.5v18.4h-2.4v-5
		l0.4,0.9c-0.6,1.4-1.5,2.4-2.7,3.2C79.4,300.1,78,300.4,76.3,300.4z"/>
	<path fill="#FFFFFF" d="M92.2,300.3v-18.4h2.4v5l-0.2-0.9c0.5-1.4,1.4-2.5,2.6-3.2c1.2-0.7,2.7-1.1,4.5-1.1v2.4c-0.1,0-0.2,0-0.3,0
		s-0.2,0-0.3,0c-1.9,0-3.5,0.6-4.5,1.8c-1.1,1.2-1.6,2.9-1.6,5v9.4H92.2z"/>
	<path fill="#FFFFFF" d="M115.4,300.3v-26h2.5v13l-0.4,3.7l0.2,3.7v5.5H115.4z M124.9,300.4c-1.6,0-3.1-0.4-4.3-1.1
		c-1.3-0.7-2.3-1.8-3-3.2c-0.7-1.4-1.1-3.1-1.1-5.1c0-2,0.4-3.7,1.1-5.1c0.8-1.4,1.8-2.4,3.1-3.2c1.3-0.7,2.7-1.1,4.3-1.1
		c1.8,0,3.3,0.4,4.7,1.2c1.4,0.8,2.5,1.9,3.3,3.3c0.8,1.4,1.2,3,1.2,4.9c0,1.8-0.4,3.5-1.2,4.9c-0.8,1.4-1.9,2.5-3.3,3.3
		C128.3,300,126.7,300.4,124.9,300.4z M124.8,298.2c1.3,0,2.5-0.3,3.5-0.9c1-0.6,1.8-1.4,2.5-2.5c0.6-1.1,0.9-2.3,0.9-3.8
		c0-1.4-0.3-2.7-0.9-3.8c-0.6-1.1-1.4-1.9-2.5-2.5c-1-0.6-2.2-0.9-3.5-0.9c-1.3,0-2.5,0.3-3.5,0.9c-1,0.6-1.9,1.4-2.4,2.5
		c-0.6,1.1-0.9,2.3-0.9,3.8c0,1.4,0.3,2.7,0.9,3.8c0.6,1.1,1.4,1.9,2.4,2.5C122.3,297.9,123.5,298.2,124.8,298.2z"/>
	<path fill="#FFFFFF" d="M146.8,300.4c-1.6,0-2.9-0.3-4.1-0.9c-1.2-0.6-2.1-1.5-2.7-2.6c-0.6-1.2-1-2.6-1-4.4v-10.7h2.5v10.4
		c0,2,0.5,3.4,1.5,4.4c1,1,2.3,1.5,4.1,1.5c1.3,0,2.4-0.3,3.3-0.8c0.9-0.5,1.7-1.3,2.2-2.3c0.5-1,0.8-2.2,0.8-3.6v-9.6h2.5v18.4
		h-2.4v-5l0.4,0.9c-0.6,1.4-1.5,2.4-2.7,3.2C149.8,300.1,148.4,300.4,146.8,300.4z"/>
	<path fill="#FFFFFF" d="M167.6,300.4c-1.5,0-3-0.2-4.3-0.6c-1.4-0.4-2.4-1-3.2-1.6l1.1-2c0.7,0.6,1.7,1,2.9,1.5
		c1.2,0.4,2.4,0.6,3.7,0.6c1.8,0,3-0.3,3.8-0.8c0.8-0.5,1.2-1.3,1.2-2.2c0-0.7-0.2-1.2-0.6-1.6s-1-0.7-1.7-0.9s-1.5-0.4-2.3-0.5
		c-0.9-0.1-1.7-0.3-2.6-0.5c-0.9-0.2-1.6-0.5-2.3-0.8c-0.7-0.4-1.3-0.9-1.7-1.5s-0.6-1.5-0.6-2.5c0-1,0.3-1.9,0.8-2.7
		c0.6-0.8,1.4-1.4,2.5-1.9s2.4-0.7,4-0.7c1.2,0,2.4,0.2,3.6,0.5c1.2,0.3,2.2,0.7,2.9,1.2l-1.1,2c-0.8-0.6-1.7-1-2.6-1.2
		c-0.9-0.2-1.9-0.4-2.8-0.4c-1.7,0-2.9,0.3-3.7,0.9c-0.8,0.6-1.2,1.3-1.2,2.2c0,0.7,0.2,1.2,0.6,1.6c0.4,0.4,1,0.7,1.7,0.9
		c0.7,0.2,1.5,0.4,2.3,0.5s1.7,0.3,2.6,0.5c0.9,0.2,1.6,0.5,2.3,0.8c0.7,0.3,1.3,0.8,1.7,1.4c0.4,0.6,0.6,1.4,0.6,2.4
		c0,1.1-0.3,2-0.9,2.8c-0.6,0.8-1.5,1.4-2.6,1.8C170.6,300.2,169.2,300.4,167.6,300.4z"/>
	<path fill="#FFFFFF" d="M181,277.8c-0.5,0-0.9-0.2-1.3-0.5s-0.5-0.8-0.5-1.3c0-0.5,0.2-0.9,0.5-1.2c0.3-0.3,0.8-0.5,1.3-0.5
		c0.5,0,0.9,0.2,1.3,0.5c0.4,0.3,0.5,0.7,0.5,1.2c0,0.5-0.2,0.9-0.5,1.3S181.6,277.8,181,277.8z M179.8,300.3v-18.4h2.5v18.4H179.8z
		"/>
	<path fill="#FFFFFF" d="M198.6,281.7c1.5,0,2.8,0.3,3.9,0.9c1.1,0.6,2,1.4,2.7,2.6s1,2.6,1,4.4v10.7h-2.5v-10.4
		c0-1.9-0.5-3.4-1.5-4.4c-1-1-2.3-1.5-4.1-1.5c-1.3,0-2.4,0.3-3.4,0.8c-1,0.5-1.7,1.3-2.2,2.3c-0.5,1-0.8,2.2-0.8,3.6v9.7h-2.5
		v-18.4h2.4v5l-0.4-0.9c0.6-1.3,1.5-2.4,2.8-3.1C195.3,282.1,196.8,281.7,198.6,281.7z"/>
	<path fill="#FFFFFF" d="M220.7,300.4c-1.9,0-3.6-0.4-5-1.2c-1.4-0.8-2.6-1.9-3.4-3.3c-0.8-1.4-1.2-3-1.2-4.8s0.4-3.4,1.2-4.8
		c0.8-1.4,1.9-2.5,3.2-3.3c1.4-0.8,2.9-1.2,4.6-1.2c1.7,0,3.3,0.4,4.6,1.2c1.3,0.8,2.4,1.9,3.2,3.3c0.8,1.4,1.2,3,1.2,4.9
		c0,0.1,0,0.2,0,0.4c0,0.1,0,0.3,0,0.4h-16V290h14.7l-1,0.7c0-1.3-0.3-2.5-0.9-3.6c-0.6-1-1.3-1.8-2.3-2.4c-1-0.6-2.1-0.9-3.4-0.9
		c-1.3,0-2.4,0.3-3.4,0.9c-1,0.6-1.8,1.4-2.3,2.5s-0.8,2.3-0.8,3.6v0.4c0,1.4,0.3,2.6,0.9,3.7c0.6,1.1,1.5,1.9,2.6,2.5
		c1.1,0.6,2.4,0.9,3.8,0.9c1.1,0,2.2-0.2,3.1-0.6c1-0.4,1.8-1,2.5-1.8l1.4,1.6c-0.8,1-1.8,1.7-3.1,2.2
		C223.5,300.2,222.1,300.4,220.7,300.4z"/>
	<path fill="#FFFFFF" d="M238.9,300.4c-1.5,0-3-0.2-4.3-0.6c-1.4-0.4-2.4-1-3.2-1.6l1.1-2c0.7,0.6,1.7,1,2.9,1.5
		c1.2,0.4,2.4,0.6,3.7,0.6c1.8,0,3-0.3,3.8-0.8c0.8-0.5,1.2-1.3,1.2-2.2c0-0.7-0.2-1.2-0.6-1.6s-1-0.7-1.7-0.9s-1.5-0.4-2.3-0.5
		c-0.9-0.1-1.7-0.3-2.6-0.5c-0.9-0.2-1.6-0.5-2.3-0.8c-0.7-0.4-1.3-0.9-1.7-1.5s-0.6-1.5-0.6-2.5c0-1,0.3-1.9,0.8-2.7
		c0.6-0.8,1.4-1.4,2.5-1.9s2.4-0.7,4-0.7c1.2,0,2.4,0.2,3.6,0.5c1.2,0.3,2.2,0.7,2.9,1.2l-1.1,2c-0.8-0.6-1.7-1-2.6-1.2
		c-0.9-0.2-1.9-0.4-2.8-0.4c-1.7,0-2.9,0.3-3.7,0.9c-0.8,0.6-1.2,1.3-1.2,2.2c0,0.7,0.2,1.2,0.6,1.6c0.4,0.4,1,0.7,1.7,0.9
		c0.7,0.2,1.5,0.4,2.3,0.5s1.7,0.3,2.6,0.5c0.9,0.2,1.6,0.5,2.3,0.8c0.7,0.3,1.3,0.8,1.7,1.4c0.4,0.6,0.6,1.4,0.6,2.4
		c0,1.1-0.3,2-0.9,2.8c-0.6,0.8-1.5,1.4-2.6,1.8C241.9,300.2,240.5,300.4,238.9,300.4z"/>
	<path fill="#FFFFFF" d="M256,300.4c-1.5,0-3-0.2-4.3-0.6c-1.4-0.4-2.4-1-3.2-1.6l1.1-2c0.7,0.6,1.7,1,2.9,1.5s2.4,0.6,3.7,0.6
		c1.8,0,3-0.3,3.8-0.8c0.8-0.5,1.2-1.3,1.2-2.2c0-0.7-0.2-1.2-0.6-1.6s-1-0.7-1.7-0.9s-1.5-0.4-2.3-0.5c-0.9-0.1-1.7-0.3-2.6-0.5
		s-1.6-0.5-2.3-0.8c-0.7-0.4-1.3-0.9-1.7-1.5c-0.4-0.6-0.6-1.5-0.6-2.5c0-1,0.3-1.9,0.8-2.7c0.6-0.8,1.4-1.4,2.5-1.9s2.4-0.7,4-0.7
		c1.2,0,2.4,0.2,3.6,0.5c1.2,0.3,2.2,0.7,2.9,1.2l-1.1,2c-0.8-0.6-1.7-1-2.6-1.2c-0.9-0.2-1.9-0.4-2.8-0.4c-1.7,0-2.9,0.3-3.7,0.9
		c-0.8,0.6-1.2,1.3-1.2,2.2c0,0.7,0.2,1.2,0.6,1.6s1,0.7,1.7,0.9c0.7,0.2,1.5,0.4,2.3,0.5c0.9,0.1,1.7,0.3,2.6,0.5s1.6,0.5,2.3,0.8
		c0.7,0.3,1.3,0.8,1.7,1.4c0.4,0.6,0.6,1.4,0.6,2.4c0,1.1-0.3,2-0.9,2.8c-0.6,0.8-1.5,1.4-2.6,1.8C259,300.2,257.6,300.4,256,300.4z
		"/>
</g>
<text transform="matrix(1 0 0 1 -300.5411 46.6522)"><tspan x="0" y="0" fill="#FFFFFF" font-family="'Montserrat-Regular'" font-size="35">Crafting</tspan><tspan x="0" y="49" fill="#FFFFFF" font-family="'Montserrat-Regular'" font-size="35">responsive, </tspan><tspan x="0" y="98" fill="#FFFFFF" font-family="'Montserrat-Regular'" font-size="35">user-friendly</tspan><tspan x="0" y="147" fill="#FFFFFF" font-family="'Montserrat-Regular'" font-size="35">websites</tspan><tspan x="0" y="196" fill="#FFFFFF" font-family="'Montserrat-Regular'" font-size="35">tailored to </tspan><tspan x="0" y="245" fill="#FFFFFF" font-family="'Montserrat-Regular'" font-size="35">your business</tspan></text>
</svg>
