<?xml version="1.0" encoding="utf-8"?>
<!-- Generator: Adobe Illustrator 18.1.1, SVG Export Plug-In . SVG Version: 6.00 Build 0)  -->
<svg version="1.1" id="Layer_1" xmlns="http://www.w3.org/2000/svg" xmlns:xlink="http://www.w3.org/1999/xlink" x="0px" y="0px"
	 width="100px" height="100px" viewBox="-973 527 100 100" enable-background="new -973 527 100 100" xml:space="preserve">
<rect x="-965.6" y="527" width="85.1" height="100"/>
<g>
	<path fill="#FFFFFF" d="M-957.2515,548.2759v-7h2.6196c0.5938,0,1.1035,0.0952,1.5303,0.2852s0.7549,0.4634,0.9849,0.8198
		c0.23,0.3569,0.3452,0.7886,0.3452,1.2949c0,0.4937-0.1152,0.9185-0.3452,1.2749c-0.23,0.3569-0.5581,0.6304-0.9849,0.8203
		s-0.9365,0.2847-1.5303,0.2847h-2.21l0.3301-0.3398v2.5601H-957.2515z M-956.5117,545.7759l-0.3301-0.3501h2.1904
		c0.6997,0,1.2314-0.1533,1.5947-0.46s0.5449-0.7363,0.5449-1.29c0-0.5601-0.1816-0.9932-0.5449-1.2998s-0.895-0.46-1.5947-0.46
		h-2.1904l0.3301-0.3501V545.7759z M-952.4717,548.2759l-1.7998-2.54h0.7998l1.8101,2.54H-952.4717z"/>
	<path fill="#FFFFFF" d="M-947.9414,548.3257c-0.5469,0-1.0269-0.1147-1.4404-0.3447c-0.4131-0.23-0.7363-0.5469-0.9697-0.9502
		s-0.3501-0.8647-0.3501-1.3848s0.1118-0.98,0.335-1.3799c0.2231-0.4004,0.5303-0.7153,0.9199-0.9453
		c0.3901-0.23,0.8286-0.3447,1.3149-0.3447c0.4937,0,0.9316,0.1113,1.3154,0.335c0.3833,0.2231,0.6846,0.5366,0.9048,0.9399
		s0.3301,0.8682,0.3301,1.395c0,0.0332-0.002,0.0684-0.0049,0.105c-0.0034,0.0366-0.0054,0.0747-0.0054,0.1147h-4.5698v-0.5298
		h4.1899l-0.2798,0.21c0-0.3799-0.082-0.7183-0.2451-1.0151c-0.1636-0.2964-0.3853-0.5283-0.665-0.6948s-0.6035-0.25-0.9702-0.25
		c-0.3599,0-0.6831,0.0835-0.9697,0.25s-0.5103,0.3999-0.6699,0.6997c-0.1602,0.3003-0.2402,0.6436-0.2402,1.0303v0.1099
		c0,0.3999,0.0884,0.752,0.2651,1.0552s0.4233,0.54,0.7397,0.71c0.3169,0.1699,0.6787,0.2549,1.0854,0.2549
		c0.3198,0,0.6182-0.0566,0.8945-0.1699c0.2769-0.1133,0.5151-0.2866,0.7153-0.52l0.3999,0.46
		c-0.2334,0.2803-0.5249,0.4937-0.875,0.6401S-947.5215,548.3257-947.9414,548.3257z"/>
	<path fill="#FFFFFF" d="M-942.8018,548.3257c-0.3936,0-0.7354-0.0649-1.0254-0.1948s-0.5117-0.3101-0.665-0.54
		s-0.23-0.4951-0.23-0.7949c0-0.2734,0.0654-0.5215,0.1953-0.7451c0.1299-0.2231,0.3433-0.4033,0.6396-0.54
		c0.2969-0.1362,0.6953-0.2051,1.1953-0.2051h1.8101v0.5303h-1.79c-0.5068,0-0.8584,0.0898-1.0552,0.27
		c-0.1968,0.1797-0.2949,0.4033-0.2949,0.6699c0,0.2998,0.1167,0.54,0.3501,0.7202c0.2334,0.1797,0.5601,0.27,0.98,0.27
		c0.3999,0,0.7451-0.0918,1.0352-0.2754c0.2896-0.1831,0.5015-0.4482,0.6348-0.7949l0.1602,0.4902
		c-0.1338,0.3467-0.3652,0.623-0.6953,0.8301C-941.8872,548.2227-942.3018,548.3257-942.8018,548.3257z M-940.9922,548.2759v-1.1602
		l-0.0298-0.1899v-1.9399c0-0.4463-0.125-0.79-0.375-1.0298c-0.25-0.2402-0.6216-0.3604-1.1152-0.3604
		c-0.3398,0-0.6631,0.0571-0.9697,0.1704s-0.5669,0.2632-0.7803,0.4497l-0.3198-0.5298c0.2666-0.2266,0.5864-0.4019,0.96-0.5254
		c0.3735-0.123,0.7666-0.1846,1.1802-0.1846c0.6797,0,1.2051,0.1685,1.5747,0.5049c0.3701,0.3364,0.5552,0.8481,0.5552,1.5352
		v3.2598H-940.9922z"/>
	<path fill="#FFFFFF" d="M-936.292,548.3257c-0.5,0-0.9487-0.1133-1.3452-0.3398s-0.7085-0.5415-0.9351-0.9448
		s-0.3398-0.8687-0.3398-1.395c0-0.5332,0.1133-1,0.3398-1.3999c0.2266-0.4004,0.5386-0.7119,0.9351-0.9351
		c0.3965-0.2236,0.8452-0.335,1.3452-0.335c0.46,0,0.8716,0.103,1.2349,0.3096c0.3633,0.207,0.6533,0.5088,0.8701,0.9053
		c0.2163,0.3965,0.3247,0.8818,0.3247,1.4551c0,0.5664-0.1064,1.0498-0.3198,1.4497c-0.2134,0.4004-0.5015,0.7051-0.8647,0.915
		C-935.4106,548.2207-935.8257,548.3257-936.292,548.3257z M-936.2422,547.6958c0.3735,0,0.7085-0.085,1.0049-0.2549
		c0.2969-0.1699,0.5303-0.4102,0.7002-0.7202s0.2549-0.668,0.2549-1.0747c0-0.4136-0.085-0.7734-0.2549-1.0801
		s-0.4033-0.5449-0.7002-0.7148c-0.2964-0.1704-0.6313-0.2554-1.0049-0.2554c-0.3667,0-0.6968,0.085-0.9897,0.2554
		c-0.2935,0.1699-0.5269,0.4082-0.7002,0.7148s-0.2598,0.6665-0.2598,1.0801c0,0.4067,0.0864,0.7646,0.2598,1.0747
		s0.4067,0.5503,0.7002,0.7202C-936.939,547.6108-936.6089,547.6958-936.2422,547.6958z M-934.2622,548.2759v-1.5801l0.0703-1.0601
		l-0.1001-1.0601v-3.7197h0.71v7.4199H-934.2622z"/>
	<path fill="#FFFFFF" d="M-931.562,550.2661c-0.2466,0-0.4814-0.04-0.7046-0.1201c-0.2236-0.0801-0.415-0.2002-0.5752-0.3604
		l0.3301-0.5298c0.1333,0.1265,0.2783,0.2251,0.4351,0.2949c0.1563,0.0703,0.3315,0.105,0.5249,0.105
		c0.2334,0,0.4351-0.0649,0.605-0.1948s0.3315-0.3584,0.4849-0.6851l0.3403-0.77l0.0796-0.1099l2.1602-4.8701h0.7002l-2.6304,5.8799
		c-0.1465,0.3403-0.3081,0.6104-0.4849,0.8101c-0.1768,0.2002-0.3682,0.3418-0.5747,0.4253
		C-931.0786,550.2241-931.3086,550.2661-931.562,550.2661z M-930.1616,548.4258l-2.4204-5.3999h0.7402l2.1401,4.8198
		L-930.1616,548.4258z"/>
	<path fill="#FFFFFF" d="M-924.3823,543.6157v-0.5898h3.2495v0.5898H-924.3823z M-921.9023,548.3257
		c-0.4932,0-0.8735-0.1333-1.1401-0.3999s-0.3999-0.6431-0.3999-1.1299v-4.9302h0.71v4.8901c0,0.3066,0.0786,0.5435,0.2354,0.71
		c0.1563,0.167,0.3813,0.25,0.6748,0.25c0.3135,0,0.5732-0.0898,0.7793-0.27l0.25,0.5103
		c-0.1396,0.1265-0.3076,0.2197-0.5049,0.2798C-921.4941,548.2959-921.6963,548.3257-921.9023,548.3257z"/>
	<path fill="#FFFFFF" d="M-917.5527,548.3257c-0.5068,0-0.9609-0.1147-1.3643-0.3447c-0.4043-0.23-0.7217-0.5469-0.9551-0.9502
		s-0.3506-0.8647-0.3506-1.3848c0-0.5269,0.1172-0.9902,0.3506-1.3901s0.5498-0.7134,0.9492-0.9399
		c0.4004-0.2266,0.8574-0.3398,1.3701-0.3398c0.5205,0,0.9814,0.1133,1.3857,0.3398c0.4033,0.2266,0.7197,0.54,0.9492,0.9399
		c0.2305,0.3999,0.3457,0.8633,0.3457,1.3901c0,0.52-0.1152,0.9814-0.3457,1.3848c-0.2295,0.4033-0.5479,0.7202-0.9551,0.9502
		C-916.5791,548.2109-917.0391,548.3257-917.5527,548.3257z M-917.5527,547.6958c0.3799,0,0.7168-0.085,1.0107-0.2549
		c0.293-0.1699,0.5244-0.4102,0.6943-0.7202s0.2549-0.668,0.2549-1.0747c0-0.4136-0.085-0.7734-0.2549-1.0801
		s-0.4014-0.5449-0.6943-0.7148c-0.2939-0.1704-0.627-0.2554-1-0.2554c-0.374,0-0.707,0.085-1,0.2554
		c-0.2939,0.1699-0.5273,0.4082-0.7002,0.7148c-0.1738,0.3066-0.2598,0.6665-0.2598,1.0801c0,0.4067,0.0859,0.7646,0.2598,1.0747
		c0.1729,0.3101,0.4063,0.5503,0.7002,0.7202C-918.249,547.6108-917.9189,547.6958-917.5527,547.6958z"/>
	<path fill="#FFFFFF" d="M-955.9917,564.3257c-0.4331,0-0.8433-0.0615-1.23-0.1846c-0.3867-0.1235-0.6899-0.2783-0.9102-0.4653
		l0.3203-0.5601c0.2134,0.1602,0.4863,0.2988,0.8198,0.415c0.3335,0.1167,0.6836,0.1753,1.0503,0.1753
		c0.5,0,0.8599-0.0786,1.0796-0.2354c0.2202-0.1563,0.3301-0.3647,0.3301-0.625c0-0.1929-0.0615-0.3447-0.1851-0.4546
		c-0.123-0.1104-0.2847-0.1934-0.4849-0.25c-0.1997-0.0566-0.4233-0.1055-0.6699-0.145c-0.2466-0.04-0.4917-0.0869-0.7349-0.1401
		c-0.2437-0.0532-0.4653-0.1318-0.665-0.2349c-0.2002-0.1035-0.3618-0.2451-0.4854-0.4253
		c-0.123-0.1797-0.1846-0.4199-0.1846-0.7197c0-0.2866,0.0796-0.5435,0.2397-0.77s0.395-0.4053,0.7051-0.5352
		s0.6885-0.1948,1.1348-0.1948c0.3403,0,0.6802,0.0449,1.02,0.1348c0.3403,0.0898,0.6201,0.2085,0.8403,0.355l-0.3101,0.5698
		c-0.2334-0.1597-0.4834-0.2749-0.75-0.3447s-0.5337-0.105-0.8003-0.105c-0.4731,0-0.8213,0.0815-1.0449,0.2451
		c-0.2231,0.1631-0.335,0.3716-0.335,0.625c0,0.1997,0.0615,0.3564,0.1851,0.4697c0.1235,0.1138,0.2866,0.2017,0.4902,0.2651
		c0.2031,0.0635,0.4263,0.1147,0.6699,0.1548c0.2432,0.04,0.4863,0.0884,0.73,0.145c0.2432,0.0566,0.4663,0.1338,0.6699,0.23
		c0.2031,0.0967,0.3667,0.2334,0.4897,0.4102c0.1235,0.1768,0.1851,0.4087,0.1851,0.6948c0,0.3071-0.085,0.5718-0.2549,0.7954
		c-0.1699,0.2231-0.4165,0.3965-0.7397,0.52C-955.1401,564.2642-955.5317,564.3257-955.9917,564.3257z"/>
	<path fill="#FFFFFF" d="M-953.3418,559.6157v-0.5898h3.25v0.5898H-953.3418z M-950.8618,564.3257
		c-0.4932,0-0.8735-0.1333-1.1401-0.3999s-0.3999-0.6431-0.3999-1.1299v-4.9302h0.71v4.8901c0,0.3066,0.0786,0.5435,0.2354,0.71
		c0.1563,0.167,0.3813,0.25,0.6748,0.25c0.3135,0,0.5732-0.0898,0.7798-0.27l0.25,0.5103
		c-0.1396,0.1265-0.3081,0.2197-0.5049,0.2798S-950.6553,564.3257-950.8618,564.3257z"/>
	<path fill="#FFFFFF" d="M-946.5117,564.3257c-0.5068,0-0.9614-0.1147-1.3647-0.3447c-0.4038-0.23-0.7217-0.5469-0.9551-0.9502
		s-0.3501-0.8647-0.3501-1.3848c0-0.5269,0.1167-0.9902,0.3501-1.3901s0.5498-0.7134,0.9497-0.9399
		c0.4004-0.2266,0.8569-0.3398,1.3701-0.3398c0.52,0,0.9814,0.1133,1.3853,0.3398c0.4033,0.2266,0.7197,0.54,0.9497,0.9399
		s0.3452,0.8633,0.3452,1.3901c0,0.52-0.1152,0.9814-0.3452,1.3848s-0.5483,0.7202-0.9551,0.9502
		C-945.5381,564.2109-945.9985,564.3257-946.5117,564.3257z M-946.5117,563.6958c0.3799,0,0.7168-0.085,1.0103-0.2549
		c0.293-0.1699,0.5249-0.4102,0.6948-0.7202s0.2549-0.668,0.2549-1.0747c0-0.4136-0.085-0.7734-0.2549-1.0801
		s-0.4019-0.5449-0.6948-0.7148c-0.2935-0.1704-0.627-0.2554-1-0.2554c-0.3735,0-0.707,0.085-1,0.2554
		c-0.2935,0.1699-0.5269,0.4082-0.7002,0.7148s-0.2598,0.6665-0.2598,1.0801c0,0.4067,0.0864,0.7646,0.2598,1.0747
		s0.4067,0.5503,0.7002,0.7202C-947.2085,563.6108-946.8784,563.6958-946.5117,563.6958z"/>
	<path fill="#FFFFFF" d="M-942.3813,566.2158v-7.1899h0.6797v1.5801l-0.0698,1.0498l0.1001,1.0601v3.5H-942.3813z
		 M-939.6714,564.3257c-0.4536,0-0.8638-0.105-1.23-0.3149c-0.3667-0.21-0.6587-0.5132-0.875-0.9097
		c-0.2168-0.397-0.3252-0.8818-0.3252-1.4551s0.1064-1.0586,0.3198-1.4551s0.5034-0.6982,0.8701-0.9053
		c0.3667-0.2065,0.7803-0.3096,1.2402-0.3096c0.5,0,0.9482,0.1113,1.3447,0.335c0.3965,0.2231,0.7085,0.5366,0.9351,0.9399
		s0.3398,0.8682,0.3398,1.395c0,0.5332-0.1133,1-0.3398,1.3999s-0.5386,0.7134-0.9351,0.9399S-939.1714,564.3257-939.6714,564.3257z
		 M-939.7217,563.6958c0.3735,0,0.7065-0.085,1-0.2549s0.5269-0.4102,0.7002-0.7202s0.2598-0.668,0.2598-1.0747
		s-0.0864-0.7632-0.2598-1.0703c-0.1733-0.3062-0.4067-0.5464-0.7002-0.7197s-0.6265-0.2603-1-0.2603s-0.7085,0.0869-1.0049,0.2603
		c-0.2969,0.1733-0.5298,0.4136-0.7002,0.7197c-0.1699,0.3071-0.2549,0.6636-0.2549,1.0703s0.085,0.7646,0.2549,1.0747
		c0.1704,0.3101,0.4033,0.5503,0.7002,0.7202C-940.4302,563.6108-940.0952,563.6958-939.7217,563.6958z"/>
	<path fill="#FFFFFF" d="M-932.9814,564.2759v-7.4199h0.71v7.4199H-932.9814z"/>
	<path fill="#FFFFFF" d="M-928.1519,564.3257c-0.5068,0-0.9614-0.1147-1.3647-0.3447c-0.4038-0.23-0.7217-0.5469-0.9551-0.9502
		s-0.3501-0.8647-0.3501-1.3848c0-0.5269,0.1167-0.9902,0.3501-1.3901s0.5498-0.7134,0.9497-0.9399
		c0.4004-0.2266,0.8569-0.3398,1.3701-0.3398c0.52,0,0.9814,0.1133,1.3853,0.3398c0.4033,0.2266,0.7197,0.54,0.9497,0.9399
		s0.3452,0.8633,0.3452,1.3901c0,0.52-0.1152,0.9814-0.3452,1.3848s-0.5483,0.7202-0.9551,0.9502
		C-927.1782,564.2109-927.6387,564.3257-928.1519,564.3257z M-928.1519,563.6958c0.3799,0,0.7168-0.085,1.0103-0.2549
		c0.293-0.1699,0.5249-0.4102,0.6948-0.7202s0.2549-0.668,0.2549-1.0747c0-0.4136-0.085-0.7734-0.2549-1.0801
		s-0.4019-0.5449-0.6948-0.7148c-0.2935-0.1704-0.627-0.2554-1-0.2554c-0.3735,0-0.707,0.085-1,0.2554
		c-0.2935,0.1699-0.5269,0.4082-0.7002,0.7148s-0.2598,0.6665-0.2598,1.0801c0,0.4067,0.0864,0.7646,0.2598,1.0747
		s0.4067,0.5503,0.7002,0.7202C-928.8486,563.6108-928.5186,563.6958-928.1519,563.6958z"/>
	<path fill="#FFFFFF" d="M-922.6118,564.3257c-0.4331,0-0.8433-0.0615-1.23-0.1846c-0.3867-0.1235-0.6899-0.2783-0.9102-0.4653
		l0.3203-0.5601c0.2134,0.1602,0.4863,0.2988,0.8198,0.415c0.3335,0.1167,0.6836,0.1753,1.0503,0.1753
		c0.5,0,0.8594-0.0786,1.0791-0.2354c0.2207-0.1563,0.3301-0.3647,0.3301-0.625c0-0.1929-0.0615-0.3447-0.1846-0.4546
		c-0.123-0.1104-0.2852-0.1934-0.4854-0.25c-0.1992-0.0566-0.4229-0.1055-0.6694-0.145c-0.2466-0.04-0.4917-0.0869-0.7349-0.1401
		c-0.2437-0.0532-0.4653-0.1318-0.665-0.2349c-0.2002-0.1035-0.3618-0.2451-0.4854-0.4253
		c-0.123-0.1797-0.1846-0.4199-0.1846-0.7197c0-0.2866,0.0796-0.5435,0.2397-0.77s0.395-0.4053,0.7051-0.5352
		s0.6885-0.1948,1.1348-0.1948c0.3403,0,0.6802,0.0449,1.02,0.1348s0.6201,0.2085,0.8398,0.355l-0.3096,0.5698
		c-0.2334-0.1597-0.4834-0.2749-0.75-0.3447s-0.5337-0.105-0.8003-0.105c-0.4731,0-0.8213,0.0815-1.0449,0.2451
		c-0.2231,0.1631-0.335,0.3716-0.335,0.625c0,0.1997,0.0615,0.3564,0.1851,0.4697c0.1235,0.1138,0.2866,0.2017,0.4902,0.2651
		c0.2031,0.0635,0.4263,0.1147,0.6699,0.1548c0.2432,0.04,0.4863,0.0884,0.7295,0.145s0.4668,0.1338,0.6699,0.23
		c0.2031,0.0967,0.3672,0.2334,0.4902,0.4102s0.1846,0.4087,0.1846,0.6948c0,0.3071-0.085,0.5718-0.2549,0.7954
		c-0.1699,0.2231-0.416,0.3965-0.7393,0.52C-921.7607,564.2642-922.1519,564.3257-922.6118,564.3257z"/>
	<path fill="#FFFFFF" d="M-918.7822,557.8657c-0.1465,0-0.2695-0.0498-0.3701-0.1499c-0.0996-0.1001-0.1494-0.2197-0.1494-0.3599
		s0.0498-0.2583,0.1494-0.355c0.1006-0.0967,0.2236-0.145,0.3701-0.145s0.2705,0.0469,0.3701,0.1401s0.1504,0.21,0.1504,0.3496
		c0,0.147-0.0488,0.27-0.1455,0.3701S-918.6289,557.8657-918.7822,557.8657z M-919.1416,564.2759v-5.25h0.71v5.25H-919.1416z"/>
	<path fill="#FFFFFF" d="M-913.7725,558.9761c0.4268,0,0.8018,0.0815,1.125,0.2446c0.3232,0.1636,0.5771,0.4121,0.7607,0.7451
		c0.1826,0.3335,0.2744,0.7534,0.2744,1.2603v3.0498h-0.71v-2.98c0-0.5532-0.1387-0.9717-0.415-1.2549s-0.665-0.4253-1.165-0.4253
		c-0.373,0-0.6982,0.0752-0.9746,0.2251c-0.2773,0.1499-0.4902,0.3667-0.6406,0.6499c-0.1494,0.2837-0.2246,0.625-0.2246,1.0254
		v2.7598h-0.71v-5.25h0.6797v1.4399l-0.1094-0.27c0.166-0.3799,0.4326-0.6782,0.7998-0.895
		C-914.7158,559.0845-914.2793,558.9761-913.7725,558.9761z"/>
	<path fill="#FFFFFF" d="M-907.582,564.0757c-0.5,0-0.9502-0.1079-1.3506-0.3247c-0.3994-0.2168-0.7148-0.5186-0.9443-0.9053
		c-0.2305-0.3862-0.3457-0.8296-0.3457-1.3296s0.1152-0.9419,0.3457-1.3252c0.2295-0.3833,0.5449-0.6816,0.9443-0.895
		c0.4004-0.2134,0.8506-0.3198,1.3506-0.3198c0.4658,0,0.8857,0.0967,1.2598,0.29c0.373,0.1934,0.6699,0.48,0.8896,0.8599
		c0.2207,0.3799,0.3301,0.8433,0.3301,1.3901c0,0.5464-0.1094,1.0098-0.3301,1.3896c-0.2197,0.3799-0.5166,0.6699-0.8896,0.8701
		C-906.6963,563.9761-907.1162,564.0757-907.582,564.0757z M-907.4521,566.2661c-0.4805,0-0.9404-0.0703-1.3799-0.2104
		c-0.4404-0.1396-0.7969-0.3398-1.0703-0.5996l0.3604-0.54c0.2461,0.2197,0.5508,0.395,0.915,0.5249
		c0.3633,0.1299,0.748,0.1948,1.1543,0.1948c0.667,0,1.1572-0.1548,1.4707-0.4648c0.3125-0.3101,0.4697-0.7915,0.4697-1.4448
		v-1.3101l0.0996-0.8999l-0.0693-0.9004v-1.5898h0.6797v4.6099c0,0.9067-0.2217,1.5718-0.665,1.9951
		S-906.5859,566.2661-907.4521,566.2661z M-907.5127,563.4458c0.3867,0,0.7305-0.0815,1.0303-0.2451
		c0.2998-0.1631,0.5361-0.3896,0.71-0.6797s0.2598-0.625,0.2598-1.0049c0-0.3804-0.0859-0.7134-0.2598-1s-0.4102-0.5117-0.71-0.6753
		c-0.2998-0.1631-0.6436-0.2451-1.0303-0.2451c-0.3799,0-0.7217,0.082-1.0244,0.2451c-0.3037,0.1636-0.54,0.3887-0.71,0.6753
		s-0.2549,0.6196-0.2549,1c0,0.3799,0.085,0.7148,0.2549,1.0049s0.4063,0.5166,0.71,0.6797
		C-908.2344,563.3643-907.8926,563.4458-907.5127,563.4458z"/>
	<path fill="#FFFFFF" d="M-955.2217,580.3252c-0.52,0-0.9849-0.1143-1.395-0.3447c-0.4097-0.2295-0.7314-0.5469-0.9648-0.9502
		s-0.3501-0.8643-0.3501-1.3843c0-0.5269,0.1167-0.9902,0.3501-1.3901s0.5552-0.7134,0.9648-0.9399
		c0.4102-0.2266,0.875-0.3398,1.395-0.3398c0.4468,0,0.8501,0.0864,1.21,0.2598c0.3604,0.1733,0.6436,0.4336,0.8501,0.7803
		l-0.5298,0.3599c-0.1802-0.2666-0.4038-0.4634-0.6704-0.5903c-0.2666-0.1265-0.5566-0.1899-0.8696-0.1899
		c-0.3735,0-0.71,0.085-1.0103,0.2554c-0.2998,0.1699-0.5366,0.4082-0.71,0.7148s-0.2598,0.6665-0.2598,1.0801
		c0,0.4126,0.0864,0.7729,0.2598,1.0796s0.4102,0.5449,0.71,0.7148c0.3003,0.1699,0.6367,0.2549,1.0103,0.2549
		c0.313,0,0.603-0.0625,0.8696-0.1895s0.4902-0.3203,0.6704-0.5801l0.5298,0.3594c-0.2065,0.3408-0.4897,0.5986-0.8501,0.7754
		C-954.3716,580.2373-954.7749,580.3252-955.2217,580.3252z"/>
	<path fill="#FFFFFF" d="M-951.8516,580.2754v-7.4194h0.71v7.4194H-951.8516z"/>
	<path fill="#FFFFFF" d="M-948.8018,573.8657c-0.147,0-0.27-0.0498-0.3701-0.1499s-0.1499-0.2197-0.1499-0.3599
		s0.0498-0.2583,0.1499-0.355s0.2231-0.145,0.3701-0.145c0.1465,0,0.27,0.0469,0.3701,0.1401
		c0.0996,0.0933,0.1499,0.21,0.1499,0.3496c0,0.147-0.0483,0.27-0.145,0.3701S-948.6484,573.8657-948.8018,573.8657z
		 M-949.1616,580.2754v-5.2495h0.71v5.2495H-949.1616z"/>
	<path fill="#FFFFFF" d="M-944.2417,580.3252c-0.5469,0-1.0269-0.1143-1.4404-0.3447c-0.4131-0.2295-0.7363-0.5469-0.9697-0.9502
		s-0.3501-0.8643-0.3501-1.3843s0.1118-0.98,0.335-1.3799c0.2231-0.4004,0.5303-0.7153,0.9199-0.9453
		c0.3901-0.23,0.8286-0.3447,1.3149-0.3447c0.4937,0,0.9316,0.1113,1.3154,0.335c0.3833,0.2231,0.6846,0.5366,0.9048,0.9399
		s0.3301,0.8682,0.3301,1.395c0,0.0332-0.002,0.0684-0.0049,0.105c-0.0034,0.0366-0.0054,0.0747-0.0054,0.1147h-4.5698v-0.5298
		h4.1899l-0.2798,0.21c0-0.3799-0.082-0.7183-0.2451-1.0151c-0.1636-0.2964-0.3853-0.5283-0.665-0.6948s-0.6035-0.25-0.9702-0.25
		c-0.3599,0-0.6831,0.0835-0.9697,0.25s-0.5103,0.3999-0.6699,0.6997c-0.1602,0.3003-0.2402,0.6436-0.2402,1.0303v0.1099
		c0,0.3994,0.0884,0.752,0.2651,1.0547c0.1768,0.3037,0.4233,0.54,0.7397,0.71c0.3169,0.1699,0.6787,0.2549,1.0854,0.2549
		c0.3198,0,0.6182-0.0566,0.8945-0.1699c0.2769-0.1133,0.5151-0.2861,0.7153-0.5195l0.3999,0.46
		c-0.2334,0.2803-0.5249,0.4932-0.875,0.6396S-943.8218,580.3252-944.2417,580.3252z"/>
	<path fill="#FFFFFF" d="M-937.752,574.9761c0.4268,0,0.8018,0.0815,1.125,0.2446c0.3232,0.1636,0.5767,0.4121,0.7603,0.7451
		c0.1831,0.3335,0.2749,0.7534,0.2749,1.2603v3.0493h-0.71v-2.9795c0-0.5532-0.1387-0.9717-0.415-1.2549
		c-0.2769-0.2832-0.665-0.4253-1.165-0.4253c-0.3735,0-0.6982,0.0752-0.9751,0.2251s-0.4897,0.3667-0.6401,0.6499
		c-0.1499,0.2837-0.2246,0.625-0.2246,1.0254v2.7593h-0.71v-5.2495h0.6797v1.4399l-0.1099-0.27
		c0.1665-0.3799,0.4331-0.6782,0.7998-0.895C-938.6953,575.0845-938.2588,574.9761-937.752,574.9761z"/>
	<path fill="#FFFFFF" d="M-934.4922,575.6157v-0.5898h3.25v0.5898H-934.4922z M-932.0122,580.3252
		c-0.4932,0-0.8735-0.1328-1.1401-0.3994s-0.3999-0.6436-0.3999-1.1299v-4.9302h0.71v4.8901c0,0.3066,0.0786,0.543,0.2354,0.71
		c0.1563,0.167,0.3813,0.25,0.6748,0.25c0.3135,0,0.5732-0.0898,0.7798-0.2705l0.25,0.5107
		c-0.1396,0.126-0.3081,0.2197-0.5049,0.2793C-931.604,580.2959-931.8057,580.3252-932.0122,580.3252z"/>
	<path fill="#FFFFFF" d="M-928.2021,580.3252c-0.4331,0-0.8433-0.0615-1.23-0.1846s-0.6899-0.2783-0.9102-0.4648l0.3203-0.5605
		c0.2134,0.1602,0.4863,0.2988,0.8198,0.415c0.3335,0.1172,0.6836,0.1758,1.0503,0.1758c0.5,0,0.8599-0.0791,1.0796-0.2354
		c0.2202-0.1563,0.3301-0.3652,0.3301-0.625c0-0.1934-0.0615-0.3447-0.1851-0.4551c-0.123-0.1104-0.2847-0.1934-0.4849-0.25
		c-0.1997-0.0566-0.4233-0.1055-0.6699-0.1445c-0.2466-0.04-0.4917-0.0869-0.7349-0.1401c-0.2437-0.0532-0.4653-0.1318-0.665-0.2349
		c-0.2002-0.1035-0.3618-0.2451-0.4854-0.4253c-0.123-0.1797-0.1846-0.4199-0.1846-0.7197c0-0.2866,0.0796-0.5435,0.2397-0.77
		s0.395-0.4053,0.7051-0.5352s0.6885-0.1948,1.1348-0.1948c0.3403,0,0.6802,0.0449,1.02,0.1348
		c0.3403,0.0898,0.6201,0.2085,0.8403,0.355l-0.3101,0.5698c-0.2334-0.1597-0.4834-0.2749-0.75-0.3447s-0.5337-0.105-0.8003-0.105
		c-0.4731,0-0.8213,0.0815-1.0449,0.2451c-0.2231,0.1631-0.335,0.3716-0.335,0.625c0,0.1997,0.0615,0.3564,0.1851,0.4697
		c0.1235,0.1138,0.2866,0.2017,0.4902,0.2651c0.2031,0.0635,0.4263,0.1147,0.6699,0.1548c0.2432,0.04,0.4863,0.0884,0.73,0.145
		c0.2432,0.0566,0.4663,0.1338,0.6699,0.23c0.2031,0.0967,0.3667,0.2334,0.4897,0.4102c0.1235,0.1768,0.1851,0.4082,0.1851,0.6943
		c0,0.3076-0.085,0.5723-0.2549,0.7959c-0.1699,0.2227-0.4165,0.3965-0.7397,0.5195
		C-927.3506,580.2637-927.7422,580.3252-928.2021,580.3252z"/>
	<path fill="#FFFFFF" d="M-922.9321,575.6157v-0.5898h3.2495v0.5898H-922.9321z M-920.4521,580.3252
		c-0.4932,0-0.874-0.1328-1.1406-0.3994s-0.3994-0.6436-0.3994-1.1299v-4.9302h0.71v4.8901c0,0.3066,0.0781,0.543,0.2354,0.71
		c0.1563,0.167,0.3809,0.25,0.6748,0.25c0.3135,0,0.5732-0.0898,0.7793-0.2705l0.25,0.5107
		c-0.1396,0.126-0.3076,0.2197-0.5049,0.2793C-920.0439,580.2959-920.2461,580.3252-920.4521,580.3252z"/>
	<path fill="#FFFFFF" d="M-916.1025,580.3252c-0.5068,0-0.9619-0.1143-1.3652-0.3447c-0.4033-0.2295-0.7217-0.5469-0.9551-0.9502
		s-0.3496-0.8643-0.3496-1.3843c0-0.5269,0.1162-0.9902,0.3496-1.3901s0.5498-0.7134,0.9502-0.9399s0.8564-0.3398,1.3701-0.3398
		c0.5195,0,0.9814,0.1133,1.3848,0.3398s0.7197,0.54,0.9502,0.9399c0.2295,0.3999,0.3447,0.8633,0.3447,1.3901
		c0,0.52-0.1152,0.981-0.3447,1.3843c-0.2305,0.4033-0.5488,0.7207-0.9551,0.9502
		C-915.1289,580.2109-915.5898,580.3252-916.1025,580.3252z M-916.1025,579.6953c0.3799,0,0.7168-0.085,1.0098-0.2549
		s0.5254-0.4102,0.6953-0.7197c0.1699-0.3105,0.2549-0.668,0.2549-1.0747c0-0.4136-0.085-0.7734-0.2549-1.0801
		s-0.4023-0.5449-0.6953-0.7148c-0.293-0.1704-0.627-0.2554-1-0.2554s-0.707,0.085-1,0.2554
		c-0.293,0.1699-0.5264,0.4082-0.7002,0.7148c-0.1729,0.3066-0.2598,0.6665-0.2598,1.0801c0,0.4067,0.0869,0.7642,0.2598,1.0747
		c0.1738,0.3096,0.4072,0.5498,0.7002,0.7197S-916.4697,579.6953-916.1025,579.6953z"/>
	<path fill="#FFFFFF" d="M-957.4014,596.2754v-7.4199h0.71v3.7197l-0.1001,1.0605l0.0698,1.0596v1.5801H-957.4014z
		 M-954.6914,596.3252c-0.46,0-0.8735-0.1045-1.2402-0.3145s-0.6567-0.5156-0.8701-0.915
		c-0.2134-0.4004-0.3198-0.8838-0.3198-1.4502c0-0.5732,0.1084-1.0586,0.3252-1.4551c0.2163-0.3965,0.5083-0.6982,0.875-0.9053
		c0.3662-0.2061,0.7764-0.3096,1.23-0.3096c0.5,0,0.9482,0.1113,1.3447,0.335s0.7085,0.5352,0.9351,0.9346
		c0.2266,0.4004,0.3398,0.8672,0.3398,1.4004c0,0.5264-0.1133,0.9912-0.3398,1.3945s-0.5386,0.7188-0.9351,0.9453
		S-954.1914,596.3252-954.6914,596.3252z M-954.7417,595.6953c0.3735,0,0.7065-0.085,1-0.2549s0.5269-0.4102,0.7002-0.7197
		c0.1733-0.3105,0.2598-0.6689,0.2598-1.0752c0-0.4131-0.0864-0.7734-0.2598-1.0801s-0.4067-0.5449-0.7002-0.7148
		s-0.6265-0.2549-1-0.2549s-0.7085,0.085-1.0049,0.2549c-0.2969,0.1699-0.5298,0.4082-0.7002,0.7148
		c-0.1699,0.3066-0.2549,0.667-0.2549,1.0801c0,0.4063,0.085,0.7646,0.2549,1.0752c0.1704,0.3096,0.4033,0.5498,0.7002,0.7197
		C-955.4502,595.6104-955.1152,595.6953-954.7417,595.6953z"/>
	<path fill="#FFFFFF" d="M-948.3916,596.3252c-0.5469,0-1.0269-0.1152-1.4404-0.3447c-0.4131-0.2305-0.7363-0.5469-0.9697-0.9502
		s-0.3501-0.8652-0.3501-1.3848c0-0.5205,0.1118-0.9805,0.335-1.3799c0.2231-0.4004,0.5303-0.7148,0.9199-0.9453
		c0.3901-0.2295,0.8286-0.3447,1.3149-0.3447c0.4937,0,0.9316,0.1113,1.3154,0.335c0.3833,0.2236,0.6846,0.5361,0.9048,0.9395
		c0.2202,0.4043,0.3301,0.8691,0.3301,1.3955c0,0.0332-0.002,0.0684-0.0049,0.1045c-0.0034,0.0371-0.0054,0.0752-0.0054,0.1152
		h-4.5698v-0.5303h4.1899l-0.2798,0.21c0-0.3799-0.082-0.7178-0.2451-1.0146c-0.1636-0.2969-0.3853-0.5283-0.665-0.6953
		c-0.2798-0.166-0.6035-0.25-0.9702-0.25c-0.3599,0-0.6831,0.084-0.9697,0.25c-0.2866,0.167-0.5103,0.4004-0.6699,0.7002
		c-0.1602,0.2998-0.2402,0.6436-0.2402,1.0303v0.1104c0,0.3994,0.0884,0.751,0.2651,1.0547s0.4233,0.54,0.7397,0.71
		c0.3169,0.1699,0.6787,0.2549,1.0854,0.2549c0.3198,0,0.6182-0.0566,0.8945-0.1699c0.2769-0.1133,0.5151-0.2861,0.7153-0.5195
		l0.3999,0.46c-0.2334,0.2793-0.5249,0.4932-0.875,0.6396S-947.9717,596.3252-948.3916,596.3252z"/>
	<path fill="#FFFFFF" d="M-945.4019,591.6152v-0.5898h3.25v0.5898H-945.4019z M-942.9219,596.3252
		c-0.4932,0-0.8735-0.1328-1.1401-0.3994s-0.3999-0.6436-0.3999-1.1309v-4.9297h0.71v4.8906c0,0.3066,0.0786,0.543,0.2354,0.71
		c0.1563,0.166,0.3813,0.25,0.6748,0.25c0.3135,0,0.5732-0.0908,0.7798-0.2705l0.25,0.5098
		c-0.1396,0.127-0.3081,0.2207-0.5049,0.2803S-942.7153,596.3252-942.9219,596.3252z"/>
	<path fill="#FFFFFF" d="M-941.4819,591.6152v-0.5898h3.25v0.5898H-941.4819z M-939.002,596.3252
		c-0.4932,0-0.8735-0.1328-1.1401-0.3994s-0.3999-0.6436-0.3999-1.1309v-4.9297h0.71v4.8906c0,0.3066,0.0786,0.543,0.2354,0.71
		c0.1563,0.166,0.3813,0.25,0.6748,0.25c0.3135,0,0.5732-0.0908,0.7798-0.2705l0.25,0.5098
		c-0.1396,0.127-0.3081,0.2207-0.5049,0.2803S-938.7954,596.3252-939.002,596.3252z"/>
	<path fill="#FFFFFF" d="M-934.5615,596.3252c-0.5469,0-1.0269-0.1152-1.4404-0.3447c-0.4131-0.2305-0.7363-0.5469-0.9697-0.9502
		s-0.3501-0.8652-0.3501-1.3848c0-0.5205,0.1118-0.9805,0.335-1.3799c0.2231-0.4004,0.5303-0.7148,0.9199-0.9453
		c0.3901-0.2295,0.8286-0.3447,1.3149-0.3447c0.4937,0,0.9316,0.1113,1.3154,0.335c0.3833,0.2236,0.6846,0.5361,0.9048,0.9395
		c0.2202,0.4043,0.3301,0.8691,0.3301,1.3955c0,0.0332-0.002,0.0684-0.0049,0.1045c-0.0034,0.0371-0.0054,0.0752-0.0054,0.1152
		h-4.5698v-0.5303h4.1899l-0.2798,0.21c0-0.3799-0.082-0.7178-0.2451-1.0146c-0.1636-0.2969-0.3853-0.5283-0.665-0.6953
		c-0.2798-0.166-0.6035-0.25-0.9702-0.25c-0.3599,0-0.6831,0.084-0.9697,0.25c-0.2866,0.167-0.5103,0.4004-0.6699,0.7002
		c-0.1602,0.2998-0.2402,0.6436-0.2402,1.0303v0.1104c0,0.3994,0.0884,0.751,0.2651,1.0547s0.4233,0.54,0.7397,0.71
		c0.3169,0.1699,0.6787,0.2549,1.0854,0.2549c0.3198,0,0.6182-0.0566,0.8945-0.1699c0.2769-0.1133,0.5151-0.2861,0.7153-0.5195
		l0.3999,0.46c-0.2334,0.2793-0.5249,0.4932-0.875,0.6396S-934.1416,596.3252-934.5615,596.3252z"/>
	<path fill="#FFFFFF" d="M-930.752,596.2754v-5.25h0.6797v1.4297l-0.0698-0.25c0.1465-0.3994,0.3931-0.7051,0.7397-0.915
		s0.7769-0.3145,1.29-0.3145v0.6895c-0.0264,0-0.0532-0.001-0.0801-0.0049c-0.0264-0.0029-0.0532-0.0049-0.0796-0.0049
		c-0.5537,0-0.9868,0.1689-1.3003,0.5049c-0.3135,0.3369-0.4697,0.8154-0.4697,1.4355v2.6797H-930.752z"/>
	<path fill="#FFFFFF" d="M-927.2417,593.875v-0.6191h2.6201v0.6191H-927.2417z"/>
	<path fill="#FFFFFF" d="M-923.0317,596.2754v-7.4199h0.71v7.4199H-923.0317z"/>
	<path fill="#FFFFFF" d="M-918.2021,596.3252c-0.5068,0-0.9619-0.1152-1.3652-0.3447c-0.4033-0.2305-0.7217-0.5469-0.9551-0.9502
		s-0.3496-0.8652-0.3496-1.3848c0-0.5264,0.1162-0.9902,0.3496-1.3896c0.2334-0.4004,0.5498-0.7139,0.9502-0.9404
		s0.8564-0.3398,1.3701-0.3398c0.5195,0,0.9814,0.1133,1.3848,0.3398s0.7197,0.54,0.9502,0.9404
		c0.2295,0.3994,0.3447,0.8633,0.3447,1.3896c0,0.5195-0.1152,0.9814-0.3447,1.3848c-0.2305,0.4033-0.5488,0.7197-0.9551,0.9502
		C-917.2285,596.21-917.6895,596.3252-918.2021,596.3252z M-918.2021,595.6953c0.3799,0,0.7168-0.085,1.0098-0.2549
		s0.5254-0.4102,0.6953-0.7197c0.1699-0.3105,0.2549-0.6689,0.2549-1.0752c0-0.4131-0.085-0.7734-0.2549-1.0801
		s-0.4023-0.5449-0.6953-0.7148s-0.627-0.2549-1-0.2549s-0.707,0.085-1,0.2549s-0.5264,0.4082-0.7002,0.7148
		c-0.1729,0.3066-0.2598,0.667-0.2598,1.0801c0,0.4063,0.0869,0.7646,0.2598,1.0752c0.1738,0.3096,0.4072,0.5498,0.7002,0.7197
		S-918.5693,595.6953-918.2021,595.6953z"/>
	<path fill="#FFFFFF" d="M-911.9326,596.3252c-0.5068,0-0.9609-0.1152-1.3643-0.3447c-0.4043-0.2305-0.7217-0.5469-0.9551-0.9502
		s-0.3506-0.8652-0.3506-1.3848c0-0.5264,0.1172-0.9902,0.3506-1.3896c0.2334-0.4004,0.5498-0.7139,0.9492-0.9404
		c0.4004-0.2266,0.8574-0.3398,1.3701-0.3398c0.5205,0,0.9814,0.1133,1.3857,0.3398c0.4033,0.2266,0.7197,0.54,0.9492,0.9404
		c0.2305,0.3994,0.3457,0.8633,0.3457,1.3896c0,0.5195-0.1152,0.9814-0.3457,1.3848c-0.2295,0.4033-0.5479,0.7197-0.9551,0.9502
		C-910.959,596.21-911.4189,596.3252-911.9326,596.3252z M-911.9326,595.6953c0.3799,0,0.7168-0.085,1.0107-0.2549
		c0.293-0.1699,0.5244-0.4102,0.6943-0.7197c0.1699-0.3105,0.2549-0.6689,0.2549-1.0752c0-0.4131-0.085-0.7734-0.2549-1.0801
		s-0.4014-0.5449-0.6943-0.7148c-0.2939-0.1699-0.627-0.2549-1-0.2549c-0.374,0-0.707,0.085-1,0.2549
		c-0.2939,0.1699-0.5273,0.4082-0.7002,0.7148c-0.1738,0.3066-0.2598,0.667-0.2598,1.0801c0,0.4063,0.0859,0.7646,0.2598,1.0752
		c0.1729,0.3096,0.4063,0.5498,0.7002,0.7197C-912.6289,595.6104-912.2988,595.6953-911.9326,595.6953z"/>
	<path fill="#FFFFFF" d="M-907.8018,596.2754v-7.4199h0.71v7.4199H-907.8018z M-907.2422,594.915l0.0195-0.9092l3.2705-2.9805
		h0.8701l-2.3105,2.21l-0.3994,0.3398L-907.2422,594.915z M-903.7324,596.2754l-2.1895-2.7305l0.46-0.5498l2.5996,3.2803H-903.7324z
		"/>
	<path fill="#FFFFFF" d="M-901.4326,589.8652c-0.1465,0-0.2695-0.0498-0.3701-0.1494c-0.0996-0.1006-0.1494-0.2207-0.1494-0.3604
		s0.0498-0.2588,0.1494-0.3555c0.1006-0.0957,0.2236-0.1445,0.3701-0.1445s0.2705,0.0469,0.3701,0.1396
		c0.0996,0.0938,0.1504,0.21,0.1504,0.3506c0,0.1465-0.0488,0.2695-0.1455,0.3701
		C-901.1543,589.8154-901.2793,589.8652-901.4326,589.8652z M-901.792,596.2754v-5.25h0.71v5.25H-901.792z"/>
	<path fill="#FFFFFF" d="M-896.4229,590.9756c0.4268,0,0.8018,0.0811,1.125,0.2451c0.3232,0.1631,0.5771,0.4111,0.7607,0.7451
		c0.1826,0.333,0.2744,0.7529,0.2744,1.2598v3.0498h-0.71v-2.9805c0-0.5527-0.1387-0.9707-0.415-1.2549
		c-0.2764-0.2832-0.665-0.4248-1.165-0.4248c-0.373,0-0.6982,0.0752-0.9746,0.2256c-0.2773,0.1494-0.4902,0.3662-0.6406,0.6494
		c-0.1494,0.2832-0.2246,0.625-0.2246,1.0254v2.7598h-0.71v-5.25h0.6797v1.4404l-0.1094-0.2705
		c0.166-0.3799,0.4326-0.6777,0.7998-0.8945C-897.3662,591.084-896.9297,590.9756-896.4229,590.9756z"/>
	<path fill="#FFFFFF" d="M-890.2324,596.0752c-0.5,0-0.9502-0.1084-1.3496-0.3252c-0.4004-0.2158-0.7148-0.5176-0.9453-0.9043
		c-0.2295-0.3867-0.3447-0.8301-0.3447-1.3301s0.1152-0.9414,0.3447-1.3252c0.2305-0.3838,0.5449-0.6816,0.9453-0.8955
		c0.3994-0.2129,0.8496-0.3193,1.3496-0.3193c0.4668,0,0.8867,0.0967,1.2598,0.29c0.374,0.1934,0.6699,0.4795,0.8906,0.8594
		c0.2197,0.3809,0.3301,0.8438,0.3301,1.3906s-0.1104,1.0098-0.3301,1.3896c-0.2207,0.3799-0.5166,0.6699-0.8906,0.8701
		C-889.3457,595.9756-889.7656,596.0752-890.2324,596.0752z M-890.1025,598.2656c-0.4795,0-0.9395-0.0703-1.3799-0.21
		c-0.4395-0.1406-0.7969-0.3398-1.0703-0.6006l0.3604-0.54c0.2471,0.2207,0.5518,0.3955,0.915,0.5254s0.748,0.1953,1.1553,0.1953
		c0.666,0,1.1563-0.1553,1.4697-0.4658c0.3135-0.3096,0.4697-0.791,0.4697-1.4443v-1.3105l0.1006-0.8994l-0.0703-0.9004v-1.5898
		h0.6797v4.6104c0,0.9063-0.2217,1.5713-0.665,1.9951C-888.5811,598.0537-889.2354,598.2656-890.1025,598.2656z M-890.1621,595.4453
		c0.3867,0,0.7295-0.0811,1.0303-0.2451c0.2998-0.1631,0.5361-0.3896,0.71-0.6797c0.1729-0.29,0.2598-0.625,0.2598-1.0049
		s-0.0869-0.7139-0.2598-1c-0.1738-0.2871-0.4102-0.5117-0.71-0.6748c-0.3008-0.1641-0.6436-0.2451-1.0303-0.2451
		c-0.3799,0-0.7217,0.0811-1.0254,0.2451c-0.3027,0.1631-0.54,0.3877-0.71,0.6748c-0.1699,0.2861-0.2549,0.6201-0.2549,1
		s0.085,0.7148,0.2549,1.0049s0.4072,0.5166,0.71,0.6797C-890.8838,595.3643-890.542,595.4453-890.1621,595.4453z"/>
	<path fill="#FFFFFF" d="M-955.2217,612.3252c-0.52,0-0.9849-0.1152-1.395-0.3447c-0.4097-0.2305-0.7314-0.5469-0.9648-0.9502
		s-0.3501-0.8652-0.3501-1.3848c0-0.5264,0.1167-0.9902,0.3501-1.3896c0.2334-0.4004,0.5552-0.7139,0.9648-0.9404
		c0.4102-0.2266,0.875-0.3398,1.395-0.3398c0.4468,0,0.8501,0.0869,1.21,0.2598c0.3604,0.1738,0.6436,0.4336,0.8501,0.7803
		l-0.5298,0.3594c-0.1802-0.2666-0.4038-0.4629-0.6704-0.5898c-0.2666-0.126-0.5566-0.1895-0.8696-0.1895
		c-0.3735,0-0.71,0.085-1.0103,0.2549c-0.2998,0.1699-0.5366,0.4082-0.71,0.7148s-0.2598,0.667-0.2598,1.0801
		s0.0864,0.7734,0.2598,1.0801s0.4102,0.5449,0.71,0.7148c0.3003,0.1699,0.6367,0.2549,1.0103,0.2549
		c0.313,0,0.603-0.0635,0.8696-0.1895c0.2666-0.127,0.4902-0.3203,0.6704-0.5801l0.5298,0.3594
		c-0.2065,0.3398-0.4897,0.5986-0.8501,0.7754C-954.3716,612.2373-954.7749,612.3252-955.2217,612.3252z"/>
	<path fill="#FFFFFF" d="M-949.7217,612.3252c-0.5068,0-0.9614-0.1152-1.3647-0.3447c-0.4038-0.2305-0.7217-0.5469-0.9551-0.9502
		s-0.3501-0.8652-0.3501-1.3848c0-0.5264,0.1167-0.9902,0.3501-1.3896c0.2334-0.4004,0.5498-0.7139,0.9497-0.9404
		c0.4004-0.2266,0.8569-0.3398,1.3701-0.3398c0.52,0,0.9814,0.1133,1.3853,0.3398c0.4033,0.2266,0.7197,0.54,0.9497,0.9404
		c0.23,0.3994,0.3452,0.8633,0.3452,1.3896c0,0.5195-0.1152,0.9814-0.3452,1.3848s-0.5483,0.7197-0.9551,0.9502
		C-948.748,612.21-949.2085,612.3252-949.7217,612.3252z M-949.7217,611.6953c0.3799,0,0.7168-0.085,1.0103-0.2549
		c0.293-0.1699,0.5249-0.4102,0.6948-0.7197c0.1699-0.3105,0.2549-0.6689,0.2549-1.0752c0-0.4131-0.085-0.7734-0.2549-1.0801
		s-0.4019-0.5449-0.6948-0.7148c-0.2935-0.1699-0.627-0.2549-1-0.2549c-0.3735,0-0.707,0.085-1,0.2549
		c-0.2935,0.1699-0.5269,0.4082-0.7002,0.7148s-0.2598,0.667-0.2598,1.0801c0,0.4063,0.0864,0.7646,0.2598,1.0752
		c0.1733,0.3096,0.4067,0.5498,0.7002,0.7197C-950.4185,611.6104-950.0884,611.6953-949.7217,611.6953z"/>
	<path fill="#FFFFFF" d="M-939.0317,606.9756c0.4268,0,0.7983,0.0811,1.1152,0.2451c0.3164,0.1631,0.5635,0.4111,0.7397,0.7451
		c0.1768,0.333,0.2651,0.7529,0.2651,1.2598v3.0498h-0.71v-2.9805c0-0.5527-0.1318-0.9707-0.395-1.2549
		c-0.2632-0.2832-0.6348-0.4248-1.1147-0.4248c-0.3604,0-0.6719,0.0752-0.9351,0.2256c-0.2637,0.1494-0.4668,0.3662-0.6104,0.6494
		c-0.1431,0.2832-0.2148,0.625-0.2148,1.0254v2.7598h-0.71v-2.9805c0-0.5527-0.1333-0.9707-0.3999-1.2549
		c-0.2666-0.2832-0.6401-0.4248-1.1201-0.4248c-0.3535,0-0.6636,0.0752-0.9302,0.2256c-0.2666,0.1494-0.4717,0.3662-0.6147,0.6494
		c-0.1436,0.2832-0.2148,0.625-0.2148,1.0254v2.7598h-0.71v-5.25h0.6797v1.4199l-0.1099-0.25
		c0.1602-0.3799,0.4185-0.6777,0.7749-0.8945s0.7783-0.3252,1.2651-0.3252c0.5132,0,0.9497,0.1279,1.3101,0.3848
		c0.3599,0.2568,0.5933,0.6416,0.6997,1.1553l-0.2798-0.1104c0.1533-0.4268,0.4248-0.7715,0.8149-1.0352
		C-940.0464,607.1074-939.5781,606.9756-939.0317,606.9756z"/>
	<path fill="#FFFFFF" d="M-934.9814,614.2158v-7.1904h0.6797v1.5801l-0.0698,1.0498l0.1001,1.0605v3.5H-934.9814z
		 M-932.2715,612.3252c-0.4536,0-0.8638-0.1045-1.23-0.3145c-0.3667-0.21-0.6587-0.5137-0.875-0.9102
		c-0.2168-0.3965-0.3252-0.8818-0.3252-1.4551s0.1064-1.0586,0.3198-1.4551s0.5034-0.6982,0.8701-0.9053
		c0.3667-0.2061,0.7803-0.3096,1.2402-0.3096c0.5,0,0.9482,0.1113,1.3447,0.335s0.7085,0.5361,0.9351,0.9395
		c0.2266,0.4043,0.3398,0.8691,0.3398,1.3955c0,0.5332-0.1133,1-0.3398,1.3994c-0.2266,0.4004-0.5386,0.7139-0.9351,0.9404
		S-931.7715,612.3252-932.2715,612.3252z M-932.3218,611.6953c0.3735,0,0.7065-0.085,1-0.2549s0.5269-0.4102,0.7002-0.7197
		c0.1733-0.3105,0.2598-0.6689,0.2598-1.0752s-0.0864-0.7637-0.2598-1.0703s-0.4067-0.5459-0.7002-0.7197s-0.6265-0.2598-1-0.2598
		s-0.7085,0.0859-1.0049,0.2598c-0.2969,0.1738-0.5298,0.4131-0.7002,0.7197c-0.1699,0.3066-0.2549,0.6641-0.2549,1.0703
		s0.085,0.7646,0.2549,1.0752c0.1704,0.3096,0.4033,0.5498,0.7002,0.7197C-933.0303,611.6104-932.6953,611.6953-932.3218,611.6953z"
		/>
	<path fill="#FFFFFF" d="M-925.9717,612.3252c-0.5469,0-1.0269-0.1152-1.4404-0.3447c-0.4131-0.2305-0.7363-0.5469-0.9697-0.9502
		s-0.3501-0.8652-0.3501-1.3848c0-0.5205,0.1118-0.9805,0.335-1.3799c0.2231-0.4004,0.5303-0.7148,0.9199-0.9453
		c0.3901-0.2295,0.8286-0.3447,1.3149-0.3447c0.4937,0,0.9316,0.1113,1.3154,0.335c0.3833,0.2236,0.6846,0.5361,0.9048,0.9395
		c0.2202,0.4043,0.3301,0.8691,0.3301,1.3955c0,0.0332-0.002,0.0684-0.0049,0.1045c-0.0034,0.0371-0.0054,0.0752-0.0054,0.1152
		h-4.5698v-0.5303h4.1899l-0.2798,0.21c0-0.3799-0.082-0.7178-0.2451-1.0146c-0.1636-0.2969-0.3853-0.5283-0.665-0.6953
		c-0.2798-0.166-0.6035-0.25-0.9702-0.25c-0.3599,0-0.6831,0.084-0.9697,0.25c-0.2866,0.167-0.5103,0.4004-0.6699,0.7002
		c-0.1602,0.2998-0.2402,0.6436-0.2402,1.0303v0.1104c0,0.3994,0.0884,0.751,0.2651,1.0547s0.4233,0.54,0.7397,0.71
		c0.3169,0.1699,0.6787,0.2549,1.0854,0.2549c0.3198,0,0.6182-0.0566,0.8945-0.1699c0.2769-0.1133,0.5151-0.2861,0.7153-0.5195
		l0.3999,0.46c-0.2334,0.2793-0.5249,0.4932-0.875,0.6396S-925.5518,612.3252-925.9717,612.3252z"/>
	<path fill="#FFFFFF" d="M-922.9819,607.6152v-0.5898h3.2495v0.5898H-922.9819z M-920.502,612.3252
		c-0.4932,0-0.874-0.1328-1.1406-0.3994s-0.3994-0.6436-0.3994-1.1309v-4.9297h0.71v4.8906c0,0.3066,0.0781,0.543,0.2354,0.71
		c0.1563,0.166,0.3809,0.25,0.6748,0.25c0.3135,0,0.5732-0.0908,0.7793-0.2705l0.25,0.5098
		c-0.1396,0.127-0.3076,0.2207-0.5049,0.2803C-920.0938,612.2949-920.2959,612.3252-920.502,612.3252z"/>
	<path fill="#FFFFFF" d="M-917.7422,605.8652c-0.1465,0-0.2695-0.0498-0.3701-0.1494c-0.0996-0.1006-0.1494-0.2207-0.1494-0.3604
		s0.0498-0.2588,0.1494-0.3555c0.1006-0.0957,0.2236-0.1445,0.3701-0.1445s0.2705,0.0469,0.3701,0.1396
		c0.0996,0.0938,0.1504,0.21,0.1504,0.3506c0,0.1465-0.0488,0.2695-0.1455,0.3701
		C-917.4639,605.8154-917.5889,605.8652-917.7422,605.8652z M-918.1016,612.2754v-5.25h0.71v5.25H-918.1016z"/>
	<path fill="#FFFFFF" d="M-916.2324,607.6152v-0.5898h3.25v0.5898H-916.2324z M-913.752,612.3252
		c-0.4932,0-0.874-0.1328-1.1406-0.3994s-0.3994-0.6436-0.3994-1.1309v-4.9297h0.71v4.8906c0,0.3066,0.0781,0.543,0.2354,0.71
		c0.1563,0.166,0.3809,0.25,0.6748,0.25c0.3135,0,0.5732-0.0908,0.7793-0.2705l0.25,0.5098
		c-0.1396,0.127-0.3076,0.2207-0.5049,0.2803C-913.3438,612.2949-913.5459,612.3252-913.752,612.3252z"/>
	<path fill="#FFFFFF" d="M-909.4023,612.3252c-0.5068,0-0.9619-0.1152-1.3652-0.3447c-0.4033-0.2305-0.7217-0.5469-0.9551-0.9502
		s-0.3496-0.8652-0.3496-1.3848c0-0.5264,0.1162-0.9902,0.3496-1.3896c0.2334-0.4004,0.5498-0.7139,0.9502-0.9404
		s0.8564-0.3398,1.3701-0.3398c0.5195,0,0.9814,0.1133,1.3848,0.3398s0.7197,0.54,0.9502,0.9404
		c0.2295,0.3994,0.3447,0.8633,0.3447,1.3896c0,0.5195-0.1152,0.9814-0.3447,1.3848c-0.2305,0.4033-0.5488,0.7197-0.9551,0.9502
		C-908.4287,612.21-908.8896,612.3252-909.4023,612.3252z M-909.4023,611.6953c0.3799,0,0.7168-0.085,1.0098-0.2549
		s0.5254-0.4102,0.6953-0.7197c0.1699-0.3105,0.2549-0.6689,0.2549-1.0752c0-0.4131-0.085-0.7734-0.2549-1.0801
		s-0.4023-0.5449-0.6953-0.7148s-0.627-0.2549-1-0.2549s-0.707,0.085-1,0.2549s-0.5264,0.4082-0.7002,0.7148
		c-0.1729,0.3066-0.2598,0.667-0.2598,1.0801c0,0.4063,0.0869,0.7646,0.2598,1.0752c0.1738,0.3096,0.4072,0.5498,0.7002,0.7197
		S-909.7695,611.6953-909.4023,611.6953z"/>
	<path fill="#FFFFFF" d="M-905.2725,612.2754v-5.25h0.6797v1.4297l-0.0693-0.25c0.1465-0.3994,0.3926-0.7051,0.7393-0.915
		s0.7773-0.3145,1.29-0.3145v0.6895c-0.0264,0-0.0527-0.001-0.0801-0.0049c-0.0264-0.0029-0.0527-0.0049-0.0791-0.0049
		c-0.5537,0-0.9873,0.1689-1.3008,0.5049c-0.3135,0.3369-0.4697,0.8154-0.4697,1.4355v2.6797H-905.2725z"/>
	<path fill="#FFFFFF" d="M-899.873,612.3252c-0.4326,0-0.8428-0.0615-1.2295-0.1846s-0.6904-0.2783-0.9102-0.4648l0.3203-0.5605
		c0.2129,0.1602,0.4863,0.2988,0.8193,0.415c0.334,0.1172,0.6836,0.1748,1.0508,0.1748c0.5,0,0.8594-0.0781,1.0791-0.2344
		c0.2207-0.1572,0.3301-0.3652,0.3301-0.625c0-0.1934-0.0615-0.3457-0.1846-0.4551c-0.123-0.1104-0.2852-0.1934-0.4854-0.25
		c-0.1992-0.0566-0.4229-0.1055-0.6699-0.1455c-0.2461-0.04-0.4912-0.0859-0.7344-0.1396c-0.2441-0.0537-0.4658-0.1318-0.665-0.2354
		c-0.2002-0.1025-0.3623-0.2451-0.4854-0.4248s-0.1846-0.4199-0.1846-0.7197c0-0.2871,0.0791-0.5439,0.2393-0.7705
		s0.3955-0.4043,0.7051-0.5352c0.3105-0.1299,0.6885-0.1943,1.1348-0.1943c0.3408,0,0.6807,0.0449,1.0205,0.1348
		s0.6201,0.208,0.8398,0.3555l-0.3096,0.5693c-0.2334-0.1602-0.4834-0.2744-0.75-0.3447s-0.5342-0.1055-0.8008-0.1055
		c-0.4727,0-0.8213,0.082-1.0449,0.2451c-0.2227,0.1641-0.335,0.3721-0.335,0.625c0,0.2002,0.0615,0.3574,0.1855,0.4707
		c0.123,0.1133,0.2861,0.2012,0.4902,0.2646c0.2031,0.0635,0.4258,0.1152,0.6699,0.1553c0.2432,0.04,0.4863,0.0879,0.7295,0.1445
		s0.4668,0.1338,0.6699,0.2305s0.3672,0.2334,0.4902,0.4102c0.123,0.1758,0.1846,0.4082,0.1846,0.6943
		c0,0.3066-0.085,0.5723-0.2549,0.7949c-0.1699,0.2236-0.416,0.3975-0.7393,0.5205
		C-899.0215,612.2637-899.4131,612.3252-899.873,612.3252z"/>
</g>
</svg>
