<?xml version="1.0" encoding="utf-8"?>
<!-- Generator: Adobe Illustrator 18.1.1, SVG Export Plug-In . SVG Version: 6.00 Build 0)  -->
<svg version="1.1" id="Layer_1" xmlns="http://www.w3.org/2000/svg" xmlns:xlink="http://www.w3.org/1999/xlink" x="0px" y="0px"
	 viewBox="0 0 286 336" enable-background="new 0 0 286 336" xml:space="preserve">
<rect width="286" height="336"/>
<g>
	<path fill="#FFFFFF" d="M37.6,54.8c-1.8,0-3.5-0.3-5.1-0.9c-1.6-0.6-2.9-1.5-4.1-2.6c-1.1-1.1-2-2.4-2.7-4c-0.6-1.5-1-3.2-1-5
		c0-1.8,0.3-3.5,1-5c0.6-1.5,1.5-2.8,2.7-4c1.2-1.1,2.5-2,4.1-2.6c1.6-0.6,3.3-0.9,5.1-0.9c1.8,0,3.4,0.3,5,0.9
		c1.6,0.6,2.9,1.5,4,2.7L45,35.1c-1-1-2.1-1.8-3.3-2.2c-1.2-0.5-2.5-0.7-3.9-0.7c-1.5,0-2.8,0.3-4.1,0.8c-1.3,0.5-2.4,1.2-3.3,2.1
		c-0.9,0.9-1.7,2-2.2,3.2s-0.8,2.6-0.8,4s0.3,2.8,0.8,4s1.3,2.3,2.2,3.2c0.9,0.9,2,1.6,3.3,2.1c1.3,0.5,2.6,0.8,4.1,0.8
		c1.4,0,2.7-0.2,3.9-0.7s2.3-1.2,3.3-2.2l1.6,1.6c-1.1,1.2-2.4,2.1-4,2.7C41.1,54.5,39.4,54.8,37.6,54.8z"/>
	<path fill="#FFFFFF" d="M51.6,54.6V36.2H54v5l-0.2-0.9c0.5-1.4,1.4-2.5,2.6-3.2c1.2-0.7,2.7-1.1,4.5-1.1v2.4c-0.1,0-0.2,0-0.3,0
		s-0.2,0-0.3,0c-1.9,0-3.5,0.6-4.5,1.8c-1.1,1.2-1.6,2.9-1.6,5v9.4H51.6z"/>
	<path fill="#FFFFFF" d="M73,54.8c-1.9,0-3.6-0.4-5-1.2c-1.4-0.8-2.6-1.9-3.4-3.3c-0.8-1.4-1.2-3-1.2-4.8c0-1.8,0.4-3.4,1.2-4.8
		c0.8-1.4,1.9-2.5,3.2-3.3c1.4-0.8,2.9-1.2,4.6-1.2c1.7,0,3.3,0.4,4.6,1.2c1.3,0.8,2.4,1.9,3.2,3.3c0.8,1.4,1.2,3,1.2,4.9
		c0,0.1,0,0.2,0,0.4c0,0.1,0,0.3,0,0.4h-16v-1.9h14.7l-1,0.7c0-1.3-0.3-2.5-0.9-3.6c-0.6-1-1.3-1.8-2.3-2.4c-1-0.6-2.1-0.9-3.4-0.9
		c-1.3,0-2.4,0.3-3.4,0.9c-1,0.6-1.8,1.4-2.3,2.5c-0.6,1-0.8,2.3-0.8,3.6v0.4c0,1.4,0.3,2.6,0.9,3.7c0.6,1.1,1.5,1.9,2.6,2.5
		c1.1,0.6,2.4,0.9,3.8,0.9c1.1,0,2.2-0.2,3.1-0.6c1-0.4,1.8-1,2.5-1.8l1.4,1.6c-0.8,1-1.8,1.7-3.1,2.2C75.8,54.5,74.5,54.8,73,54.8z
		"/>
	<path fill="#FFFFFF" d="M91,54.8c-1.4,0-2.6-0.2-3.6-0.7c-1-0.5-1.8-1.1-2.3-1.9c-0.5-0.8-0.8-1.7-0.8-2.8c0-1,0.2-1.8,0.7-2.6
		c0.5-0.8,1.2-1.4,2.2-1.9c1-0.5,2.4-0.7,4.2-0.7h6.3v1.9h-6.3c-1.8,0-3,0.3-3.7,0.9c-0.7,0.6-1,1.4-1,2.3c0,1,0.4,1.9,1.2,2.5
		c0.8,0.6,2,0.9,3.4,0.9c1.4,0,2.6-0.3,3.6-1c1-0.6,1.8-1.6,2.2-2.8l0.6,1.7c-0.5,1.2-1.3,2.2-2.4,2.9C94.2,54.4,92.8,54.8,91,54.8z
		 M97.4,54.6v-4.1l-0.1-0.7v-6.8c0-1.6-0.4-2.8-1.3-3.6c-0.9-0.8-2.2-1.3-3.9-1.3c-1.2,0-2.3,0.2-3.4,0.6c-1.1,0.4-2,0.9-2.7,1.6
		l-1.1-1.9c0.9-0.8,2.1-1.4,3.4-1.8c1.3-0.4,2.7-0.6,4.1-0.6c2.4,0,4.2,0.6,5.5,1.8c1.3,1.2,1.9,3,1.9,5.4v11.4H97.4z"/>
	<path fill="#FFFFFF" d="M103.6,38.3v-2.1H115v2.1H103.6z M112.3,54.8c-1.7,0-3.1-0.5-4-1.4c-0.9-0.9-1.4-2.3-1.4-4V32.2h2.5v17.1
		c0,1.1,0.3,1.9,0.8,2.5c0.5,0.6,1.3,0.9,2.4,0.9c1.1,0,2-0.3,2.7-0.9l0.9,1.8c-0.5,0.4-1.1,0.8-1.8,1
		C113.7,54.7,113,54.8,112.3,54.8z"/>
	<path fill="#FFFFFF" d="M122,32.2c-0.5,0-0.9-0.2-1.3-0.5c-0.4-0.4-0.5-0.8-0.5-1.3c0-0.5,0.2-0.9,0.5-1.2c0.3-0.3,0.8-0.5,1.3-0.5
		c0.5,0,0.9,0.2,1.3,0.5c0.4,0.3,0.5,0.7,0.5,1.2c0,0.5-0.2,0.9-0.5,1.3C122.9,32,122.5,32.2,122,32.2z M120.7,54.6V36.2h2.5v18.4
		H120.7z"/>
	<path fill="#FFFFFF" d="M139.5,36c1.5,0,2.8,0.3,3.9,0.9c1.1,0.6,2,1.4,2.7,2.6c0.6,1.2,1,2.6,1,4.4v10.7h-2.5V44.2
		c0-1.9-0.5-3.4-1.5-4.4s-2.3-1.5-4.1-1.5c-1.3,0-2.4,0.3-3.4,0.8c-1,0.5-1.7,1.3-2.2,2.3c-0.5,1-0.8,2.2-0.8,3.6v9.7h-2.5V36.2h2.4
		v5l-0.4-0.9c0.6-1.3,1.5-2.4,2.8-3.1C136.2,36.4,137.7,36,139.5,36z"/>
	<path fill="#FFFFFF" d="M161.2,53.9c-1.8,0-3.3-0.4-4.7-1.1c-1.4-0.8-2.5-1.8-3.3-3.2c-0.8-1.4-1.2-2.9-1.2-4.7s0.4-3.3,1.2-4.6
		c0.8-1.3,1.9-2.4,3.3-3.1c1.4-0.7,3-1.1,4.7-1.1c1.6,0,3.1,0.3,4.4,1c1.3,0.7,2.3,1.7,3.1,3c0.8,1.3,1.2,3,1.2,4.9
		c0,1.9-0.4,3.5-1.2,4.9c-0.8,1.3-1.8,2.3-3.1,3S162.8,53.9,161.2,53.9z M161.6,61.6c-1.7,0-3.3-0.2-4.8-0.7
		c-1.5-0.5-2.8-1.2-3.7-2.1l1.3-1.9c0.9,0.8,1.9,1.4,3.2,1.8s2.6,0.7,4,0.7c2.3,0,4-0.5,5.1-1.6s1.6-2.8,1.6-5.1v-4.6l0.3-3.2
		l-0.2-3.1v-5.6h2.4v16.1c0,3.2-0.8,5.5-2.3,7C166.9,60.8,164.6,61.6,161.6,61.6z M161.4,51.7c1.4,0,2.6-0.3,3.6-0.9
		c1-0.6,1.9-1.4,2.5-2.4c0.6-1,0.9-2.2,0.9-3.5s-0.3-2.5-0.9-3.5c-0.6-1-1.4-1.8-2.5-2.4c-1-0.6-2.3-0.9-3.6-0.9
		c-1.3,0-2.5,0.3-3.6,0.9c-1.1,0.6-1.9,1.4-2.5,2.4c-0.6,1-0.9,2.2-0.9,3.5s0.3,2.5,0.9,3.5c0.6,1,1.4,1.8,2.5,2.4
		C158.9,51.4,160.1,51.7,161.4,51.7z"/>
	<path fill="#FFFFFF" d="M33.8,103.8c-1.8,0-3.3-0.4-4.7-1.2c-1.4-0.8-2.5-1.9-3.3-3.3c-0.8-1.4-1.2-3-1.2-4.9
		c0-1.9,0.4-3.5,1.2-4.9c0.8-1.4,1.9-2.5,3.3-3.3s3-1.2,4.7-1.2c1.6,0,3.1,0.4,4.3,1.1c1.3,0.7,2.3,1.8,3,3.2
		c0.8,1.4,1.1,3.1,1.1,5.1c0,2-0.4,3.7-1.1,5.1c-0.7,1.4-1.8,2.5-3,3.2C36.9,103.4,35.4,103.8,33.8,103.8z M34,101.6
		c1.3,0,2.5-0.3,3.5-0.9c1-0.6,1.9-1.4,2.4-2.5c0.6-1.1,0.9-2.3,0.9-3.8c0-1.4-0.3-2.7-0.9-3.8c-0.6-1.1-1.4-1.9-2.4-2.5
		c-1-0.6-2.2-0.9-3.5-0.9c-1.3,0-2.4,0.3-3.5,0.9c-1,0.6-1.8,1.4-2.5,2.5c-0.6,1.1-0.9,2.3-0.9,3.8c0,1.4,0.3,2.7,0.9,3.8
		c0.6,1.1,1.4,1.9,2.5,2.5C31.5,101.3,32.7,101.6,34,101.6z M40.9,103.6v-5.5l0.2-3.7l-0.4-3.7v-13h2.5v26H40.9z"/>
	<path fill="#FFFFFF" d="M55.4,103.8c-1.4,0-2.6-0.2-3.6-0.7c-1-0.5-1.8-1.1-2.3-1.9c-0.5-0.8-0.8-1.7-0.8-2.8c0-1,0.2-1.8,0.7-2.6
		c0.5-0.8,1.2-1.4,2.2-1.9c1-0.5,2.4-0.7,4.2-0.7h6.3v1.9h-6.3c-1.8,0-3,0.3-3.7,0.9c-0.7,0.6-1,1.4-1,2.3c0,1,0.4,1.9,1.2,2.5
		c0.8,0.6,2,0.9,3.4,0.9c1.4,0,2.6-0.3,3.6-1c1-0.6,1.8-1.6,2.2-2.8l0.6,1.7c-0.5,1.2-1.3,2.2-2.4,2.9
		C58.6,103.4,57.1,103.8,55.4,103.8z M61.7,103.6v-4.1l-0.1-0.7v-6.8c0-1.6-0.4-2.8-1.3-3.6c-0.9-0.8-2.2-1.3-3.9-1.3
		c-1.2,0-2.3,0.2-3.4,0.6c-1.1,0.4-2,0.9-2.7,1.6l-1.1-1.9c0.9-0.8,2.1-1.4,3.4-1.8c1.3-0.4,2.7-0.6,4.1-0.6c2.4,0,4.2,0.6,5.5,1.8
		c1.3,1.2,1.9,3,1.9,5.4v11.4H61.7z"/>
	<path fill="#FFFFFF" d="M68,87.3v-2.1h11.4v2.1H68z M76.7,103.8c-1.7,0-3.1-0.5-4-1.4c-0.9-0.9-1.4-2.3-1.4-4V81.2h2.5v17.1
		c0,1.1,0.3,1.9,0.8,2.5c0.5,0.6,1.3,0.9,2.4,0.9c1.1,0,2-0.3,2.7-0.9l0.9,1.8c-0.5,0.4-1.1,0.8-1.8,1
		C78.1,103.7,77.4,103.8,76.7,103.8z"/>
	<path fill="#FFFFFF" d="M90.3,103.8c-1.4,0-2.6-0.2-3.6-0.7c-1-0.5-1.8-1.1-2.3-1.9c-0.5-0.8-0.8-1.7-0.8-2.8c0-1,0.2-1.8,0.7-2.6
		c0.5-0.8,1.2-1.4,2.2-1.9c1-0.5,2.4-0.7,4.2-0.7H97v1.9h-6.3c-1.8,0-3,0.3-3.7,0.9c-0.7,0.6-1,1.4-1,2.3c0,1,0.4,1.9,1.2,2.5
		c0.8,0.6,2,0.9,3.4,0.9c1.4,0,2.6-0.3,3.6-1c1-0.6,1.8-1.6,2.2-2.8l0.6,1.7c-0.5,1.2-1.3,2.2-2.4,2.9
		C93.5,103.4,92,103.8,90.3,103.8z M96.6,103.6v-4.1l-0.1-0.7v-6.8c0-1.6-0.4-2.8-1.3-3.6c-0.9-0.8-2.2-1.3-3.9-1.3
		c-1.2,0-2.3,0.2-3.4,0.6c-1.1,0.4-2,0.9-2.7,1.6L84,87.5c0.9-0.8,2.1-1.4,3.4-1.8c1.3-0.4,2.7-0.6,4.1-0.6c2.4,0,4.2,0.6,5.5,1.8
		c1.3,1.2,1.9,3,1.9,5.4v11.4H96.6z"/>
	<path fill="#FFFFFF" d="M104.4,95.2V93h9.2v2.2H104.4z"/>
	<path fill="#FFFFFF" d="M126.8,103.8c-1.8,0-3.3-0.4-4.7-1.2c-1.4-0.8-2.5-1.9-3.3-3.3c-0.8-1.4-1.2-3-1.2-4.9
		c0-1.9,0.4-3.5,1.2-4.9c0.8-1.4,1.9-2.5,3.3-3.3s3-1.2,4.7-1.2c1.6,0,3.1,0.4,4.3,1.1c1.3,0.7,2.3,1.8,3,3.2
		c0.8,1.4,1.1,3.1,1.1,5.1c0,2-0.4,3.7-1.1,5.1c-0.7,1.4-1.8,2.5-3,3.2C129.8,103.4,128.4,103.8,126.8,103.8z M126.9,101.6
		c1.3,0,2.5-0.3,3.5-0.9c1-0.6,1.9-1.4,2.4-2.5c0.6-1.1,0.9-2.3,0.9-3.8c0-1.4-0.3-2.7-0.9-3.8c-0.6-1.1-1.4-1.9-2.4-2.5
		c-1-0.6-2.2-0.9-3.5-0.9c-1.3,0-2.4,0.3-3.5,0.9c-1,0.6-1.8,1.4-2.5,2.5c-0.6,1.1-0.9,2.3-0.9,3.8c0,1.4,0.3,2.7,0.9,3.8
		c0.6,1.1,1.4,1.9,2.5,2.5C124.5,101.3,125.6,101.6,126.9,101.6z M133.9,103.6v-5.5l0.2-3.7l-0.4-3.7v-13h2.5v26H133.9z"/>
	<path fill="#FFFFFF" d="M143.2,103.6V85.2h2.4v5l-0.2-0.9c0.5-1.4,1.4-2.5,2.6-3.2c1.2-0.7,2.7-1.1,4.5-1.1v2.4c-0.1,0-0.2,0-0.3,0
		c-0.1,0-0.2,0-0.3,0c-1.9,0-3.5,0.6-4.5,1.8s-1.6,2.9-1.6,5v9.4H143.2z"/>
	<path fill="#FFFFFF" d="M158.2,81.2c-0.5,0-0.9-0.2-1.3-0.5c-0.4-0.4-0.5-0.8-0.5-1.3c0-0.5,0.2-0.9,0.5-1.2
		c0.3-0.3,0.8-0.5,1.3-0.5c0.5,0,0.9,0.2,1.3,0.5c0.3,0.3,0.5,0.7,0.5,1.2c0,0.5-0.2,0.9-0.5,1.3C159.2,81,158.7,81.2,158.2,81.2z
		 M156.9,103.6V85.2h2.5v18.4H156.9z"/>
	<path fill="#FFFFFF" d="M171.1,103.6l-8.2-18.4h2.6l7.5,17h-1.2l7.6-17h2.5l-8.2,18.4H171.1z"/>
	<path fill="#FFFFFF" d="M192.6,103.8c-1.9,0-3.6-0.4-5-1.2c-1.4-0.8-2.6-1.9-3.4-3.3c-0.8-1.4-1.2-3-1.2-4.8c0-1.8,0.4-3.4,1.2-4.8
		c0.8-1.4,1.9-2.5,3.2-3.3c1.4-0.8,2.9-1.2,4.6-1.2c1.7,0,3.3,0.4,4.6,1.2s2.4,1.9,3.2,3.3c0.8,1.4,1.2,3,1.2,4.9c0,0.1,0,0.2,0,0.4
		c0,0.1,0,0.3,0,0.4h-16v-1.9h14.7l-1,0.7c0-1.3-0.3-2.5-0.9-3.6c-0.6-1-1.3-1.8-2.3-2.4c-1-0.6-2.1-0.9-3.4-0.9
		c-1.3,0-2.4,0.3-3.4,0.9c-1,0.6-1.8,1.4-2.3,2.5c-0.6,1-0.8,2.3-0.8,3.6v0.4c0,1.4,0.3,2.6,0.9,3.7c0.6,1.1,1.5,1.9,2.6,2.5
		c1.1,0.6,2.4,0.9,3.8,0.9c1.1,0,2.2-0.2,3.1-0.6c1-0.4,1.8-1,2.5-1.8l1.4,1.6c-0.8,1-1.8,1.7-3.1,2.2
		C195.4,103.5,194.1,103.8,192.6,103.8z"/>
	<path fill="#FFFFFF" d="M215.3,85c1.5,0,2.8,0.3,3.9,0.9s2,1.4,2.7,2.6c0.6,1.2,1,2.6,1,4.4v10.7h-2.5V93.2c0-1.9-0.5-3.4-1.5-4.4
		c-1-1-2.3-1.5-4.1-1.5c-1.3,0-2.4,0.3-3.4,0.8c-1,0.5-1.7,1.3-2.2,2.3c-0.5,1-0.8,2.2-0.8,3.6v9.7h-2.5V85.2h2.4v5l-0.4-0.9
		c0.6-1.3,1.5-2.4,2.8-3.1C212,85.4,213.5,85,215.3,85z"/>
	<path fill="#FFFFFF" d="M31.4,152.8c-1.5,0-3-0.2-4.3-0.6c-1.4-0.4-2.4-1-3.2-1.6l1.1-2c0.7,0.6,1.7,1,2.9,1.5
		c1.2,0.4,2.4,0.6,3.7,0.6c1.8,0,3-0.3,3.8-0.8c0.8-0.5,1.2-1.3,1.2-2.2c0-0.7-0.2-1.2-0.6-1.6s-1-0.7-1.7-0.9s-1.5-0.4-2.3-0.5
		c-0.9-0.1-1.7-0.3-2.6-0.5c-0.9-0.2-1.6-0.5-2.3-0.8c-0.7-0.4-1.3-0.9-1.7-1.5c-0.4-0.6-0.6-1.5-0.6-2.5c0-1,0.3-1.9,0.8-2.7
		c0.6-0.8,1.4-1.4,2.5-1.9s2.4-0.7,4-0.7c1.2,0,2.4,0.2,3.6,0.5c1.2,0.3,2.2,0.7,2.9,1.2l-1.1,2c-0.8-0.6-1.7-1-2.6-1.2
		s-1.9-0.4-2.8-0.4c-1.7,0-2.9,0.3-3.7,0.9c-0.8,0.6-1.2,1.3-1.2,2.2c0,0.7,0.2,1.2,0.6,1.6c0.4,0.4,1,0.7,1.7,0.9
		c0.7,0.2,1.5,0.4,2.3,0.5c0.9,0.1,1.7,0.3,2.6,0.5c0.9,0.2,1.6,0.5,2.3,0.8c0.7,0.3,1.3,0.8,1.7,1.4c0.4,0.6,0.6,1.4,0.6,2.4
		c0,1.1-0.3,2-0.9,2.8c-0.6,0.8-1.5,1.4-2.6,1.8C34.4,152.6,33,152.8,31.4,152.8z"/>
	<path fill="#FFFFFF" d="M40.7,136.3v-2.1h11.4v2.1H40.7z M49.4,152.8c-1.7,0-3.1-0.5-4-1.4c-0.9-0.9-1.4-2.3-1.4-4v-17.3h2.5v17.1
		c0,1.1,0.3,1.9,0.8,2.5c0.5,0.6,1.3,0.9,2.4,0.9c1.1,0,2-0.3,2.7-0.9l0.9,1.8c-0.5,0.4-1.1,0.8-1.8,1
		C50.8,152.7,50.1,152.8,49.4,152.8z"/>
	<path fill="#FFFFFF" d="M57.8,152.6v-18.4h2.4v5l-0.2-0.9c0.5-1.4,1.4-2.5,2.6-3.2c1.2-0.7,2.7-1.1,4.5-1.1v2.4c-0.1,0-0.2,0-0.3,0
		s-0.2,0-0.3,0c-1.9,0-3.5,0.6-4.5,1.8c-1.1,1.2-1.6,2.9-1.6,5v9.4H57.8z"/>
	<path fill="#FFFFFF" d="M75.3,152.8c-1.4,0-2.6-0.2-3.6-0.7c-1-0.5-1.8-1.1-2.3-1.9c-0.5-0.8-0.8-1.7-0.8-2.8c0-1,0.2-1.8,0.7-2.6
		c0.5-0.8,1.2-1.4,2.2-1.9c1-0.5,2.4-0.7,4.2-0.7h6.3v1.9h-6.3c-1.8,0-3,0.3-3.7,0.9c-0.7,0.6-1,1.4-1,2.3c0,1,0.4,1.9,1.2,2.5
		c0.8,0.6,2,0.9,3.4,0.9c1.4,0,2.6-0.3,3.6-1c1-0.6,1.8-1.6,2.2-2.8l0.6,1.7c-0.5,1.2-1.3,2.2-2.4,2.9
		C78.5,152.4,77.1,152.8,75.3,152.8z M81.7,152.6v-4.1l-0.1-0.7v-6.8c0-1.6-0.4-2.8-1.3-3.6s-2.2-1.3-3.9-1.3
		c-1.2,0-2.3,0.2-3.4,0.6c-1.1,0.4-2,0.9-2.7,1.6l-1.1-1.9c0.9-0.8,2.1-1.4,3.4-1.8c1.3-0.4,2.7-0.6,4.1-0.6c2.4,0,4.2,0.6,5.5,1.8
		s1.9,3,1.9,5.4v11.4H81.7z"/>
	<path fill="#FFFFFF" d="M87.9,136.3v-2.1h11.4v2.1H87.9z M96.6,152.8c-1.7,0-3.1-0.5-4-1.4c-0.9-0.9-1.4-2.3-1.4-4v-17.3h2.5v17.1
		c0,1.1,0.3,1.9,0.8,2.5c0.5,0.6,1.3,0.9,2.4,0.9c1.1,0,2-0.3,2.7-0.9l0.9,1.8c-0.5,0.4-1.1,0.8-1.8,1
		C98,152.7,97.3,152.8,96.6,152.8z"/>
	<path fill="#FFFFFF" d="M112.2,152.8c-1.9,0-3.6-0.4-5-1.2c-1.4-0.8-2.6-1.9-3.4-3.3c-0.8-1.4-1.2-3-1.2-4.8s0.4-3.4,1.2-4.8
		c0.8-1.4,1.9-2.5,3.2-3.3c1.4-0.8,2.9-1.2,4.6-1.2c1.7,0,3.3,0.4,4.6,1.2c1.3,0.8,2.4,1.9,3.2,3.3c0.8,1.4,1.2,3,1.2,4.9
		c0,0.1,0,0.2,0,0.4c0,0.1,0,0.3,0,0.4h-16v-1.9h14.7l-1,0.7c0-1.3-0.3-2.5-0.9-3.6c-0.6-1-1.3-1.8-2.3-2.4c-1-0.6-2.1-0.9-3.4-0.9
		c-1.3,0-2.4,0.3-3.4,0.9c-1,0.6-1.8,1.4-2.3,2.5c-0.6,1-0.8,2.3-0.8,3.6v0.4c0,1.4,0.3,2.6,0.9,3.7c0.6,1.1,1.5,1.9,2.6,2.5
		c1.1,0.6,2.4,0.9,3.8,0.9c1.1,0,2.2-0.2,3.1-0.6c1-0.4,1.8-1,2.5-1.8l1.4,1.6c-0.8,1-1.8,1.7-3.1,2.2S113.6,152.8,112.2,152.8z"/>
	<path fill="#FFFFFF" d="M132.9,151.9c-1.8,0-3.3-0.4-4.7-1.1c-1.4-0.8-2.5-1.8-3.3-3.2c-0.8-1.4-1.2-2.9-1.2-4.7s0.4-3.3,1.2-4.6
		c0.8-1.3,1.9-2.4,3.3-3.1s3-1.1,4.7-1.1c1.6,0,3.1,0.3,4.4,1s2.3,1.7,3.1,3s1.2,3,1.2,4.9c0,1.9-0.4,3.5-1.2,4.9s-1.8,2.3-3.1,3
		S134.5,151.9,132.9,151.9z M133.3,159.6c-1.7,0-3.3-0.2-4.8-0.7c-1.5-0.5-2.8-1.2-3.7-2.1l1.3-1.9c0.9,0.8,1.9,1.4,3.2,1.8
		c1.3,0.5,2.6,0.7,4,0.7c2.3,0,4-0.5,5.1-1.6s1.6-2.8,1.6-5.1v-4.6l0.4-3.2l-0.2-3.1v-5.6h2.4v16.1c0,3.2-0.8,5.5-2.3,7
		C138.7,158.8,136.4,159.6,133.3,159.6z M133.1,149.7c1.4,0,2.6-0.3,3.6-0.9c1-0.6,1.9-1.4,2.5-2.4c0.6-1,0.9-2.2,0.9-3.5
		s-0.3-2.5-0.9-3.5c-0.6-1-1.4-1.8-2.5-2.4c-1.1-0.6-2.3-0.9-3.6-0.9c-1.3,0-2.5,0.3-3.6,0.9c-1.1,0.6-1.9,1.4-2.5,2.4
		c-0.6,1-0.9,2.2-0.9,3.5s0.3,2.5,0.9,3.5c0.6,1,1.4,1.8,2.5,2.4C130.6,149.4,131.8,149.7,133.1,149.7z"/>
	<path fill="#FFFFFF" d="M150.7,130.2c-0.5,0-0.9-0.2-1.3-0.5s-0.5-0.8-0.5-1.3c0-0.5,0.2-0.9,0.5-1.2c0.3-0.3,0.8-0.5,1.3-0.5
		c0.5,0,0.9,0.2,1.3,0.5c0.4,0.3,0.5,0.7,0.5,1.2c0,0.5-0.2,0.9-0.5,1.3S151.3,130.2,150.7,130.2z M149.5,152.6v-18.4h2.5v18.4
		H149.5z"/>
	<path fill="#FFFFFF" d="M166.7,152.8c-1.9,0-3.6-0.4-5-1.2c-1.4-0.8-2.6-1.9-3.4-3.3c-0.8-1.4-1.2-3-1.2-4.8s0.4-3.4,1.2-4.8
		c0.8-1.4,1.9-2.5,3.2-3.3c1.4-0.8,2.9-1.2,4.6-1.2c1.7,0,3.3,0.4,4.6,1.2c1.3,0.8,2.4,1.9,3.2,3.3c0.8,1.4,1.2,3,1.2,4.9
		c0,0.1,0,0.2,0,0.4c0,0.1,0,0.3,0,0.4h-16v-1.9h14.7l-1,0.7c0-1.3-0.3-2.5-0.9-3.6c-0.6-1-1.3-1.8-2.3-2.4c-1-0.6-2.1-0.9-3.4-0.9
		c-1.3,0-2.4,0.3-3.4,0.9c-1,0.6-1.8,1.4-2.3,2.5s-0.8,2.3-0.8,3.6v0.4c0,1.4,0.3,2.6,0.9,3.7c0.6,1.1,1.5,1.9,2.6,2.5
		c1.1,0.6,2.4,0.9,3.8,0.9c1.1,0,2.2-0.2,3.1-0.6c1-0.4,1.8-1,2.5-1.8l1.4,1.6c-0.8,1-1.8,1.7-3.1,2.2
		C169.5,152.5,168.2,152.8,166.7,152.8z"/>
	<path fill="#FFFFFF" d="M185,152.8c-1.5,0-3-0.2-4.3-0.6c-1.4-0.4-2.4-1-3.2-1.6l1.1-2c0.7,0.6,1.7,1,2.9,1.5
		c1.2,0.4,2.4,0.6,3.7,0.6c1.8,0,3-0.3,3.8-0.8c0.8-0.5,1.2-1.3,1.2-2.2c0-0.7-0.2-1.2-0.6-1.6s-1-0.7-1.7-0.9s-1.5-0.4-2.3-0.5
		c-0.9-0.1-1.7-0.3-2.6-0.5c-0.9-0.2-1.6-0.5-2.3-0.8c-0.7-0.4-1.3-0.9-1.7-1.5s-0.6-1.5-0.6-2.5c0-1,0.3-1.9,0.8-2.7
		c0.6-0.8,1.4-1.4,2.5-1.9s2.4-0.7,4-0.7c1.2,0,2.4,0.2,3.6,0.5c1.2,0.3,2.2,0.7,2.9,1.2l-1.1,2c-0.8-0.6-1.7-1-2.6-1.2
		c-0.9-0.2-1.9-0.4-2.8-0.4c-1.7,0-2.9,0.3-3.7,0.9c-0.8,0.6-1.2,1.3-1.2,2.2c0,0.7,0.2,1.2,0.6,1.6c0.4,0.4,1,0.7,1.7,0.9
		c0.7,0.2,1.5,0.4,2.3,0.5s1.7,0.3,2.6,0.5c0.9,0.2,1.6,0.5,2.3,0.8c0.7,0.3,1.3,0.8,1.7,1.4c0.4,0.6,0.6,1.4,0.6,2.4
		c0,1.1-0.3,2-0.9,2.8c-0.6,0.8-1.5,1.4-2.6,1.8C187.9,152.6,186.6,152.8,185,152.8z"/>
	<path fill="#FFFFFF" d="M203.4,136.3v-2.1h11.4v2.1H203.4z M212.1,152.8c-1.7,0-3.1-0.5-4-1.4c-0.9-0.9-1.4-2.3-1.4-4v-17.3h2.5
		v17.1c0,1.1,0.3,1.9,0.8,2.5c0.5,0.6,1.3,0.9,2.4,0.9c1.1,0,2-0.3,2.7-0.9l0.9,1.8c-0.5,0.4-1.1,0.8-1.8,1
		C213.5,152.7,212.8,152.8,212.1,152.8z"/>
	<path fill="#FFFFFF" d="M227.3,152.8c-1.8,0-3.4-0.4-4.8-1.2c-1.4-0.8-2.5-1.9-3.3-3.3c-0.8-1.4-1.2-3-1.2-4.8
		c0-1.8,0.4-3.5,1.2-4.9c0.8-1.4,1.9-2.5,3.3-3.3c1.4-0.8,3-1.2,4.8-1.2c1.8,0,3.4,0.4,4.8,1.2c1.4,0.8,2.5,1.9,3.3,3.3
		c0.8,1.4,1.2,3,1.2,4.9c0,1.8-0.4,3.4-1.2,4.8c-0.8,1.4-1.9,2.5-3.3,3.3C230.7,152.4,229.1,152.8,227.3,152.8z M227.3,150.6
		c1.3,0,2.5-0.3,3.5-0.9c1-0.6,1.8-1.4,2.4-2.5c0.6-1.1,0.9-2.3,0.9-3.8c0-1.4-0.3-2.7-0.9-3.8c-0.6-1.1-1.4-1.9-2.4-2.5
		c-1-0.6-2.2-0.9-3.5-0.9c-1.3,0-2.5,0.3-3.5,0.9c-1,0.6-1.8,1.4-2.5,2.5c-0.6,1.1-0.9,2.3-0.9,3.8c0,1.4,0.3,2.7,0.9,3.8
		c0.6,1.1,1.4,1.9,2.5,2.5C224.9,150.3,226,150.6,227.3,150.6z"/>
	<path fill="#FFFFFF" d="M34.3,201.8c-1.9,0-3.6-0.4-5-1.2c-1.4-0.8-2.6-1.9-3.4-3.3c-0.8-1.4-1.2-3-1.2-4.8s0.4-3.4,1.2-4.8
		c0.8-1.4,1.9-2.5,3.2-3.3c1.4-0.8,2.9-1.2,4.6-1.2c1.7,0,3.3,0.4,4.6,1.2c1.3,0.8,2.4,1.9,3.2,3.3c0.8,1.4,1.2,3,1.2,4.9
		c0,0.1,0,0.2,0,0.4c0,0.1,0,0.3,0,0.4h-16v-1.9h14.7l-1,0.7c0-1.3-0.3-2.5-0.9-3.6c-0.6-1-1.3-1.8-2.3-2.4c-1-0.6-2.1-0.9-3.4-0.9
		c-1.3,0-2.4,0.3-3.4,0.9c-1,0.6-1.8,1.4-2.3,2.5c-0.6,1-0.8,2.3-0.8,3.6v0.4c0,1.4,0.3,2.6,0.9,3.7c0.6,1.1,1.5,1.9,2.6,2.5
		c1.1,0.6,2.4,0.9,3.8,0.9c1.1,0,2.2-0.2,3.1-0.6c1-0.4,1.8-1,2.5-1.8l1.4,1.6c-0.8,1-1.8,1.7-3.1,2.2S35.8,201.8,34.3,201.8z"/>
	<path fill="#FFFFFF" d="M57,183c1.5,0,2.8,0.3,3.9,0.9c1.1,0.6,2,1.4,2.7,2.6c0.6,1.2,1,2.6,1,4.4v10.7h-2.5v-10.4
		c0-1.9-0.5-3.4-1.5-4.4s-2.3-1.5-4.1-1.5c-1.3,0-2.4,0.3-3.4,0.8c-1,0.5-1.7,1.3-2.2,2.3c-0.5,1-0.8,2.2-0.8,3.6v9.7h-2.5v-18.4H50
		v5l-0.4-0.9c0.6-1.3,1.5-2.4,2.8-3.1C53.7,183.4,55.2,183,57,183z"/>
	<path fill="#FFFFFF" d="M80.7,183c1.5,0,2.8,0.3,3.9,0.9c1.1,0.6,2,1.4,2.7,2.6c0.6,1.2,1,2.6,1,4.4v10.7h-2.5v-10.4
		c0-1.9-0.5-3.4-1.5-4.4s-2.3-1.5-4.1-1.5c-1.3,0-2.4,0.3-3.4,0.8c-1,0.5-1.7,1.3-2.2,2.3c-0.5,1-0.8,2.2-0.8,3.6v9.7h-2.5v-26h2.5
		v12.6l-0.5-0.9c0.6-1.3,1.5-2.4,2.8-3.1C77.4,183.4,78.9,183,80.7,183z"/>
	<path fill="#FFFFFF" d="M100.1,201.8c-1.4,0-2.6-0.2-3.6-0.7c-1-0.5-1.8-1.1-2.3-1.9c-0.5-0.8-0.8-1.7-0.8-2.8c0-1,0.2-1.8,0.7-2.6
		c0.5-0.8,1.2-1.4,2.2-1.9c1-0.5,2.4-0.7,4.2-0.7h6.3v1.9h-6.3c-1.8,0-3,0.3-3.7,0.9c-0.7,0.6-1,1.4-1,2.3c0,1,0.4,1.9,1.2,2.5
		c0.8,0.6,2,0.9,3.4,0.9c1.4,0,2.6-0.3,3.6-1c1-0.6,1.8-1.6,2.2-2.8l0.6,1.7c-0.5,1.2-1.3,2.2-2.4,2.9
		C103.3,201.4,101.9,201.8,100.1,201.8z M106.5,201.6v-4.1l-0.1-0.7v-6.8c0-1.6-0.4-2.8-1.3-3.6s-2.2-1.3-3.9-1.3
		c-1.2,0-2.3,0.2-3.4,0.6c-1.1,0.4-2,0.9-2.7,1.6l-1.1-1.9c0.9-0.8,2.1-1.4,3.4-1.8c1.3-0.4,2.7-0.6,4.1-0.6c2.4,0,4.2,0.6,5.5,1.8
		s1.9,3,1.9,5.4v11.4H106.5z"/>
	<path fill="#FFFFFF" d="M125,183c1.5,0,2.8,0.3,3.9,0.9c1.1,0.6,2,1.4,2.7,2.6c0.6,1.2,1,2.6,1,4.4v10.7H130v-10.4
		c0-1.9-0.5-3.4-1.5-4.4s-2.3-1.5-4.1-1.5c-1.3,0-2.4,0.3-3.4,0.8c-1,0.5-1.7,1.3-2.2,2.3c-0.5,1-0.8,2.2-0.8,3.6v9.7h-2.5v-18.4
		h2.4v5l-0.4-0.9c0.6-1.3,1.5-2.4,2.8-3.1C121.7,183.4,123.2,183,125,183z"/>
	<path fill="#FFFFFF" d="M146.9,201.8c-1.8,0-3.4-0.4-4.9-1.2c-1.4-0.8-2.6-1.9-3.4-3.3c-0.8-1.4-1.2-3-1.2-4.8
		c0-1.8,0.4-3.5,1.2-4.9c0.8-1.4,1.9-2.5,3.4-3.3c1.4-0.8,3.1-1.2,4.9-1.2c1.6,0,3,0.3,4.2,0.9s2.3,1.5,3,2.7l-1.9,1.3
		c-0.6-0.9-1.4-1.6-2.3-2.1c-0.9-0.4-1.9-0.7-3-0.7c-1.3,0-2.5,0.3-3.5,0.9s-1.9,1.4-2.5,2.5c-0.6,1.1-0.9,2.3-0.9,3.8
		c0,1.4,0.3,2.7,0.9,3.8c0.6,1.1,1.4,1.9,2.5,2.5c1,0.6,2.2,0.9,3.5,0.9c1.1,0,2.1-0.2,3-0.7c0.9-0.4,1.7-1.1,2.3-2l1.9,1.3
		c-0.7,1.2-1.7,2.1-3,2.7C149.9,201.5,148.4,201.8,146.9,201.8z"/>
	<path fill="#FFFFFF" d="M166.4,201.8c-1.9,0-3.6-0.4-5-1.2c-1.4-0.8-2.6-1.9-3.4-3.3c-0.8-1.4-1.2-3-1.2-4.8s0.4-3.4,1.2-4.8
		c0.8-1.4,1.9-2.5,3.2-3.3c1.4-0.8,2.9-1.2,4.6-1.2c1.7,0,3.3,0.4,4.6,1.2c1.3,0.8,2.4,1.9,3.2,3.3c0.8,1.4,1.2,3,1.2,4.9
		c0,0.1,0,0.2,0,0.4c0,0.1,0,0.3,0,0.4h-16v-1.9h14.7l-1,0.7c0-1.3-0.3-2.5-0.9-3.6c-0.6-1-1.3-1.8-2.3-2.4c-1-0.6-2.1-0.9-3.4-0.9
		c-1.3,0-2.4,0.3-3.4,0.9c-1,0.6-1.8,1.4-2.3,2.5c-0.6,1-0.8,2.3-0.8,3.6v0.4c0,1.4,0.3,2.6,0.9,3.7s1.5,1.9,2.6,2.5
		c1.1,0.6,2.4,0.9,3.8,0.9c1.1,0,2.2-0.2,3.1-0.6c1-0.4,1.8-1,2.5-1.8l1.4,1.6c-0.8,1-1.8,1.7-3.1,2.2
		C169.3,201.5,167.9,201.8,166.4,201.8z"/>
	<path fill="#FFFFFF" d="M189.1,208.6c-0.9,0-1.7-0.1-2.5-0.4c-0.8-0.3-1.5-0.7-2-1.3l1.2-1.9c0.5,0.4,1,0.8,1.5,1
		c0.5,0.2,1.2,0.4,1.8,0.4c0.8,0,1.5-0.2,2.1-0.7s1.2-1.3,1.7-2.4l1.2-2.7l0.3-0.4l7.6-17h2.5l-9.2,20.6c-0.5,1.2-1.1,2.1-1.7,2.8
		c-0.6,0.7-1.3,1.2-2,1.5C190.8,208.4,190,208.6,189.1,208.6z M194,202.1l-8.5-18.9h2.6l7.5,16.9L194,202.1z"/>
	<path fill="#FFFFFF" d="M214.9,201.8c-1.8,0-3.4-0.4-4.8-1.2c-1.4-0.8-2.5-1.9-3.3-3.3c-0.8-1.4-1.2-3-1.2-4.8
		c0-1.8,0.4-3.5,1.2-4.9c0.8-1.4,1.9-2.5,3.3-3.3c1.4-0.8,3-1.2,4.8-1.2c1.8,0,3.4,0.4,4.8,1.2c1.4,0.8,2.5,1.9,3.3,3.3
		c0.8,1.4,1.2,3,1.2,4.9c0,1.8-0.4,3.4-1.2,4.8c-0.8,1.4-1.9,2.5-3.3,3.3C218.3,201.4,216.7,201.8,214.9,201.8z M214.9,199.6
		c1.3,0,2.5-0.3,3.5-0.9c1-0.6,1.8-1.4,2.4-2.5c0.6-1.1,0.9-2.3,0.9-3.8c0-1.4-0.3-2.7-0.9-3.8c-0.6-1.1-1.4-1.9-2.4-2.5
		c-1-0.6-2.2-0.9-3.5-0.9c-1.3,0-2.5,0.3-3.5,0.9c-1,0.6-1.8,1.4-2.5,2.5c-0.6,1.1-0.9,2.3-0.9,3.8c0,1.4,0.3,2.7,0.9,3.8
		c0.6,1.1,1.4,1.9,2.5,2.5C212.4,199.3,213.6,199.6,214.9,199.6z"/>
	<path fill="#FFFFFF" d="M236.9,201.8c-1.6,0-2.9-0.3-4.1-0.9c-1.2-0.6-2.1-1.5-2.7-2.6c-0.6-1.2-1-2.6-1-4.4v-10.7h2.5v10.4
		c0,2,0.5,3.4,1.5,4.4c1,1,2.3,1.5,4.1,1.5c1.3,0,2.4-0.3,3.3-0.8c0.9-0.5,1.7-1.3,2.2-2.3c0.5-1,0.8-2.2,0.8-3.6v-9.6h2.5v18.4
		h-2.4v-5l0.4,0.9c-0.6,1.4-1.5,2.4-2.7,3.2C240,201.4,238.6,201.8,236.9,201.8z"/>
	<path fill="#FFFFFF" d="M252.9,201.6v-18.4h2.4v5l-0.2-0.9c0.5-1.4,1.4-2.5,2.6-3.2c1.2-0.7,2.7-1.1,4.5-1.1v2.4
		c-0.1,0-0.2,0-0.3,0c-0.1,0-0.2,0-0.3,0c-1.9,0-3.5,0.6-4.5,1.8c-1.1,1.2-1.6,2.9-1.6,5v9.4H252.9z"/>
	<path fill="#FFFFFF" d="M34,250.8c-1.8,0-3.4-0.4-4.8-1.2c-1.4-0.8-2.5-1.9-3.3-3.3c-0.8-1.4-1.2-3-1.2-4.8c0-1.8,0.4-3.5,1.2-4.9
		c0.8-1.4,1.9-2.5,3.3-3.3c1.4-0.8,3-1.2,4.8-1.2c1.8,0,3.4,0.4,4.8,1.2c1.4,0.8,2.5,1.9,3.3,3.3c0.8,1.4,1.2,3,1.2,4.9
		c0,1.8-0.4,3.4-1.2,4.8c-0.8,1.4-1.9,2.5-3.3,3.3C37.4,250.4,35.8,250.8,34,250.8z M34,248.6c1.3,0,2.5-0.3,3.5-0.9
		c1-0.6,1.8-1.4,2.4-2.5c0.6-1.1,0.9-2.3,0.9-3.8c0-1.4-0.3-2.7-0.9-3.8c-0.6-1.1-1.4-1.9-2.4-2.5c-1-0.6-2.2-0.9-3.5-0.9
		c-1.3,0-2.5,0.3-3.5,0.9c-1,0.6-1.8,1.4-2.5,2.5c-0.6,1.1-0.9,2.3-0.9,3.8c0,1.4,0.3,2.7,0.9,3.8c0.6,1.1,1.4,1.9,2.5,2.5
		C31.5,248.3,32.7,248.6,34,248.6z"/>
	<path fill="#FFFFFF" d="M57.8,232c1.5,0,2.8,0.3,3.9,0.9c1.1,0.6,2,1.4,2.7,2.6c0.6,1.2,1,2.6,1,4.4v10.7h-2.5v-10.4
		c0-1.9-0.5-3.4-1.5-4.4s-2.3-1.5-4.1-1.5c-1.3,0-2.4,0.3-3.4,0.8c-1,0.5-1.7,1.3-2.2,2.3c-0.5,1-0.8,2.2-0.8,3.6v9.7h-2.5v-18.4
		h2.4v5l-0.4-0.9c0.6-1.3,1.5-2.4,2.8-3.1C54.5,232.4,56,232,57.8,232z"/>
	<path fill="#FFFFFF" d="M72.1,250.6v-26h2.5v26H72.1z"/>
	<path fill="#FFFFFF" d="M82.8,228.2c-0.5,0-0.9-0.2-1.3-0.5c-0.4-0.3-0.5-0.8-0.5-1.3c0-0.5,0.2-0.9,0.5-1.2
		c0.3-0.3,0.8-0.5,1.3-0.5c0.5,0,0.9,0.2,1.3,0.5c0.4,0.3,0.5,0.7,0.5,1.2c0,0.5-0.2,0.9-0.5,1.3C83.7,228,83.3,228.2,82.8,228.2z
		 M81.5,250.6v-18.4H84v18.4H81.5z"/>
	<path fill="#FFFFFF" d="M100.3,232c1.5,0,2.8,0.3,3.9,0.9c1.1,0.6,2,1.4,2.7,2.6c0.6,1.2,1,2.6,1,4.4v10.7h-2.5v-10.4
		c0-1.9-0.5-3.4-1.5-4.4s-2.3-1.5-4.1-1.5c-1.3,0-2.4,0.3-3.4,0.8c-1,0.5-1.7,1.3-2.2,2.3c-0.5,1-0.8,2.2-0.8,3.6v9.7h-2.5v-18.4
		h2.4v5l-0.4-0.9c0.6-1.3,1.5-2.4,2.8-3.1C97,232.4,98.5,232,100.3,232z"/>
	<path fill="#FFFFFF" d="M122.4,250.8c-1.9,0-3.6-0.4-5-1.2c-1.4-0.8-2.6-1.9-3.4-3.3c-0.8-1.4-1.2-3-1.2-4.8s0.4-3.4,1.2-4.8
		c0.8-1.4,1.9-2.5,3.2-3.3c1.4-0.8,2.9-1.2,4.6-1.2c1.7,0,3.3,0.4,4.6,1.2c1.3,0.8,2.4,1.9,3.2,3.3c0.8,1.4,1.2,3,1.2,4.9
		c0,0.1,0,0.2,0,0.4c0,0.1,0,0.3,0,0.4h-16v-1.9h14.7l-1,0.7c0-1.3-0.3-2.5-0.9-3.6c-0.6-1-1.3-1.8-2.3-2.4c-1-0.6-2.1-0.9-3.4-0.9
		c-1.3,0-2.4,0.3-3.4,0.9c-1,0.6-1.8,1.4-2.3,2.5c-0.6,1-0.8,2.3-0.8,3.6v0.4c0,1.4,0.3,2.6,0.9,3.7c0.6,1.1,1.5,1.9,2.6,2.5
		c1.1,0.6,2.4,0.9,3.8,0.9c1.1,0,2.2-0.2,3.1-0.6c1-0.4,1.8-1,2.5-1.8l1.4,1.6c-0.8,1-1.8,1.7-3.1,2.2S123.9,250.8,122.4,250.8z"/>
	<path fill="#FFFFFF" d="M26.5,306.4v-25.2h2.4v5.5l-0.2,3.7l0.4,3.7v12.3H26.5z M36,299.8c-1.6,0-3-0.4-4.3-1.1
		c-1.3-0.7-2.3-1.8-3.1-3.2c-0.8-1.4-1.1-3.1-1.1-5.1s0.4-3.7,1.1-5.1c0.7-1.4,1.8-2.4,3-3.2c1.3-0.7,2.7-1.1,4.3-1.1
		c1.8,0,3.3,0.4,4.7,1.2c1.4,0.8,2.5,1.9,3.3,3.3c0.8,1.4,1.2,3,1.2,4.9c0,1.9-0.4,3.5-1.2,4.9c-0.8,1.4-1.9,2.5-3.3,3.3
		C39.3,299.4,37.7,299.8,36,299.8z M35.8,297.6c1.3,0,2.5-0.3,3.5-0.9c1-0.6,1.8-1.4,2.5-2.5c0.6-1.1,0.9-2.3,0.9-3.8
		c0-1.4-0.3-2.7-0.9-3.7c-0.6-1.1-1.4-1.9-2.5-2.5c-1-0.6-2.2-0.9-3.5-0.9c-1.3,0-2.5,0.3-3.5,0.9c-1,0.6-1.9,1.4-2.4,2.5
		c-0.6,1.1-0.9,2.3-0.9,3.7c0,1.4,0.3,2.7,0.9,3.8c0.6,1.1,1.4,1.9,2.4,2.5C33.3,297.3,34.5,297.6,35.8,297.6z"/>
	<path fill="#FFFFFF" d="M50.2,299.6v-18.4h2.4v5l-0.2-0.9c0.5-1.4,1.4-2.5,2.6-3.2c1.2-0.7,2.7-1.1,4.5-1.1v2.4c-0.1,0-0.2,0-0.3,0
		s-0.2,0-0.3,0c-1.9,0-3.5,0.6-4.5,1.8c-1.1,1.2-1.6,2.9-1.6,5v9.4H50.2z"/>
	<path fill="#FFFFFF" d="M71.6,299.8c-1.9,0-3.6-0.4-5-1.2c-1.4-0.8-2.6-1.9-3.4-3.3c-0.8-1.4-1.2-3-1.2-4.8s0.4-3.4,1.2-4.8
		c0.8-1.4,1.9-2.5,3.2-3.3c1.4-0.8,2.9-1.2,4.6-1.2c1.7,0,3.3,0.4,4.6,1.2c1.3,0.8,2.4,1.9,3.2,3.3c0.8,1.4,1.2,3,1.2,4.9
		c0,0.1,0,0.2,0,0.4c0,0.1,0,0.3,0,0.4h-16v-1.9h14.7l-1,0.7c0-1.3-0.3-2.5-0.9-3.6c-0.6-1-1.3-1.8-2.3-2.4c-1-0.6-2.1-0.9-3.4-0.9
		c-1.3,0-2.4,0.3-3.4,0.9c-1,0.6-1.8,1.4-2.3,2.5c-0.6,1-0.8,2.3-0.8,3.6v0.4c0,1.4,0.3,2.6,0.9,3.7c0.6,1.1,1.5,1.9,2.6,2.5
		c1.1,0.6,2.4,0.9,3.8,0.9c1.1,0,2.2-0.2,3.1-0.6c1-0.4,1.8-1,2.5-1.8l1.4,1.6c-0.8,1-1.8,1.7-3.1,2.2S73.1,299.8,71.6,299.8z"/>
	<path fill="#FFFFFF" d="M89.9,299.8c-1.5,0-3-0.2-4.3-0.6c-1.4-0.4-2.4-1-3.2-1.6l1.1-2c0.7,0.6,1.7,1,2.9,1.5
		c1.2,0.4,2.4,0.6,3.7,0.6c1.8,0,3-0.3,3.8-0.8c0.8-0.5,1.2-1.3,1.2-2.2c0-0.7-0.2-1.2-0.6-1.6s-1-0.7-1.7-0.9s-1.5-0.4-2.3-0.5
		c-0.9-0.1-1.7-0.3-2.6-0.5c-0.9-0.2-1.6-0.5-2.3-0.8c-0.7-0.4-1.3-0.9-1.7-1.5c-0.4-0.6-0.6-1.5-0.6-2.5c0-1,0.3-1.9,0.8-2.7
		c0.6-0.8,1.4-1.4,2.5-1.9s2.4-0.7,4-0.7c1.2,0,2.4,0.2,3.6,0.5c1.2,0.3,2.2,0.7,2.9,1.2l-1.1,2c-0.8-0.6-1.7-1-2.6-1.2
		s-1.9-0.4-2.8-0.4c-1.7,0-2.9,0.3-3.7,0.9c-0.8,0.6-1.2,1.3-1.2,2.2c0,0.7,0.2,1.2,0.6,1.6c0.4,0.4,1,0.7,1.7,0.9
		c0.7,0.2,1.5,0.4,2.3,0.5c0.9,0.1,1.7,0.3,2.6,0.5c0.9,0.2,1.6,0.5,2.3,0.8c0.7,0.3,1.3,0.8,1.7,1.4c0.4,0.6,0.6,1.4,0.6,2.4
		c0,1.1-0.3,2-0.9,2.8c-0.6,0.8-1.5,1.4-2.6,1.8C92.8,299.6,91.5,299.8,89.9,299.8z"/>
	<path fill="#FFFFFF" d="M109.8,299.8c-1.9,0-3.6-0.4-5-1.2c-1.4-0.8-2.6-1.9-3.4-3.3c-0.8-1.4-1.2-3-1.2-4.8s0.4-3.4,1.2-4.8
		c0.8-1.4,1.9-2.5,3.2-3.3c1.4-0.8,2.9-1.2,4.6-1.2c1.7,0,3.3,0.4,4.6,1.2c1.3,0.8,2.4,1.9,3.2,3.3c0.8,1.4,1.2,3,1.2,4.9
		c0,0.1,0,0.2,0,0.4c0,0.1,0,0.3,0,0.4h-16v-1.9h14.7l-1,0.7c0-1.3-0.3-2.5-0.9-3.6c-0.6-1-1.3-1.8-2.3-2.4c-1-0.6-2.1-0.9-3.4-0.9
		c-1.3,0-2.4,0.3-3.4,0.9c-1,0.6-1.8,1.4-2.3,2.5c-0.6,1-0.8,2.3-0.8,3.6v0.4c0,1.4,0.3,2.6,0.9,3.7c0.6,1.1,1.5,1.9,2.6,2.5
		c1.1,0.6,2.4,0.9,3.8,0.9c1.1,0,2.2-0.2,3.1-0.6c1-0.4,1.8-1,2.5-1.8l1.4,1.6c-0.8,1-1.8,1.7-3.1,2.2S111.3,299.8,109.8,299.8z"/>
	<path fill="#FFFFFF" d="M132.5,281c1.5,0,2.8,0.3,3.9,0.9c1.1,0.6,2,1.4,2.7,2.6c0.6,1.2,1,2.6,1,4.4v10.7h-2.5v-10.4
		c0-1.9-0.5-3.4-1.5-4.4s-2.3-1.5-4.1-1.5c-1.3,0-2.4,0.3-3.4,0.8c-1,0.5-1.7,1.3-2.2,2.3c-0.5,1-0.8,2.2-0.8,3.6v9.7h-2.5v-18.4
		h2.4v5l-0.4-0.9c0.6-1.3,1.5-2.4,2.8-3.1C129.2,281.4,130.8,281,132.5,281z"/>
	<path fill="#FFFFFF" d="M154.4,299.8c-1.8,0-3.4-0.4-4.9-1.2c-1.4-0.8-2.6-1.9-3.4-3.3c-0.8-1.4-1.2-3-1.2-4.8
		c0-1.8,0.4-3.5,1.2-4.9c0.8-1.4,1.9-2.5,3.4-3.3c1.4-0.8,3.1-1.2,4.9-1.2c1.6,0,3,0.3,4.2,0.9s2.3,1.5,3,2.7l-1.9,1.3
		c-0.6-0.9-1.4-1.6-2.3-2.1c-0.9-0.4-1.9-0.7-3-0.7c-1.3,0-2.5,0.3-3.5,0.9s-1.9,1.4-2.5,2.5c-0.6,1.1-0.9,2.3-0.9,3.8
		c0,1.4,0.3,2.7,0.9,3.8s1.4,1.9,2.5,2.5c1,0.6,2.2,0.9,3.5,0.9c1.1,0,2.1-0.2,3-0.7c0.9-0.4,1.7-1.1,2.3-2l1.9,1.3
		c-0.7,1.2-1.7,2.1-3,2.7C157.4,299.5,156,299.8,154.4,299.8z"/>
	<path fill="#FFFFFF" d="M174,299.8c-1.9,0-3.6-0.4-5-1.2c-1.4-0.8-2.6-1.9-3.4-3.3c-0.8-1.4-1.2-3-1.2-4.8s0.4-3.4,1.2-4.8
		c0.8-1.4,1.9-2.5,3.2-3.3c1.4-0.8,2.9-1.2,4.6-1.2c1.7,0,3.3,0.4,4.6,1.2c1.3,0.8,2.4,1.9,3.2,3.3c0.8,1.4,1.2,3,1.2,4.9
		c0,0.1,0,0.2,0,0.4c0,0.1,0,0.3,0,0.4h-16v-1.9h14.7l-1,0.7c0-1.3-0.3-2.5-0.9-3.6c-0.6-1-1.3-1.8-2.3-2.4c-1-0.6-2.1-0.9-3.4-0.9
		c-1.3,0-2.4,0.3-3.4,0.9c-1,0.6-1.8,1.4-2.3,2.5c-0.6,1-0.8,2.3-0.8,3.6v0.4c0,1.4,0.3,2.6,0.9,3.7s1.5,1.9,2.6,2.5
		c1.1,0.6,2.4,0.9,3.8,0.9c1.1,0,2.2-0.2,3.1-0.6c1-0.4,1.8-1,2.5-1.8l1.4,1.6c-0.8,1-1.8,1.7-3.1,2.2
		C176.8,299.5,175.5,299.8,174,299.8z"/>
</g>
<text transform="matrix(1 0 0 1 -311 48.4495)"><tspan x="0" y="0" fill="#FFFFFF" font-family="'Montserrat-Regular'" font-size="35">Creating </tspan><tspan x="0" y="49" fill="#FFFFFF" font-family="'Montserrat-Regular'" font-size="35">data-driven</tspan><tspan x="0" y="98" fill="#FFFFFF" font-family="'Montserrat-Regular'" font-size="35">strategies to</tspan><tspan x="0" y="147" fill="#FFFFFF" font-family="'Montserrat-Regular'" font-size="35">enhance your</tspan><tspan x="0" y="196" fill="#FFFFFF" font-family="'Montserrat-Regular'" font-size="35">online</tspan><tspan x="0" y="245" fill="#FFFFFF" font-family="'Montserrat-Regular'" font-size="35">presence</tspan></text>
</svg>
