<?xml version="1.0" encoding="utf-8"?>
<!-- Generator: Adobe Illustrator 18.1.1, SVG Export Plug-In . SVG Version: 6.00 Build 0)  -->
<svg version="1.1" id="Layer_1" xmlns="http://www.w3.org/2000/svg" xmlns:xlink="http://www.w3.org/1999/xlink" x="0px" y="0px"
	 width="100px" height="100px" viewBox="-973 527 100 100" enable-background="new -973 527 100 100" xml:space="preserve">
<rect x="-965.5595" y="527" width="85.119" height="100"/>
<g>
	<path fill="#FFFFFF" d="M-957.6938,549.2368v-7.7002h0.6709l5.313,6.688h-0.3516v-6.688h0.8027v7.7002h-0.6709l-5.3022-6.688
		h0.3521v6.688H-957.6938z"/>
	<path fill="#FFFFFF" d="M-946.4629,549.292c-0.6016,0-1.1294-0.1265-1.584-0.3799c-0.4546-0.2529-0.8105-0.6011-1.0669-1.0449
		c-0.2568-0.4434-0.3853-0.9512-0.3853-1.5234c0-0.5718,0.123-1.0781,0.3687-1.5181s0.583-0.7861,1.0122-1.0396
		c0.4287-0.2529,0.9111-0.3794,1.4463-0.3794c0.5425,0,1.0249,0.123,1.4463,0.3687c0.4219,0.2456,0.7539,0.5903,0.9956,1.0337
		c0.2422,0.4438,0.3633,0.9556,0.3633,1.5347c0,0.0366-0.002,0.0752-0.0059,0.1157c-0.0034,0.04-0.0054,0.0825-0.0054,0.1265
		h-5.0269v-0.583h4.6089l-0.3081,0.231c0-0.418-0.0898-0.79-0.2695-1.1167c-0.1797-0.3262-0.4233-0.5811-0.7314-0.7642
		c-0.3081-0.1836-0.6636-0.2754-1.0669-0.2754c-0.396,0-0.752,0.0918-1.0669,0.2754c-0.3154,0.1831-0.561,0.4399-0.7373,0.77
		c-0.1758,0.3296-0.2637,0.7075-0.2637,1.1328v0.1211c0,0.4399,0.0972,0.8267,0.2915,1.1602
		c0.1938,0.334,0.4653,0.5942,0.814,0.7813c0.3481,0.187,0.7461,0.2803,1.1934,0.2803c0.3521,0,0.6802-0.062,0.9844-0.187
		c0.3042-0.1245,0.5669-0.3149,0.7866-0.5718l0.4399,0.5059c-0.2568,0.3081-0.5776,0.543-0.9624,0.7041
		C-945.5771,549.2114-946.001,549.292-946.4629,549.292z"/>
	<path fill="#FFFFFF" d="M-939.8188,549.292c-0.6016,0-1.1294-0.1265-1.584-0.3799c-0.4546-0.2529-0.8105-0.6011-1.0669-1.0449
		c-0.2568-0.4434-0.3853-0.9512-0.3853-1.5234c0-0.5718,0.123-1.0781,0.3687-1.5181s0.583-0.7861,1.0122-1.0396
		c0.4287-0.2529,0.9111-0.3794,1.4463-0.3794c0.5425,0,1.0249,0.123,1.4463,0.3687c0.4219,0.2456,0.7539,0.5903,0.9956,1.0337
		c0.2422,0.4438,0.3633,0.9556,0.3633,1.5347c0,0.0366-0.002,0.0752-0.0059,0.1157c-0.0034,0.04-0.0054,0.0825-0.0054,0.1265
		h-5.0269v-0.583h4.6089l-0.3081,0.231c0-0.418-0.0898-0.79-0.2695-1.1167c-0.1797-0.3262-0.4233-0.5811-0.7314-0.7642
		c-0.3081-0.1836-0.6636-0.2754-1.0669-0.2754c-0.396,0-0.752,0.0918-1.0669,0.2754c-0.3154,0.1831-0.561,0.4399-0.7373,0.77
		c-0.1758,0.3296-0.2637,0.7075-0.2637,1.1328v0.1211c0,0.4399,0.0972,0.8267,0.2915,1.1602
		c0.1938,0.334,0.4653,0.5942,0.814,0.7813c0.3481,0.187,0.7461,0.2803,1.1934,0.2803c0.3521,0,0.6802-0.062,0.9844-0.187
		c0.3042-0.1245,0.5669-0.3149,0.7866-0.5718l0.4399,0.5059c-0.2568,0.3081-0.5776,0.543-0.9624,0.7041
		C-938.9331,549.2114-939.3569,549.292-939.8188,549.292z"/>
	<path fill="#FFFFFF" d="M-933.3291,549.292c-0.5503,0-1.0435-0.125-1.4795-0.374c-0.4365-0.2495-0.7793-0.5957-1.0288-1.0396
		s-0.374-0.9551-0.374-1.5347c0-0.5864,0.1245-1.1001,0.374-1.54s0.5923-0.7827,1.0288-1.0283
		c0.436-0.2456,0.9292-0.3687,1.4795-0.3687c0.5059,0,0.9585,0.1138,1.3584,0.3413c0.3994,0.2271,0.7188,0.5591,0.957,0.9951
		c0.2383,0.4365,0.3574,0.9702,0.3574,1.6006c0,0.6235-0.1172,1.1553-0.3521,1.5952s-0.5518,0.7754-0.9517,1.0063
		C-932.3594,549.1763-932.8159,549.292-933.3291,549.292z M-933.2744,548.5986c0.4106,0,0.7793-0.0933,1.1055-0.2803
		s0.583-0.4512,0.77-0.792s0.2808-0.7354,0.2808-1.1826c0-0.4546-0.0938-0.8506-0.2808-1.188s-0.4438-0.5996-0.77-0.7866
		s-0.6948-0.2803-1.1055-0.2803c-0.4033,0-0.7661,0.0933-1.0889,0.2803s-0.5796,0.4492-0.77,0.7866
		c-0.1909,0.3374-0.2861,0.7334-0.2861,1.188c0,0.4473,0.0952,0.8418,0.2861,1.1826c0.1904,0.3408,0.4473,0.605,0.77,0.792
		S-933.6777,548.5986-933.2744,548.5986z M-931.0962,549.2368v-1.7378l0.0771-1.166l-0.1104-1.166v-4.0923h0.7813v8.1621H-931.0962z
		"/>
	<path fill="#FFFFFF" d="M-923.6606,549.292c-0.4326,0-0.8081-0.0718-1.1274-0.2148c-0.3188-0.1431-0.563-0.3408-0.7314-0.5938
		s-0.2529-0.5444-0.2529-0.8745c0-0.3008,0.0713-0.5737,0.2144-0.8193s0.3779-0.4438,0.7041-0.5942s0.7646-0.2256,1.3145-0.2256
		h1.9917v0.583h-1.9697c-0.5571,0-0.9443,0.0991-1.1602,0.2969c-0.2168,0.1982-0.3247,0.4438-0.3247,0.7373
		c0,0.3301,0.1284,0.5938,0.3848,0.792c0.2568,0.1978,0.6162,0.2969,1.0781,0.2969c0.4399,0,0.8198-0.1006,1.1387-0.3022
		s0.5522-0.4932,0.6987-0.8745l0.1758,0.5386c-0.1465,0.3818-0.4014,0.686-0.7646,0.9131
		C-922.6538,549.1782-923.1104,549.292-923.6606,549.292z M-921.6689,549.2368v-1.2759l-0.0332-0.209v-2.1343
		c0-0.4912-0.1377-0.8687-0.4126-1.1328c-0.2754-0.2642-0.6841-0.396-1.2266-0.396c-0.374,0-0.73,0.0625-1.0669,0.187
		c-0.3374,0.1245-0.6235,0.2896-0.8584,0.4951l-0.3521-0.583c0.2935-0.2495,0.6455-0.4419,1.0562-0.5776
		s0.8433-0.2036,1.2979-0.2036c0.748,0,1.3262,0.1855,1.7334,0.5557c0.4063,0.3701,0.6104,0.9331,0.6104,1.6885v3.5859H-921.6689z"
		/>
	<path fill="#FFFFFF" d="M-955.9448,564.2368l-2.5957-7.7002h0.8359l2.4307,7.249h-0.418l2.5083-7.249h0.748l2.4746,7.249h-0.396
		l2.4531-7.249h0.7813l-2.5962,7.7002h-0.8579l-2.3652-6.875h0.2202l-2.376,6.875H-955.9448z"/>
	<path fill="#FFFFFF" d="M-943.7896,564.292c-0.6016,0-1.1294-0.1265-1.584-0.3799c-0.4546-0.2529-0.8105-0.6011-1.0669-1.0449
		c-0.2568-0.4434-0.3853-0.9512-0.3853-1.5234c0-0.5718,0.123-1.0781,0.3687-1.5181s0.583-0.7861,1.0122-1.0396
		c0.4287-0.2529,0.9111-0.3794,1.4463-0.3794c0.5425,0,1.0249,0.123,1.4463,0.3687c0.4219,0.2456,0.7539,0.5903,0.9956,1.0337
		c0.2422,0.4438,0.3633,0.9556,0.3633,1.5347c0,0.0366-0.002,0.0752-0.0059,0.1157c-0.0034,0.04-0.0054,0.0825-0.0054,0.1265
		h-5.0269v-0.583h4.6089l-0.3081,0.231c0-0.418-0.0898-0.79-0.2695-1.1167c-0.1797-0.3262-0.4233-0.5811-0.7314-0.7642
		c-0.3081-0.1836-0.6636-0.2754-1.0669-0.2754c-0.396,0-0.752,0.0918-1.0669,0.2754c-0.3154,0.1831-0.561,0.4399-0.7373,0.77
		c-0.1758,0.3296-0.2637,0.7075-0.2637,1.1328v0.1211c0,0.4399,0.0972,0.8267,0.2915,1.1602
		c0.1938,0.334,0.4653,0.5942,0.814,0.7813c0.3481,0.187,0.7461,0.2803,1.1934,0.2803c0.3521,0,0.6802-0.062,0.9844-0.187
		c0.3042-0.1245,0.5669-0.3149,0.7866-0.5718l0.4399,0.5059c-0.2568,0.3081-0.5776,0.543-0.9624,0.7041
		C-942.9038,564.2114-943.3276,564.292-943.7896,564.292z"/>
	<path fill="#FFFFFF" d="M-939.5991,564.2368v-8.1621h0.7813v4.0923l-0.1104,1.166l0.0771,1.166v1.7378H-939.5991z
		 M-936.6182,564.292c-0.5059,0-0.9604-0.1157-1.3638-0.3467s-0.7227-0.5664-0.957-1.0063
		c-0.2349-0.4399-0.3521-0.9717-0.3521-1.5952c0-0.6304,0.1191-1.1641,0.3574-1.6006c0.2383-0.436,0.5591-0.7681,0.9624-0.9951
		c0.4033-0.2275,0.8545-0.3413,1.353-0.3413c0.5503,0,1.0435,0.123,1.4795,0.3687c0.4365,0.2456,0.7793,0.5884,1.0288,1.0283
		c0.249,0.4399,0.374,0.9536,0.374,1.54c0,0.5796-0.125,1.0908-0.374,1.5347c-0.2495,0.4438-0.5923,0.79-1.0288,1.0396
		C-935.5747,564.167-936.0679,564.292-936.6182,564.292z M-936.6729,563.5986c0.4106,0,0.7769-0.0933,1.1001-0.2803
		c0.3223-0.187,0.5791-0.4512,0.7695-0.792c0.1909-0.3408,0.2861-0.7354,0.2861-1.1826c0-0.4546-0.0952-0.8506-0.2861-1.188
		c-0.1904-0.3374-0.4473-0.5996-0.7695-0.7866c-0.3232-0.187-0.6895-0.2803-1.1001-0.2803c-0.4111,0-0.7793,0.0933-1.1055,0.2803
		c-0.3267,0.187-0.583,0.4492-0.77,0.7866s-0.2808,0.7334-0.2808,1.188c0,0.4473,0.0938,0.8418,0.2808,1.1826
		s0.4434,0.605,0.77,0.792C-937.4521,563.5054-937.084,563.5986-936.6729,563.5986z"/>
	<path fill="#FFFFFF" d="M-930.5898,564.292c-0.4771,0-0.9277-0.0679-1.353-0.2036s-0.7593-0.3062-1.001-0.5117l0.3521-0.6157
		c0.2344,0.1758,0.5352,0.3281,0.9019,0.4565s0.7515,0.1924,1.1548,0.1924c0.5503,0,0.9463-0.0859,1.188-0.2588
		c0.2422-0.1719,0.3633-0.4014,0.3633-0.6875c0-0.2124-0.0679-0.3794-0.2036-0.5005c-0.1357-0.1206-0.3135-0.2124-0.5337-0.2749
		c-0.2197-0.062-0.4653-0.1152-0.7368-0.1592s-0.541-0.0952-0.8086-0.1543c-0.2676-0.0586-0.5112-0.1445-0.7314-0.2583
		c-0.2197-0.1138-0.3979-0.2695-0.5332-0.4678c-0.1362-0.1978-0.2036-0.4619-0.2036-0.792c0-0.3149,0.0879-0.5977,0.2637-0.8467
		c0.1763-0.2495,0.4346-0.4458,0.7759-0.5889c0.3408-0.1426,0.7568-0.2144,1.2485-0.2144c0.374,0,0.7476,0.0498,1.1216,0.1484
		c0.374,0.0991,0.6821,0.2295,0.9243,0.3906l-0.3413,0.627c-0.2563-0.1758-0.5317-0.3022-0.8247-0.3794
		c-0.2935-0.0771-0.5869-0.1157-0.8799-0.1157c-0.521,0-0.9043,0.0898-1.1499,0.2695s-0.3682,0.4092-0.3682,0.6875
		c0,0.2202,0.0674,0.3926,0.2031,0.5171c0.1357,0.125,0.3154,0.2222,0.5391,0.2915c0.2236,0.0698,0.4692,0.1265,0.7373,0.1704
		c0.2676,0.0439,0.5352,0.0977,0.8027,0.1597c0.2676,0.0625,0.5132,0.147,0.7373,0.2529c0.2236,0.1064,0.4028,0.2568,0.5391,0.4512
		c0.1353,0.1943,0.2031,0.4492,0.2031,0.7642c0,0.3374-0.0933,0.6289-0.2803,0.8745c-0.187,0.2461-0.4585,0.4365-0.814,0.5723
		C-929.6533,564.2241-930.084,564.292-930.5898,564.292z"/>
	<path fill="#FFFFFF" d="M-926.377,557.186c-0.1611,0-0.2969-0.0552-0.4067-0.165c-0.1104-0.1104-0.165-0.2422-0.165-0.396
		c0-0.1543,0.0547-0.2842,0.165-0.3906c0.1099-0.1064,0.2456-0.1597,0.4067-0.1597s0.2974,0.0513,0.4072,0.1543
		c0.1099,0.1025,0.165,0.231,0.165,0.3848c0,0.1616-0.0532,0.2969-0.1597,0.4072
		C-926.0708,557.1309-926.208,557.186-926.377,557.186z M-926.7729,564.2368v-5.7749h0.7813v5.7749H-926.7729z"/>
	<path fill="#FFFFFF" d="M-924.7163,559.1108v-0.6489h3.5757v0.6489H-924.7163z M-921.9883,564.292
		c-0.543,0-0.9609-0.147-1.2539-0.4399c-0.2935-0.2935-0.4399-0.708-0.4399-1.2432v-5.4229h0.7808v5.3789
		c0,0.3374,0.0859,0.5977,0.2588,0.7808c0.1719,0.1836,0.4194,0.2749,0.7422,0.2749c0.3447,0,0.6309-0.0986,0.8584-0.2969
		l0.2754,0.561c-0.1543,0.1396-0.3398,0.2422-0.5557,0.3081C-921.5391,564.2588-921.7607,564.292-921.9883,564.292z"/>
	<path fill="#FFFFFF" d="M-917.1035,564.292c-0.6016,0-1.1299-0.1265-1.584-0.3799c-0.4551-0.2529-0.8105-0.6011-1.0674-1.0449
		c-0.2568-0.4434-0.3848-0.9512-0.3848-1.5234c0-0.5718,0.123-1.0781,0.3682-1.5181c0.2461-0.4399,0.583-0.7861,1.0127-1.0396
		c0.4287-0.2529,0.9111-0.3794,1.4463-0.3794c0.542,0,1.0244,0.123,1.4463,0.3687s0.7539,0.5903,0.9951,1.0337
		c0.2422,0.4438,0.3633,0.9556,0.3633,1.5347c0,0.0366-0.002,0.0752-0.0059,0.1157c-0.0029,0.04-0.0049,0.0825-0.0049,0.1265
		h-5.0273v-0.583h4.6094l-0.3086,0.231c0-0.418-0.0898-0.79-0.2695-1.1167c-0.1797-0.3262-0.4229-0.5811-0.7314-0.7642
		c-0.3076-0.1836-0.6631-0.2754-1.0664-0.2754c-0.3965,0-0.752,0.0918-1.0674,0.2754c-0.3154,0.1831-0.5605,0.4399-0.7373,0.77
		c-0.1758,0.3296-0.2637,0.7075-0.2637,1.1328v0.1211c0,0.4399,0.0977,0.8267,0.292,1.1602
		c0.1934,0.334,0.4648,0.5942,0.8135,0.7813s0.7461,0.2803,1.1934,0.2803c0.3525,0,0.6807-0.062,0.9844-0.187
		c0.3047-0.1245,0.5674-0.3149,0.7871-0.5718l0.4395,0.5059c-0.2568,0.3081-0.5771,0.543-0.9619,0.7041
		C-916.2178,564.2114-916.6416,564.292-917.1035,564.292z"/>
	<path fill="#FFFFFF" d="M-910.9326,559.1108v-0.6489h3.5752v0.6489H-910.9326z M-908.2051,564.292
		c-0.543,0-0.9609-0.147-1.2539-0.4399c-0.293-0.2935-0.4395-0.708-0.4395-1.2432v-5.4229h0.7803v5.3789
		c0,0.3374,0.0859,0.5977,0.2588,0.7808c0.1719,0.1836,0.4199,0.2749,0.7422,0.2749c0.3447,0,0.6309-0.0986,0.8584-0.2969
		l0.2754,0.561c-0.1543,0.1396-0.3398,0.2422-0.5557,0.3081C-907.7559,564.2588-907.9775,564.292-908.2051,564.292z"/>
	<path fill="#FFFFFF" d="M-902.6172,558.4067c0.4697,0,0.8818,0.0898,1.2373,0.2695s0.6348,0.4531,0.8359,0.8193
		c0.2021,0.3672,0.3027,0.8291,0.3027,1.3862v3.355h-0.7813v-3.2778c0-0.6089-0.1523-1.0688-0.4561-1.3809
		c-0.3047-0.3115-0.7314-0.4673-1.2813-0.4673c-0.4111,0-0.7686,0.0825-1.0732,0.2476c-0.3037,0.165-0.5381,0.4033-0.7031,0.7148
		c-0.165,0.312-0.248,0.6875-0.248,1.1274v3.0361h-0.7813v-8.1621h0.7813v3.9712l-0.1543-0.2969
		c0.1836-0.418,0.4766-0.7461,0.8809-0.9849C-903.6553,558.5259-903.1748,558.4067-902.6172,558.4067z"/>
	<path fill="#FFFFFF" d="M-896.502,564.292c-0.4326,0-0.8076-0.0718-1.127-0.2148s-0.5635-0.3408-0.7314-0.5938
		c-0.1689-0.2529-0.2529-0.5444-0.2529-0.8745c0-0.3008,0.0713-0.5737,0.2139-0.8193c0.1436-0.2456,0.3779-0.4438,0.7041-0.5942
		s0.7646-0.2256,1.3145-0.2256h1.9912v0.583h-1.9688c-0.5576,0-0.9443,0.0991-1.1602,0.2969
		c-0.2168,0.1982-0.3252,0.4438-0.3252,0.7373c0,0.3301,0.1289,0.5938,0.3848,0.792c0.2568,0.1978,0.6162,0.2969,1.0781,0.2969
		c0.4404,0,0.8203-0.1006,1.1387-0.3022c0.3193-0.2017,0.5518-0.4932,0.6982-0.8745l0.1768,0.5386
		c-0.1475,0.3818-0.4014,0.686-0.7646,0.9131C-895.4951,564.1782-895.9512,564.292-896.502,564.292z M-894.5107,564.2368v-1.2759
		l-0.0332-0.209v-2.1343c0-0.4912-0.1367-0.8687-0.4121-1.1328s-0.6836-0.396-1.2266-0.396c-0.374,0-0.7295,0.0625-1.0664,0.187
		c-0.3379,0.1245-0.624,0.2896-0.8584,0.4951l-0.3525-0.583c0.2939-0.2495,0.6455-0.4419,1.0566-0.5776
		c0.4102-0.1357,0.8428-0.2036,1.2979-0.2036c0.748,0,1.3252,0.1855,1.7324,0.5557s0.6104,0.9331,0.6104,1.6885v3.5859H-894.5107z"
		/>
	<path fill="#FFFFFF" d="M-892.541,559.1108v-0.6489h3.5752v0.6489H-892.541z M-889.8135,564.292
		c-0.543,0-0.9609-0.147-1.2539-0.4399c-0.293-0.2935-0.4395-0.708-0.4395-1.2432v-5.4229h0.7803v5.3789
		c0,0.3374,0.0859,0.5977,0.2588,0.7808c0.1719,0.1836,0.4199,0.2749,0.7422,0.2749c0.3447,0,0.6309-0.0986,0.8584-0.2969
		l0.2754,0.561c-0.1543,0.1396-0.3398,0.2422-0.5557,0.3081C-889.3643,564.2588-889.5859,564.292-889.8135,564.292z"/>
	<path fill="#FFFFFF" d="M-950.6426,573.4072c0.4692,0,0.8779,0.0898,1.2266,0.2695c0.3481,0.1797,0.6191,0.4531,0.814,0.8193
		c0.1938,0.3672,0.2915,0.8291,0.2915,1.3862v3.355h-0.7813v-3.2778c0-0.6089-0.145-1.0688-0.4346-1.3809
		c-0.2896-0.3115-0.6982-0.4673-1.2266-0.4673c-0.396,0-0.7388,0.0825-1.0283,0.2476s-0.5132,0.4033-0.6709,0.7148
		c-0.1577,0.312-0.2368,0.6875-0.2368,1.1274v3.0361h-0.7808v-3.2778c0-0.6089-0.147-1.0688-0.4399-1.3809
		c-0.2935-0.3115-0.7041-0.4673-1.2319-0.4673c-0.3892,0-0.73,0.0825-1.0229,0.2476c-0.2935,0.165-0.519,0.4033-0.6768,0.7148
		c-0.1577,0.312-0.2363,0.6875-0.2363,1.1274v3.0361h-0.7813v-5.7749h0.748v1.562l-0.1211-0.2749
		c0.1763-0.418,0.4604-0.7461,0.8525-0.9849c0.3926-0.2383,0.8564-0.3574,1.3916-0.3574c0.5645,0,1.0449,0.1416,1.4409,0.4233
		c0.396,0.2827,0.6528,0.7061,0.77,1.2705l-0.3081-0.1206c0.1689-0.4692,0.4678-0.8491,0.8965-1.1387
		C-951.7593,573.5522-951.2441,573.4072-950.6426,573.4072z"/>
	<path fill="#FFFFFF" d="M-944.5601,579.292c-0.4326,0-0.8081-0.0713-1.1274-0.2139c-0.3188-0.1436-0.563-0.3418-0.7314-0.5947
		s-0.2529-0.5439-0.2529-0.874c0-0.3008,0.0713-0.5737,0.2144-0.8193s0.3779-0.4438,0.7041-0.5942s0.7646-0.2256,1.3145-0.2256
		h1.9912v0.583h-1.9692c-0.5571,0-0.9443,0.0991-1.1602,0.2969c-0.2168,0.1982-0.3247,0.4438-0.3247,0.7368
		c0,0.3301,0.1284,0.5947,0.3848,0.792c0.2568,0.1982,0.6162,0.2979,1.0781,0.2979c0.4399,0,0.8198-0.1016,1.1387-0.3027
		c0.3188-0.2021,0.5518-0.4932,0.6982-0.875l0.1763,0.5391c-0.147,0.3818-0.4014,0.6855-0.7646,0.9131
		C-943.5532,579.1787-944.0098,579.292-944.5601,579.292z M-942.5688,579.2373v-1.2764l-0.0332-0.209v-2.1338
		c0-0.4912-0.1372-0.8687-0.4121-1.1328c-0.2754-0.2642-0.6841-0.396-1.2266-0.396c-0.374,0-0.73,0.0625-1.0669,0.187
		c-0.3374,0.1245-0.6235,0.2896-0.8584,0.4951l-0.3521-0.583c0.2935-0.2495,0.6455-0.4419,1.0562-0.5776
		s0.8433-0.2036,1.2979-0.2036c0.748,0,1.3257,0.1855,1.7329,0.5557c0.4067,0.3701,0.6104,0.9331,0.6104,1.6885v3.5859H-942.5688z"
		/>
	<path fill="#FFFFFF" d="M-940.6001,574.1113v-0.6489h3.5752v0.6489H-940.6001z M-937.8721,579.292
		c-0.543,0-0.9609-0.1465-1.2539-0.4395c-0.2935-0.293-0.4399-0.708-0.4399-1.2432v-5.4229h0.7808v5.3789
		c0,0.3369,0.0859,0.5977,0.2588,0.7813c0.1719,0.1826,0.4194,0.2744,0.7422,0.2744c0.3447,0,0.6309-0.0986,0.8579-0.2969
		l0.2754,0.5615c-0.1543,0.1387-0.3394,0.2412-0.5557,0.3076S-937.645,579.292-937.8721,579.292z"/>
	<path fill="#FFFFFF" d="M-933.043,579.292c-0.5718,0-1.0835-0.126-1.5342-0.3789c-0.4512-0.2529-0.8052-0.6016-1.0615-1.0449
		c-0.2568-0.4443-0.3853-0.9517-0.3853-1.5239c0-0.5791,0.1284-1.0889,0.3853-1.5288c0.2563-0.4399,0.6104-0.7847,1.0615-1.0342
		c0.4507-0.249,0.9624-0.374,1.5342-0.374c0.4912,0,0.9351,0.0957,1.3311,0.2861c0.396,0.1909,0.7075,0.4766,0.9351,0.8579
		l-0.583,0.396c-0.1978-0.293-0.4438-0.5098-0.7368-0.6489c-0.2935-0.1392-0.6123-0.209-0.957-0.209
		c-0.4106,0-0.7813,0.0933-1.1108,0.2803c-0.3301,0.187-0.5908,0.4492-0.7813,0.7866c-0.1909,0.3374-0.2861,0.7334-0.2861,1.188
		c0,0.4551,0.0952,0.8511,0.2861,1.188c0.1904,0.3379,0.4512,0.5996,0.7813,0.7861c0.3296,0.1875,0.7002,0.2813,1.1108,0.2813
		c0.3447,0,0.6636-0.0703,0.957-0.209c0.293-0.1396,0.5391-0.3525,0.7368-0.6387l0.583,0.3965
		c-0.2275,0.374-0.5391,0.6582-0.9351,0.8525S-932.5518,579.292-933.043,579.292z"/>
	<path fill="#FFFFFF" d="M-926.3882,573.4072c0.4692,0,0.8818,0.0898,1.2373,0.2695s0.6343,0.4531,0.8359,0.8193
		c0.2017,0.3672,0.3027,0.8291,0.3027,1.3862v3.355h-0.7813v-3.2778c0-0.6089-0.1523-1.0688-0.4565-1.3809
		c-0.3042-0.3115-0.7314-0.4673-1.2813-0.4673c-0.4106,0-0.7686,0.0825-1.0728,0.2476s-0.5386,0.4033-0.7036,0.7148
		c-0.165,0.312-0.2476,0.6875-0.2476,1.1274v3.0361h-0.7813v-8.1621h0.7813v3.9712l-0.1543-0.2969
		c0.1836-0.418,0.4766-0.7461,0.8804-0.9849C-927.4263,573.5264-926.9458,573.4072-926.3882,573.4072z"/>
	<path fill="#FFFFFF" d="M-919.4473,579.292c-0.6016,0-1.1289-0.126-1.584-0.3789c-0.4541-0.2529-0.8105-0.6016-1.0669-1.0449
		c-0.2568-0.4443-0.3853-0.9517-0.3853-1.5239c0-0.5718,0.123-1.0781,0.3687-1.5181s0.5835-0.7861,1.0122-1.0396
		c0.4287-0.2529,0.9111-0.3794,1.4463-0.3794c0.543,0,1.0254,0.123,1.4463,0.3687c0.4219,0.2456,0.7539,0.5903,0.9961,1.0337
		c0.2422,0.4438,0.3633,0.9556,0.3633,1.5347c0,0.0366-0.002,0.0752-0.0059,0.1157c-0.0039,0.04-0.0059,0.0825-0.0059,0.1265
		h-5.0264v-0.583h4.6084l-0.3076,0.231c0-0.418-0.0898-0.79-0.2695-1.1167c-0.1797-0.3262-0.4238-0.5811-0.7314-0.7642
		c-0.3086-0.1836-0.6641-0.2754-1.0674-0.2754c-0.3955,0-0.752,0.0918-1.0664,0.2754c-0.3154,0.1831-0.5615,0.4399-0.7373,0.77
		c-0.1758,0.3296-0.2637,0.7075-0.2637,1.1328v0.1211c0,0.4399,0.0967,0.8267,0.291,1.1606s0.4658,0.5938,0.8145,0.7803
		c0.3477,0.1875,0.7461,0.2813,1.1934,0.2813c0.3516,0,0.6797-0.0625,0.9844-0.1875c0.3037-0.124,0.5664-0.3154,0.7861-0.5723
		l0.4404,0.5068c-0.2568,0.3076-0.5781,0.542-0.9629,0.7041C-918.5615,579.2119-918.9854,579.292-919.4473,579.292z"/>
	<path fill="#FFFFFF" d="M-913.7051,579.292c-0.4766,0-0.9277-0.0674-1.3525-0.2031c-0.4258-0.1357-0.7598-0.3066-1.001-0.5117
		l0.3516-0.6162c0.2344,0.1768,0.5352,0.3291,0.9023,0.457c0.3662,0.1279,0.751,0.1924,1.1543,0.1924
		c0.5508,0,0.9463-0.0859,1.1885-0.2588c0.2422-0.1719,0.3633-0.4014,0.3633-0.6875c0-0.2119-0.0684-0.3789-0.2041-0.501
		c-0.1357-0.1201-0.3135-0.2119-0.5332-0.2744c-0.2197-0.062-0.4658-0.1152-0.7373-0.1592s-0.541-0.0952-0.8086-0.1543
		c-0.2676-0.0586-0.5107-0.1445-0.7314-0.2583c-0.2197-0.1138-0.3975-0.2695-0.5332-0.4678
		c-0.1357-0.1978-0.2031-0.4619-0.2031-0.792c0-0.3149,0.0879-0.5977,0.2637-0.8467c0.1758-0.2495,0.4346-0.4458,0.7754-0.5889
		c0.3408-0.1426,0.7568-0.2144,1.249-0.2144c0.374,0,0.7471,0.0498,1.1211,0.1484c0.374,0.0991,0.6826,0.2295,0.9248,0.3906
		l-0.3418,0.627c-0.2559-0.1758-0.5313-0.3022-0.8242-0.3794c-0.2939-0.0771-0.5869-0.1157-0.8799-0.1157
		c-0.5215,0-0.9043,0.0898-1.1504,0.2695c-0.2451,0.1797-0.3682,0.4092-0.3682,0.6875c0,0.2202,0.0674,0.3926,0.2031,0.5171
		c0.1357,0.125,0.3154,0.2222,0.5391,0.2915c0.2236,0.0698,0.4697,0.1265,0.7373,0.1704s0.5352,0.0977,0.8027,0.1597
		c0.2676,0.0625,0.5137,0.147,0.7373,0.2529c0.2236,0.1064,0.4033,0.2568,0.5391,0.4512s0.2031,0.4492,0.2031,0.7646
		c0,0.3369-0.0928,0.6289-0.2803,0.874c-0.1865,0.2461-0.458,0.4365-0.8135,0.5723
		C-912.7686,579.2246-913.1992,579.292-913.7051,579.292z"/>
	<path fill="#FFFFFF" d="M-957.8149,596.4268c-0.271,0-0.5298-0.0449-0.7754-0.1328s-0.4565-0.2197-0.6323-0.3955l0.3628-0.583
		c0.1465,0.1387,0.3062,0.2471,0.4785,0.3242s0.3647,0.1152,0.5776,0.1152c0.2563,0,0.4785-0.0713,0.6655-0.2139
		c0.187-0.1436,0.3647-0.3945,0.5332-0.7539l0.374-0.8467l0.0884-0.1211l2.376-5.3574h0.77l-2.8931,6.4688
		c-0.1616,0.374-0.3394,0.6709-0.5337,0.8906s-0.4053,0.376-0.6323,0.4678C-957.2832,596.3809-957.5361,596.4268-957.8149,596.4268z
		 M-956.2749,594.4023l-2.6616-5.9404h0.814l2.354,5.3027L-956.2749,594.4023z"/>
	<path fill="#FFFFFF" d="M-949.708,594.292c-0.5571,0-1.0576-0.126-1.5015-0.3789s-0.7939-0.6016-1.0503-1.0449
		c-0.2568-0.4443-0.3853-0.9521-0.3853-1.5234c0-0.5801,0.1284-1.0898,0.3853-1.5293c0.2563-0.4404,0.605-0.7852,1.0449-1.0342
		s0.9424-0.374,1.5068-0.374c0.5723,0,1.0801,0.125,1.5234,0.374c0.4438,0.249,0.792,0.5938,1.0454,1.0342
		c0.2529,0.4395,0.3794,0.9492,0.3794,1.5293c0,0.5713-0.1265,1.0791-0.3794,1.5234c-0.2534,0.4434-0.6035,0.792-1.0508,1.0449
		S-949.1431,594.292-949.708,594.292z M-949.708,593.5996c0.418,0,0.7886-0.0938,1.1113-0.2813
		c0.3223-0.1865,0.5771-0.4502,0.7642-0.792c0.187-0.3408,0.2808-0.7344,0.2808-1.1816c0-0.4551-0.0938-0.8506-0.2808-1.1885
		c-0.187-0.3369-0.4419-0.5996-0.7642-0.7861c-0.3228-0.1875-0.6895-0.2813-1.1001-0.2813s-0.7773,0.0938-1.1001,0.2813
		c-0.3228,0.1865-0.5796,0.4492-0.77,0.7861c-0.1909,0.3379-0.2861,0.7334-0.2861,1.1885c0,0.4473,0.0952,0.8408,0.2861,1.1816
		c0.1904,0.3418,0.4473,0.6055,0.77,0.792C-950.4741,593.5059-950.1113,593.5996-949.708,593.5996z"/>
	<path fill="#FFFFFF" d="M-942.7778,594.292c-0.4917,0-0.9204-0.0908-1.2871-0.2744s-0.6509-0.458-0.8525-0.8252
		c-0.2017-0.3662-0.3022-0.8252-0.3022-1.375v-3.3555h0.7808v3.2676c0,0.6162,0.1523,1.0801,0.4565,1.3916
		s0.7314,0.4668,1.2817,0.4668c0.4028,0,0.7534-0.082,1.0503-0.2471s0.5244-0.4053,0.6821-0.7207
		c0.1572-0.3154,0.2363-0.6924,0.2363-1.1328v-3.0254h0.7813v5.7754h-0.748v-1.584l0.1206,0.2861
		c-0.1831,0.4248-0.4673,0.7568-0.8521,0.9951C-941.8154,594.1729-942.2646,594.292-942.7778,594.292z"/>
	<path fill="#FFFFFF" d="M-937.7729,594.2373v-5.7754h0.748v1.5732l-0.0771-0.2744c0.1616-0.4404,0.4326-0.7764,0.8145-1.0068
		c0.3809-0.2314,0.854-0.3467,1.4189-0.3467v0.7588c-0.0298,0-0.0591-0.001-0.0884-0.0049s-0.0586-0.0059-0.0879-0.0059
		c-0.6089,0-1.0854,0.1855-1.4297,0.5557c-0.3452,0.3701-0.5171,0.8965-0.5171,1.5781v2.9482H-937.7729z"/>
	<path fill="#FFFFFF" d="M-955.4058,609.292c-0.6016,0-1.1294-0.126-1.584-0.3789s-0.8105-0.6016-1.0669-1.0449
		c-0.2568-0.4443-0.3853-0.9521-0.3853-1.5234c0-0.5723,0.123-1.0781,0.3687-1.5186c0.2456-0.4395,0.583-0.7861,1.0122-1.0391
		c0.4287-0.2529,0.9111-0.3799,1.4463-0.3799c0.5425,0,1.0249,0.123,1.4463,0.3682c0.4219,0.2461,0.7539,0.5908,0.9956,1.0342
		c0.2422,0.4443,0.3633,0.9551,0.3633,1.5352c0,0.0361-0.002,0.0752-0.0059,0.1152c-0.0034,0.04-0.0054,0.082-0.0054,0.126h-5.0269
		v-0.583h4.6089l-0.3081,0.2314c0-0.418-0.0898-0.79-0.2695-1.1162s-0.4233-0.5811-0.7314-0.7646s-0.6636-0.2754-1.0669-0.2754
		c-0.396,0-0.752,0.0918-1.0669,0.2754c-0.3154,0.1836-0.561,0.4395-0.7373,0.7695c-0.1758,0.3301-0.2637,0.708-0.2637,1.1328
		v0.1211c0,0.4404,0.0972,0.8271,0.2915,1.1611c0.1938,0.334,0.4653,0.5938,0.814,0.7803c0.3481,0.1875,0.7461,0.2813,1.1934,0.2813
		c0.3521,0,0.6802-0.0625,0.9844-0.1875c0.3042-0.124,0.5669-0.3154,0.7866-0.5723l0.4399,0.5068
		c-0.2568,0.3076-0.5776,0.542-0.9624,0.7041C-954.52,609.2119-954.9438,609.292-955.4058,609.292z"/>
	<path fill="#FFFFFF" d="M-952.2598,609.2373l2.4419-3.168l-0.0107,0.3848l-2.3213-2.9922h0.8804l1.9028,2.4756l-0.3301-0.0107
		l1.9028-2.4648h0.8584l-2.3433,3.0254l0.0112-0.418l2.4639,3.168h-0.8911l-2.0127-2.6396l0.3076,0.0439l-1.98,2.5957H-952.2598z"/>
	<path fill="#FFFFFF" d="M-945.5059,611.3711v-7.9092h0.748v1.7383l-0.0771,1.1553l0.1104,1.166v3.8496H-945.5059z
		 M-942.5249,609.292c-0.4985,0-0.9497-0.1152-1.353-0.3457c-0.4033-0.2314-0.7241-0.5654-0.9624-1.002
		c-0.2383-0.4355-0.3574-0.9697-0.3574-1.5996c0-0.6309,0.1172-1.1641,0.3521-1.6006c0.2344-0.4365,0.5537-0.7686,0.957-0.9961
		c0.4033-0.2266,0.8579-0.3408,1.3638-0.3408c0.5503,0,1.0435,0.123,1.4795,0.3682c0.4365,0.2461,0.7793,0.5908,1.0288,1.0342
		c0.249,0.4443,0.374,0.9551,0.374,1.5352c0,0.5859-0.125,1.0996-0.374,1.54c-0.2495,0.4395-0.5923,0.7842-1.0288,1.0332
		C-941.4814,609.168-941.9746,609.292-942.5249,609.292z M-942.5796,608.5996c0.4106,0,0.7769-0.0938,1.1001-0.2813
		c0.3223-0.1865,0.5791-0.4502,0.7695-0.792c0.1909-0.3408,0.2861-0.7344,0.2861-1.1816s-0.0952-0.8398-0.2861-1.1777
		c-0.1904-0.3369-0.4473-0.6006-0.7695-0.792c-0.3232-0.1904-0.6895-0.2861-1.1001-0.2861c-0.4111,0-0.7793,0.0957-1.1055,0.2861
		c-0.3267,0.1914-0.583,0.4551-0.77,0.792c-0.187,0.3379-0.2808,0.7305-0.2808,1.1777s0.0938,0.8408,0.2808,1.1816
		c0.187,0.3418,0.4434,0.6055,0.77,0.792C-943.3589,608.5059-942.9907,608.5996-942.5796,608.5996z"/>
	<path fill="#FFFFFF" d="M-935.5952,609.292c-0.6016,0-1.1294-0.126-1.584-0.3789s-0.8105-0.6016-1.0669-1.0449
		c-0.2568-0.4443-0.3853-0.9521-0.3853-1.5234c0-0.5723,0.123-1.0781,0.3687-1.5186c0.2456-0.4395,0.583-0.7861,1.0122-1.0391
		c0.4287-0.2529,0.9111-0.3799,1.4463-0.3799c0.5425,0,1.0249,0.123,1.4463,0.3682c0.4219,0.2461,0.7539,0.5908,0.9956,1.0342
		c0.2422,0.4443,0.3633,0.9551,0.3633,1.5352c0,0.0361-0.002,0.0752-0.0059,0.1152c-0.0034,0.04-0.0054,0.082-0.0054,0.126h-5.0269
		v-0.583h4.6089l-0.3081,0.2314c0-0.418-0.0898-0.79-0.2695-1.1162s-0.4233-0.5811-0.7314-0.7646s-0.6636-0.2754-1.0669-0.2754
		c-0.396,0-0.752,0.0918-1.0669,0.2754c-0.3154,0.1836-0.561,0.4395-0.7373,0.7695c-0.1758,0.3301-0.2637,0.708-0.2637,1.1328
		v0.1211c0,0.4404,0.0972,0.8271,0.2915,1.1611c0.1938,0.334,0.4653,0.5938,0.814,0.7803c0.3481,0.1875,0.7461,0.2813,1.1934,0.2813
		c0.3521,0,0.6802-0.0625,0.9844-0.1875c0.3042-0.124,0.5669-0.3154,0.7866-0.5723l0.4399,0.5068
		c-0.2568,0.3076-0.5776,0.542-0.9624,0.7041C-934.7095,609.2119-935.1333,609.292-935.5952,609.292z"/>
	<path fill="#FFFFFF" d="M-931.4043,609.2373v-5.7754h0.748v1.5732l-0.0771-0.2744c0.1616-0.4404,0.4326-0.7764,0.8145-1.0068
		c0.3809-0.2314,0.854-0.3467,1.4189-0.3467v0.7588c-0.0298,0-0.0591-0.001-0.0884-0.0049s-0.0586-0.0059-0.0879-0.0059
		c-0.6089,0-1.0854,0.1855-1.4297,0.5557c-0.3452,0.3701-0.5171,0.8965-0.5171,1.5781v2.9482H-931.4043z"/>
	<path fill="#FFFFFF" d="M-927.7305,604.1113v-0.6494h3.5752v0.6494H-927.7305z M-925.0024,609.292
		c-0.543,0-0.9609-0.1465-1.2539-0.4395c-0.2935-0.293-0.4399-0.708-0.4399-1.2432v-5.4229h0.7808v5.3789
		c0,0.3369,0.0859,0.5977,0.2588,0.7813c0.1719,0.1826,0.4194,0.2744,0.7422,0.2744c0.3447,0,0.6309-0.0986,0.8579-0.2969
		l0.2754,0.5615c-0.1543,0.1387-0.3394,0.2412-0.5557,0.3076S-924.7754,609.292-925.0024,609.292z"/>
	<path fill="#FFFFFF" d="M-921.9658,602.1865c-0.1616,0-0.2974-0.0557-0.4072-0.165c-0.1104-0.1104-0.165-0.2422-0.165-0.3965
		c0-0.1533,0.0547-0.2842,0.165-0.3906c0.1099-0.1055,0.2456-0.1592,0.4072-0.1592c0.1611,0,0.2969,0.0518,0.4072,0.1543
		c0.1094,0.1025,0.165,0.2305,0.165,0.3848c0,0.1611-0.0537,0.2969-0.1602,0.4072
		C-921.6602,602.1309-921.7969,602.1865-921.9658,602.1865z M-922.3623,609.2373v-5.7754h0.7813v5.7754H-922.3623z"/>
	<path fill="#FFFFFF" d="M-917.8516,609.292c-0.4775,0-0.9277-0.0674-1.3535-0.2031c-0.4248-0.1357-0.7588-0.3066-1.001-0.5117
		l0.3525-0.6162c0.2344,0.1768,0.5352,0.3291,0.9014,0.457c0.3672,0.1279,0.752,0.1924,1.1553,0.1924
		c0.5498,0,0.9463-0.0859,1.1875-0.2588c0.2422-0.1719,0.3633-0.4014,0.3633-0.6875c0-0.2119-0.0674-0.3789-0.2031-0.5
		s-0.3135-0.2129-0.5342-0.2754c-0.2197-0.0625-0.4648-0.1152-0.7363-0.1592s-0.541-0.0957-0.8086-0.1543
		s-0.5117-0.1445-0.7314-0.2588c-0.2197-0.1133-0.3984-0.2695-0.5332-0.4668c-0.1367-0.1982-0.2041-0.4619-0.2041-0.792
		c0-0.3154,0.0879-0.5977,0.2637-0.8477c0.1768-0.249,0.4346-0.4453,0.7764-0.5879c0.3408-0.1436,0.7568-0.2148,1.248-0.2148
		c0.374,0,0.748,0.0498,1.1221,0.1484c0.374,0.0996,0.6816,0.2295,0.9238,0.3906l-0.3408,0.627
		c-0.2568-0.1758-0.5322-0.3027-0.8252-0.3799c-0.293-0.0762-0.5869-0.1152-0.8799-0.1152c-0.5205,0-0.9043,0.0898-1.1494,0.2695
		c-0.2461,0.1797-0.3682,0.4092-0.3682,0.6875c0,0.2197,0.0674,0.3926,0.2031,0.5176c0.1357,0.124,0.3154,0.2217,0.5391,0.291
		c0.2236,0.0703,0.4688,0.127,0.7373,0.1709c0.2676,0.0439,0.5352,0.0967,0.8027,0.1592s0.5127,0.1465,0.7373,0.2529
		c0.2236,0.1064,0.4023,0.2568,0.5391,0.4512c0.1348,0.1943,0.2031,0.4492,0.2031,0.7646c0,0.3369-0.0938,0.6289-0.2803,0.874
		c-0.1875,0.2461-0.459,0.4365-0.8145,0.5723S-917.3457,609.292-917.8516,609.292z"/>
	<path fill="#FFFFFF" d="M-911.582,609.292c-0.6016,0-1.1299-0.126-1.584-0.3789c-0.4551-0.2529-0.8105-0.6016-1.0674-1.0449
		c-0.2568-0.4443-0.3848-0.9521-0.3848-1.5234c0-0.5723,0.123-1.0781,0.3682-1.5186c0.2461-0.4395,0.583-0.7861,1.0127-1.0391
		c0.4287-0.2529,0.9111-0.3799,1.4463-0.3799c0.542,0,1.0244,0.123,1.4463,0.3682c0.4219,0.2461,0.7539,0.5908,0.9951,1.0342
		c0.2422,0.4443,0.3633,0.9551,0.3633,1.5352c0,0.0361-0.002,0.0752-0.0059,0.1152c-0.0029,0.04-0.0049,0.082-0.0049,0.126h-5.0273
		v-0.583h4.6094l-0.3086,0.2314c0-0.418-0.0898-0.79-0.2695-1.1162s-0.4229-0.5811-0.7314-0.7646
		c-0.3076-0.1836-0.6631-0.2754-1.0664-0.2754c-0.3965,0-0.752,0.0918-1.0674,0.2754s-0.5605,0.4395-0.7373,0.7695
		c-0.1758,0.3301-0.2637,0.708-0.2637,1.1328v0.1211c0,0.4404,0.0977,0.8271,0.292,1.1611c0.1934,0.334,0.4648,0.5938,0.8135,0.7803
		c0.3486,0.1875,0.7461,0.2813,1.1934,0.2813c0.3525,0,0.6807-0.0625,0.9844-0.1875c0.3047-0.124,0.5674-0.3154,0.7871-0.5723
		l0.4395,0.5068c-0.2568,0.3076-0.5771,0.542-0.9619,0.7041C-910.6963,609.2119-911.1201,609.292-911.582,609.292z"/>
</g>
</svg>
