<?xml version="1.0" encoding="utf-8"?>
<!-- Generator: Adobe Illustrator 18.1.1, SVG Export Plug-In . SVG Version: 6.00 Build 0)  -->
<svg version="1.1" id="Layer_1" xmlns="http://www.w3.org/2000/svg" xmlns:xlink="http://www.w3.org/1999/xlink" x="0px" y="0px"
	 viewBox="0 0 100 100" enable-background="new 0 0 100 100" xml:space="preserve">
<rect x="7.4" width="85.1" height="100"/>
<g enable-background="new    ">
	<path fill="#FFFFFF" d="M16.5,17.4v-7.3h3c0.8,0,1.5,0.2,2,0.5s1,0.7,1.4,1.3c0.3,0.5,0.5,1.2,0.5,1.9c0,0.7-0.2,1.3-0.5,1.9
		c-0.3,0.5-0.8,1-1.4,1.3s-1.3,0.5-2,0.5H16.5z M17.3,16.7h2.2c0.6,0,1.2-0.1,1.7-0.4s0.8-0.6,1.1-1.1c0.3-0.4,0.4-1,0.4-1.5
		c0-0.6-0.1-1.1-0.4-1.6c-0.3-0.4-0.6-0.8-1.1-1s-1-0.4-1.7-0.4h-2.2V16.7z"/>
	<path fill="#FFFFFF" d="M27.2,17.4c-0.5,0-1-0.1-1.4-0.4c-0.4-0.2-0.8-0.6-1-1c-0.2-0.4-0.4-0.9-0.4-1.4c0-0.5,0.1-1,0.4-1.4
		s0.6-0.7,1-1c0.4-0.2,0.9-0.4,1.4-0.4c0.5,0,1,0.1,1.4,0.4c0.4,0.2,0.8,0.6,1,1c0.2,0.4,0.4,0.9,0.4,1.4c0,0.5-0.1,1-0.4,1.4
		c-0.2,0.4-0.6,0.8-1,1C28.2,17.3,27.7,17.4,27.2,17.4z M27.2,16.8c0.4,0,0.7-0.1,1.1-0.3c0.3-0.2,0.5-0.4,0.7-0.8
		c0.2-0.3,0.3-0.7,0.3-1.1c0-0.4-0.1-0.8-0.3-1.1c-0.2-0.3-0.4-0.6-0.7-0.7s-0.7-0.3-1-0.3c-0.4,0-0.7,0.1-1,0.3s-0.5,0.4-0.7,0.7
		c-0.2,0.3-0.3,0.7-0.3,1.1c0,0.4,0.1,0.8,0.3,1.1c0.2,0.3,0.4,0.6,0.7,0.8C26.4,16.7,26.8,16.8,27.2,16.8z"/>
	<path fill="#FFFFFF" d="M31.8,10.7c-0.2,0-0.3-0.1-0.4-0.2c-0.1-0.1-0.2-0.2-0.2-0.4c0-0.1,0.1-0.3,0.2-0.4
		c0.1-0.1,0.2-0.2,0.4-0.2s0.3,0,0.4,0.1c0.1,0.1,0.2,0.2,0.2,0.4c0,0.2-0.1,0.3-0.2,0.4C32.1,10.7,32,10.7,31.8,10.7z M31.5,17.4
		v-5.5h0.7v5.5H31.5z"/>
	<path fill="#FFFFFF" d="M37.1,11.9c0.4,0,0.8,0.1,1.2,0.3c0.3,0.2,0.6,0.4,0.8,0.8c0.2,0.3,0.3,0.8,0.3,1.3v3.2h-0.7v-3.1
		c0-0.6-0.1-1-0.4-1.3c-0.3-0.3-0.7-0.4-1.2-0.4c-0.4,0-0.7,0.1-1,0.2s-0.5,0.4-0.7,0.7c-0.2,0.3-0.2,0.7-0.2,1.1v2.9h-0.7v-5.5H35
		v1.5l-0.1-0.3c0.2-0.4,0.5-0.7,0.8-0.9C36.1,12,36.5,11.9,37.1,11.9z"/>
	<path fill="#FFFFFF" d="M43.5,17.2c-0.5,0-1-0.1-1.4-0.3c-0.4-0.2-0.7-0.5-1-0.9c-0.2-0.4-0.4-0.9-0.4-1.4s0.1-1,0.4-1.4
		c0.2-0.4,0.6-0.7,1-0.9c0.4-0.2,0.9-0.3,1.4-0.3c0.5,0,0.9,0.1,1.3,0.3c0.4,0.2,0.7,0.5,0.9,0.9c0.2,0.4,0.3,0.9,0.3,1.4
		S46,15.6,45.8,16c-0.2,0.4-0.5,0.7-0.9,0.9C44.4,17.1,44,17.2,43.5,17.2z M43.6,19.5c-0.5,0-1-0.1-1.4-0.2
		c-0.5-0.1-0.8-0.4-1.1-0.6l0.4-0.6c0.3,0.2,0.6,0.4,1,0.5c0.4,0.1,0.8,0.2,1.2,0.2c0.7,0,1.2-0.2,1.5-0.5c0.3-0.3,0.5-0.8,0.5-1.5
		v-1.4l0.1-0.9l-0.1-0.9v-1.7h0.7v4.8c0,0.9-0.2,1.6-0.7,2.1C45.2,19.2,44.6,19.5,43.6,19.5z M43.6,16.5c0.4,0,0.8-0.1,1.1-0.3
		c0.3-0.2,0.6-0.4,0.7-0.7c0.2-0.3,0.3-0.7,0.3-1s-0.1-0.7-0.3-1c-0.2-0.3-0.4-0.5-0.7-0.7c-0.3-0.2-0.7-0.3-1.1-0.3
		c-0.4,0-0.8,0.1-1.1,0.3c-0.3,0.2-0.6,0.4-0.7,0.7c-0.2,0.3-0.3,0.6-0.3,1s0.1,0.7,0.3,1c0.2,0.3,0.4,0.5,0.7,0.7
		C42.8,16.4,43.2,16.5,43.6,16.5z"/>
</g>
<g enable-background="new    ">
	<path fill="#FFFFFF" d="M18.5,32c-0.5,0-1-0.1-1.4-0.4c-0.4-0.2-0.7-0.6-1-1c-0.2-0.4-0.4-0.9-0.4-1.5c0-0.5,0.1-1,0.4-1.5
		c0.2-0.4,0.6-0.7,1-1c0.4-0.2,0.9-0.3,1.4-0.3c0.5,0,0.9,0.1,1.3,0.3c0.4,0.2,0.7,0.5,0.9,0.9c0.2,0.4,0.3,0.9,0.3,1.5
		c0,0.6-0.1,1.1-0.3,1.5c-0.2,0.4-0.5,0.7-0.9,0.9S19,32,18.5,32z M18.6,31.4c0.4,0,0.7-0.1,1-0.3c0.3-0.2,0.6-0.4,0.7-0.8
		c0.2-0.3,0.3-0.7,0.3-1.1c0-0.4-0.1-0.8-0.3-1.1c-0.2-0.3-0.4-0.6-0.7-0.8s-0.7-0.3-1-0.3c-0.4,0-0.7,0.1-1,0.3s-0.5,0.4-0.7,0.8
		s-0.3,0.7-0.3,1.1c0,0.4,0.1,0.8,0.3,1.1c0.2,0.3,0.4,0.6,0.7,0.8C17.8,31.3,18.2,31.4,18.6,31.4z M20.6,34v-3.6l0.1-1.1l-0.1-1.1
		v-1.6h0.7V34H20.6z"/>
	<path fill="#FFFFFF" d="M25.7,32c-0.5,0-0.9-0.1-1.2-0.3c-0.3-0.2-0.6-0.4-0.8-0.8c-0.2-0.3-0.3-0.8-0.3-1.3v-3.2h0.7v3.1
		c0,0.6,0.1,1,0.4,1.3c0.3,0.3,0.7,0.4,1.2,0.4c0.4,0,0.7-0.1,1-0.2s0.5-0.4,0.6-0.7c0.1-0.3,0.2-0.7,0.2-1.1v-2.9h0.7V32h-0.7v-1.5
		l0.1,0.3c-0.2,0.4-0.4,0.7-0.8,0.9C26.6,31.9,26.1,32,25.7,32z"/>
	<path fill="#FFFFFF" d="M31.9,32c-0.4,0-0.8-0.1-1.1-0.2c-0.3-0.1-0.5-0.3-0.7-0.6c-0.2-0.2-0.2-0.5-0.2-0.8c0-0.3,0.1-0.5,0.2-0.8
		c0.1-0.2,0.4-0.4,0.7-0.6c0.3-0.1,0.7-0.2,1.2-0.2h1.9v0.6h-1.9c-0.5,0-0.9,0.1-1.1,0.3c-0.2,0.2-0.3,0.4-0.3,0.7
		c0,0.3,0.1,0.6,0.4,0.8s0.6,0.3,1,0.3c0.4,0,0.8-0.1,1.1-0.3c0.3-0.2,0.5-0.5,0.7-0.8l0.2,0.5c-0.1,0.4-0.4,0.6-0.7,0.9
		C32.9,31.9,32.5,32,31.9,32z M33.8,32v-1.2l0-0.2v-2c0-0.5-0.1-0.8-0.4-1.1c-0.3-0.3-0.6-0.4-1.2-0.4c-0.4,0-0.7,0.1-1,0.2
		c-0.3,0.1-0.6,0.3-0.8,0.5l-0.3-0.6c0.3-0.2,0.6-0.4,1-0.5c0.4-0.1,0.8-0.2,1.2-0.2c0.7,0,1.3,0.2,1.6,0.5c0.4,0.4,0.6,0.9,0.6,1.6
		V32H33.8z"/>
	<path fill="#FFFFFF" d="M36.5,32v-7.7h0.7V32H36.5z"/>
	<path fill="#FFFFFF" d="M39.7,25.3c-0.2,0-0.3-0.1-0.4-0.2c-0.1-0.1-0.2-0.2-0.2-0.4c0-0.1,0.1-0.3,0.2-0.4
		c0.1-0.1,0.2-0.2,0.4-0.2s0.3,0,0.4,0.1c0.1,0.1,0.2,0.2,0.2,0.4c0,0.2-0.1,0.3-0.2,0.4C40,25.2,39.9,25.3,39.7,25.3z M39.3,32
		v-5.5h0.7V32H39.3z"/>
	<path fill="#FFFFFF" d="M41.3,27.1v-0.6h3.4v0.6H41.3z M43.9,32c-0.5,0-0.9-0.1-1.2-0.4c-0.3-0.3-0.4-0.7-0.4-1.2v-5.1H43v5.1
		c0,0.3,0.1,0.6,0.2,0.7c0.2,0.2,0.4,0.3,0.7,0.3c0.3,0,0.6-0.1,0.8-0.3l0.3,0.5c-0.1,0.1-0.3,0.2-0.5,0.3C44.3,32,44.1,32,43.9,32z
		"/>
	<path fill="#FFFFFF" d="M46.3,34c-0.3,0-0.5,0-0.7-0.1c-0.2-0.1-0.4-0.2-0.6-0.4l0.3-0.6c0.1,0.1,0.3,0.2,0.5,0.3
		c0.2,0.1,0.3,0.1,0.5,0.1c0.2,0,0.5-0.1,0.6-0.2c0.2-0.1,0.3-0.4,0.5-0.7l0.4-0.8l0.1-0.1l2.3-5.1h0.7l-2.7,6.1
		c-0.2,0.4-0.3,0.6-0.5,0.8s-0.4,0.4-0.6,0.4C46.8,34,46.6,34,46.3,34z M47.8,32.1l-2.5-5.6H46l2.2,5L47.8,32.1z"/>
	<path fill="#FFFFFF" d="M55.8,32l-2.1-5.5h0.7l1.9,5.1H56l1.9-5.1h0.6l1.9,5.1h-0.3l1.9-5.1h0.7L60.6,32h-0.7l-1.8-4.8h0.2L56.5,32
		H55.8z"/>
	<path fill="#FFFFFF" d="M65.9,32c-0.5,0-1-0.1-1.4-0.4c-0.4-0.2-0.8-0.6-1-1c-0.2-0.4-0.4-0.9-0.4-1.4c0-0.5,0.1-1,0.4-1.4
		s0.6-0.7,1-1c0.4-0.2,0.9-0.4,1.4-0.4c0.5,0,1,0.1,1.4,0.4c0.4,0.2,0.8,0.6,1,1c0.2,0.4,0.4,0.9,0.4,1.4c0,0.5-0.1,1-0.4,1.4
		c-0.2,0.4-0.6,0.8-1,1C66.9,31.9,66.4,32,65.9,32z M65.9,31.4c0.4,0,0.7-0.1,1.1-0.3c0.3-0.2,0.5-0.4,0.7-0.8
		c0.2-0.3,0.3-0.7,0.3-1.1c0-0.4-0.1-0.8-0.3-1.1c-0.2-0.3-0.4-0.6-0.7-0.7s-0.7-0.3-1-0.3c-0.4,0-0.7,0.1-1,0.3s-0.5,0.4-0.7,0.7
		c-0.2,0.3-0.3,0.7-0.3,1.1c0,0.4,0.1,0.8,0.3,1.1c0.2,0.3,0.4,0.6,0.7,0.8C65.2,31.3,65.5,31.4,65.9,31.4z"/>
	<path fill="#FFFFFF" d="M70.2,32v-5.5h0.7V28l-0.1-0.3c0.2-0.4,0.4-0.7,0.8-1c0.4-0.2,0.8-0.3,1.3-0.3v0.7c0,0-0.1,0-0.1,0
		s-0.1,0-0.1,0c-0.6,0-1,0.2-1.4,0.5c-0.3,0.4-0.5,0.8-0.5,1.5V32H70.2z"/>
	<path fill="#FFFFFF" d="M74.3,32v-7.7H75V32H74.3z M74.9,30.5l0-0.9l3.4-3.1h0.9l-2.4,2.3l-0.4,0.4L74.9,30.5z M78.5,32l-2.3-2.8
		l0.5-0.6l2.7,3.4H78.5z"/>
	<path fill="#FFFFFF" d="M80.2,33.5l0.5-1.9l0.1,0.4c-0.2,0-0.3-0.1-0.4-0.2c-0.1-0.1-0.2-0.2-0.2-0.4c0-0.2,0.1-0.3,0.2-0.4
		c0.1-0.1,0.2-0.2,0.4-0.2c0.2,0,0.3,0.1,0.4,0.2c0.1,0.1,0.2,0.2,0.2,0.4c0,0.1,0,0.1,0,0.2c0,0.1,0,0.1,0,0.2c0,0.1,0,0.2-0.1,0.3
		l-0.4,1.4H80.2z"/>
</g>
<g enable-background="new    ">
	<path fill="#FFFFFF" d="M16.3,46.5v-7.7h0.7v3.9L17,43.8l0.1,1.1v1.6H16.3z M19.2,46.6c-0.5,0-0.9-0.1-1.3-0.3s-0.7-0.5-0.9-1
		c-0.2-0.4-0.3-0.9-0.3-1.5c0-0.6,0.1-1.1,0.3-1.5c0.2-0.4,0.5-0.7,0.9-0.9s0.8-0.3,1.3-0.3c0.5,0,1,0.1,1.4,0.3
		c0.4,0.2,0.7,0.6,1,1c0.2,0.4,0.4,0.9,0.4,1.5c0,0.5-0.1,1-0.4,1.5c-0.2,0.4-0.6,0.7-1,1C20.1,46.5,19.7,46.6,19.2,46.6z
		 M19.1,45.9c0.4,0,0.7-0.1,1-0.3c0.3-0.2,0.5-0.4,0.7-0.8c0.2-0.3,0.3-0.7,0.3-1.1c0-0.4-0.1-0.8-0.3-1.1c-0.2-0.3-0.4-0.6-0.7-0.7
		s-0.7-0.3-1-0.3c-0.4,0-0.7,0.1-1,0.3c-0.3,0.2-0.6,0.4-0.7,0.7c-0.2,0.3-0.3,0.7-0.3,1.1c0,0.4,0.1,0.8,0.3,1.1
		c0.2,0.3,0.4,0.6,0.7,0.8C18.4,45.9,18.7,45.9,19.1,45.9z"/>
	<path fill="#FFFFFF" d="M25.7,46.6c-0.5,0-0.9-0.1-1.2-0.3c-0.3-0.2-0.6-0.4-0.8-0.8c-0.2-0.3-0.3-0.8-0.3-1.3v-3.2h0.7v3.1
		c0,0.6,0.1,1,0.4,1.3c0.3,0.3,0.7,0.4,1.2,0.4c0.4,0,0.7-0.1,1-0.2s0.5-0.4,0.6-0.7c0.1-0.3,0.2-0.7,0.2-1.1v-2.9h0.7v5.5h-0.7V45
		l0.1,0.3c-0.2,0.4-0.4,0.7-0.8,0.9C26.6,46.5,26.1,46.6,25.7,46.6z"/>
	<path fill="#FFFFFF" d="M29.5,41.7v-0.6h3.4v0.6H29.5z M32.1,46.6c-0.5,0-0.9-0.1-1.2-0.4c-0.3-0.3-0.4-0.7-0.4-1.2v-5.1h0.7V45
		c0,0.3,0.1,0.6,0.2,0.7c0.2,0.2,0.4,0.3,0.7,0.3c0.3,0,0.6-0.1,0.8-0.3l0.3,0.5c-0.1,0.1-0.3,0.2-0.5,0.3
		C32.6,46.6,32.3,46.6,32.1,46.6z"/>
	<path fill="#FFFFFF" d="M40.1,41c0.4,0,0.8,0.1,1.2,0.3c0.3,0.2,0.6,0.4,0.8,0.8c0.2,0.3,0.3,0.8,0.3,1.3v3.2h-0.7v-3.1
		c0-0.6-0.1-1-0.4-1.3c-0.3-0.3-0.7-0.4-1.2-0.4c-0.4,0-0.7,0.1-1,0.2s-0.5,0.4-0.7,0.7c-0.2,0.3-0.2,0.7-0.2,1.1v2.9h-0.7v-5.5h0.7
		v1.5L38,42.3c0.2-0.4,0.5-0.7,0.8-0.9C39.2,41.1,39.6,41,40.1,41z"/>
	<path fill="#FFFFFF" d="M46.6,46.6c-0.5,0-1-0.1-1.4-0.4c-0.4-0.2-0.8-0.6-1-1c-0.2-0.4-0.4-0.9-0.4-1.4c0-0.5,0.1-1,0.4-1.4
		s0.6-0.7,1-1c0.4-0.2,0.9-0.4,1.4-0.4c0.5,0,1,0.1,1.4,0.4c0.4,0.2,0.8,0.6,1,1c0.2,0.4,0.4,0.9,0.4,1.4c0,0.5-0.1,1-0.4,1.4
		c-0.2,0.4-0.6,0.8-1,1C47.6,46.5,47.2,46.6,46.6,46.6z M46.6,45.9c0.4,0,0.7-0.1,1.1-0.3c0.3-0.2,0.5-0.4,0.7-0.8
		c0.2-0.3,0.3-0.7,0.3-1.1c0-0.4-0.1-0.8-0.3-1.1c-0.2-0.3-0.4-0.6-0.7-0.7s-0.7-0.3-1-0.3c-0.4,0-0.7,0.1-1,0.3s-0.5,0.4-0.7,0.7
		c-0.2,0.3-0.3,0.7-0.3,1.1c0,0.4,0.1,0.8,0.3,1.1c0.2,0.3,0.4,0.6,0.7,0.8C45.9,45.9,46.2,45.9,46.6,45.9z"/>
	<path fill="#FFFFFF" d="M50.1,41.7v-0.6h3.4v0.6H50.1z M52.7,46.6c-0.5,0-0.9-0.1-1.2-0.4c-0.3-0.3-0.4-0.7-0.4-1.2v-5.1h0.7V45
		c0,0.3,0.1,0.6,0.2,0.7c0.2,0.2,0.4,0.3,0.7,0.3c0.3,0,0.6-0.1,0.8-0.3l0.3,0.5c-0.1,0.1-0.3,0.2-0.5,0.3
		C53.1,46.6,52.9,46.6,52.7,46.6z"/>
</g>
<g enable-background="new    ">
	<path fill="#FFFFFF" d="M18.5,60.9c-0.5,0-1-0.1-1.4-0.3c-0.4-0.2-0.7-0.5-1-0.9c-0.2-0.4-0.4-0.9-0.4-1.4s0.1-1,0.4-1.4
		c0.2-0.4,0.6-0.7,1-0.9c0.4-0.2,0.9-0.3,1.4-0.3c0.5,0,0.9,0.1,1.3,0.3c0.4,0.2,0.7,0.5,0.9,0.9c0.2,0.4,0.3,0.9,0.3,1.4
		s-0.1,1.1-0.3,1.4c-0.2,0.4-0.5,0.7-0.9,0.9C19.5,60.8,19,60.9,18.5,60.9z M18.7,63.2c-0.5,0-1-0.1-1.4-0.2
		c-0.5-0.1-0.8-0.4-1.1-0.6l0.4-0.6c0.3,0.2,0.6,0.4,1,0.5c0.4,0.1,0.8,0.2,1.2,0.2c0.7,0,1.2-0.2,1.5-0.5c0.3-0.3,0.5-0.8,0.5-1.5
		v-1.4l0.1-0.9l-0.1-0.9v-1.7h0.7v4.8c0,0.9-0.2,1.6-0.7,2.1C20.3,63,19.6,63.2,18.7,63.2z M18.6,60.3c0.4,0,0.8-0.1,1.1-0.3
		c0.3-0.2,0.6-0.4,0.7-0.7c0.2-0.3,0.3-0.7,0.3-1s-0.1-0.7-0.3-1c-0.2-0.3-0.4-0.5-0.7-0.7c-0.3-0.2-0.7-0.3-1.1-0.3
		c-0.4,0-0.8,0.1-1.1,0.3c-0.3,0.2-0.6,0.4-0.7,0.7c-0.2,0.3-0.3,0.6-0.3,1s0.1,0.7,0.3,1c0.2,0.3,0.4,0.5,0.7,0.7
		C17.9,60.2,18.2,60.3,18.6,60.3z"/>
	<path fill="#FFFFFF" d="M25.8,61.2c-0.6,0-1.1-0.1-1.5-0.4c-0.4-0.2-0.8-0.6-1-1s-0.4-0.9-0.4-1.4c0-0.5,0.1-1,0.3-1.4
		c0.2-0.4,0.6-0.7,1-1c0.4-0.2,0.9-0.4,1.4-0.4c0.5,0,1,0.1,1.4,0.3s0.7,0.6,0.9,1c0.2,0.4,0.3,0.9,0.3,1.5c0,0,0,0.1,0,0.1
		s0,0.1,0,0.1h-4.8v-0.6h4.4l-0.3,0.2c0-0.4-0.1-0.7-0.3-1.1c-0.2-0.3-0.4-0.5-0.7-0.7c-0.3-0.2-0.6-0.3-1-0.3c-0.4,0-0.7,0.1-1,0.3
		c-0.3,0.2-0.5,0.4-0.7,0.7c-0.2,0.3-0.3,0.7-0.3,1.1v0.1c0,0.4,0.1,0.8,0.3,1.1c0.2,0.3,0.4,0.6,0.8,0.7c0.3,0.2,0.7,0.3,1.1,0.3
		c0.3,0,0.6-0.1,0.9-0.2s0.5-0.3,0.7-0.5l0.4,0.5c-0.2,0.3-0.5,0.5-0.9,0.7C26.6,61.1,26.2,61.2,25.8,61.2z"/>
	<path fill="#FFFFFF" d="M28.9,56.3v-0.6h3.4v0.6H28.9z M31.5,61.2c-0.5,0-0.9-0.1-1.2-0.4c-0.3-0.3-0.4-0.7-0.4-1.2v-5.1h0.7v5.1
		c0,0.3,0.1,0.6,0.2,0.7s0.4,0.3,0.7,0.3c0.3,0,0.6-0.1,0.8-0.3l0.3,0.5c-0.1,0.1-0.3,0.2-0.5,0.3C31.9,61.2,31.7,61.2,31.5,61.2z"
		/>
	<path fill="#FFFFFF" d="M33,56.3v-0.6h3.4v0.6H33z M35.6,61.2c-0.5,0-0.9-0.1-1.2-0.4c-0.3-0.3-0.4-0.7-0.4-1.2v-5.1h0.7v5.1
		c0,0.3,0.1,0.6,0.2,0.7s0.4,0.3,0.7,0.3c0.3,0,0.6-0.1,0.8-0.3l0.3,0.5c-0.1,0.1-0.3,0.2-0.5,0.3C36,61.2,35.8,61.2,35.6,61.2z"/>
	<path fill="#FFFFFF" d="M38.5,54.5c-0.2,0-0.3-0.1-0.4-0.2c-0.1-0.1-0.2-0.2-0.2-0.4c0-0.1,0.1-0.3,0.2-0.4
		c0.1-0.1,0.2-0.2,0.4-0.2s0.3,0,0.4,0.1c0.1,0.1,0.2,0.2,0.2,0.4c0,0.2-0.1,0.3-0.2,0.4C38.7,54.4,38.6,54.5,38.5,54.5z M38.1,61.1
		v-5.5h0.7v5.5H38.1z"/>
	<path fill="#FFFFFF" d="M43.7,55.6c0.4,0,0.8,0.1,1.2,0.3s0.6,0.4,0.8,0.8c0.2,0.3,0.3,0.8,0.3,1.3v3.2h-0.7V58
		c0-0.6-0.1-1-0.4-1.3c-0.3-0.3-0.7-0.4-1.2-0.4c-0.4,0-0.7,0.1-1,0.2s-0.5,0.4-0.7,0.7c-0.2,0.3-0.2,0.7-0.2,1.1v2.9h-0.7v-5.5h0.7
		v1.5l-0.1-0.3c0.2-0.4,0.5-0.7,0.8-0.9C42.7,55.7,43.1,55.6,43.7,55.6z"/>
	<path fill="#FFFFFF" d="M50.1,60.9c-0.5,0-1-0.1-1.4-0.3c-0.4-0.2-0.7-0.5-1-0.9c-0.2-0.4-0.4-0.9-0.4-1.4s0.1-1,0.4-1.4
		c0.2-0.4,0.6-0.7,1-0.9c0.4-0.2,0.9-0.3,1.4-0.3c0.5,0,0.9,0.1,1.3,0.3c0.4,0.2,0.7,0.5,0.9,0.9c0.2,0.4,0.3,0.9,0.3,1.4
		s-0.1,1.1-0.3,1.4c-0.2,0.4-0.5,0.7-0.9,0.9C51,60.8,50.6,60.9,50.1,60.9z M50.3,63.2c-0.5,0-1-0.1-1.4-0.2
		c-0.5-0.1-0.8-0.4-1.1-0.6l0.4-0.6c0.3,0.2,0.6,0.4,1,0.5c0.4,0.1,0.8,0.2,1.2,0.2c0.7,0,1.2-0.2,1.5-0.5c0.3-0.3,0.5-0.8,0.5-1.5
		v-1.4l0.1-0.9l-0.1-0.9v-1.7H53v4.8c0,0.9-0.2,1.6-0.7,2.1C51.8,63,51.2,63.2,50.3,63.2z M50.2,60.3c0.4,0,0.8-0.1,1.1-0.3
		c0.3-0.2,0.6-0.4,0.7-0.7c0.2-0.3,0.3-0.7,0.3-1s-0.1-0.7-0.3-1c-0.2-0.3-0.4-0.5-0.7-0.7c-0.3-0.2-0.7-0.3-1.1-0.3
		c-0.4,0-0.8,0.1-1.1,0.3c-0.3,0.2-0.6,0.4-0.7,0.7c-0.2,0.3-0.3,0.6-0.3,1s0.1,0.7,0.3,1c0.2,0.3,0.4,0.5,0.7,0.7
		C49.4,60.2,49.8,60.3,50.2,60.3z"/>
</g>
<g enable-background="new    ">
	<path fill="#FFFFFF" d="M16.3,77.7v-7.5H17v1.6L17,73l0.1,1.1v3.6H16.3z M19.2,75.8c-0.5,0-0.9-0.1-1.3-0.3s-0.7-0.5-0.9-0.9
		c-0.2-0.4-0.3-0.9-0.3-1.5c0-0.6,0.1-1.1,0.3-1.5s0.5-0.7,0.9-0.9c0.4-0.2,0.8-0.3,1.3-0.3c0.5,0,1,0.1,1.4,0.3
		c0.4,0.2,0.7,0.6,1,1c0.2,0.4,0.4,0.9,0.4,1.5c0,0.6-0.1,1-0.4,1.5c-0.2,0.4-0.6,0.7-1,1C20.1,75.6,19.7,75.8,19.2,75.8z
		 M19.1,75.1c0.4,0,0.7-0.1,1-0.3c0.3-0.2,0.5-0.4,0.7-0.8c0.2-0.3,0.3-0.7,0.3-1.1c0-0.4-0.1-0.8-0.3-1.1s-0.4-0.6-0.7-0.8
		s-0.7-0.3-1-0.3c-0.4,0-0.7,0.1-1,0.3c-0.3,0.2-0.6,0.4-0.7,0.8c-0.2,0.3-0.3,0.7-0.3,1.1c0,0.4,0.1,0.8,0.3,1.1
		c0.2,0.3,0.4,0.6,0.7,0.8C18.4,75,18.7,75.1,19.1,75.1z"/>
	<path fill="#FFFFFF" d="M23.4,75.7v-5.5h0.7v1.5L24,71.5c0.2-0.4,0.4-0.7,0.8-1c0.4-0.2,0.8-0.3,1.3-0.3v0.7c0,0-0.1,0-0.1,0
		c0,0-0.1,0-0.1,0c-0.6,0-1,0.2-1.4,0.5c-0.3,0.4-0.5,0.8-0.5,1.5v2.8H23.4z"/>
	<path fill="#FFFFFF" d="M29.8,75.8c-0.6,0-1.1-0.1-1.5-0.4c-0.4-0.2-0.8-0.6-1-1s-0.4-0.9-0.4-1.4c0-0.5,0.1-1,0.3-1.4
		c0.2-0.4,0.6-0.7,1-1c0.4-0.2,0.9-0.4,1.4-0.4c0.5,0,1,0.1,1.4,0.3s0.7,0.6,0.9,1c0.2,0.4,0.3,0.9,0.3,1.5c0,0,0,0.1,0,0.1
		s0,0.1,0,0.1h-4.8v-0.6h4.4l-0.3,0.2c0-0.4-0.1-0.7-0.3-1.1c-0.2-0.3-0.4-0.5-0.7-0.7c-0.3-0.2-0.6-0.3-1-0.3c-0.4,0-0.7,0.1-1,0.3
		c-0.3,0.2-0.5,0.4-0.7,0.7c-0.2,0.3-0.3,0.7-0.3,1.1V73c0,0.4,0.1,0.8,0.3,1.1c0.2,0.3,0.4,0.6,0.8,0.7c0.3,0.2,0.7,0.3,1.1,0.3
		c0.3,0,0.6-0.1,0.9-0.2s0.5-0.3,0.7-0.5l0.4,0.5c-0.2,0.3-0.5,0.5-0.9,0.7C30.6,75.7,30.2,75.8,29.8,75.8z"/>
	<path fill="#FFFFFF" d="M40.6,70.2c0.4,0,0.8,0.1,1.2,0.3c0.3,0.2,0.6,0.4,0.8,0.8c0.2,0.3,0.3,0.8,0.3,1.3v3.2H42v-3.1
		c0-0.6-0.1-1-0.4-1.3c-0.3-0.3-0.7-0.4-1.2-0.4c-0.4,0-0.7,0.1-1,0.2c-0.3,0.2-0.5,0.4-0.6,0.7c-0.1,0.3-0.2,0.7-0.2,1.1v2.9h-0.7
		v-3.1c0-0.6-0.1-1-0.4-1.3c-0.3-0.3-0.7-0.4-1.2-0.4c-0.4,0-0.7,0.1-1,0.2s-0.5,0.4-0.6,0.7c-0.1,0.3-0.2,0.7-0.2,1.1v2.9h-0.7
		v-5.5h0.7v1.5l-0.1-0.3c0.2-0.4,0.4-0.7,0.8-0.9s0.8-0.3,1.3-0.3c0.5,0,1,0.1,1.4,0.4c0.4,0.3,0.6,0.7,0.7,1.2l-0.3-0.1
		c0.2-0.4,0.4-0.8,0.8-1.1S40,70.2,40.6,70.2z"/>
	<path fill="#FFFFFF" d="M45.2,69c-0.2,0-0.3-0.1-0.4-0.2c-0.1-0.1-0.2-0.2-0.2-0.4c0-0.1,0.1-0.3,0.2-0.4C44.9,68,45,68,45.2,68
		s0.3,0,0.4,0.1c0.1,0.1,0.2,0.2,0.2,0.4c0,0.2-0.1,0.3-0.2,0.4C45.4,69,45.3,69,45.2,69z M44.8,75.7v-5.5h0.7v5.5H44.8z"/>
	<path fill="#FFFFFF" d="M49.8,75.8c-0.5,0-0.9-0.1-1.2-0.3c-0.3-0.2-0.6-0.4-0.8-0.8c-0.2-0.3-0.3-0.8-0.3-1.3v-3.2h0.7v3.1
		c0,0.6,0.1,1,0.4,1.3c0.3,0.3,0.7,0.4,1.2,0.4c0.4,0,0.7-0.1,1-0.2s0.5-0.4,0.6-0.7c0.1-0.3,0.2-0.7,0.2-1.1v-2.9h0.7v5.5h-0.7
		v-1.5l0.1,0.3c-0.2,0.4-0.4,0.7-0.8,0.9C50.8,75.7,50.3,75.8,49.8,75.8z"/>
	<path fill="#FFFFFF" d="M61.4,70.2c0.4,0,0.8,0.1,1.2,0.3c0.3,0.2,0.6,0.4,0.8,0.8c0.2,0.3,0.3,0.8,0.3,1.3v3.2h-0.7v-3.1
		c0-0.6-0.1-1-0.4-1.3c-0.3-0.3-0.7-0.4-1.2-0.4c-0.4,0-0.7,0.1-1,0.2c-0.3,0.2-0.5,0.4-0.6,0.7c-0.1,0.3-0.2,0.7-0.2,1.1v2.9h-0.7
		v-3.1c0-0.6-0.1-1-0.4-1.3c-0.3-0.3-0.7-0.4-1.2-0.4c-0.4,0-0.7,0.1-1,0.2s-0.5,0.4-0.6,0.7c-0.1,0.3-0.2,0.7-0.2,1.1v2.9h-0.7
		v-5.5h0.7v1.5l-0.1-0.3c0.2-0.4,0.4-0.7,0.8-0.9s0.8-0.3,1.3-0.3c0.5,0,1,0.1,1.4,0.4c0.4,0.3,0.6,0.7,0.7,1.2l-0.3-0.1
		c0.2-0.4,0.4-0.8,0.8-1.1S60.8,70.2,61.4,70.2z"/>
</g>
<g enable-background="new    ">
	<path fill="#FFFFFF" d="M16.3,90.3v-5.5H17v1.5L17,86.1c0.2-0.4,0.4-0.7,0.8-1c0.4-0.2,0.8-0.3,1.3-0.3v0.7c0,0-0.1,0-0.1,0
		c0,0-0.1,0-0.1,0c-0.6,0-1,0.2-1.4,0.5c-0.3,0.4-0.5,0.8-0.5,1.5v2.8H16.3z"/>
	<path fill="#FFFFFF" d="M21.6,90.3c-0.4,0-0.8-0.1-1.1-0.2c-0.3-0.1-0.5-0.3-0.7-0.6c-0.2-0.2-0.2-0.5-0.2-0.8
		c0-0.3,0.1-0.5,0.2-0.8c0.1-0.2,0.4-0.4,0.7-0.6c0.3-0.1,0.7-0.2,1.2-0.2h1.9v0.6h-1.9c-0.5,0-0.9,0.1-1.1,0.3
		c-0.2,0.2-0.3,0.4-0.3,0.7c0,0.3,0.1,0.6,0.4,0.8s0.6,0.3,1,0.3c0.4,0,0.8-0.1,1.1-0.3c0.3-0.2,0.5-0.5,0.7-0.8l0.2,0.5
		c-0.1,0.4-0.4,0.6-0.7,0.9C22.5,90.2,22.1,90.3,21.6,90.3z M23.5,90.3v-1.2l0-0.2v-2c0-0.5-0.1-0.8-0.4-1.1
		c-0.3-0.3-0.6-0.4-1.2-0.4c-0.4,0-0.7,0.1-1,0.2c-0.3,0.1-0.6,0.3-0.8,0.5l-0.3-0.6c0.3-0.2,0.6-0.4,1-0.5c0.4-0.1,0.8-0.2,1.2-0.2
		c0.7,0,1.3,0.2,1.6,0.5c0.4,0.4,0.6,0.9,0.6,1.6v3.4H23.5z"/>
	<path fill="#FFFFFF" d="M25.3,85.4v-0.6h3.4v0.6H25.3z M27.9,90.3c-0.5,0-0.9-0.1-1.2-0.4c-0.3-0.3-0.4-0.7-0.4-1.2v-5.1H27v5.1
		c0,0.3,0.1,0.6,0.2,0.7s0.4,0.3,0.7,0.3c0.3,0,0.6-0.1,0.8-0.3l0.3,0.5c-0.1,0.1-0.3,0.2-0.5,0.3C28.3,90.3,28.1,90.3,27.9,90.3z"
		/>
	<path fill="#FFFFFF" d="M32.5,90.3c-0.6,0-1.1-0.1-1.5-0.4c-0.4-0.2-0.8-0.6-1-1s-0.4-0.9-0.4-1.4c0-0.5,0.1-1,0.3-1.4
		c0.2-0.4,0.6-0.7,1-1c0.4-0.2,0.9-0.4,1.4-0.4c0.5,0,1,0.1,1.4,0.3s0.7,0.6,0.9,1c0.2,0.4,0.3,0.9,0.3,1.5c0,0,0,0.1,0,0.1
		s0,0.1,0,0.1h-4.8v-0.6h4.4l-0.3,0.2c0-0.4-0.1-0.7-0.3-1.1c-0.2-0.3-0.4-0.5-0.7-0.7c-0.3-0.2-0.6-0.3-1-0.3c-0.4,0-0.7,0.1-1,0.3
		c-0.3,0.2-0.5,0.4-0.7,0.7c-0.2,0.3-0.3,0.7-0.3,1.1v0.1c0,0.4,0.1,0.8,0.3,1.1c0.2,0.3,0.4,0.6,0.8,0.7c0.3,0.2,0.7,0.3,1.1,0.3
		c0.3,0,0.6-0.1,0.9-0.2s0.5-0.3,0.7-0.5l0.4,0.5c-0.2,0.3-0.5,0.5-0.9,0.7C33.4,90.3,33,90.3,32.5,90.3z"/>
	<path fill="#FFFFFF" d="M38,90.3c-0.5,0-0.9-0.1-1.3-0.2s-0.7-0.3-0.9-0.5l0.3-0.6c0.2,0.2,0.5,0.3,0.9,0.4
		c0.3,0.1,0.7,0.2,1.1,0.2c0.5,0,0.9-0.1,1.1-0.2c0.2-0.2,0.3-0.4,0.3-0.7c0-0.2-0.1-0.4-0.2-0.5c-0.1-0.1-0.3-0.2-0.5-0.3
		c-0.2-0.1-0.4-0.1-0.7-0.2s-0.5-0.1-0.8-0.1s-0.5-0.1-0.7-0.2c-0.2-0.1-0.4-0.3-0.5-0.4c-0.1-0.2-0.2-0.4-0.2-0.8
		c0-0.3,0.1-0.6,0.3-0.8c0.2-0.2,0.4-0.4,0.7-0.6c0.3-0.1,0.7-0.2,1.2-0.2c0.4,0,0.7,0,1.1,0.1c0.4,0.1,0.6,0.2,0.9,0.4l-0.3,0.6
		c-0.2-0.2-0.5-0.3-0.8-0.4c-0.3-0.1-0.6-0.1-0.8-0.1c-0.5,0-0.9,0.1-1.1,0.3c-0.2,0.2-0.3,0.4-0.3,0.7c0,0.2,0.1,0.4,0.2,0.5
		s0.3,0.2,0.5,0.3c0.2,0.1,0.4,0.1,0.7,0.2c0.3,0,0.5,0.1,0.8,0.2c0.3,0.1,0.5,0.1,0.7,0.2s0.4,0.2,0.5,0.4c0.1,0.2,0.2,0.4,0.2,0.7
		c0,0.3-0.1,0.6-0.3,0.8c-0.2,0.2-0.4,0.4-0.8,0.5C38.8,90.3,38.4,90.3,38,90.3z"/>
</g>
</svg>
