<?xml version="1.0" encoding="utf-8"?>
<!-- Generator: Adobe Illustrator 18.1.1, SVG Export Plug-In . SVG Version: 6.00 Build 0)  -->
<svg version="1.1" id="Layer_1" xmlns="http://www.w3.org/2000/svg" xmlns:xlink="http://www.w3.org/1999/xlink" x="0px" y="0px"
	 width="100px" height="100px" viewBox="-973 527 100 100" enable-background="new -973 527 100 100" xml:space="preserve">
<rect x="-965.6" y="527" width="85.1" height="100"/>
<g>
	<path fill="#FFFFFF" d="M-953.6118,545.5156c-0.5718,0-1.1201-0.0933-1.6445-0.2803s-0.9292-0.4272-1.2153-0.7207l0.3188-0.627
		c0.2715,0.2642,0.6362,0.4858,1.0947,0.6655c0.458,0.1797,0.9404,0.2695,1.4463,0.2695c0.4839,0,0.8779-0.0605,1.1826-0.1816
		c0.3042-0.1211,0.5278-0.2842,0.6709-0.4893c0.1431-0.2056,0.2144-0.4326,0.2144-0.6821c0-0.3008-0.0859-0.5425-0.2583-0.7261
		c-0.1724-0.1831-0.3979-0.3281-0.6768-0.4346c-0.2783-0.106-0.5864-0.1997-0.9238-0.2803s-0.6748-0.167-1.0117-0.2588
		c-0.3374-0.0913-0.6475-0.2144-0.9297-0.3682c-0.2822-0.1543-0.5098-0.3574-0.6821-0.6108
		c-0.1724-0.2529-0.2583-0.5845-0.2583-0.9951c0-0.3813,0.1006-0.7319,0.3022-1.0508s0.5117-0.5757,0.9297-0.77
		s0.9531-0.2915,1.606-0.2915c0.4326,0,0.8618,0.0605,1.2871,0.1816s0.792,0.2881,1.1001,0.5005l-0.2754,0.6489
		c-0.3296-0.2197-0.6802-0.3813-1.0503-0.4839c-0.3706-0.1025-0.728-0.1543-1.0728-0.1543c-0.4619,0-0.8433,0.0625-1.1436,0.187
		c-0.3008,0.125-0.5229,0.2915-0.6655,0.5005c-0.1431,0.2095-0.2148,0.4458-0.2148,0.71c0,0.3008,0.0864,0.5425,0.2588,0.7256
		c0.1719,0.1836,0.3994,0.3267,0.6816,0.4292s0.5923,0.1943,0.9297,0.2749c0.3374,0.0811,0.6729,0.1689,1.0063,0.2642
		c0.334,0.0952,0.6416,0.2183,0.9243,0.3687c0.2822,0.1504,0.5093,0.3501,0.6816,0.5991c0.1724,0.2495,0.2588,0.5762,0.2588,0.979
		c0,0.374-0.103,0.7207-0.3081,1.0396c-0.2056,0.3193-0.519,0.5757-0.9404,0.77
		C-952.4111,545.4185-952.9517,545.5156-953.6118,545.5156z"/>
	<path fill="#FFFFFF" d="M-950.0366,540.3237v-0.6489h3.5752v0.6489H-950.0366z M-947.3086,545.5049
		c-0.543,0-0.9609-0.147-1.2539-0.4399c-0.2935-0.2935-0.4399-0.708-0.4399-1.2432v-5.4229h0.7808v5.3789
		c0,0.3374,0.0859,0.5977,0.2588,0.7808c0.1719,0.1836,0.4194,0.2749,0.7422,0.2749c0.3447,0,0.6309-0.0986,0.8579-0.2969
		l0.2754,0.561c-0.1543,0.1396-0.3394,0.2422-0.5557,0.3081S-947.0815,545.5049-947.3086,545.5049z"/>
	<path fill="#FFFFFF" d="M-943.041,545.5049c-0.4326,0-0.8081-0.0718-1.1274-0.2148c-0.3188-0.1431-0.563-0.3408-0.7314-0.5938
		s-0.2529-0.5444-0.2529-0.8745c0-0.3008,0.0713-0.5737,0.2144-0.8193s0.3779-0.4438,0.7041-0.5942s0.7646-0.2256,1.3145-0.2256
		h1.9912v0.583h-1.9692c-0.5571,0-0.9443,0.0991-1.1602,0.2969c-0.2168,0.1982-0.3247,0.4438-0.3247,0.7373
		c0,0.3301,0.1284,0.5938,0.3848,0.792c0.2568,0.1978,0.6162,0.2969,1.0781,0.2969c0.4399,0,0.8198-0.1006,1.1387-0.3022
		s0.5518-0.4932,0.6982-0.8745l0.1763,0.5386c-0.147,0.3818-0.4014,0.686-0.7646,0.9131
		C-942.0342,545.3911-942.4907,545.5049-943.041,545.5049z M-941.0498,545.4497v-1.2759l-0.0332-0.209v-2.1343
		c0-0.4912-0.1372-0.8687-0.4121-1.1328c-0.2754-0.2642-0.6841-0.396-1.2266-0.396c-0.374,0-0.73,0.0625-1.0669,0.187
		c-0.3374,0.1245-0.6235,0.2896-0.8584,0.4951l-0.3521-0.583c0.2935-0.2495,0.6455-0.4419,1.0562-0.5776
		s0.8433-0.2036,1.2979-0.2036c0.748,0,1.3257,0.1855,1.7329,0.5557c0.4067,0.3701,0.6104,0.9331,0.6104,1.6885v3.5859H-941.0498z"
		/>
	<path fill="#FFFFFF" d="M-938.1792,545.4497v-5.7749h0.748v1.5728l-0.0771-0.2749c0.1616-0.4399,0.4326-0.7754,0.8145-1.0063
		c0.3809-0.231,0.854-0.3467,1.4189-0.3467v0.7593c-0.0298,0-0.0591-0.002-0.0884-0.0059
		c-0.0293-0.0034-0.0586-0.0054-0.0879-0.0054c-0.6089,0-1.0854,0.1855-1.4297,0.5557c-0.3452,0.3701-0.5171,0.8965-0.5171,1.5781
		v2.9482H-938.1792z"/>
	<path fill="#FFFFFF" d="M-934.5054,540.3237v-0.6489h3.5752v0.6489H-934.5054z M-931.7773,545.5049
		c-0.543,0-0.9609-0.147-1.2539-0.4399c-0.2935-0.2935-0.4399-0.708-0.4399-1.2432v-5.4229h0.7808v5.3789
		c0,0.3374,0.0859,0.5977,0.2588,0.7808c0.1719,0.1836,0.4194,0.2749,0.7422,0.2749c0.3447,0,0.6309-0.0986,0.8579-0.2969
		l0.2754,0.561c-0.1543,0.1396-0.3394,0.2422-0.5557,0.3081S-931.5503,545.5049-931.7773,545.5049z"/>
	<path fill="#FFFFFF" d="M-924.7041,545.5049c-0.4771,0-0.9277-0.0679-1.353-0.2036s-0.7593-0.3062-1.001-0.5117l0.3521-0.6157
		c0.2344,0.1758,0.5352,0.3281,0.9019,0.4565s0.7515,0.1924,1.1548,0.1924c0.5503,0,0.9463-0.0859,1.188-0.2588
		c0.2422-0.1719,0.3633-0.4014,0.3633-0.6875c0-0.2124-0.0679-0.3794-0.2036-0.5005c-0.1357-0.1206-0.3135-0.2124-0.5337-0.2749
		c-0.2197-0.062-0.4653-0.1152-0.7368-0.1592s-0.541-0.0952-0.8086-0.1543c-0.2676-0.0586-0.5112-0.1445-0.7314-0.2583
		c-0.2197-0.1138-0.3979-0.2695-0.5332-0.4678c-0.1362-0.1978-0.2036-0.4619-0.2036-0.792c0-0.3149,0.0879-0.5977,0.2637-0.8467
		c0.1763-0.2495,0.4346-0.4458,0.7759-0.5889c0.3408-0.1426,0.7568-0.2144,1.2485-0.2144c0.374,0,0.7476,0.0498,1.1216,0.1484
		c0.374,0.0991,0.6821,0.2295,0.9243,0.3906l-0.3413,0.627c-0.2563-0.1758-0.5317-0.3022-0.8247-0.3794
		c-0.2935-0.0771-0.5869-0.1157-0.8799-0.1157c-0.521,0-0.9043,0.0898-1.1499,0.2695s-0.3682,0.4092-0.3682,0.6875
		c0,0.2202,0.0674,0.3926,0.2031,0.5171c0.1357,0.125,0.3154,0.2222,0.5391,0.2915c0.2236,0.0698,0.4692,0.1265,0.7373,0.1704
		c0.2676,0.0439,0.5352,0.0977,0.8027,0.1597c0.2676,0.0625,0.5132,0.147,0.7373,0.2529c0.2236,0.1064,0.4028,0.2568,0.5391,0.4512
		c0.1353,0.1943,0.2031,0.4492,0.2031,0.7642c0,0.3374-0.0933,0.6289-0.2803,0.8745c-0.187,0.2461-0.4585,0.4365-0.814,0.5723
		C-923.7676,545.437-924.1982,545.5049-924.7041,545.5049z"/>
	<path fill="#FFFFFF" d="M-921.7891,540.3237v-0.6489h3.5752v0.6489H-921.7891z M-919.0615,545.5049
		c-0.543,0-0.9609-0.147-1.2539-0.4399c-0.293-0.2935-0.4395-0.708-0.4395-1.2432v-5.4229h0.7803v5.3789
		c0,0.3374,0.0859,0.5977,0.2588,0.7808c0.1719,0.1836,0.4199,0.2749,0.7422,0.2749c0.3447,0,0.6309-0.0986,0.8584-0.2969
		l0.2754,0.561c-0.1543,0.1396-0.3398,0.2422-0.5557,0.3081C-918.6123,545.4717-918.834,545.5049-919.0615,545.5049z"/>
	<path fill="#FFFFFF" d="M-916.4219,545.4497v-5.7749h0.748v1.5728l-0.0771-0.2749c0.1621-0.4399,0.4326-0.7754,0.8145-1.0063
		c0.3809-0.231,0.8545-0.3467,1.4189-0.3467v0.7593c-0.0293,0-0.0586-0.002-0.0879-0.0059
		c-0.0293-0.0034-0.0586-0.0054-0.0879-0.0054c-0.6094,0-1.0859,0.1855-1.4297,0.5557c-0.3457,0.3701-0.5176,0.8965-0.5176,1.5781
		v2.9482H-916.4219z"/>
	<path fill="#FFFFFF" d="M-909.7998,545.5049c-0.5566,0-1.0576-0.1265-1.501-0.3799c-0.4443-0.2529-0.7939-0.6011-1.0508-1.0449
		c-0.2568-0.4434-0.3848-0.9512-0.3848-1.5234c0-0.5791,0.1279-1.0889,0.3848-1.5288s0.6055-0.7847,1.0449-1.0342
		c0.4404-0.249,0.9424-0.374,1.5068-0.374c0.5723,0,1.0801,0.125,1.5234,0.374c0.4443,0.2495,0.792,0.5942,1.0459,1.0342
		c0.2529,0.4399,0.3789,0.9497,0.3789,1.5288c0,0.5723-0.126,1.0801-0.3789,1.5234c-0.2539,0.4438-0.6035,0.792-1.0508,1.0449
		C-908.7285,545.3784-909.2344,545.5049-909.7998,545.5049z M-909.7998,544.8115c0.418,0,0.7891-0.0933,1.1113-0.2803
		s0.5771-0.4512,0.7646-0.792c0.1865-0.3408,0.2803-0.7354,0.2803-1.1826c0-0.4546-0.0938-0.8506-0.2803-1.188
		c-0.1875-0.3374-0.4424-0.5996-0.7646-0.7866s-0.6895-0.2803-1.0996-0.2803c-0.4111,0-0.7773,0.0933-1.1006,0.2803
		c-0.3223,0.187-0.5791,0.4492-0.7695,0.7866c-0.1914,0.3374-0.2861,0.7334-0.2861,1.188c0,0.4473,0.0947,0.8418,0.2861,1.1826
		c0.1904,0.3408,0.4473,0.605,0.7695,0.792C-910.5654,544.7183-910.2031,544.8115-909.7998,544.8115z"/>
	<path fill="#FFFFFF" d="M-902.3086,539.6196c0.4697,0,0.8818,0.0898,1.2373,0.2695s0.6348,0.4531,0.8359,0.8193
		c0.2021,0.3672,0.3027,0.8291,0.3027,1.3862v3.355h-0.7813v-3.2778c0-0.6089-0.1523-1.0688-0.4561-1.3809
		c-0.3047-0.3115-0.7314-0.4673-1.2813-0.4673c-0.4111,0-0.7686,0.0825-1.0732,0.2476c-0.3037,0.165-0.5381,0.4033-0.7031,0.7148
		c-0.165,0.312-0.248,0.6875-0.248,1.1274v3.0361h-0.7813v-5.7749h0.748v1.584l-0.1211-0.2969
		c0.1836-0.418,0.4766-0.7461,0.8809-0.9849C-903.3467,539.7388-902.8662,539.6196-902.3086,539.6196z"/>
	<path fill="#FFFFFF" d="M-895.499,545.2295c-0.5508,0-1.0449-0.1187-1.4854-0.3574c-0.4404-0.2383-0.7861-0.5698-1.0391-0.9956
		c-0.2539-0.4248-0.3799-0.9126-0.3799-1.4629c0-0.5498,0.126-1.0356,0.3799-1.4575c0.2529-0.4214,0.5986-0.7495,1.0391-0.9844
		c0.4404-0.2344,0.9346-0.3521,1.4854-0.3521c0.5127,0,0.9746,0.1064,1.3857,0.3188c0.4102,0.2129,0.7373,0.5283,0.9785,0.9463
		c0.2422,0.418,0.3633,0.9277,0.3633,1.5288c0,0.6016-0.1211,1.1113-0.3633,1.5293c-0.2412,0.418-0.5684,0.7368-0.9785,0.957
		C-894.5244,545.1196-894.9863,545.2295-895.499,545.2295z M-895.3564,547.6387c-0.5283,0-1.0342-0.0771-1.5176-0.231
		c-0.4844-0.1538-0.877-0.374-1.1777-0.6602l0.3965-0.5938c0.2715,0.2417,0.6064,0.4346,1.0068,0.5776
		c0.3994,0.1426,0.8223,0.2144,1.2695,0.2144c0.7334,0,1.2725-0.1704,1.6172-0.5117c0.3447-0.3408,0.5176-0.8706,0.5176-1.5894
		v-1.4409l0.1094-0.9902l-0.0762-0.9897v-1.749h0.7471v5.0708c0,0.9976-0.2432,1.729-0.7314,2.1948
		C-893.6826,547.4058-894.4033,547.6387-895.3564,547.6387z M-895.4229,544.5366c0.4258,0,0.8037-0.0898,1.1338-0.2695
		s0.5898-0.4287,0.7803-0.748c0.1914-0.3188,0.2861-0.6875,0.2861-1.1055s-0.0947-0.7847-0.2861-1.1001
		c-0.1904-0.3149-0.4502-0.5625-0.7803-0.7422s-0.708-0.2695-1.1338-0.2695c-0.418,0-0.7939,0.0898-1.127,0.2695
		c-0.334,0.1797-0.5938,0.4272-0.7813,0.7422c-0.1865,0.3154-0.2803,0.6821-0.2803,1.1001s0.0938,0.7866,0.2803,1.1055
		c0.1875,0.3193,0.4473,0.5684,0.7813,0.748C-896.2168,544.4468-895.8408,544.5366-895.4229,544.5366z"/>
	<path fill="#FFFFFF" d="M-954.7227,559.4497l-2.1782-5.7749h0.748l1.98,5.3569h-0.3408l2.0347-5.3569h0.6714l2.0127,5.3569h-0.3408
		l2.0132-5.3569h0.7148l-2.189,5.7749h-0.7373l-1.9355-5.0381h0.231l-1.9473,5.0381H-954.7227z"/>
	<path fill="#FFFFFF" d="M-945.835,552.3989c-0.1611,0-0.2969-0.0552-0.4067-0.165c-0.1104-0.1104-0.165-0.2422-0.165-0.396
		c0-0.1543,0.0547-0.2842,0.165-0.3906c0.1099-0.1064,0.2456-0.1597,0.4067-0.1597s0.2974,0.0513,0.4072,0.1543
		c0.1099,0.1025,0.165,0.231,0.165,0.3848c0,0.1616-0.0532,0.2969-0.1597,0.4072
		C-945.5288,552.3438-945.666,552.3989-945.835,552.3989z M-946.231,559.4497v-5.7749h0.7813v5.7749H-946.231z"/>
	<path fill="#FFFFFF" d="M-944.1738,554.3237v-0.6489h3.5752v0.6489H-944.1738z M-941.4458,559.5049
		c-0.543,0-0.9609-0.147-1.2539-0.4399c-0.2935-0.2935-0.4399-0.708-0.4399-1.2432v-5.4229h0.7808v5.3789
		c0,0.3374,0.0859,0.5977,0.2588,0.7808c0.1719,0.1836,0.4194,0.2749,0.7422,0.2749c0.3447,0,0.6309-0.0986,0.8579-0.2969
		l0.2754,0.561c-0.1543,0.1396-0.3394,0.2422-0.5557,0.3081S-941.2188,559.5049-941.4458,559.5049z"/>
	<path fill="#FFFFFF" d="M-935.8579,553.6196c0.4692,0,0.8818,0.0898,1.2373,0.2695s0.6343,0.4531,0.8359,0.8193
		c0.2017,0.3672,0.3027,0.8291,0.3027,1.3862v3.355h-0.7813v-3.2778c0-0.6089-0.1523-1.0688-0.4565-1.3809
		c-0.3042-0.3115-0.7314-0.4673-1.2813-0.4673c-0.4106,0-0.7686,0.0825-1.0728,0.2476s-0.5386,0.4033-0.7036,0.7148
		c-0.165,0.312-0.2476,0.6875-0.2476,1.1274v3.0361h-0.7813v-8.1621h0.7813v3.9712l-0.1543-0.2969
		c0.1836-0.418,0.4766-0.7461,0.8804-0.9849C-936.896,553.7388-936.4155,553.6196-935.8579,553.6196z"/>
	<path fill="#FFFFFF" d="M-926.8604,559.5049c-0.4326,0-0.8081-0.0718-1.1274-0.2148c-0.3188-0.1431-0.563-0.3408-0.7314-0.5938
		s-0.2529-0.5444-0.2529-0.8745c0-0.3008,0.0713-0.5737,0.2144-0.8193s0.3779-0.4438,0.7041-0.5942s0.7646-0.2256,1.3145-0.2256
		h1.9912v0.583h-1.9692c-0.5571,0-0.9443,0.0991-1.1602,0.2969c-0.2168,0.1982-0.3247,0.4438-0.3247,0.7373
		c0,0.3301,0.1284,0.5938,0.3848,0.792c0.2568,0.1978,0.6162,0.2969,1.0781,0.2969c0.4399,0,0.8198-0.1006,1.1387-0.3022
		s0.5518-0.4932,0.6982-0.8745l0.1763,0.5386c-0.147,0.3818-0.4014,0.686-0.7646,0.9131
		C-925.8535,559.3911-926.3101,559.5049-926.8604,559.5049z M-924.8691,559.4497v-1.2759l-0.0332-0.209v-2.1343
		c0-0.4912-0.1372-0.8687-0.4121-1.1328c-0.2754-0.2642-0.6841-0.396-1.2266-0.396c-0.374,0-0.73,0.0625-1.0669,0.187
		c-0.3374,0.1245-0.6235,0.2896-0.8584,0.4951l-0.3521-0.583c0.2935-0.2495,0.6455-0.4419,1.0562-0.5776
		s0.8433-0.2036,1.2979-0.2036c0.748,0,1.3257,0.1855,1.7329,0.5557c0.4067,0.3701,0.6104,0.9331,0.6104,1.6885v3.5859H-924.8691z"
		/>
	<path fill="#FFFFFF" d="M-954.7227,573.4497l-2.1782-5.7749h0.748l1.98,5.3569h-0.3408l2.0347-5.3569h0.6714l2.0127,5.3569h-0.3408
		l2.0132-5.3569h0.7148l-2.189,5.7749h-0.7373l-1.9355-5.0381h0.231l-1.9473,5.0381H-954.7227z"/>
	<path fill="#FFFFFF" d="M-943.9429,573.5049c-0.6016,0-1.1294-0.1265-1.584-0.3799c-0.4546-0.2529-0.8105-0.6011-1.0669-1.0449
		c-0.2568-0.4434-0.3853-0.9512-0.3853-1.5234c0-0.5718,0.123-1.0781,0.3687-1.5181s0.583-0.7861,1.0122-1.0396
		c0.4287-0.2529,0.9111-0.3794,1.4463-0.3794c0.5425,0,1.0249,0.123,1.4463,0.3687c0.4219,0.2456,0.7539,0.5903,0.9956,1.0337
		c0.2422,0.4438,0.3633,0.9556,0.3633,1.5347c0,0.0366-0.002,0.0752-0.0059,0.1157c-0.0034,0.04-0.0054,0.0825-0.0054,0.1265
		h-5.0269v-0.583h4.6089l-0.3081,0.231c0-0.418-0.0898-0.79-0.2695-1.1167c-0.1797-0.3262-0.4233-0.5811-0.7314-0.7642
		c-0.3081-0.1836-0.6636-0.2754-1.0669-0.2754c-0.396,0-0.752,0.0918-1.0669,0.2754c-0.3154,0.1831-0.561,0.4399-0.7373,0.77
		c-0.1758,0.3296-0.2637,0.7075-0.2637,1.1328v0.1211c0,0.4399,0.0972,0.8267,0.2915,1.1602
		c0.1938,0.334,0.4653,0.5942,0.814,0.7813c0.3481,0.187,0.7461,0.2803,1.1934,0.2803c0.3521,0,0.6802-0.062,0.9844-0.187
		c0.3042-0.1245,0.5669-0.3149,0.7866-0.5718l0.4399,0.5059c-0.2568,0.3081-0.5776,0.543-0.9624,0.7041
		C-943.0571,573.4243-943.481,573.5049-943.9429,573.5049z"/>
	<path fill="#FFFFFF" d="M-939.752,573.4497v-8.1621h0.7813v4.0923l-0.1104,1.166l0.0771,1.166v1.7378H-939.752z M-936.771,573.5049
		c-0.5059,0-0.9604-0.1157-1.3638-0.3467s-0.7227-0.5664-0.957-1.0063c-0.2349-0.4399-0.3521-0.9717-0.3521-1.5952
		c0-0.6304,0.1191-1.1641,0.3574-1.6006c0.2383-0.436,0.5591-0.7681,0.9624-0.9951c0.4033-0.2275,0.8545-0.3413,1.353-0.3413
		c0.5503,0,1.0435,0.123,1.4795,0.3687c0.4365,0.2456,0.7793,0.5884,1.0288,1.0283c0.249,0.4399,0.374,0.9536,0.374,1.54
		c0,0.5796-0.125,1.0908-0.374,1.5347c-0.2495,0.4438-0.5923,0.79-1.0288,1.0396
		C-935.7275,573.3799-936.2207,573.5049-936.771,573.5049z M-936.8257,572.8115c0.4106,0,0.7769-0.0933,1.1001-0.2803
		c0.3223-0.187,0.5791-0.4512,0.7695-0.792c0.1909-0.3408,0.2861-0.7354,0.2861-1.1826c0-0.4546-0.0952-0.8506-0.2861-1.188
		c-0.1904-0.3374-0.4473-0.5996-0.7695-0.7866c-0.3232-0.187-0.6895-0.2803-1.1001-0.2803c-0.4111,0-0.7793,0.0933-1.1055,0.2803
		c-0.3267,0.187-0.583,0.4492-0.77,0.7866s-0.2808,0.7334-0.2808,1.188c0,0.4473,0.0938,0.8418,0.2808,1.1826
		s0.4434,0.605,0.77,0.792C-937.605,572.7183-937.2368,572.8115-936.8257,572.8115z"/>
	<path fill="#FFFFFF" d="M-930.7427,573.5049c-0.4771,0-0.9277-0.0679-1.353-0.2036s-0.7593-0.3062-1.001-0.5117l0.3521-0.6157
		c0.2344,0.1758,0.5352,0.3281,0.9019,0.4565s0.7515,0.1924,1.1548,0.1924c0.5503,0,0.9463-0.0859,1.188-0.2588
		c0.2422-0.1719,0.3633-0.4014,0.3633-0.6875c0-0.2124-0.0679-0.3794-0.2036-0.5005c-0.1357-0.1206-0.3135-0.2124-0.5337-0.2749
		c-0.2197-0.062-0.4653-0.1152-0.7368-0.1592s-0.541-0.0952-0.8086-0.1543c-0.2676-0.0586-0.5112-0.1445-0.7314-0.2583
		c-0.2197-0.1138-0.3979-0.2695-0.5332-0.4678c-0.1362-0.1978-0.2036-0.4619-0.2036-0.792c0-0.3149,0.0879-0.5977,0.2637-0.8467
		c0.1763-0.2495,0.4346-0.4458,0.7759-0.5889c0.3408-0.1426,0.7568-0.2144,1.2485-0.2144c0.374,0,0.7476,0.0498,1.1216,0.1484
		c0.374,0.0991,0.6821,0.2295,0.9243,0.3906l-0.3413,0.627c-0.2563-0.1758-0.5317-0.3022-0.8247-0.3794
		c-0.2935-0.0771-0.5869-0.1157-0.8799-0.1157c-0.521,0-0.9043,0.0898-1.1499,0.2695s-0.3682,0.4092-0.3682,0.6875
		c0,0.2202,0.0674,0.3926,0.2031,0.5171c0.1357,0.125,0.3154,0.2222,0.5391,0.2915c0.2236,0.0698,0.4692,0.1265,0.7373,0.1704
		c0.2676,0.0439,0.5352,0.0977,0.8027,0.1597c0.2676,0.0625,0.5132,0.147,0.7373,0.2529c0.2236,0.1064,0.4028,0.2568,0.5391,0.4512
		c0.1353,0.1943,0.2031,0.4492,0.2031,0.7642c0,0.3374-0.0933,0.6289-0.2803,0.8745c-0.187,0.2461-0.4585,0.4365-0.814,0.5723
		C-929.8062,573.437-930.2368,573.5049-930.7427,573.5049z"/>
	<path fill="#FFFFFF" d="M-926.5303,566.3989c-0.1611,0-0.2969-0.0552-0.4067-0.165c-0.1104-0.1104-0.165-0.2422-0.165-0.396
		c0-0.1543,0.0547-0.2842,0.165-0.3906c0.1099-0.1064,0.2456-0.1597,0.4067-0.1597s0.2974,0.0513,0.4072,0.1543
		c0.1099,0.1025,0.165,0.231,0.165,0.3848c0,0.1616-0.0532,0.2969-0.1597,0.4072
		C-926.2241,566.3438-926.3613,566.3989-926.5303,566.3989z M-926.9263,573.4497v-5.7749h0.7813v5.7749H-926.9263z"/>
	<path fill="#FFFFFF" d="M-924.8691,568.3237v-0.6489h3.5752v0.6489H-924.8691z M-922.1411,573.5049
		c-0.543,0-0.9609-0.147-1.2539-0.4399c-0.2935-0.2935-0.4399-0.708-0.4399-1.2432v-5.4229h0.7808v5.3789
		c0,0.3374,0.0859,0.5977,0.2588,0.7808c0.1719,0.1836,0.4194,0.2749,0.7422,0.2749c0.3452,0,0.6313-0.0986,0.8579-0.2969
		l0.2754,0.561c-0.1543,0.1396-0.3389,0.2422-0.5557,0.3081C-921.6914,573.4717-921.9141,573.5049-922.1411,573.5049z"/>
	<path fill="#FFFFFF" d="M-917.2568,573.5049c-0.6016,0-1.1299-0.1265-1.584-0.3799c-0.4551-0.2529-0.8105-0.6011-1.0674-1.0449
		c-0.2568-0.4434-0.3848-0.9512-0.3848-1.5234c0-0.5718,0.123-1.0781,0.3682-1.5181c0.2461-0.4399,0.583-0.7861,1.0127-1.0396
		c0.4287-0.2529,0.9111-0.3794,1.4463-0.3794c0.542,0,1.0244,0.123,1.4463,0.3687s0.7539,0.5903,0.9951,1.0337
		c0.2422,0.4438,0.3633,0.9556,0.3633,1.5347c0,0.0366-0.002,0.0752-0.0059,0.1157c-0.0029,0.04-0.0049,0.0825-0.0049,0.1265
		h-5.0273v-0.583h4.6094l-0.3086,0.231c0-0.418-0.0898-0.79-0.2695-1.1167c-0.1797-0.3262-0.4229-0.5811-0.7314-0.7642
		c-0.3076-0.1836-0.6631-0.2754-1.0664-0.2754c-0.3965,0-0.752,0.0918-1.0674,0.2754c-0.3154,0.1831-0.5605,0.4399-0.7373,0.77
		c-0.1758,0.3296-0.2637,0.7075-0.2637,1.1328v0.1211c0,0.4399,0.0977,0.8267,0.292,1.1602
		c0.1934,0.334,0.4648,0.5942,0.8135,0.7813s0.7461,0.2803,1.1934,0.2803c0.3525,0,0.6807-0.062,0.9844-0.187
		c0.3047-0.1245,0.5674-0.3149,0.7871-0.5718l0.4395,0.5059c-0.2568,0.3081-0.5771,0.543-0.9619,0.7041
		C-916.3711,573.4243-916.7949,573.5049-917.2568,573.5049z"/>
	<path fill="#FFFFFF" d="M-956.8018,582.3242v-0.6494h3.5752v0.6494H-956.8018z M-954.0737,587.5049
		c-0.543,0-0.9609-0.1465-1.2539-0.4395c-0.2935-0.293-0.4399-0.708-0.4399-1.2432v-5.4229h0.7808v5.3789
		c0,0.3369,0.0859,0.5977,0.2588,0.7813c0.1719,0.1826,0.4194,0.2744,0.7422,0.2744c0.3447,0,0.6309-0.0986,0.8579-0.2969
		l0.2754,0.5615c-0.1543,0.1387-0.3394,0.2412-0.5557,0.3076S-953.8467,587.5049-954.0737,587.5049z"/>
	<path fill="#FFFFFF" d="M-948.4858,581.6201c0.4692,0,0.8818,0.0898,1.2373,0.2695s0.6343,0.4531,0.8359,0.8193
		c0.2017,0.3672,0.3027,0.8291,0.3027,1.3857v3.3555h-0.7813v-3.2783c0-0.6084-0.1523-1.0684-0.4565-1.3799
		s-0.7314-0.4678-1.2813-0.4678c-0.4106,0-0.7686,0.082-1.0728,0.2471s-0.5386,0.4033-0.7036,0.7158
		c-0.165,0.3115-0.2476,0.6875-0.2476,1.127v3.0361h-0.7813v-8.1621h0.7813v3.9707l-0.1543-0.2969
		c0.1836-0.418,0.4766-0.7461,0.8804-0.9844C-949.5239,581.7393-949.0435,581.6201-948.4858,581.6201z"/>
	<path fill="#FFFFFF" d="M-942.3701,587.5049c-0.4326,0-0.8081-0.0713-1.1274-0.2139c-0.3188-0.1436-0.563-0.3418-0.7314-0.5947
		s-0.2529-0.5439-0.2529-0.874c0-0.3008,0.0713-0.5742,0.2144-0.8193c0.1431-0.2461,0.3779-0.4434,0.7041-0.5938
		s0.7646-0.2256,1.3145-0.2256h1.9912v0.583h-1.9692c-0.5571,0-0.9443,0.0986-1.1602,0.2969
		c-0.2168,0.1973-0.3247,0.4434-0.3247,0.7363c0,0.3301,0.1284,0.5947,0.3848,0.792c0.2568,0.1982,0.6162,0.2979,1.0781,0.2979
		c0.4399,0,0.8198-0.1016,1.1387-0.3027c0.3188-0.2021,0.5518-0.4932,0.6982-0.875l0.1763,0.5391
		c-0.147,0.3818-0.4014,0.6855-0.7646,0.9131C-941.3633,587.3916-941.8198,587.5049-942.3701,587.5049z M-940.3789,587.4502v-1.2764
		l-0.0332-0.209v-2.1338c0-0.4912-0.1372-0.8691-0.4121-1.1328c-0.2754-0.2637-0.6841-0.3965-1.2266-0.3965
		c-0.374,0-0.73,0.0625-1.0669,0.1875c-0.3374,0.125-0.6235,0.29-0.8584,0.4951l-0.3521-0.583
		c0.2935-0.249,0.6455-0.4414,1.0562-0.5781c0.4106-0.1348,0.8433-0.2031,1.2979-0.2031c0.748,0,1.3257,0.1855,1.7329,0.5557
		c0.4067,0.3701,0.6104,0.9336,0.6104,1.6885v3.5859H-940.3789z"/>
	<path fill="#FFFFFF" d="M-938.4102,582.3242v-0.6494h3.5752v0.6494H-938.4102z M-935.6821,587.5049
		c-0.543,0-0.9609-0.1465-1.2539-0.4395c-0.2935-0.293-0.4399-0.708-0.4399-1.2432v-5.4229h0.7808v5.3789
		c0,0.3369,0.0859,0.5977,0.2588,0.7813c0.1719,0.1826,0.4194,0.2744,0.7422,0.2744c0.3447,0,0.6309-0.0986,0.8579-0.2969
		l0.2754,0.5615c-0.1543,0.1387-0.3394,0.2412-0.5557,0.3076S-935.4551,587.5049-935.6821,587.5049z"/>
	<path fill="#FFFFFF" d="M-930.1602,587.4502v-8.1621h0.7813v4.0918l-0.1104,1.166l0.0771,1.166v1.7383H-930.1602z
		 M-927.1792,587.5049c-0.5059,0-0.9604-0.1152-1.3638-0.3457c-0.4033-0.2314-0.7227-0.5674-0.957-1.0068
		c-0.2349-0.4404-0.3521-0.9717-0.3521-1.5947c0-0.6309,0.1191-1.1641,0.3574-1.6006s0.5591-0.7686,0.9624-0.9961
		c0.4033-0.2266,0.8545-0.3408,1.353-0.3408c0.5503,0,1.0435,0.123,1.4795,0.3682c0.4365,0.2461,0.7793,0.5889,1.0288,1.0293
		c0.249,0.4395,0.374,0.9531,0.374,1.54c0,0.5791-0.125,1.0908-0.374,1.5342c-0.2495,0.4434-0.5923,0.79-1.0288,1.0391
		C-926.1357,587.3809-926.6289,587.5049-927.1792,587.5049z M-927.2339,586.8125c0.4106,0,0.7769-0.0938,1.1001-0.2813
		c0.3223-0.1865,0.5791-0.4502,0.7695-0.792c0.1909-0.3408,0.2861-0.7344,0.2861-1.1816c0-0.4551-0.0952-0.8506-0.2861-1.1885
		c-0.1904-0.3369-0.4473-0.5996-0.7695-0.7861c-0.3232-0.1875-0.6895-0.2813-1.1001-0.2813c-0.4111,0-0.7793,0.0938-1.1055,0.2813
		c-0.3267,0.1865-0.583,0.4492-0.77,0.7861c-0.187,0.3379-0.2808,0.7334-0.2808,1.1885c0,0.4473,0.0938,0.8408,0.2808,1.1816
		c0.187,0.3418,0.4434,0.6055,0.77,0.792C-928.0132,586.7188-927.645,586.8125-927.2339,586.8125z"/>
	<path fill="#FFFFFF" d="M-922.7021,587.4502v-5.7754h0.748v1.5732l-0.0771-0.2744c0.1621-0.4404,0.4326-0.7764,0.8145-1.0068
		c0.3809-0.2314,0.8545-0.3467,1.4189-0.3467v0.7588c-0.0293,0-0.0586-0.001-0.0879-0.0049s-0.0586-0.0059-0.0879-0.0059
		c-0.6094,0-1.0859,0.1855-1.4297,0.5557c-0.3457,0.3701-0.5176,0.8965-0.5176,1.5781v2.9482H-922.7021z"/>
	<path fill="#FFFFFF" d="M-917.9834,580.3994c-0.1611,0-0.2969-0.0557-0.4063-0.165c-0.1104-0.1104-0.165-0.2422-0.165-0.3965
		c0-0.1533,0.0547-0.2842,0.165-0.3906c0.1094-0.1055,0.2451-0.1592,0.4063-0.1592s0.2979,0.0518,0.4072,0.1543
		c0.1104,0.1025,0.165,0.2305,0.165,0.3848c0,0.1611-0.0527,0.2969-0.1592,0.4072
		C-917.6768,580.3438-917.8145,580.3994-917.9834,580.3994z M-918.3789,587.4502v-5.7754h0.7813v5.7754H-918.3789z"/>
	<path fill="#FFFFFF" d="M-912.4717,581.6201c0.4688,0,0.8818,0.0898,1.2373,0.2695s0.6338,0.4531,0.8359,0.8193
		c0.2012,0.3672,0.3027,0.8291,0.3027,1.3857v3.3555h-0.7813v-3.2783c0-0.6084-0.1523-1.0684-0.457-1.3799
		c-0.3037-0.3115-0.7314-0.4678-1.2813-0.4678c-0.4102,0-0.7686,0.082-1.0723,0.2471c-0.3047,0.165-0.5391,0.4033-0.7041,0.7158
		c-0.165,0.3115-0.2471,0.6875-0.2471,1.127v3.0361h-0.7813v-5.7754h0.748v1.584l-0.1211-0.2969
		c0.1836-0.418,0.4766-0.7461,0.8799-0.9844S-913.0293,581.6201-912.4717,581.6201z"/>
	<path fill="#FFFFFF" d="M-905.6631,587.2305c-0.5498,0-1.0449-0.1191-1.4854-0.3574c-0.4395-0.2383-0.7861-0.5703-1.0391-0.9961
		c-0.2529-0.4248-0.3799-0.9131-0.3799-1.4629s0.127-1.0352,0.3799-1.457s0.5996-0.75,1.0391-0.9844
		c0.4404-0.2354,0.9355-0.3525,1.4854-0.3525c0.5137,0,0.9756,0.1064,1.3857,0.3193c0.4111,0.2129,0.7373,0.5273,0.9795,0.9453
		s0.3633,0.9277,0.3633,1.5293s-0.1211,1.1113-0.3633,1.5293s-0.5684,0.7373-0.9795,0.957
		C-904.6875,587.1201-905.1494,587.2305-905.6631,587.2305z M-905.5195,589.6396c-0.5283,0-1.0342-0.0771-1.5186-0.2314
		s-0.876-0.374-1.1768-0.6602l0.3955-0.5938c0.2715,0.2422,0.6074,0.4346,1.0068,0.5771c0.3994,0.1436,0.8232,0.2148,1.2705,0.2148
		c0.7334,0,1.2725-0.1709,1.6172-0.5117s0.5166-0.8711,0.5166-1.5898v-1.4404l0.1104-0.9902l-0.0771-0.9902v-1.749h0.748v5.0713
		c0,0.9971-0.2441,1.7285-0.7314,2.1943C-903.8467,589.4063-904.5664,589.6396-905.5195,589.6396z M-905.5859,586.5371
		c0.4248,0,0.8027-0.0898,1.1328-0.2695s0.5908-0.4287,0.7813-0.748c0.1904-0.3184,0.2861-0.6875,0.2861-1.1055
		s-0.0957-0.7842-0.2861-1.0996s-0.4512-0.5625-0.7813-0.7432c-0.3301-0.1797-0.708-0.2695-1.1328-0.2695
		c-0.418,0-0.7939,0.0898-1.1279,0.2695c-0.333,0.1807-0.5938,0.4277-0.7803,0.7432c-0.1875,0.3154-0.2813,0.6816-0.2813,1.0996
		s0.0938,0.7871,0.2813,1.1055c0.1865,0.3193,0.4473,0.5684,0.7803,0.748C-906.3799,586.4473-906.0039,586.5371-905.5859,586.5371z"
		/>
	<path fill="#FFFFFF" d="M-898.8984,587.5049c-0.4766,0-0.9277-0.0674-1.3525-0.2031c-0.4258-0.1357-0.7598-0.3066-1.001-0.5117
		l0.3516-0.6162c0.2344,0.1768,0.5352,0.3291,0.9023,0.457c0.3662,0.1279,0.751,0.1924,1.1543,0.1924
		c0.5508,0,0.9463-0.0859,1.1885-0.2588c0.2422-0.1719,0.3633-0.4014,0.3633-0.6875c0-0.2119-0.0684-0.3789-0.2041-0.5
		s-0.3135-0.2129-0.5332-0.2754s-0.4658-0.1152-0.7373-0.1592s-0.541-0.0957-0.8086-0.1543s-0.5107-0.1445-0.7314-0.2588
		c-0.2197-0.1133-0.3975-0.2695-0.5332-0.4668c-0.1357-0.1982-0.2031-0.4619-0.2031-0.792c0-0.3154,0.0879-0.5977,0.2637-0.8477
		c0.1758-0.249,0.4346-0.4453,0.7754-0.5879c0.3408-0.1436,0.7568-0.2148,1.249-0.2148c0.374,0,0.7471,0.0498,1.1211,0.1484
		c0.374,0.0996,0.6826,0.2295,0.9248,0.3906l-0.3418,0.627c-0.2559-0.1758-0.5313-0.3027-0.8242-0.3799
		c-0.2939-0.0762-0.5869-0.1152-0.8799-0.1152c-0.5215,0-0.9043,0.0898-1.1504,0.2695c-0.2451,0.1797-0.3682,0.4092-0.3682,0.6875
		c0,0.2197,0.0674,0.3926,0.2031,0.5176c0.1357,0.124,0.3154,0.2217,0.5391,0.291c0.2236,0.0703,0.4697,0.127,0.7373,0.1709
		s0.5352,0.0967,0.8027,0.1592s0.5137,0.1465,0.7373,0.2529s0.4033,0.2568,0.5391,0.4512s0.2031,0.4492,0.2031,0.7646
		c0,0.3369-0.0928,0.6289-0.2803,0.874c-0.1865,0.2461-0.458,0.4365-0.8135,0.5723
		C-897.9619,587.4375-898.3926,587.5049-898.8984,587.5049z"/>
	<path fill="#FFFFFF" d="M-955.8999,603.584v-7.9092h0.748v1.7383l-0.0771,1.1553l0.1104,1.166v3.8496H-955.8999z
		 M-952.9189,601.5049c-0.4985,0-0.9497-0.1152-1.353-0.3457c-0.4033-0.2314-0.7241-0.5654-0.9624-1.002
		c-0.2383-0.4355-0.3574-0.9697-0.3574-1.5996c0-0.6309,0.1172-1.1641,0.3521-1.6006c0.2344-0.4365,0.5537-0.7686,0.957-0.9961
		c0.4033-0.2266,0.8579-0.3408,1.3638-0.3408c0.5503,0,1.0435,0.123,1.4795,0.3682c0.4365,0.2461,0.7793,0.5908,1.0288,1.0342
		c0.249,0.4443,0.374,0.9551,0.374,1.5352c0,0.5859-0.125,1.0996-0.374,1.54c-0.2495,0.4395-0.5923,0.7842-1.0288,1.0332
		C-951.8755,601.3809-952.3687,601.5049-952.9189,601.5049z M-952.9736,600.8125c0.4106,0,0.7769-0.0938,1.1001-0.2813
		c0.3223-0.1865,0.5791-0.4502,0.7695-0.792c0.1909-0.3408,0.2861-0.7344,0.2861-1.1816s-0.0952-0.8398-0.2861-1.1777
		c-0.1904-0.3369-0.4473-0.6006-0.7695-0.792c-0.3232-0.1904-0.6895-0.2861-1.1001-0.2861c-0.4111,0-0.7793,0.0957-1.1055,0.2861
		c-0.3267,0.1914-0.583,0.4551-0.77,0.792c-0.187,0.3379-0.2808,0.7305-0.2808,1.1777s0.0938,0.8408,0.2808,1.1816
		c0.187,0.3418,0.4434,0.6055,0.77,0.792C-953.7529,600.7188-953.3848,600.8125-952.9736,600.8125z"/>
	<path fill="#FFFFFF" d="M-948.4419,601.4502v-5.7754h0.748v1.5732l-0.0771-0.2744c0.1616-0.4404,0.4326-0.7764,0.8145-1.0068
		c0.3809-0.2314,0.854-0.3467,1.4189-0.3467v0.7588c-0.0298,0-0.0591-0.001-0.0884-0.0049s-0.0586-0.0059-0.0879-0.0059
		c-0.6089,0-1.0854,0.1855-1.4297,0.5557c-0.3452,0.3701-0.5171,0.8965-0.5171,1.5781v2.9482H-948.4419z"/>
	<path fill="#FFFFFF" d="M-941.7207,601.5049c-0.6016,0-1.1294-0.126-1.584-0.3789s-0.8105-0.6016-1.0669-1.0449
		c-0.2568-0.4443-0.3853-0.9521-0.3853-1.5234c0-0.5723,0.123-1.0781,0.3687-1.5186c0.2456-0.4395,0.583-0.7861,1.0122-1.0391
		c0.4287-0.2529,0.9111-0.3799,1.4463-0.3799c0.5425,0,1.0249,0.123,1.4463,0.3682c0.4219,0.2461,0.7539,0.5908,0.9956,1.0342
		c0.2422,0.4443,0.3633,0.9551,0.3633,1.5352c0,0.0361-0.002,0.0752-0.0059,0.1152c-0.0034,0.04-0.0054,0.082-0.0054,0.126h-5.0269
		v-0.583h4.6089l-0.3081,0.2314c0-0.418-0.0898-0.79-0.2695-1.1162s-0.4233-0.5811-0.7314-0.7646s-0.6636-0.2754-1.0669-0.2754
		c-0.396,0-0.752,0.0918-1.0669,0.2754c-0.3154,0.1836-0.561,0.4395-0.7373,0.7695c-0.1758,0.3301-0.2637,0.708-0.2637,1.1328
		v0.1211c0,0.4404,0.0972,0.8271,0.2915,1.1611c0.1938,0.334,0.4653,0.5938,0.814,0.7803c0.3481,0.1875,0.7461,0.2813,1.1934,0.2813
		c0.3521,0,0.6802-0.0625,0.9844-0.1875c0.3042-0.124,0.5669-0.3154,0.7866-0.5723l0.4399,0.5068
		c-0.2568,0.3076-0.5776,0.542-0.9624,0.7041C-940.835,601.4248-941.2588,601.5049-941.7207,601.5049z"/>
	<path fill="#FFFFFF" d="M-930.314,595.6201c0.4692,0,0.8779,0.0898,1.2266,0.2695c0.3481,0.1797,0.6191,0.4531,0.814,0.8193
		c0.1938,0.3672,0.2915,0.8291,0.2915,1.3857v3.3555h-0.7813v-3.2783c0-0.6084-0.145-1.0684-0.4346-1.3799
		s-0.6982-0.4678-1.2266-0.4678c-0.396,0-0.7388,0.082-1.0283,0.2471s-0.5132,0.4033-0.6709,0.7158
		c-0.1577,0.3115-0.2368,0.6875-0.2368,1.127v3.0361h-0.7808v-3.2783c0-0.6084-0.147-1.0684-0.4399-1.3799
		c-0.2935-0.3115-0.7041-0.4678-1.2319-0.4678c-0.3892,0-0.73,0.082-1.0229,0.2471c-0.2935,0.165-0.519,0.4033-0.6768,0.7158
		c-0.1577,0.3115-0.2363,0.6875-0.2363,1.127v3.0361h-0.7813v-5.7754h0.748v1.5625l-0.1211-0.2754
		c0.1763-0.418,0.4604-0.7461,0.8525-0.9844c0.3926-0.2383,0.8564-0.3574,1.3916-0.3574c0.5645,0,1.0449,0.1416,1.4409,0.4238
		s0.6528,0.7061,0.77,1.2705l-0.3081-0.1211c0.1689-0.4697,0.4678-0.8486,0.8965-1.1387
		C-931.4307,595.7646-930.9155,595.6201-930.314,595.6201z"/>
	<path fill="#FFFFFF" d="M-925.4634,594.3994c-0.1611,0-0.2969-0.0557-0.4067-0.165c-0.1104-0.1104-0.165-0.2422-0.165-0.3965
		c0-0.1533,0.0547-0.2842,0.165-0.3906c0.1099-0.1055,0.2456-0.1592,0.4067-0.1592s0.2974,0.0518,0.4072,0.1543
		s0.165,0.2305,0.165,0.3848c0,0.1611-0.0532,0.2969-0.1597,0.4072C-925.1572,594.3438-925.2944,594.3994-925.4634,594.3994z
		 M-925.8594,601.4502v-5.7754h0.7813v5.7754H-925.8594z"/>
	<path fill="#FFFFFF" d="M-920.5127,601.5049c-0.4922,0-0.9209-0.0908-1.2871-0.2744c-0.3672-0.1836-0.6514-0.458-0.853-0.8252
		c-0.2017-0.3662-0.3022-0.8252-0.3022-1.375v-3.3555h0.7808v3.2676c0,0.6162,0.1523,1.0801,0.4565,1.3916
		c0.3047,0.3115,0.7314,0.4668,1.2822,0.4668c0.4023,0,0.7529-0.082,1.0498-0.2471s0.5244-0.4053,0.6826-0.7207
		c0.1572-0.3154,0.2363-0.6924,0.2363-1.1328v-3.0254h0.7813v5.7754h-0.748v-1.584l0.1201,0.2861
		c-0.1826,0.4248-0.4668,0.7568-0.8516,0.9951C-919.5508,601.3857-920,601.5049-920.5127,601.5049z"/>
	<path fill="#FFFFFF" d="M-908.292,595.6201c0.4697,0,0.8779,0.0898,1.2266,0.2695s0.6191,0.4531,0.8145,0.8193
		c0.1934,0.3672,0.291,0.8291,0.291,1.3857v3.3555h-0.7813v-3.2783c0-0.6084-0.1445-1.0684-0.4346-1.3799
		c-0.2891-0.3115-0.6982-0.4678-1.2266-0.4678c-0.3955,0-0.7383,0.082-1.0283,0.2471c-0.2891,0.165-0.5127,0.4033-0.6709,0.7158
		c-0.1572,0.3115-0.2363,0.6875-0.2363,1.127v3.0361h-0.7813v-3.2783c0-0.6084-0.1465-1.0684-0.4395-1.3799
		c-0.2939-0.3115-0.7041-0.4678-1.2324-0.4678c-0.3887,0-0.7295,0.082-1.0225,0.2471c-0.2939,0.165-0.5195,0.4033-0.6768,0.7158
		c-0.1582,0.3115-0.2363,0.6875-0.2363,1.127v3.0361h-0.7813v-5.7754h0.748v1.5625l-0.1211-0.2754
		c0.1758-0.418,0.46-0.7461,0.8525-0.9844s0.8564-0.3574,1.3916-0.3574c0.5645,0,1.0449,0.1416,1.4404,0.4238
		c0.3965,0.2822,0.6533,0.7061,0.7705,1.2705l-0.3086-0.1211c0.1689-0.4697,0.4678-0.8486,0.8965-1.1387
		C-909.4082,595.7646-908.8936,595.6201-908.292,595.6201z"/>
	<path fill="#FFFFFF" d="M-953.502,615.5049c-0.5718,0-1.0835-0.126-1.5342-0.3789c-0.4512-0.2529-0.8052-0.6016-1.0615-1.0449
		c-0.2568-0.4443-0.3853-0.9521-0.3853-1.5234c0-0.5801,0.1284-1.0898,0.3853-1.5293c0.2563-0.4404,0.6104-0.7852,1.0615-1.0342
		c0.4507-0.249,0.9624-0.374,1.5342-0.374c0.4912,0,0.9351,0.0957,1.3311,0.2861s0.7075,0.4766,0.9351,0.8584l-0.583,0.3955
		c-0.1978-0.293-0.4438-0.5098-0.7368-0.6494c-0.2935-0.1387-0.6123-0.209-0.957-0.209c-0.4106,0-0.7813,0.0938-1.1108,0.2813
		c-0.3301,0.1865-0.5908,0.4492-0.7813,0.7861c-0.1909,0.3379-0.2861,0.7334-0.2861,1.1885c0,0.4541,0.0952,0.8506,0.2861,1.1875
		c0.1904,0.3379,0.4512,0.5996,0.7813,0.7861c0.3296,0.1875,0.7002,0.2813,1.1108,0.2813c0.3447,0,0.6636-0.0703,0.957-0.209
		c0.293-0.1396,0.5391-0.3525,0.7368-0.6387l0.583,0.3965c-0.2275,0.374-0.5391,0.6582-0.9351,0.8525
		S-953.0107,615.5049-953.502,615.5049z"/>
	<path fill="#FFFFFF" d="M-949.7949,615.4502v-8.1621h0.7813v8.1621H-949.7949z"/>
	<path fill="#FFFFFF" d="M-946.4399,608.3994c-0.1611,0-0.2969-0.0557-0.4067-0.165c-0.1104-0.1104-0.165-0.2422-0.165-0.3965
		c0-0.1533,0.0547-0.2842,0.165-0.3906c0.1099-0.1055,0.2456-0.1592,0.4067-0.1592s0.2974,0.0518,0.4072,0.1543
		s0.165,0.2305,0.165,0.3848c0,0.1611-0.0532,0.2969-0.1597,0.4072C-946.1338,608.3438-946.271,608.3994-946.4399,608.3994z
		 M-946.8359,615.4502v-5.7754h0.7813v5.7754H-946.8359z"/>
	<path fill="#FFFFFF" d="M-941.4238,615.5049c-0.6016,0-1.1294-0.126-1.584-0.3789s-0.8105-0.6016-1.0669-1.0449
		c-0.2568-0.4443-0.3853-0.9521-0.3853-1.5234c0-0.5723,0.123-1.0781,0.3687-1.5186c0.2456-0.4395,0.583-0.7861,1.0122-1.0391
		c0.4287-0.2529,0.9111-0.3799,1.4463-0.3799c0.5425,0,1.0249,0.123,1.4463,0.3682c0.4219,0.2461,0.7539,0.5908,0.9956,1.0342
		c0.2422,0.4443,0.3633,0.9551,0.3633,1.5352c0,0.0361-0.002,0.0752-0.0059,0.1152c-0.0034,0.04-0.0054,0.082-0.0054,0.126h-5.0269
		v-0.583h4.6089l-0.3081,0.2314c0-0.418-0.0898-0.79-0.2695-1.1162s-0.4233-0.5811-0.7314-0.7646s-0.6636-0.2754-1.0669-0.2754
		c-0.396,0-0.752,0.0918-1.0669,0.2754c-0.3154,0.1836-0.561,0.4395-0.7373,0.7695c-0.1758,0.3301-0.2637,0.708-0.2637,1.1328
		v0.1211c0,0.4404,0.0972,0.8271,0.2915,1.1611c0.1938,0.334,0.4653,0.5938,0.814,0.7803c0.3481,0.1875,0.7461,0.2813,1.1934,0.2813
		c0.3521,0,0.6802-0.0625,0.9844-0.1875c0.3042-0.124,0.5669-0.3154,0.7866-0.5723l0.4399,0.5068
		c-0.2568,0.3076-0.5776,0.542-0.9624,0.7041C-940.5381,615.4248-940.9619,615.5049-941.4238,615.5049z"/>
	<path fill="#FFFFFF" d="M-934.2852,609.6201c0.4692,0,0.8818,0.0898,1.2373,0.2695s0.6343,0.4531,0.8359,0.8193
		c0.2017,0.3672,0.3027,0.8291,0.3027,1.3857v3.3555h-0.7813v-3.2783c0-0.6084-0.1523-1.0684-0.4565-1.3799
		s-0.7314-0.4678-1.2813-0.4678c-0.4106,0-0.7686,0.082-1.0728,0.2471s-0.5386,0.4033-0.7036,0.7158
		c-0.165,0.3115-0.2476,0.6875-0.2476,1.127v3.0361h-0.7813v-5.7754h0.748v1.584l-0.1211-0.2969
		c0.1836-0.418,0.4766-0.7461,0.8804-0.9844C-935.3232,609.7393-934.8428,609.6201-934.2852,609.6201z"/>
	<path fill="#FFFFFF" d="M-930.6992,610.3242v-0.6494h3.5752v0.6494H-930.6992z M-927.9712,615.5049
		c-0.543,0-0.9609-0.1465-1.2539-0.4395c-0.2935-0.293-0.4399-0.708-0.4399-1.2432v-5.4229h0.7808v5.3789
		c0,0.3369,0.0859,0.5977,0.2588,0.7813c0.1719,0.1826,0.4194,0.2744,0.7422,0.2744c0.3447,0,0.6309-0.0986,0.8579-0.2969
		l0.2754,0.5615c-0.1543,0.1387-0.3394,0.2412-0.5557,0.3076S-927.7441,615.5049-927.9712,615.5049z"/>
	<path fill="#FFFFFF" d="M-923.7803,615.5049c-0.4771,0-0.9277-0.0674-1.353-0.2031s-0.7593-0.3066-1.001-0.5117l0.3521-0.6162
		c0.2344,0.1768,0.5352,0.3291,0.9019,0.457s0.7515,0.1924,1.1548,0.1924c0.5503,0,0.9463-0.0859,1.188-0.2588
		c0.2422-0.1719,0.3633-0.4014,0.3633-0.6875c0-0.2119-0.0679-0.3789-0.2036-0.5s-0.3135-0.2129-0.5337-0.2754
		c-0.2197-0.0625-0.4653-0.1152-0.7368-0.1592s-0.541-0.0957-0.8086-0.1543s-0.5112-0.1445-0.7314-0.2588
		c-0.2197-0.1133-0.3979-0.2695-0.5332-0.4668c-0.1362-0.1982-0.2036-0.4619-0.2036-0.792c0-0.3154,0.0879-0.5977,0.2637-0.8477
		c0.1763-0.249,0.4346-0.4453,0.7759-0.5879c0.3408-0.1436,0.7568-0.2148,1.2485-0.2148c0.374,0,0.7476,0.0498,1.1216,0.1484
		c0.374,0.0996,0.6826,0.2295,0.9248,0.3906l-0.3418,0.627c-0.2563-0.1758-0.5317-0.3027-0.8247-0.3799
		c-0.2935-0.0762-0.5869-0.1152-0.8799-0.1152c-0.521,0-0.9043,0.0898-1.1499,0.2695s-0.3682,0.4092-0.3682,0.6875
		c0,0.2197,0.0674,0.3926,0.2031,0.5176c0.1357,0.124,0.3154,0.2217,0.5391,0.291c0.2236,0.0703,0.4692,0.127,0.7373,0.1709
		c0.2676,0.0439,0.5352,0.0967,0.8027,0.1592s0.5132,0.1465,0.7373,0.2529c0.2236,0.1064,0.4033,0.2568,0.5391,0.4512
		s0.2031,0.4492,0.2031,0.7646c0,0.3369-0.0928,0.6289-0.2803,0.874c-0.1865,0.2461-0.4585,0.4365-0.814,0.5723
		C-922.8438,615.4375-923.2744,615.5049-923.7803,615.5049z"/>
</g>
</svg>
