<?xml version="1.0" encoding="utf-8"?>
<!-- Generator: Adobe Illustrator 18.1.1, SVG Export Plug-In . SVG Version: 6.00 Build 0)  -->
<svg version="1.1" id="Layer_1" xmlns="http://www.w3.org/2000/svg" xmlns:xlink="http://www.w3.org/1999/xlink" x="0px" y="0px"
	 viewBox="0 0 286 336" enable-background="new 0 0 286 336" xml:space="preserve">
<rect width="286" height="336"/>
<g>
	<path fill="#FFFFFF" d="M24.2,52.3v-21h9.1c2.3,0,4.2,0.5,5.4,1.4s1.9,2.3,1.9,4c0,1.1-0.3,2.1-0.8,2.9c-0.5,0.8-1.3,1.4-2.2,1.8
		c-0.9,0.4-1.9,0.6-3,0.6l0.5-0.7c1.3,0,2.5,0.2,3.5,0.6c1,0.4,1.7,1,2.3,1.8s0.8,1.8,0.8,3c0,1.8-0.7,3.2-2,4.1
		c-1.3,1-3.3,1.5-5.9,1.5H24.2z M26.4,50.5h7.4c1.8,0,3.3-0.3,4.2-0.9s1.5-1.6,1.5-3c0-1.4-0.5-2.4-1.5-3s-2.4-0.9-4.2-0.9h-7.6
		v-1.8h6.9c1.7,0,3-0.3,3.9-1c0.9-0.6,1.4-1.6,1.4-2.9c0-1.3-0.5-2.2-1.4-2.9c-0.9-0.6-2.2-0.9-3.9-0.9h-6.7V50.5z"/>
	<path fill="#FFFFFF" d="M52.9,52.4c-1.3,0-2.5-0.2-3.5-0.8c-1-0.5-1.8-1.2-2.3-2.3c-0.6-1-0.8-2.3-0.8-3.8v-9.1h2.1v8.9
		c0,1.7,0.4,2.9,1.2,3.8s2,1.3,3.5,1.3c1.1,0,2.1-0.2,2.9-0.7c0.8-0.5,1.4-1.1,1.9-2c0.4-0.9,0.6-1.9,0.6-3.1v-8.3h2.1v15.8h-2V48
		l0.3,0.8c-0.5,1.2-1.3,2.1-2.3,2.7C55.5,52.1,54.3,52.4,52.9,52.4z"/>
	<path fill="#FFFFFF" d="M67.6,33.1c-0.4,0-0.8-0.1-1.1-0.5c-0.3-0.3-0.4-0.7-0.4-1.1c0-0.4,0.1-0.8,0.4-1.1
		c0.3-0.3,0.7-0.4,1.1-0.4s0.8,0.1,1.1,0.4c0.3,0.3,0.4,0.6,0.4,1c0,0.4-0.1,0.8-0.4,1.1C68.5,32.9,68.1,33.1,67.6,33.1z M66.5,52.3
		V36.5h2.1v15.8H66.5z"/>
	<path fill="#FFFFFF" d="M74.6,52.3V30h2.1v22.3H74.6z"/>
	<path fill="#FFFFFF" d="M88.9,52.4c-1.5,0-2.8-0.3-4-1c-1.2-0.7-2.1-1.6-2.8-2.8c-0.7-1.2-1-2.6-1-4.2c0-1.6,0.3-3,1-4.2
		c0.7-1.2,1.6-2.1,2.8-2.8c1.2-0.7,2.5-1,4-1c1.4,0,2.6,0.3,3.7,0.9c1.1,0.6,2,1.5,2.6,2.7c0.6,1.2,1,2.6,1,4.4c0,1.7-0.3,3.1-1,4.4
		s-1.5,2.1-2.6,2.7C91.6,52.1,90.3,52.4,88.9,52.4z M89.1,50.6c1.1,0,2.1-0.3,3-0.8c0.9-0.5,1.6-1.2,2.1-2.2c0.5-0.9,0.8-2,0.8-3.2
		c0-1.2-0.3-2.3-0.8-3.2c-0.5-0.9-1.2-1.6-2.1-2.1c-0.9-0.5-1.9-0.8-3-0.8c-1.1,0-2.1,0.3-3,0.8c-0.9,0.5-1.6,1.2-2.1,2.1
		s-0.8,2-0.8,3.2c0,1.2,0.3,2.3,0.8,3.2s1.2,1.6,2.1,2.2C87,50.3,88,50.6,89.1,50.6z M95,52.3v-4.7l0.2-3.2l-0.3-3.2V30h2.1v22.3H95
		z"/>
	<path fill="#FFFFFF" d="M104.1,33.1c-0.4,0-0.8-0.1-1.1-0.5c-0.3-0.3-0.4-0.7-0.4-1.1c0-0.4,0.1-0.8,0.4-1.1
		c0.3-0.3,0.7-0.4,1.1-0.4s0.8,0.1,1.1,0.4c0.3,0.3,0.4,0.6,0.4,1c0,0.4-0.1,0.8-0.4,1.1C104.9,32.9,104.6,33.1,104.1,33.1z
		 M103,52.3V36.5h2.1v15.8H103z"/>
	<path fill="#FFFFFF" d="M119.1,36.4c1.3,0,2.4,0.2,3.4,0.7c1,0.5,1.7,1.2,2.3,2.2c0.5,1,0.8,2.3,0.8,3.8v9.1h-2.1v-8.9
		c0-1.7-0.4-2.9-1.2-3.8c-0.8-0.8-2-1.3-3.5-1.3c-1.1,0-2.1,0.2-2.9,0.7c-0.8,0.5-1.5,1.1-1.9,2c-0.4,0.9-0.7,1.9-0.7,3.1v8.3h-2.1
		V36.5h2v4.3l-0.3-0.8c0.5-1.1,1.3-2,2.4-2.7C116.3,36.7,117.6,36.4,119.1,36.4z"/>
	<path fill="#FFFFFF" d="M137.7,51.7c-1.5,0-2.8-0.3-4-1c-1.2-0.6-2.1-1.6-2.8-2.7c-0.7-1.2-1-2.5-1-4s0.3-2.8,1-4
		c0.7-1.1,1.6-2,2.8-2.7s2.5-1,4-1c1.4,0,2.7,0.3,3.8,0.9c1.1,0.6,2,1.4,2.7,2.6c0.7,1.1,1,2.5,1,4.2s-0.3,3-1,4.2
		c-0.7,1.1-1.6,2-2.7,2.6C140.4,51.4,139.1,51.7,137.7,51.7z M138.1,58.3c-1.4,0-2.8-0.2-4.1-0.6c-1.3-0.4-2.4-1-3.2-1.8l1.1-1.6
		c0.7,0.7,1.7,1.2,2.7,1.6c1.1,0.4,2.2,0.6,3.5,0.6c2,0,3.5-0.5,4.4-1.4c0.9-0.9,1.4-2.4,1.4-4.3v-3.9l0.3-2.7l-0.2-2.7v-4.8h2v13.8
		c0,2.7-0.7,4.7-2,6C142.7,57.6,140.7,58.3,138.1,58.3z M137.9,49.8c1.2,0,2.2-0.2,3.1-0.7c0.9-0.5,1.6-1.2,2.1-2
		c0.5-0.9,0.8-1.9,0.8-3c0-1.1-0.3-2.1-0.8-3c-0.5-0.9-1.2-1.5-2.1-2c-0.9-0.5-1.9-0.7-3.1-0.7c-1.1,0-2.2,0.2-3.1,0.7
		c-0.9,0.5-1.6,1.2-2.1,2c-0.5,0.9-0.8,1.9-0.8,3c0,1.1,0.3,2.1,0.8,3c0.5,0.9,1.2,1.6,2.1,2C135.7,49.6,136.8,49.8,137.9,49.8z"/>
	<path fill="#FFFFFF" d="M43.4,85.4c1.3,0,2.4,0.2,3.3,0.7c0.9,0.5,1.7,1.2,2.2,2.2c0.5,1,0.8,2.3,0.8,3.8v9.1h-2.1v-8.9
		c0-1.7-0.4-2.9-1.2-3.8c-0.8-0.8-1.9-1.3-3.3-1.3c-1.1,0-2,0.2-2.8,0.7c-0.8,0.5-1.4,1.1-1.8,2s-0.6,1.9-0.6,3.1v8.3h-2.1v-8.9
		c0-1.7-0.4-2.9-1.2-3.8c-0.8-0.8-1.9-1.3-3.4-1.3c-1.1,0-2,0.2-2.8,0.7c-0.8,0.5-1.4,1.1-1.8,2c-0.4,0.9-0.6,1.9-0.6,3.1v8.3h-2.1
		V85.5h2v4.3l-0.3-0.8c0.5-1.1,1.3-2,2.3-2.7s2.3-1,3.8-1c1.5,0,2.9,0.4,3.9,1.2c1.1,0.8,1.8,1.9,2.1,3.5l-0.8-0.3
		c0.5-1.3,1.3-2.3,2.4-3.1S41.8,85.4,43.4,85.4z"/>
	<path fill="#FFFFFF" d="M56.7,82.1c-0.4,0-0.8-0.1-1.1-0.5c-0.3-0.3-0.4-0.7-0.4-1.1c0-0.4,0.1-0.8,0.4-1.1
		c0.3-0.3,0.7-0.4,1.1-0.4s0.8,0.1,1.1,0.4c0.3,0.3,0.4,0.6,0.4,1c0,0.4-0.1,0.8-0.4,1.1C57.5,81.9,57.1,82.1,56.7,82.1z
		 M55.6,101.3V85.5h2.1v15.8H55.6z"/>
	<path fill="#FFFFFF" d="M71.7,85.4c1.3,0,2.4,0.2,3.4,0.7c1,0.5,1.7,1.2,2.3,2.2c0.5,1,0.8,2.3,0.8,3.8v9.1H76v-8.9
		c0-1.7-0.4-2.9-1.2-3.8c-0.8-0.8-2-1.3-3.5-1.3c-1.1,0-2.1,0.2-2.9,0.7c-0.8,0.5-1.5,1.1-1.9,2c-0.4,0.9-0.7,1.9-0.7,3.1v8.3h-2.1
		V85.5h2v4.3l-0.3-0.8c0.5-1.1,1.3-2,2.4-2.7C68.9,85.7,70.2,85.4,71.7,85.4z"/>
	<path fill="#FFFFFF" d="M85,82.1c-0.4,0-0.8-0.1-1.1-0.5c-0.3-0.3-0.4-0.7-0.4-1.1c0-0.4,0.1-0.8,0.4-1.1c0.3-0.3,0.7-0.4,1.1-0.4
		s0.8,0.1,1.1,0.4c0.3,0.3,0.4,0.6,0.4,1c0,0.4-0.1,0.8-0.4,1.1C85.9,81.9,85.5,82.1,85,82.1z M83.9,101.3V85.5h2.1v15.8H83.9z"/>
	<path fill="#FFFFFF" d="M111.7,85.4c1.3,0,2.4,0.2,3.3,0.7c0.9,0.5,1.7,1.2,2.2,2.2c0.5,1,0.8,2.3,0.8,3.8v9.1h-2.1v-8.9
		c0-1.7-0.4-2.9-1.2-3.8c-0.8-0.8-1.9-1.3-3.3-1.3c-1.1,0-2,0.2-2.8,0.7c-0.8,0.5-1.4,1.1-1.8,2s-0.6,1.9-0.6,3.1v8.3H104v-8.9
		c0-1.7-0.4-2.9-1.2-3.8c-0.8-0.8-1.9-1.3-3.4-1.3c-1.1,0-2,0.2-2.8,0.7c-0.8,0.5-1.4,1.1-1.8,2c-0.4,0.9-0.6,1.9-0.6,3.1v8.3H92
		V85.5h2v4.3l-0.3-0.8c0.5-1.1,1.3-2,2.3-2.7s2.3-1,3.8-1c1.5,0,2.9,0.4,3.9,1.2c1.1,0.8,1.8,1.9,2.1,3.5l-0.8-0.3
		c0.5-1.3,1.3-2.3,2.4-3.1S110,85.4,111.7,85.4z"/>
	<path fill="#FFFFFF" d="M130.3,101.4c-1.3,0-2.5-0.2-3.5-0.8c-1-0.5-1.8-1.2-2.3-2.3c-0.6-1-0.8-2.3-0.8-3.8v-9.1h2.1v8.9
		c0,1.7,0.4,2.9,1.2,3.8s2,1.3,3.5,1.3c1.1,0,2.1-0.2,2.9-0.7c0.8-0.5,1.4-1.1,1.9-2c0.4-0.9,0.6-1.9,0.6-3.1v-8.3h2.1v15.8h-2V97
		l0.3,0.8c-0.5,1.2-1.3,2.1-2.3,2.7C133,101.1,131.7,101.4,130.3,101.4z"/>
	<path fill="#FFFFFF" d="M163.7,85.4c1.3,0,2.4,0.2,3.3,0.7c1,0.5,1.7,1.2,2.2,2.2c0.5,1,0.8,2.3,0.8,3.8v9.1h-2.1v-8.9
		c0-1.7-0.4-2.9-1.2-3.8c-0.8-0.8-1.9-1.3-3.3-1.3c-1.1,0-2,0.2-2.8,0.7c-0.8,0.5-1.4,1.1-1.8,2c-0.4,0.9-0.6,1.9-0.6,3.1v8.3H156
		v-8.9c0-1.7-0.4-2.9-1.2-3.8c-0.8-0.8-1.9-1.3-3.4-1.3c-1.1,0-2,0.2-2.8,0.7c-0.8,0.5-1.4,1.1-1.8,2c-0.4,0.9-0.6,1.9-0.6,3.1v8.3
		H144V85.5h2v4.3l-0.3-0.8c0.5-1.1,1.3-2,2.3-2.7c1.1-0.6,2.3-1,3.8-1c1.5,0,2.9,0.4,3.9,1.2c1.1,0.8,1.8,1.9,2.1,3.5l-0.8-0.3
		c0.5-1.3,1.3-2.3,2.4-3.1S162,85.4,163.7,85.4z"/>
	<path fill="#FFFFFF" d="M187.7,101.3l-7-15.8h2.2l6.4,14.6h-1l6.5-14.6h2.1l-7,15.8H187.7z"/>
	<path fill="#FFFFFF" d="M201,82.1c-0.4,0-0.8-0.1-1.1-0.5c-0.3-0.3-0.5-0.7-0.5-1.1c0-0.4,0.2-0.8,0.5-1.1c0.3-0.3,0.7-0.4,1.1-0.4
		c0.4,0,0.8,0.1,1.1,0.4c0.3,0.3,0.5,0.6,0.5,1c0,0.4-0.1,0.8-0.4,1.1C201.9,81.9,201.5,82.1,201,82.1z M199.9,101.3V85.5h2.1v15.8
		H199.9z"/>
	<path fill="#FFFFFF" d="M212.5,101.4c-1.2,0-2.2-0.2-3.1-0.6s-1.5-0.9-2-1.6s-0.7-1.5-0.7-2.4c0-0.8,0.2-1.6,0.6-2.2s1-1.2,1.9-1.6
		c0.9-0.4,2.1-0.6,3.6-0.6h5.4V94h-5.4c-1.5,0-2.6,0.3-3.2,0.8c-0.6,0.5-0.9,1.2-0.9,2c0,0.9,0.3,1.6,1,2.2s1.7,0.8,2.9,0.8
		c1.2,0,2.2-0.3,3.1-0.8c0.9-0.5,1.5-1.3,1.9-2.4l0.5,1.5c-0.4,1-1.1,1.9-2.1,2.5C215.2,101.1,214,101.4,212.5,101.4z M217.9,101.3
		v-3.5l-0.1-0.6v-5.8c0-1.3-0.4-2.4-1.1-3.1c-0.8-0.7-1.9-1.1-3.3-1.1c-1,0-2,0.2-2.9,0.5c-0.9,0.3-1.7,0.8-2.3,1.3l-1-1.6
		c0.8-0.7,1.8-1.2,2.9-1.6c1.1-0.4,2.3-0.6,3.5-0.6c2,0,3.6,0.5,4.7,1.5c1.1,1,1.7,2.5,1.7,4.6v9.8H217.9z"/>
	<path fill="#FFFFFF" d="M225.7,101.3V79h2.1v11.2l-0.3,3.2l0.2,3.2v4.7H225.7z M233.8,101.4c-1.4,0-2.6-0.3-3.7-0.9
		c-1.1-0.6-2-1.5-2.6-2.7s-1-2.6-1-4.4c0-1.7,0.3-3.2,1-4.4c0.6-1.2,1.5-2.1,2.6-2.7c1.1-0.6,2.3-0.9,3.7-0.9c1.5,0,2.8,0.3,4,1
		c1.2,0.7,2.1,1.6,2.8,2.8c0.7,1.2,1,2.6,1,4.2c0,1.6-0.3,3-1,4.2c-0.7,1.2-1.6,2.2-2.8,2.8C236.7,101.1,235.3,101.4,233.8,101.4z
		 M233.7,99.6c1.1,0,2.1-0.3,3-0.8c0.9-0.5,1.6-1.2,2.1-2.2c0.5-0.9,0.8-2,0.8-3.2c0-1.2-0.3-2.3-0.8-3.2c-0.5-0.9-1.2-1.6-2.1-2.1
		c-0.9-0.5-1.9-0.8-3-0.8c-1.1,0-2.1,0.3-3,0.8c-0.9,0.5-1.6,1.2-2.1,2.1s-0.8,2-0.8,3.2c0,1.2,0.3,2.3,0.8,3.2s1.2,1.6,2.1,2.2
		C231.6,99.3,232.6,99.6,233.7,99.6z"/>
	<path fill="#FFFFFF" d="M246.1,101.3V79h2.1v22.3H246.1z"/>
	<path fill="#FFFFFF" d="M260.8,101.4c-1.6,0-3.1-0.3-4.3-1c-1.2-0.7-2.2-1.6-2.9-2.9c-0.7-1.2-1.1-2.6-1.1-4.2s0.3-2.9,1-4.1
		c0.7-1.2,1.6-2.1,2.8-2.8c1.2-0.7,2.5-1,3.9-1c1.5,0,2.8,0.3,3.9,1c1.2,0.7,2.1,1.6,2.7,2.8c0.7,1.2,1,2.6,1,4.2c0,0.1,0,0.2,0,0.3
		c0,0.1,0,0.2,0,0.3h-13.7v-1.6h12.6l-0.8,0.6c0-1.1-0.2-2.2-0.7-3c-0.5-0.9-1.2-1.6-2-2.1s-1.8-0.8-2.9-0.8c-1.1,0-2,0.3-2.9,0.8
		c-0.9,0.5-1.5,1.2-2,2.1c-0.5,0.9-0.7,1.9-0.7,3.1v0.3c0,1.2,0.3,2.3,0.8,3.2s1.3,1.6,2.2,2.1c1,0.5,2,0.8,3.3,0.8
		c1,0,1.9-0.2,2.7-0.5c0.8-0.3,1.5-0.9,2.1-1.6l1.2,1.4c-0.7,0.8-1.6,1.5-2.6,1.9S262.1,101.4,260.8,101.4z"/>
	<path fill="#FFFFFF" d="M23.8,156.1v-21.6h2v4.7l-0.2,3.1l0.3,3.2v10.5H23.8z M31.9,150.4c-1.4,0-2.6-0.3-3.7-0.9
		c-1.1-0.6-2-1.5-2.6-2.7c-0.7-1.2-1-2.6-1-4.4s0.3-3.2,1-4.4c0.6-1.2,1.5-2.1,2.6-2.7c1.1-0.6,2.3-0.9,3.7-0.9c1.5,0,2.8,0.3,4,1
		s2.1,1.6,2.8,2.8c0.7,1.2,1,2.6,1,4.2c0,1.6-0.3,3-1,4.2c-0.7,1.2-1.6,2.1-2.8,2.8C34.7,150.1,33.4,150.4,31.9,150.4z M31.7,148.6
		c1.1,0,2.1-0.3,3-0.8c0.9-0.5,1.6-1.2,2.1-2.2s0.8-2,0.8-3.2s-0.3-2.3-0.8-3.2s-1.2-1.6-2.1-2.2c-0.9-0.5-1.9-0.8-3-0.8
		c-1.1,0-2.1,0.3-3,0.8c-0.9,0.5-1.6,1.2-2.1,2.2c-0.5,0.9-0.8,2-0.8,3.2s0.3,2.3,0.8,3.2c0.5,0.9,1.2,1.7,2.1,2.2
		C29.6,148.3,30.6,148.6,31.7,148.6z"/>
	<path fill="#FFFFFF" d="M44.1,150.3v-15.8h2v4.3l-0.2-0.8c0.4-1.2,1.2-2.1,2.2-2.7c1-0.6,2.3-0.9,3.9-0.9v2.1c-0.1,0-0.2,0-0.2,0
		c-0.1,0-0.2,0-0.2,0c-1.7,0-3,0.5-3.9,1.5s-1.4,2.4-1.4,4.3v8H44.1z"/>
	<path fill="#FFFFFF" d="M62.2,150.4c-1.5,0-2.9-0.3-4.1-1c-1.2-0.7-2.2-1.6-2.9-2.9c-0.7-1.2-1.1-2.6-1.1-4.2c0-1.6,0.3-3,1.1-4.2
		c0.7-1.2,1.6-2.1,2.8-2.8c1.2-0.7,2.6-1,4.1-1c1.6,0,2.9,0.3,4.2,1c1.2,0.7,2.2,1.6,2.9,2.8c0.7,1.2,1,2.6,1,4.2
		c0,1.6-0.3,2.9-1,4.2c-0.7,1.2-1.6,2.2-2.9,2.9C65.1,150.1,63.7,150.4,62.2,150.4z M62.2,148.6c1.1,0,2.1-0.3,3-0.8
		c0.9-0.5,1.6-1.2,2.1-2.2c0.5-0.9,0.8-2,0.8-3.2c0-1.2-0.3-2.3-0.8-3.2c-0.5-0.9-1.2-1.6-2.1-2.1c-0.9-0.5-1.9-0.8-3-0.8
		s-2.1,0.3-3,0.8c-0.9,0.5-1.6,1.2-2.1,2.1s-0.8,2-0.8,3.2c0,1.2,0.3,2.3,0.8,3.2s1.2,1.7,2.1,2.2C60.1,148.3,61.1,148.6,62.2,148.6
		z"/>
	<path fill="#FFFFFF" d="M80.8,150.4c-1.5,0-2.8-0.3-4-1c-1.2-0.7-2.1-1.6-2.8-2.8c-0.7-1.2-1-2.6-1-4.2c0-1.6,0.3-3,1-4.2
		c0.7-1.2,1.6-2.1,2.8-2.8c1.2-0.7,2.5-1,4-1c1.4,0,2.6,0.3,3.7,0.9c1.1,0.6,2,1.5,2.6,2.7c0.6,1.2,1,2.6,1,4.4c0,1.7-0.3,3.1-1,4.3
		s-1.5,2.1-2.6,2.7C83.5,150.1,82.2,150.4,80.8,150.4z M81,148.6c1.1,0,2.1-0.3,3-0.8s1.6-1.2,2.1-2.2c0.5-0.9,0.8-2,0.8-3.2
		c0-1.2-0.3-2.3-0.8-3.2c-0.5-0.9-1.2-1.6-2.1-2.1c-0.9-0.5-1.9-0.8-3-0.8c-1.1,0-2.1,0.3-3,0.8c-0.9,0.5-1.6,1.2-2.1,2.1
		s-0.8,2-0.8,3.2c0,1.2,0.3,2.3,0.8,3.2s1.2,1.7,2.1,2.2C78.9,148.3,79.9,148.6,81,148.6z M86.9,150.3v-4.7l0.2-3.2l-0.3-3.2V128
		h2.1v22.3H86.9z"/>
	<path fill="#FFFFFF" d="M101.4,150.4c-1.3,0-2.5-0.3-3.5-0.8c-1-0.5-1.8-1.3-2.3-2.3c-0.6-1-0.8-2.3-0.8-3.8v-9.2h2.1v8.9
		c0,1.7,0.4,2.9,1.2,3.8c0.8,0.9,2,1.3,3.5,1.3c1.1,0,2.1-0.2,2.9-0.7c0.8-0.4,1.4-1.1,1.9-2c0.4-0.9,0.6-1.9,0.6-3.1v-8.3h2.1v15.8
		h-2V146l0.3,0.8c-0.5,1.2-1.3,2.1-2.3,2.7C104,150.1,102.8,150.4,101.4,150.4z"/>
	<path fill="#FFFFFF" d="M121.6,150.4c-1.6,0-3-0.3-4.2-1c-1.2-0.7-2.2-1.6-2.9-2.9c-0.7-1.2-1.1-2.6-1.1-4.2c0-1.6,0.3-3,1.1-4.2
		c0.7-1.2,1.7-2.1,2.9-2.8s2.6-1,4.2-1c1.3,0,2.6,0.3,3.6,0.8c1.1,0.5,1.9,1.3,2.5,2.3l-1.6,1.1c-0.5-0.8-1.2-1.4-2-1.8
		s-1.7-0.6-2.6-0.6c-1.1,0-2.1,0.3-3,0.8c-0.9,0.5-1.6,1.2-2.1,2.1s-0.8,2-0.8,3.2s0.3,2.3,0.8,3.2c0.5,0.9,1.2,1.6,2.1,2.1
		c0.9,0.5,1.9,0.8,3,0.8c0.9,0,1.8-0.2,2.6-0.6s1.5-1,2-1.7l1.6,1.1c-0.6,1-1.5,1.8-2.5,2.3C124.1,150.2,122.9,150.4,121.6,150.4z"
		/>
	<path fill="#FFFFFF" d="M129.7,136.3v-1.8h9.8v1.8H129.7z M137.1,150.4c-1.5,0-2.6-0.4-3.4-1.2s-1.2-1.9-1.2-3.4v-14.8h2.1v14.7
		c0,0.9,0.2,1.6,0.7,2.1c0.5,0.5,1.1,0.8,2,0.8c0.9,0,1.7-0.3,2.3-0.8l0.8,1.5c-0.4,0.4-0.9,0.7-1.5,0.8
		C138.3,150.4,137.7,150.4,137.1,150.4z"/>
	<path fill="#FFFFFF" d="M148.5,150.4c-1.3,0-2.5-0.2-3.7-0.6c-1.2-0.4-2.1-0.8-2.7-1.4l1-1.7c0.6,0.5,1.5,0.9,2.5,1.2
		c1,0.4,2,0.5,3.2,0.5c1.5,0,2.6-0.2,3.2-0.7c0.7-0.5,1-1.1,1-1.9c0-0.6-0.2-1-0.6-1.4s-0.9-0.6-1.5-0.8c-0.6-0.2-1.3-0.3-2-0.4
		c-0.7-0.1-1.5-0.3-2.2-0.4c-0.7-0.2-1.4-0.4-2-0.7c-0.6-0.3-1.1-0.7-1.5-1.3s-0.6-1.3-0.6-2.2c0-0.9,0.2-1.6,0.7-2.3
		s1.2-1.2,2.1-1.6c0.9-0.4,2.1-0.6,3.4-0.6c1,0,2,0.1,3.1,0.4c1,0.3,1.9,0.6,2.5,1.1l-0.9,1.7c-0.7-0.5-1.5-0.8-2.3-1
		s-1.6-0.3-2.4-0.3c-1.4,0-2.5,0.2-3.1,0.7s-1,1.1-1,1.9c0,0.6,0.2,1.1,0.6,1.4s0.9,0.6,1.5,0.8c0.6,0.2,1.3,0.3,2,0.5
		c0.7,0.1,1.5,0.3,2.2,0.4c0.7,0.2,1.4,0.4,2,0.7c0.6,0.3,1.1,0.7,1.5,1.2c0.4,0.5,0.6,1.2,0.6,2.1c0,0.9-0.3,1.7-0.8,2.4
		s-1.3,1.2-2.2,1.6C151.1,150.3,149.9,150.4,148.5,150.4z"/>
	<path fill="#FFFFFF" d="M164.3,136.3v-1.8h9.8v1.8H164.3z M171.8,150.4c-1.5,0-2.6-0.4-3.4-1.2s-1.2-1.9-1.2-3.4v-14.8h2.1v14.7
		c0,0.9,0.2,1.6,0.7,2.1s1.1,0.8,2,0.8c0.9,0,1.7-0.3,2.3-0.8l0.8,1.5c-0.4,0.4-0.9,0.7-1.5,0.8C173,150.4,172.4,150.4,171.8,150.4z
		"/>
	<path fill="#FFFFFF" d="M184.8,150.4c-1.5,0-2.9-0.3-4.1-1c-1.2-0.7-2.2-1.6-2.9-2.9c-0.7-1.2-1.1-2.6-1.1-4.2c0-1.6,0.3-3,1.1-4.2
		c0.7-1.2,1.6-2.1,2.8-2.8s2.6-1,4.1-1c1.6,0,2.9,0.3,4.2,1s2.2,1.6,2.9,2.8c0.7,1.2,1,2.6,1,4.2c0,1.6-0.3,2.9-1,4.2
		c-0.7,1.2-1.6,2.2-2.9,2.9C187.7,150.1,186.4,150.4,184.8,150.4z M184.8,148.6c1.1,0,2.1-0.3,3-0.8s1.6-1.2,2.1-2.2
		c0.5-0.9,0.8-2,0.8-3.2c0-1.2-0.3-2.3-0.8-3.2c-0.5-0.9-1.2-1.6-2.1-2.1c-0.9-0.5-1.9-0.8-3-0.8s-2.1,0.3-3,0.8
		c-0.9,0.5-1.6,1.2-2.1,2.1c-0.5,0.9-0.8,2-0.8,3.2c0,1.2,0.3,2.3,0.8,3.2c0.5,0.9,1.2,1.7,2.1,2.2S183.7,148.6,184.8,148.6z"/>
	<path fill="#FFFFFF" d="M30,199.4c-1.5,0-2.8-0.3-4-1c-1.2-0.7-2.1-1.6-2.8-2.8c-0.7-1.2-1-2.6-1-4.2c0-1.6,0.3-3,1-4.2
		c0.7-1.2,1.6-2.1,2.8-2.8c1.2-0.7,2.5-1,4-1c1.4,0,2.6,0.3,3.7,0.9c1.1,0.6,2,1.5,2.6,2.7c0.6,1.2,1,2.6,1,4.4s-0.3,3.2-1,4.4
		c-0.7,1.2-1.5,2.1-2.6,2.7C32.6,199.1,31.4,199.4,30,199.4z M30.2,197.6c1.1,0,2.1-0.3,3-0.8s1.6-1.2,2.1-2.2
		c0.5-0.9,0.8-2,0.8-3.2s-0.3-2.3-0.8-3.2c-0.5-0.9-1.2-1.6-2.1-2.2s-1.9-0.8-3-0.8c-1.1,0-2.1,0.3-3,0.8c-0.9,0.5-1.6,1.2-2.1,2.2
		s-0.8,2-0.8,3.2s0.3,2.3,0.8,3.2s1.2,1.7,2.1,2.2C28.1,197.3,29.1,197.6,30.2,197.6z M36,205.1v-10.5l0.3-3.2l-0.2-3.1v-4.7h2v21.6
		H36z"/>
	<path fill="#FFFFFF" d="M50.6,199.4c-1.3,0-2.5-0.3-3.5-0.8c-1-0.5-1.8-1.3-2.3-2.3c-0.6-1-0.8-2.3-0.8-3.8v-9.2h2.1v8.9
		c0,1.7,0.4,2.9,1.2,3.8c0.8,0.9,2,1.3,3.5,1.3c1.1,0,2.1-0.2,2.9-0.7c0.8-0.4,1.4-1.1,1.9-2c0.4-0.9,0.6-1.9,0.6-3.1v-8.3h2.1v15.8
		h-2V195l0.3,0.8c-0.5,1.2-1.3,2.1-2.3,2.7C53.2,199.1,52,199.4,50.6,199.4z"/>
	<path fill="#FFFFFF" d="M65.3,180.1c-0.4,0-0.8-0.1-1.1-0.4c-0.3-0.3-0.4-0.7-0.4-1.1s0.1-0.8,0.4-1.1c0.3-0.3,0.7-0.4,1.1-0.4
		s0.8,0.1,1.1,0.4c0.3,0.3,0.4,0.6,0.4,1c0,0.4-0.1,0.8-0.4,1.1C66.2,179.9,65.8,180.1,65.3,180.1z M64.3,199.3v-15.8h2.1v15.8H64.3
		z"/>
	<path fill="#FFFFFF" d="M78.9,199.4c-1.6,0-3-0.3-4.2-1c-1.2-0.7-2.2-1.6-2.9-2.9c-0.7-1.2-1.1-2.6-1.1-4.2c0-1.6,0.3-3,1.1-4.2
		c0.7-1.2,1.7-2.1,2.9-2.8s2.6-1,4.2-1c1.3,0,2.6,0.3,3.6,0.8c1.1,0.5,1.9,1.3,2.5,2.3l-1.6,1.1c-0.5-0.8-1.2-1.4-2-1.8
		s-1.7-0.6-2.6-0.6c-1.1,0-2.1,0.3-3,0.8c-0.9,0.5-1.6,1.2-2.1,2.1s-0.8,2-0.8,3.2s0.3,2.3,0.8,3.2c0.5,0.9,1.2,1.6,2.1,2.1
		c0.9,0.5,1.9,0.8,3,0.8c0.9,0,1.8-0.2,2.6-0.6s1.5-1,2-1.7l1.6,1.1c-0.6,1-1.5,1.8-2.5,2.3C81.4,199.2,80.2,199.4,78.9,199.4z"/>
	<path fill="#FFFFFF" d="M89,199.3V177h2.1v22.3H89z M90.7,195.2l0.1-2.7l9.8-8.9h2.6l-6.9,6.6l-1.2,1L90.7,195.2z M101.2,199.3
		l-6.6-8.2l1.4-1.6l7.8,9.8H101.2z"/>
	<path fill="#FFFFFF" d="M107,199.3V177h2.1v22.3H107z"/>
	<path fill="#FFFFFF" d="M115.2,205.3c-0.7,0-1.4-0.1-2.1-0.4c-0.7-0.2-1.2-0.6-1.7-1.1l1-1.6c0.4,0.4,0.8,0.7,1.3,0.9
		c0.5,0.2,1,0.3,1.6,0.3c0.7,0,1.3-0.2,1.8-0.6c0.5-0.4,1-1.1,1.5-2.1l1-2.3l0.2-0.3l6.5-14.6h2.1l-7.9,17.6c-0.4,1-0.9,1.8-1.5,2.4
		c-0.5,0.6-1.1,1-1.7,1.3C116.6,205.1,116,205.3,115.2,205.3z M119.4,199.7l-7.3-16.2h2.2l6.4,14.5L119.4,199.7z"/>
	<path fill="#FFFFFF" d="M139.2,199.3V177h2.1v22.3H139.2z"/>
	<path fill="#FFFFFF" d="M151.7,199.4c-1.2,0-2.2-0.2-3.1-0.6c-0.9-0.4-1.5-0.9-2-1.6c-0.5-0.7-0.7-1.5-0.7-2.4
		c0-0.8,0.2-1.6,0.6-2.2c0.4-0.7,1-1.2,1.9-1.6c0.9-0.4,2.1-0.6,3.6-0.6h5.4v1.6h-5.4c-1.5,0-2.6,0.3-3.2,0.8s-0.9,1.2-0.9,2
		c0,0.9,0.3,1.6,1,2.2s1.7,0.8,2.9,0.8c1.2,0,2.2-0.3,3.1-0.8c0.9-0.5,1.5-1.3,1.9-2.4l0.5,1.5c-0.4,1-1.1,1.9-2.1,2.5
		C154.5,199.1,153.2,199.4,151.7,199.4z M157.1,199.3v-3.5l-0.1-0.6v-5.8c0-1.3-0.4-2.4-1.1-3.1s-1.9-1.1-3.3-1.1
		c-1,0-2,0.2-2.9,0.5c-0.9,0.3-1.7,0.8-2.3,1.4l-1-1.6c0.8-0.7,1.8-1.2,2.9-1.6c1.1-0.4,2.3-0.6,3.5-0.6c2,0,3.6,0.5,4.7,1.5
		s1.7,2.5,1.7,4.6v9.8H157.1z"/>
	<path fill="#FFFFFF" d="M171.5,199.4c-1.3,0-2.5-0.3-3.5-0.8c-1-0.5-1.8-1.3-2.3-2.3c-0.6-1-0.8-2.3-0.8-3.8v-9.2h2.1v8.9
		c0,1.7,0.4,2.9,1.2,3.8c0.8,0.9,2,1.3,3.5,1.3c1.1,0,2.1-0.2,2.9-0.7c0.8-0.4,1.4-1.1,1.9-2c0.4-0.9,0.6-1.9,0.6-3.1v-8.3h2.1v15.8
		h-2V195l0.3,0.8c-0.5,1.2-1.3,2.1-2.3,2.7C174.1,199.1,172.9,199.4,171.5,199.4z"/>
	<path fill="#FFFFFF" d="M193.2,183.4c1.3,0,2.4,0.2,3.4,0.7c1,0.5,1.7,1.2,2.3,2.2s0.8,2.3,0.8,3.8v9.2h-2.1v-8.9
		c0-1.7-0.4-2.9-1.2-3.8c-0.8-0.8-2-1.3-3.5-1.3c-1.1,0-2.1,0.2-2.9,0.7c-0.8,0.4-1.5,1.1-1.9,1.9c-0.5,0.9-0.7,1.9-0.7,3.1v8.3
		h-2.1v-15.8h2v4.3l-0.3-0.8c0.5-1.1,1.3-2,2.4-2.7C190.3,183.7,191.6,183.4,193.2,183.4z"/>
	<path fill="#FFFFFF" d="M211.9,199.4c-1.6,0-3-0.3-4.2-1c-1.2-0.7-2.2-1.6-2.9-2.9c-0.7-1.2-1-2.6-1-4.2c0-1.6,0.3-3,1-4.2
		c0.7-1.2,1.7-2.1,2.9-2.8c1.2-0.7,2.6-1,4.2-1c1.3,0,2.5,0.3,3.6,0.8c1.1,0.5,1.9,1.3,2.5,2.3l-1.6,1.1c-0.5-0.8-1.2-1.4-2-1.8
		s-1.7-0.6-2.6-0.6c-1.1,0-2.1,0.3-3,0.8c-0.9,0.5-1.6,1.2-2.1,2.1c-0.5,0.9-0.8,2-0.8,3.2s0.3,2.3,0.8,3.2c0.5,0.9,1.2,1.6,2.1,2.1
		c0.9,0.5,1.9,0.8,3,0.8c0.9,0,1.8-0.2,2.6-0.6s1.5-1,2-1.7l1.6,1.1c-0.6,1-1.5,1.8-2.5,2.3C214.5,199.2,213.3,199.4,211.9,199.4z"
		/>
	<path fill="#FFFFFF" d="M230.1,183.4c1.3,0,2.4,0.2,3.4,0.7c1,0.5,1.7,1.2,2.3,2.2s0.8,2.3,0.8,3.8v9.2h-2.1v-8.9
		c0-1.7-0.4-2.9-1.2-3.8c-0.8-0.8-2-1.3-3.5-1.3c-1.1,0-2.1,0.2-2.9,0.7c-0.8,0.4-1.5,1.1-1.9,1.9c-0.5,0.9-0.7,1.9-0.7,3.1v8.3
		h-2.1V177h2.1v10.8l-0.4-0.8c0.5-1.1,1.3-2,2.4-2.7C227.3,183.7,228.6,183.4,230.1,183.4z"/>
	<path fill="#FFFFFF" d="M28.2,248.4c-1.2,0-2.2-0.2-3.1-0.6c-0.9-0.4-1.5-0.9-2-1.6c-0.5-0.7-0.7-1.5-0.7-2.4
		c0-0.8,0.2-1.6,0.6-2.2c0.4-0.7,1-1.2,1.9-1.6s2.1-0.6,3.6-0.6H34v1.6h-5.4c-1.5,0-2.6,0.3-3.2,0.8s-0.9,1.2-0.9,2
		c0,0.9,0.3,1.6,1,2.2s1.7,0.8,2.9,0.8c1.2,0,2.2-0.3,3.1-0.8c0.9-0.5,1.5-1.3,1.9-2.4L34,245c-0.4,1-1.1,1.9-2.1,2.5
		C30.9,248.1,29.7,248.4,28.2,248.4z M33.6,248.3v-3.5l-0.1-0.6v-5.8c0-1.3-0.4-2.4-1.1-3.1s-1.9-1.1-3.3-1.1c-1,0-2,0.2-2.9,0.5
		c-0.9,0.3-1.7,0.8-2.3,1.4l-1-1.6c0.8-0.7,1.8-1.2,2.9-1.6c1.1-0.4,2.3-0.6,3.5-0.6c2,0,3.6,0.5,4.7,1.5c1.1,1,1.7,2.5,1.7,4.6v9.8
		H33.6z"/>
	<path fill="#FFFFFF" d="M49.5,232.4c1.3,0,2.4,0.2,3.4,0.7s1.7,1.2,2.3,2.2c0.5,1,0.8,2.3,0.8,3.8v9.2h-2.1v-8.9
		c0-1.7-0.4-2.9-1.2-3.8c-0.8-0.8-2-1.3-3.5-1.3c-1.1,0-2.1,0.2-2.9,0.7c-0.8,0.4-1.5,1.1-1.9,1.9c-0.4,0.9-0.7,1.9-0.7,3.1v8.3
		h-2.1v-15.8h2v4.3l-0.3-0.8c0.5-1.1,1.3-2,2.4-2.7C46.7,232.7,48,232.4,49.5,232.4z"/>
	<path fill="#FFFFFF" d="M68,248.4c-1.5,0-2.8-0.3-4-1c-1.2-0.7-2.1-1.6-2.8-2.8c-0.7-1.2-1-2.6-1-4.2c0-1.6,0.3-3,1-4.2
		c0.7-1.2,1.6-2.1,2.8-2.8c1.2-0.7,2.5-1,4-1c1.4,0,2.6,0.3,3.7,0.9c1.1,0.6,2,1.5,2.6,2.7c0.6,1.2,1,2.6,1,4.4c0,1.7-0.3,3.1-1,4.3
		s-1.5,2.1-2.6,2.7C70.7,248.1,69.4,248.4,68,248.4z M68.2,246.6c1.1,0,2.1-0.3,3-0.8s1.6-1.2,2.1-2.2c0.5-0.9,0.8-2,0.8-3.2
		c0-1.2-0.3-2.3-0.8-3.2c-0.5-0.9-1.2-1.6-2.1-2.1c-0.9-0.5-1.9-0.8-3-0.8c-1.1,0-2.1,0.3-3,0.8c-0.9,0.5-1.6,1.2-2.1,2.1
		s-0.8,2-0.8,3.2c0,1.2,0.3,2.3,0.8,3.2s1.2,1.7,2.1,2.2C66.1,246.3,67.1,246.6,68.2,246.6z M74.1,248.3v-4.7l0.2-3.2l-0.3-3.2V226
		h2.1v22.3H74.1z"/>
	<path fill="#FFFFFF" d="M87.5,234.3v-1.8h9.8v1.8H87.5z M94.9,248.4c-1.5,0-2.6-0.4-3.4-1.2s-1.2-1.9-1.2-3.4v-14.8h2.1v14.7
		c0,0.9,0.2,1.6,0.7,2.1c0.5,0.5,1.1,0.8,2,0.8c0.9,0,1.7-0.3,2.3-0.8l0.8,1.5c-0.4,0.4-0.9,0.7-1.5,0.8
		C96.1,248.4,95.5,248.4,94.9,248.4z"/>
	<path fill="#FFFFFF" d="M108.2,248.4c-1.6,0-3.1-0.3-4.3-1c-1.2-0.7-2.2-1.6-2.9-2.9c-0.7-1.2-1.1-2.6-1.1-4.2c0-1.6,0.3-2.9,1-4.1
		s1.6-2.1,2.8-2.8c1.2-0.7,2.5-1,3.9-1c1.5,0,2.8,0.3,3.9,1c1.1,0.7,2.1,1.6,2.7,2.8c0.7,1.2,1,2.6,1,4.2c0,0.1,0,0.2,0,0.3
		c0,0.1,0,0.2,0,0.3h-13.7v-1.6h12.6l-0.8,0.6c0-1.1-0.2-2.2-0.7-3c-0.5-0.9-1.2-1.6-2-2.1c-0.8-0.5-1.8-0.8-2.9-0.8
		c-1.1,0-2.1,0.3-2.9,0.8c-0.9,0.5-1.5,1.2-2,2.1c-0.5,0.9-0.7,1.9-0.7,3.1v0.3c0,1.2,0.3,2.3,0.8,3.2c0.5,0.9,1.3,1.6,2.2,2.1
		c0.9,0.5,2,0.8,3.3,0.8c1,0,1.9-0.2,2.7-0.5s1.5-0.9,2.1-1.6l1.2,1.4c-0.7,0.8-1.6,1.5-2.6,1.9S109.5,248.4,108.2,248.4z"/>
	<path fill="#FFFFFF" d="M123.9,248.4c-1.3,0-2.5-0.2-3.7-0.6c-1.2-0.4-2.1-0.8-2.7-1.4l1-1.7c0.6,0.5,1.5,0.9,2.5,1.2
		c1,0.4,2,0.5,3.1,0.5c1.5,0,2.6-0.2,3.2-0.7c0.7-0.5,1-1.1,1-1.9c0-0.6-0.2-1-0.6-1.4s-0.9-0.6-1.5-0.8c-0.6-0.2-1.3-0.3-2-0.4
		c-0.7-0.1-1.5-0.3-2.2-0.4c-0.7-0.2-1.4-0.4-2-0.7c-0.6-0.3-1.1-0.7-1.5-1.3s-0.6-1.3-0.6-2.2c0-0.9,0.2-1.6,0.7-2.3
		s1.2-1.2,2.1-1.6c0.9-0.4,2.1-0.6,3.4-0.6c1,0,2,0.1,3.1,0.4c1,0.3,1.9,0.6,2.5,1.1l-0.9,1.7c-0.7-0.5-1.5-0.8-2.3-1
		c-0.8-0.2-1.6-0.3-2.4-0.3c-1.4,0-2.5,0.2-3.1,0.7c-0.7,0.5-1,1.1-1,1.9c0,0.6,0.2,1.1,0.6,1.4s0.9,0.6,1.5,0.8
		c0.6,0.2,1.3,0.3,2,0.5s1.5,0.3,2.2,0.4c0.7,0.2,1.4,0.4,2,0.7c0.6,0.3,1.1,0.7,1.5,1.2c0.4,0.5,0.6,1.2,0.6,2.1
		c0,0.9-0.3,1.7-0.8,2.4c-0.5,0.7-1.3,1.2-2.2,1.6C126.5,248.3,125.3,248.4,123.9,248.4z"/>
	<path fill="#FFFFFF" d="M131.8,234.3v-1.8h9.8v1.8H131.8z M139.3,248.4c-1.5,0-2.6-0.4-3.4-1.2s-1.2-1.9-1.2-3.4v-14.8h2.1v14.7
		c0,0.9,0.2,1.6,0.7,2.1c0.5,0.5,1.1,0.8,2,0.8c0.9,0,1.7-0.3,2.3-0.8l0.8,1.5c-0.4,0.4-0.9,0.7-1.5,0.8
		C140.5,248.4,139.9,248.4,139.3,248.4z"/>
	<path fill="#FFFFFF" d="M23.9,303.3c-0.7,0-1.4-0.1-2.1-0.4c-0.7-0.2-1.2-0.6-1.7-1.1l1-1.6c0.4,0.4,0.8,0.7,1.3,0.9
		c0.5,0.2,1,0.3,1.6,0.3c0.7,0,1.3-0.2,1.8-0.6c0.5-0.4,1-1.1,1.5-2.1l1-2.3l0.2-0.3l6.5-14.6H37l-7.9,17.6c-0.4,1-0.9,1.8-1.5,2.4
		c-0.5,0.6-1.1,1-1.7,1.3C25.3,303.1,24.6,303.3,23.9,303.3z M28.1,297.7l-7.3-16.2H23l6.4,14.5L28.1,297.7z"/>
	<path fill="#FFFFFF" d="M46,297.4c-1.5,0-2.9-0.3-4.1-1c-1.2-0.7-2.2-1.6-2.9-2.9c-0.7-1.2-1.1-2.6-1.1-4.2c0-1.6,0.3-3,1.1-4.2
		c0.7-1.2,1.6-2.1,2.8-2.8c1.2-0.7,2.6-1,4.1-1c1.6,0,2.9,0.3,4.2,1c1.2,0.7,2.2,1.6,2.9,2.8c0.7,1.2,1,2.6,1,4.2
		c0,1.6-0.3,2.9-1,4.2c-0.7,1.2-1.6,2.2-2.9,2.9C48.9,297.1,47.5,297.4,46,297.4z M46,295.6c1.1,0,2.1-0.3,3-0.8
		c0.9-0.5,1.6-1.2,2.1-2.2c0.5-0.9,0.8-2,0.8-3.2c0-1.2-0.3-2.3-0.8-3.2c-0.5-0.9-1.2-1.6-2.1-2.1c-0.9-0.5-1.9-0.8-3-0.8
		s-2.1,0.3-3,0.8c-0.9,0.5-1.6,1.2-2.1,2.1s-0.8,2-0.8,3.2c0,1.2,0.3,2.3,0.8,3.2s1.2,1.7,2.1,2.2C43.9,295.3,44.9,295.6,46,295.6z"
		/>
	<path fill="#FFFFFF" d="M64.9,297.4c-1.3,0-2.5-0.3-3.5-0.8c-1-0.5-1.8-1.3-2.3-2.3c-0.6-1-0.8-2.3-0.8-3.8v-9.2h2.1v8.9
		c0,1.7,0.4,2.9,1.2,3.8c0.8,0.9,2,1.3,3.5,1.3c1.1,0,2.1-0.2,2.9-0.7c0.8-0.4,1.4-1.1,1.9-2c0.4-0.9,0.6-1.9,0.6-3.1v-8.3h2.1v15.8
		h-2V293l0.3,0.8c-0.5,1.2-1.3,2.1-2.3,2.7C67.5,297.1,66.3,297.4,64.9,297.4z"/>
	<path fill="#FFFFFF" d="M78.5,297.3v-15.8h2v4.3l-0.2-0.8c0.4-1.2,1.2-2.1,2.2-2.7c1-0.6,2.3-0.9,3.9-0.9v2.1c-0.1,0-0.2,0-0.2,0
		c-0.1,0-0.2,0-0.2,0c-1.7,0-3,0.5-3.9,1.5s-1.4,2.4-1.4,4.3v8H78.5z"/>
	<path fill="#FFFFFF" d="M99.5,278.1c-0.4,0-0.8-0.1-1.1-0.4c-0.3-0.3-0.4-0.7-0.4-1.1s0.1-0.8,0.4-1.1c0.3-0.3,0.7-0.4,1.1-0.4
		s0.8,0.1,1.1,0.4c0.3,0.3,0.4,0.6,0.4,1c0,0.4-0.1,0.8-0.4,1.1C100.3,277.9,100,278.1,99.5,278.1z M98.4,297.3v-15.8h2.1v15.8H98.4
		z"/>
	<path fill="#FFFFFF" d="M112.8,297.4c-1.5,0-2.8-0.3-4-1c-1.2-0.7-2.1-1.6-2.8-2.8c-0.7-1.2-1-2.6-1-4.2c0-1.6,0.3-3,1-4.2
		c0.7-1.2,1.6-2.1,2.8-2.8c1.2-0.7,2.5-1,4-1c1.4,0,2.6,0.3,3.7,0.9c1.1,0.6,2,1.5,2.6,2.7c0.6,1.2,1,2.6,1,4.4c0,1.7-0.3,3.1-1,4.3
		s-1.5,2.1-2.6,2.7C115.4,297.1,114.2,297.4,112.8,297.4z M112.9,295.6c1.1,0,2.1-0.3,3-0.8s1.6-1.2,2.1-2.2c0.5-0.9,0.8-2,0.8-3.2
		c0-1.2-0.3-2.3-0.8-3.2c-0.5-0.9-1.2-1.6-2.1-2.1c-0.9-0.5-1.9-0.8-3-0.8c-1.1,0-2.1,0.3-3,0.8c-0.9,0.5-1.6,1.2-2.1,2.1
		s-0.8,2-0.8,3.2c0,1.2,0.3,2.3,0.8,3.2s1.2,1.7,2.1,2.2C110.8,295.3,111.8,295.6,112.9,295.6z M118.9,297.3v-4.7l0.2-3.2l-0.3-3.2
		V275h2.1v22.3H118.9z"/>
	<path fill="#FFFFFF" d="M133.5,297.4c-1.6,0-3.1-0.3-4.3-1c-1.2-0.7-2.2-1.6-2.9-2.9c-0.7-1.2-1.1-2.6-1.1-4.2c0-1.6,0.3-2.9,1-4.1
		s1.6-2.1,2.8-2.8c1.2-0.7,2.5-1,3.9-1c1.5,0,2.8,0.3,3.9,1c1.1,0.7,2.1,1.6,2.7,2.8c0.7,1.2,1,2.6,1,4.2c0,0.1,0,0.2,0,0.3
		c0,0.1,0,0.2,0,0.3h-13.7v-1.6h12.6l-0.8,0.6c0-1.1-0.2-2.2-0.7-3c-0.5-0.9-1.2-1.6-2-2.1c-0.8-0.5-1.8-0.8-2.9-0.8
		c-1.1,0-2.1,0.3-2.9,0.8c-0.9,0.5-1.5,1.2-2,2.1c-0.5,0.9-0.7,1.9-0.7,3.1v0.3c0,1.2,0.3,2.3,0.8,3.2c0.5,0.9,1.3,1.6,2.2,2.1
		c0.9,0.5,2,0.8,3.3,0.8c1,0,1.9-0.2,2.7-0.5s1.5-0.9,2.1-1.6l1.2,1.4c-0.7,0.8-1.6,1.5-2.6,1.9S134.8,297.4,133.5,297.4z"/>
	<path fill="#FFFFFF" d="M148.9,297.4c-1.2,0-2.2-0.2-3.1-0.6c-0.9-0.4-1.5-0.9-2-1.6c-0.5-0.7-0.7-1.5-0.7-2.4
		c0-0.8,0.2-1.6,0.6-2.2c0.4-0.7,1-1.2,1.9-1.6c0.9-0.4,2.1-0.6,3.6-0.6h5.4v1.6h-5.4c-1.5,0-2.6,0.3-3.2,0.8s-0.9,1.2-0.9,2
		c0,0.9,0.3,1.6,1,2.2s1.7,0.8,2.9,0.8c1.2,0,2.2-0.3,3.1-0.8c0.9-0.5,1.5-1.3,1.9-2.4l0.5,1.5c-0.4,1-1.1,1.9-2.1,2.5
		C151.7,297.1,150.4,297.4,148.9,297.4z M154.4,297.3v-3.5l-0.1-0.6v-5.8c0-1.3-0.4-2.4-1.1-3.1s-1.9-1.1-3.3-1.1
		c-1,0-2,0.2-2.9,0.5c-0.9,0.3-1.7,0.8-2.3,1.4l-1-1.6c0.8-0.7,1.8-1.2,2.9-1.6s2.3-0.6,3.5-0.6c2,0,3.6,0.5,4.7,1.5
		c1.1,1,1.7,2.5,1.7,4.6v9.8H154.4z"/>
	<path fill="#FFFFFF" d="M166.4,297.4c-1.3,0-2.5-0.2-3.7-0.6c-1.2-0.4-2.1-0.8-2.7-1.4l1-1.7c0.6,0.5,1.5,0.9,2.5,1.2
		c1,0.4,2,0.5,3.1,0.5c1.5,0,2.6-0.2,3.2-0.7s1-1.1,1-1.9c0-0.6-0.2-1-0.6-1.4s-0.9-0.6-1.5-0.8c-0.6-0.2-1.3-0.3-2-0.4
		s-1.5-0.3-2.2-0.4s-1.4-0.4-2-0.7c-0.6-0.3-1.1-0.7-1.5-1.3s-0.6-1.3-0.6-2.2c0-0.9,0.2-1.6,0.7-2.3c0.5-0.7,1.2-1.2,2.1-1.6
		c0.9-0.4,2.1-0.6,3.4-0.6c1,0,2,0.1,3.1,0.4c1,0.3,1.9,0.6,2.5,1.1l-0.9,1.7c-0.7-0.5-1.5-0.8-2.3-1c-0.8-0.2-1.6-0.3-2.4-0.3
		c-1.4,0-2.5,0.2-3.1,0.7c-0.7,0.5-1,1.1-1,1.9c0,0.6,0.2,1.1,0.6,1.4s0.9,0.6,1.5,0.8s1.3,0.3,2,0.5c0.7,0.1,1.5,0.3,2.2,0.4
		c0.7,0.2,1.4,0.4,2,0.7s1.1,0.7,1.5,1.2c0.4,0.5,0.6,1.2,0.6,2.1c0,0.9-0.3,1.7-0.8,2.4c-0.5,0.7-1.3,1.2-2.2,1.6
		C169,297.3,167.8,297.4,166.4,297.4z"/>
</g>
<text transform="matrix(1 0 0 1 -264.4592 53.5272)"><tspan x="0" y="0" fill="#FFFFFF" font-family="'Montserrat-Regular'" font-size="30">Building</tspan><tspan x="0" y="49" fill="#FFFFFF" font-family="'Montserrat-Regular'" font-size="30">minimum viable</tspan><tspan x="0" y="98" fill="#FFFFFF" font-family="'Montserrat-Regular'" font-size="30">products to</tspan><tspan x="0" y="147" fill="#FFFFFF" font-family="'Montserrat-Regular'" font-size="30">quickly launch</tspan><tspan x="0" y="196" fill="#FFFFFF" font-family="'Montserrat-Regular'" font-size="30">and test</tspan><tspan x="0" y="245" fill="#FFFFFF" font-family="'Montserrat-Regular'" font-size="30">your ideas</tspan></text>
</svg>
