<?xml version="1.0" encoding="utf-8"?>
<!-- Generator: Adobe Illustrator 18.1.1, SVG Export Plug-In . SVG Version: 6.00 Build 0)  -->
<svg version="1.1" id="Layer_1" xmlns="http://www.w3.org/2000/svg" xmlns:xlink="http://www.w3.org/1999/xlink" x="0px" y="0px"
	 width="100px" height="100px" viewBox="0 0 100 100" enable-background="new 0 0 100 100" xml:space="preserve">
<rect x="7.4405" width="85.119" height="100"/>
<g enable-background="new    ">
	<path fill="#FFFFFF" d="M17.2046,18.5601v-8.3999h0.8877v7.6318h4.7041v0.7681H17.2046z"/>
	<path fill="#FFFFFF" d="M26.564,18.6201c-0.6079,0-1.1538-0.1382-1.6377-0.4141c-0.4844-0.2759-0.8662-0.6558-1.146-1.1401
		c-0.2803-0.4839-0.4204-1.0381-0.4204-1.6616c0-0.6323,0.1401-1.1885,0.4204-1.6685c0.2798-0.48,0.6597-0.856,1.1396-1.1279
		c0.48-0.2715,1.0278-0.4077,1.644-0.4077c0.624,0,1.1782,0.1362,1.6621,0.4077c0.4839,0.272,0.8643,0.6479,1.1401,1.1279
		s0.4141,1.0361,0.4141,1.6685c0,0.6235-0.1382,1.1777-0.4141,1.6616c-0.2759,0.4844-0.6582,0.8643-1.146,1.1401
		C27.7319,18.4819,27.1802,18.6201,26.564,18.6201z M26.564,17.8643c0.4561,0,0.8599-0.1021,1.2119-0.3062
		s0.6304-0.4922,0.834-0.8643c0.2041-0.3716,0.3062-0.8018,0.3062-1.2896c0-0.4961-0.1021-0.9282-0.3062-1.2964
		c-0.2036-0.3677-0.4819-0.6538-0.834-0.8579s-0.752-0.3062-1.1997-0.3062c-0.4482,0-0.8481,0.1021-1.2002,0.3062
		s-0.6318,0.4902-0.8398,0.8579c-0.208,0.3682-0.312,0.8003-0.312,1.2964c0,0.4878,0.104,0.918,0.312,1.2896
		c0.208,0.3721,0.4878,0.6602,0.8398,0.8643S26.124,17.8643,26.564,17.8643z"/>
	<path fill="#FFFFFF" d="M34.0884,18.6201c-0.6079,0-1.1538-0.1382-1.6377-0.4141c-0.4844-0.2759-0.8662-0.6558-1.146-1.1401
		c-0.2803-0.4839-0.4204-1.0381-0.4204-1.6616c0-0.6323,0.1401-1.1885,0.4204-1.6685c0.2798-0.48,0.6597-0.856,1.1396-1.1279
		c0.48-0.2715,1.0278-0.4077,1.644-0.4077c0.624,0,1.1782,0.1362,1.6621,0.4077c0.4839,0.272,0.8643,0.6479,1.1401,1.1279
		s0.4141,1.0361,0.4141,1.6685c0,0.6235-0.1382,1.1777-0.4141,1.6616c-0.2759,0.4844-0.6582,0.8643-1.146,1.1401
		C35.2563,18.4819,34.7046,18.6201,34.0884,18.6201z M34.0884,17.8643c0.4561,0,0.8599-0.1021,1.2119-0.3062
		s0.6304-0.4922,0.834-0.8643c0.2041-0.3716,0.3062-0.8018,0.3062-1.2896c0-0.4961-0.1021-0.9282-0.3062-1.2964
		c-0.2036-0.3677-0.4819-0.6538-0.834-0.8579s-0.752-0.3062-1.1997-0.3062c-0.4482,0-0.8481,0.1021-1.2002,0.3062
		s-0.6318,0.4902-0.8398,0.8579c-0.208,0.3682-0.312,0.8003-0.312,1.2964c0,0.4878,0.104,0.918,0.312,1.2896
		c0.208,0.3721,0.4878,0.6602,0.8398,0.8643S33.6484,17.8643,34.0884,17.8643z"/>
	<path fill="#FFFFFF" d="M39.0444,18.5601V9.6563h0.8521v8.9038H39.0444z M39.7163,16.9282l0.0239-1.0923l3.9243-3.5757h1.0439
		l-2.772,2.6519l-0.48,0.4077L39.7163,16.9282z M43.9282,18.5601l-2.6279-3.2759l0.5522-0.6602l3.1201,3.936H43.9282z"/>
	<path fill="#FFFFFF" d="M46.6885,10.8682c-0.1763,0-0.3242-0.0601-0.4443-0.1802c-0.1196-0.1201-0.1797-0.2642-0.1797-0.4321
		s0.0601-0.3096,0.1797-0.4258c0.1201-0.1157,0.2681-0.1738,0.4443-0.1738c0.1758,0,0.3237,0.0557,0.4438,0.168
		c0.1201,0.1118,0.1802,0.252,0.1802,0.4199c0,0.1758-0.0581,0.3237-0.1743,0.4438C47.0225,10.8081,46.8721,10.8682,46.6885,10.8682
		z M46.2563,18.5601v-6.2998h0.8521v6.2998H46.2563z"/>
	<path fill="#FFFFFF" d="M52.7002,12.2002c0.5117,0,0.9619,0.0981,1.3496,0.2939c0.3887,0.1958,0.6924,0.4941,0.9121,0.894
		s0.3301,0.9038,0.3301,1.5117v3.6602h-0.8516v-3.5762c0-0.6636-0.166-1.1655-0.498-1.5059
		c-0.332-0.3398-0.7979-0.5098-1.3984-0.5098c-0.4482,0-0.8379,0.0898-1.1699,0.27c-0.332,0.1797-0.5879,0.4399-0.7676,0.7798
		c-0.1807,0.3403-0.2705,0.75-0.2705,1.23v3.312h-0.8516v-6.2998h0.8154v1.728l-0.1318-0.3242
		c0.2002-0.4561,0.5205-0.814,0.96-1.0742C51.5684,12.3301,52.0918,12.2002,52.7002,12.2002z"/>
	<path fill="#FFFFFF" d="M60.1279,18.3198c-0.5996,0-1.1396-0.1299-1.6201-0.3896c-0.4795-0.2598-0.8574-0.6221-1.1338-1.0859
		S56.96,15.8481,56.96,15.248s0.1377-1.1299,0.4141-1.5898s0.6543-0.8179,1.1338-1.0742c0.4805-0.2559,1.0205-0.3838,1.6201-0.3838
		c0.5596,0,1.0635,0.1157,1.5117,0.3477c0.4482,0.2324,0.8047,0.5762,1.0684,1.0322s0.3955,1.0122,0.3955,1.668
		c0,0.6563-0.1318,1.2119-0.3955,1.668s-0.6201,0.8042-1.0684,1.0439C61.1914,18.2002,60.6875,18.3198,60.1279,18.3198z
		 M60.2842,20.9482c-0.5762,0-1.1279-0.084-1.6563-0.252c-0.5283-0.1685-0.9561-0.4082-1.2842-0.7202l0.4326-0.6479
		c0.2959,0.2642,0.6611,0.4741,1.0977,0.6299c0.4355,0.1563,0.8975,0.2339,1.3857,0.2339c0.7998,0,1.3877-0.186,1.7646-0.5576
		c0.375-0.3721,0.5635-0.9502,0.5635-1.7344v-1.5718l0.1201-1.0801l-0.084-1.0801v-1.9077h0.8164v5.5317
		c0,1.0879-0.2666,1.8857-0.7988,2.394C62.1094,20.6938,61.3242,20.9482,60.2842,20.9482z M60.2119,17.564
		c0.4639,0,0.876-0.0977,1.2363-0.2939c0.3594-0.1958,0.6436-0.4678,0.8516-0.8159s0.3125-0.75,0.3125-1.2061
		s-0.1045-0.856-0.3125-1.2002c-0.208-0.3438-0.4922-0.6138-0.8516-0.8096c-0.3604-0.1963-0.7725-0.2944-1.2363-0.2944
		c-0.4561,0-0.8662,0.0981-1.2295,0.2944c-0.3643,0.1958-0.6484,0.4658-0.8525,0.8096c-0.2041,0.3442-0.3057,0.7441-0.3057,1.2002
		s0.1016,0.8579,0.3057,1.2061s0.4883,0.6201,0.8525,0.8159C59.3457,17.4663,59.7559,17.564,60.2119,17.564z"/>
</g>
<g enable-background="new    ">
	<path fill="#FFFFFF" d="M16.04,30.0396v-0.708h3.8999v0.708H16.04z M19.0161,35.6914c-0.5923,0-1.0483-0.1602-1.3682-0.48
		c-0.3203-0.3198-0.48-0.772-0.48-1.356v-5.916H18.02v5.8677c0,0.3682,0.0938,0.6523,0.2817,0.8521
		c0.188,0.2002,0.458,0.3003,0.8101,0.3003c0.376,0,0.688-0.1079,0.936-0.3242l0.3003,0.6123
		c-0.168,0.1519-0.3701,0.2637-0.6064,0.3359C19.5059,35.6553,19.2637,35.6914,19.0161,35.6914z"/>
	<path fill="#FFFFFF" d="M24.2358,35.6914c-0.6079,0-1.1538-0.1382-1.6377-0.4141c-0.4844-0.2759-0.8662-0.6558-1.146-1.1401
		c-0.2803-0.4839-0.4204-1.0381-0.4204-1.6616c0-0.6323,0.1401-1.1885,0.4204-1.6685c0.2798-0.48,0.6597-0.856,1.1396-1.1279
		c0.48-0.2715,1.0278-0.4077,1.644-0.4077c0.624,0,1.1782,0.1362,1.6621,0.4077c0.4839,0.272,0.8643,0.6479,1.1401,1.1279
		s0.4141,1.0361,0.4141,1.6685c0,0.6235-0.1382,1.1777-0.4141,1.6616c-0.2759,0.4844-0.6582,0.8643-1.146,1.1401
		C25.4038,35.5532,24.8521,35.6914,24.2358,35.6914z M24.2358,34.9355c0.4561,0,0.8599-0.1021,1.2119-0.3062
		s0.6304-0.4922,0.834-0.8643c0.2041-0.3716,0.3062-0.8018,0.3062-1.2896c0-0.4961-0.1021-0.9282-0.3062-1.2964
		c-0.2036-0.3677-0.4819-0.6538-0.834-0.8579s-0.752-0.3062-1.1997-0.3062c-0.4482,0-0.8481,0.1021-1.2002,0.3062
		s-0.6318,0.4902-0.8398,0.8579c-0.208,0.3682-0.312,0.8003-0.312,1.2964c0,0.4878,0.104,0.918,0.312,1.2896
		c0.208,0.3721,0.4878,0.6602,0.8398,0.8643S23.7959,34.9355,24.2358,34.9355z"/>
	<path fill="#FFFFFF" d="M34.1118,35.6914c-0.4722,0-0.8818-0.0781-1.23-0.2339c-0.3477-0.1563-0.6138-0.3721-0.7979-0.6479
		c-0.1841-0.2764-0.2759-0.5942-0.2759-0.9541c0-0.3281,0.0776-0.626,0.2339-0.894c0.1558-0.2681,0.4121-0.4839,0.7681-0.6479
		s0.834-0.2461,1.4341-0.2461h2.1719v0.6357h-2.1479c-0.6084,0-1.0303,0.1084-1.2661,0.3242s-0.354,0.4839-0.354,0.8042
		c0,0.3599,0.1396,0.6479,0.4199,0.8638c0.2798,0.2158,0.6719,0.3242,1.1763,0.3242c0.48,0,0.894-0.1099,1.2417-0.3301
		c0.3481-0.2202,0.6021-0.5381,0.7622-0.9541l0.1919,0.5879c-0.1602,0.416-0.438,0.748-0.834,0.9961
		S34.7119,35.6914,34.1118,35.6914z M36.2842,35.6313v-1.3921l-0.0361-0.228v-2.3281c0-0.5356-0.1499-0.9478-0.4502-1.2358
		c-0.2998-0.2881-0.7461-0.4321-1.3379-0.4321c-0.4082,0-0.7959,0.0684-1.1641,0.2041c-0.3682,0.1362-0.6802,0.3164-0.936,0.54
		l-0.3838-0.6357c0.3198-0.272,0.7036-0.4819,1.1519-0.6304c0.4478-0.1479,0.9199-0.2217,1.416-0.2217
		c0.8159,0,1.4458,0.2021,1.8901,0.606c0.4438,0.4038,0.666,1.0181,0.666,1.8418v3.9121H36.2842z"/>
	<path fill="#FFFFFF" d="M38.4316,30.0396v-0.708h3.8999v0.708H38.4316z M41.4077,35.6914c-0.5923,0-1.0483-0.1602-1.3682-0.48
		c-0.3203-0.3198-0.48-0.772-0.48-1.356v-5.916h0.8521v5.8677c0,0.3682,0.0938,0.6523,0.2817,0.8521
		c0.188,0.2002,0.458,0.3003,0.8101,0.3003c0.376,0,0.688-0.1079,0.936-0.3242l0.3003,0.6123
		c-0.168,0.1519-0.3701,0.2637-0.6064,0.3359C41.8975,35.6553,41.6553,35.6914,41.4077,35.6914z"/>
	<path fill="#FFFFFF" d="M43.1357,30.0396v-0.708h3.8999v0.708H43.1357z M46.1118,35.6914c-0.5923,0-1.0483-0.1602-1.3682-0.48
		c-0.3203-0.3198-0.48-0.772-0.48-1.356v-5.916h0.8521v5.8677c0,0.3682,0.0938,0.6523,0.2817,0.8521
		c0.188,0.2002,0.458,0.3003,0.8101,0.3003c0.376,0,0.688-0.1079,0.936-0.3242l0.3003,0.6123
		c-0.168,0.1519-0.3701,0.2637-0.6064,0.3359C46.6016,35.6553,46.3594,35.6914,46.1118,35.6914z"/>
	<path fill="#FFFFFF" d="M48.9917,35.6313v-6.2998h0.8159v1.7158l-0.084-0.2998c0.1758-0.48,0.4727-0.8462,0.8887-1.0981
		c0.415-0.252,0.9316-0.3779,1.5479-0.3779v0.8276c-0.0322,0-0.0645-0.0015-0.0967-0.0059
		c-0.0313-0.0039-0.0635-0.0059-0.0957-0.0059c-0.6641,0-1.1836,0.2021-1.5596,0.606s-0.5645,0.978-0.5645,1.7222v3.2158H48.9917z"
		/>
	<path fill="#FFFFFF" d="M55.0156,35.6914c-0.4727,0-0.8818-0.0781-1.2305-0.2339c-0.3477-0.1563-0.6133-0.3721-0.7979-0.6479
		c-0.1836-0.2764-0.2754-0.5942-0.2754-0.9541c0-0.3281,0.0771-0.626,0.2334-0.894s0.4121-0.4839,0.7686-0.6479
		c0.3555-0.1641,0.834-0.2461,1.4336-0.2461h2.1719v0.6357h-2.1475c-0.6084,0-1.0303,0.1084-1.2666,0.3242
		c-0.2354,0.2158-0.3535,0.4839-0.3535,0.8042c0,0.3599,0.1396,0.6479,0.4199,0.8638c0.2793,0.2158,0.6719,0.3242,1.1758,0.3242
		c0.4805,0,0.8945-0.1099,1.2422-0.3301s0.6016-0.5381,0.7617-0.9541l0.1924,0.5879c-0.1602,0.416-0.4385,0.748-0.834,0.9961
		C56.1133,35.5674,55.6152,35.6914,55.0156,35.6914z M57.1875,35.6313v-1.3921l-0.0361-0.228v-2.3281
		c0-0.5356-0.1494-0.9478-0.4502-1.2358c-0.2998-0.2881-0.7461-0.4321-1.3379-0.4321c-0.4082,0-0.7959,0.0684-1.1641,0.2041
		c-0.3682,0.1362-0.6797,0.3164-0.9355,0.54l-0.3838-0.6357c0.3193-0.272,0.7031-0.4819,1.1514-0.6304
		c0.4482-0.1479,0.9199-0.2217,1.416-0.2217c0.8164,0,1.4463,0.2021,1.8906,0.606c0.4434,0.4038,0.666,1.0181,0.666,1.8418v3.9121
		H57.1875z"/>
	<path fill="#FFFFFF" d="M62.9355,35.6914c-0.624,0-1.1816-0.1382-1.6738-0.4141s-0.8779-0.6558-1.1582-1.1401
		c-0.2803-0.4839-0.4199-1.0381-0.4199-1.6616c0-0.6323,0.1396-1.1885,0.4199-1.6685s0.666-0.856,1.1582-1.1279
		c0.4922-0.2715,1.0498-0.4077,1.6738-0.4077c0.5361,0,1.0205,0.104,1.4521,0.312s0.7715,0.52,1.0195,0.936l-0.6357,0.4316
		c-0.2158-0.3198-0.4844-0.5557-0.8037-0.708c-0.3203-0.1519-0.668-0.228-1.0439-0.228c-0.4482,0-0.8525,0.1021-1.2119,0.3062
		c-0.3604,0.2041-0.6445,0.4902-0.8525,0.8579c-0.208,0.3682-0.3115,0.8003-0.3115,1.2964s0.1035,0.9277,0.3115,1.2959
		s0.4922,0.6538,0.8525,0.8579c0.3594,0.2041,0.7637,0.3062,1.2119,0.3062c0.376,0,0.7236-0.0762,1.0439-0.228
		c0.3193-0.1519,0.5879-0.3843,0.8037-0.6963l0.6357,0.4321c-0.248,0.4082-0.5879,0.7183-1.0195,0.9302
		S63.4717,35.6914,62.9355,35.6914z"/>
	<path fill="#FFFFFF" d="M66.1631,30.0396v-0.708h3.9004v0.708H66.1631z M69.1396,35.6914c-0.5928,0-1.0488-0.1602-1.3682-0.48
		c-0.3203-0.3198-0.4805-0.772-0.4805-1.356v-5.916h0.8525v5.8677c0,0.3682,0.0938,0.6523,0.2813,0.8521
		c0.1885,0.2002,0.458,0.3003,0.8105,0.3003c0.376,0,0.6875-0.1079,0.9355-0.3242l0.3008,0.6123
		c-0.168,0.1519-0.3701,0.2637-0.6064,0.3359C69.6289,35.6553,69.3867,35.6914,69.1396,35.6914z"/>
</g>
<g enable-background="new    ">
	<path fill="#FFFFFF" d="M20.2397,48.355c0.5122,0,0.9619,0.0981,1.3501,0.2939s0.6919,0.4941,0.9121,0.894
		c0.2197,0.3999,0.3301,0.9043,0.3301,1.5117v3.6602H21.98v-3.5762c0-0.6631-0.166-1.1655-0.498-1.5059
		c-0.332-0.3398-0.7979-0.5098-1.3979-0.5098c-0.4482,0-0.8384,0.0898-1.1699,0.27c-0.332,0.1797-0.5879,0.4399-0.7681,0.7798
		c-0.1802,0.3408-0.27,0.75-0.27,1.2305v3.3115h-0.8521V45.811h0.8521v4.3325l-0.168-0.3247c0.1997-0.4561,0.52-0.814,0.96-1.0742
		C19.1079,48.4849,19.6318,48.355,20.2397,48.355z"/>
	<path fill="#FFFFFF" d="M25.5679,47.0229c-0.1763,0-0.3242-0.0601-0.4443-0.1802c-0.1196-0.1201-0.1797-0.2642-0.1797-0.4321
		s0.0601-0.3096,0.1797-0.4258c0.1201-0.1157,0.2681-0.1738,0.4443-0.1738c0.1758,0,0.3237,0.0557,0.4438,0.168
		c0.1201,0.1118,0.1802,0.252,0.1802,0.4199c0,0.1758-0.0581,0.3237-0.1743,0.4438C25.9019,46.9629,25.7515,47.0229,25.5679,47.0229
		z M25.1357,54.7148V48.415h0.8521v6.2998H25.1357z"/>
	<path fill="#FFFFFF" d="M30.896,54.4746c-0.6001,0-1.1401-0.1299-1.6201-0.3896s-0.8579-0.6221-1.1343-1.0859
		c-0.2759-0.4639-0.4141-0.9961-0.4141-1.5957c0-0.6006,0.1382-1.1299,0.4141-1.5903c0.2764-0.46,0.6543-0.8179,1.1343-1.0742
		c0.48-0.2559,1.02-0.3838,1.6201-0.3838c0.5596,0,1.0635,0.1157,1.5117,0.3477c0.4482,0.2324,0.8042,0.5762,1.0679,1.0322
		c0.2642,0.4565,0.396,1.0122,0.396,1.6685s-0.1318,1.2119-0.396,1.668c-0.2637,0.4561-0.6196,0.8037-1.0679,1.0439
		S31.4556,54.4746,30.896,54.4746z M31.0518,57.1035c-0.5762,0-1.1279-0.084-1.6558-0.252
		c-0.5283-0.1689-0.9561-0.4082-1.2842-0.7207l0.4321-0.6475c0.2959,0.2637,0.6616,0.4736,1.0977,0.6299
		s0.8979,0.2334,1.3862,0.2334c0.7998,0,1.3877-0.1855,1.7642-0.5576c0.3755-0.3721,0.564-0.9502,0.564-1.7344v-1.5713
		l0.1196-1.0801l-0.084-1.0801V48.415h0.8164v5.5322c0,1.0879-0.2661,1.8857-0.7983,2.3936S32.0918,57.1035,31.0518,57.1035z
		 M30.98,53.7188c0.4639,0,0.876-0.0977,1.2358-0.2939c0.3599-0.1953,0.644-0.4678,0.8521-0.8154
		c0.208-0.3486,0.312-0.75,0.312-1.2061s-0.104-0.8564-0.312-1.2002c-0.208-0.3442-0.4922-0.6143-0.8521-0.8101
		c-0.3599-0.1963-0.772-0.2944-1.2358-0.2944c-0.4561,0-0.8662,0.0981-1.23,0.2944c-0.3643,0.1958-0.6484,0.4658-0.8521,0.8101
		c-0.2041,0.3438-0.3062,0.7441-0.3062,1.2002s0.1021,0.8574,0.3062,1.2061c0.2036,0.3477,0.4878,0.6201,0.8521,0.8154
		C30.1138,53.6211,30.5239,53.7188,30.98,53.7188z"/>
	<path fill="#FFFFFF" d="M39.7998,48.355c0.5122,0,0.9619,0.0981,1.3501,0.2939s0.6919,0.4941,0.9121,0.894
		c0.2197,0.3999,0.3301,0.9043,0.3301,1.5117v3.6602H41.54v-3.5762c0-0.6631-0.166-1.1655-0.498-1.5059
		c-0.332-0.3398-0.7979-0.5098-1.3979-0.5098c-0.4482,0-0.8384,0.0898-1.1699,0.27c-0.332,0.1797-0.5879,0.4399-0.7681,0.7798
		c-0.1802,0.3408-0.27,0.75-0.27,1.2305v3.3115H36.584V45.811h0.8521v4.3325l-0.168-0.3247c0.1997-0.4561,0.52-0.814,0.96-1.0742
		C38.668,48.4849,39.1919,48.355,39.7998,48.355z"/>
	<path fill="#FFFFFF" d="M47.3716,54.7754c-0.6558,0-1.2319-0.1387-1.7275-0.4141c-0.4966-0.2764-0.8843-0.6563-1.1641-1.1406
		c-0.2803-0.4834-0.4204-1.0381-0.4204-1.6611c0-0.624,0.1343-1.1768,0.4023-1.6567s0.6357-0.8579,1.104-1.1338
		c0.4678-0.2764,0.9937-0.4141,1.5781-0.4141c0.5918,0,1.1177,0.1338,1.5776,0.4019s0.8223,0.644,1.0859,1.1279
		c0.2646,0.4844,0.3965,1.042,0.3965,1.6748c0,0.04-0.002,0.082-0.0059,0.126s-0.0059,0.0898-0.0059,0.1377H44.708v-0.6357h5.0278
		l-0.3359,0.252c0-0.4561-0.0981-0.8623-0.2939-1.2188c-0.1963-0.356-0.4619-0.6338-0.7983-0.834
		c-0.3359-0.1997-0.7241-0.2998-1.1636-0.2998c-0.4321,0-0.8203,0.1001-1.1641,0.2998c-0.3442,0.2002-0.6123,0.48-0.8042,0.8408
		c-0.1919,0.3594-0.2881,0.7715-0.2881,1.2354v0.1318c0,0.4805,0.106,0.9023,0.3184,1.2666
		c0.2114,0.3643,0.5078,0.6475,0.8877,0.8516s0.814,0.3066,1.3022,0.3066c0.3838,0,0.7417-0.0684,1.0737-0.2041
		c0.332-0.1367,0.6182-0.3438,0.8579-0.624l0.48,0.5518c-0.2798,0.3359-0.6299,0.5918-1.0498,0.7676
		C48.3379,54.6875,47.876,54.7754,47.3716,54.7754z"/>
	<path fill="#FFFFFF" d="M51.9443,54.7148V48.415h0.8154v1.7158l-0.084-0.2998c0.1758-0.48,0.4727-0.8462,0.8887-1.0981
		c0.415-0.252,0.9316-0.3779,1.5479-0.3779v0.8276c-0.0322,0-0.0645-0.0015-0.0967-0.0059
		c-0.0313-0.0039-0.0635-0.0059-0.0957-0.0059c-0.6641,0-1.1836,0.2021-1.5596,0.606s-0.5645,0.978-0.5645,1.7222v3.2158H51.9443z"
		/>
</g>
<g enable-background="new    ">
	<path fill="#FFFFFF" d="M17.0239,74.9014v-8.6279h0.8159v1.8955l-0.084,1.2607l0.1201,1.2715v4.2002H17.0239z M20.2759,72.6328
		c-0.5439,0-1.0361-0.126-1.4761-0.3779s-0.79-0.6152-1.0498-1.0918c-0.2603-0.4756-0.3901-1.0576-0.3901-1.7461
		c0-0.6875,0.1279-1.2695,0.3843-1.7461C18,67.1953,18.3477,66.833,18.7881,66.585c0.4399-0.248,0.936-0.3721,1.4878-0.3721
		c0.6001,0,1.1382,0.1348,1.6143,0.4023c0.4756,0.2686,0.8496,0.6445,1.1216,1.1279c0.272,0.4844,0.4082,1.042,0.4082,1.6738
		c0,0.6406-0.1362,1.2002-0.4082,1.6807c-0.272,0.4795-0.646,0.8555-1.1216,1.1279C21.4141,72.4971,20.876,72.6328,20.2759,72.6328z
		 M20.2158,71.877c0.4482,0,0.8481-0.1016,1.2002-0.3057s0.6318-0.4922,0.8398-0.8643s0.312-0.8018,0.312-1.29
		c0-0.4873-0.104-0.916-0.312-1.2842c-0.208-0.3672-0.4878-0.6553-0.8398-0.8633s-0.752-0.3125-1.2002-0.3125
		s-0.8501,0.1045-1.2061,0.3125s-0.6357,0.4961-0.8398,0.8633c-0.2041,0.3682-0.3062,0.7969-0.3062,1.2842
		c0,0.4883,0.1021,0.918,0.3062,1.29s0.4839,0.6602,0.8398,0.8643S19.7676,71.877,20.2158,71.877z"/>
	<path fill="#FFFFFF" d="M26.8999,72.6328c-0.4722,0-0.8818-0.0771-1.23-0.2334c-0.3477-0.1563-0.6138-0.3721-0.7979-0.6484
		c-0.1841-0.2754-0.2759-0.5938-0.2759-0.9541c0-0.3271,0.0776-0.626,0.2339-0.8936c0.1558-0.2676,0.4121-0.4844,0.7681-0.6484
		c0.356-0.1631,0.834-0.2461,1.4341-0.2461h2.1719v0.6367h-2.1479c-0.6084,0-1.0303,0.1074-1.2661,0.3242
		c-0.2358,0.2158-0.354,0.4834-0.354,0.8037c0,0.3594,0.1396,0.6475,0.4199,0.8643c0.2798,0.2158,0.6719,0.3232,1.1763,0.3232
		c0.48,0,0.894-0.1094,1.2417-0.3301c0.3481-0.2197,0.6021-0.5371,0.7622-0.9541l0.1919,0.5889
		c-0.1602,0.416-0.438,0.748-0.834,0.9961S27.5,72.6328,26.8999,72.6328z M29.0723,72.5732v-1.3916l-0.0361-0.2285V68.625
		c0-0.5352-0.1499-0.9482-0.4502-1.2354c-0.2998-0.2881-0.7461-0.4326-1.3379-0.4326c-0.4082,0-0.7959,0.0684-1.1641,0.2041
		c-0.3682,0.1367-0.6802,0.3164-0.936,0.54l-0.3838-0.6357c0.3198-0.2725,0.7036-0.4824,1.1519-0.6299
		c0.4478-0.1484,0.9199-0.2227,1.416-0.2227c0.8159,0,1.4458,0.2021,1.8901,0.6064c0.4438,0.4043,0.666,1.0176,0.666,1.8418v3.9121
		H29.0723z"/>
	<path fill="#FFFFFF" d="M32.1318,74.9609c-0.2959,0-0.5781-0.0479-0.8457-0.1436c-0.2681-0.0957-0.498-0.2402-0.6899-0.4326
		l0.396-0.6357c0.1597,0.1523,0.334,0.2705,0.522,0.3545c0.1875,0.084,0.3979,0.126,0.6299,0.126
		c0.2798,0,0.522-0.0781,0.7261-0.2344s0.3979-0.4297,0.582-0.8223l0.4077-0.9238l0.0962-0.1318l2.5918-5.8438h0.8403
		l-3.1563,7.0557c-0.1758,0.4082-0.3701,0.7324-0.582,0.9717c-0.2119,0.2402-0.4419,0.4102-0.6899,0.5107
		C32.7119,74.9111,32.436,74.9609,32.1318,74.9609z M33.812,72.7529l-2.9038-6.4795h0.8877l2.5679,5.7842L33.812,72.7529z"/>
	<path fill="#FFFFFF" d="M39.02,64.8809c-0.1763,0-0.3242-0.0596-0.4443-0.1797c-0.1196-0.1201-0.1797-0.2637-0.1797-0.4326
		c0-0.168,0.0601-0.3096,0.1797-0.4258c0.1201-0.1152,0.2681-0.1738,0.4443-0.1738c0.1758,0,0.3237,0.0557,0.4438,0.168
		s0.1802,0.252,0.1802,0.4199c0,0.1768-0.0581,0.3242-0.1743,0.4443C39.354,64.8213,39.2036,64.8809,39.02,64.8809z
		 M38.5879,72.5732v-6.2998h0.8521v6.2998H38.5879z"/>
	<path fill="#FFFFFF" d="M45.0317,66.2129c0.5122,0,0.9619,0.0986,1.3501,0.2939c0.3882,0.1963,0.6919,0.4941,0.9121,0.8945
		c0.2197,0.4004,0.3301,0.9043,0.3301,1.5117v3.6602H46.772v-3.5762c0-0.6641-0.166-1.166-0.498-1.5059
		s-0.7979-0.5098-1.3979-0.5098c-0.4482,0-0.8384,0.0898-1.1699,0.2695c-0.332,0.1807-0.5879,0.4404-0.7681,0.7803
		s-0.27,0.75-0.27,1.2305v3.3115h-0.8521v-6.2998h0.8159v1.7275L42.5,67.6768c0.1997-0.4551,0.52-0.8135,0.96-1.0732
		S44.4238,66.2129,45.0317,66.2129z"/>
	<path fill="#FFFFFF" d="M52.46,72.333c-0.5996,0-1.1396-0.1299-1.6201-0.3896c-0.4795-0.2598-0.8579-0.6221-1.1343-1.0859
		c-0.2759-0.4639-0.4141-0.9961-0.4141-1.5957c0-0.6006,0.1382-1.1299,0.4141-1.5908c0.2764-0.46,0.6548-0.8174,1.1343-1.0732
		c0.4805-0.2568,1.0205-0.3848,1.6201-0.3848c0.5596,0,1.0635,0.1162,1.5117,0.3486c0.4482,0.2314,0.8047,0.5762,1.0684,1.0313
		c0.2637,0.4561,0.3955,1.0127,0.3955,1.6689c0,0.6553-0.1318,1.2119-0.3955,1.668c-0.2637,0.4551-0.6201,0.8037-1.0684,1.0439
		C53.5234,72.2129,53.0195,72.333,52.46,72.333z M52.6162,74.9609c-0.5762,0-1.1279-0.084-1.6563-0.252
		s-0.9561-0.4082-1.2842-0.7197l0.4326-0.6484c0.2959,0.2646,0.6611,0.4746,1.0977,0.6309
		c0.4355,0.1553,0.8975,0.2334,1.3857,0.2334c0.7998,0,1.3877-0.1855,1.7646-0.5576c0.375-0.3721,0.5635-0.9502,0.5635-1.7344
		v-1.5723l0.1201-1.0791l-0.084-1.0801v-1.9082h0.8164v5.5322c0,1.0879-0.2666,1.8857-0.7988,2.3936
		S53.6563,74.9609,52.6162,74.9609z M52.5439,71.5771c0.4639,0,0.876-0.0977,1.2363-0.2939
		c0.3594-0.1963,0.6436-0.4678,0.8516-0.8164c0.208-0.3477,0.3125-0.75,0.3125-1.2051c0-0.4561-0.1045-0.8564-0.3125-1.2002
		s-0.4922-0.6143-0.8516-0.8105c-0.3604-0.1953-0.7725-0.2939-1.2363-0.2939c-0.4561,0-0.8662,0.0986-1.2295,0.2939
		c-0.3643,0.1963-0.6484,0.4668-0.8525,0.8105s-0.3057,0.7441-0.3057,1.2002c0,0.4551,0.1016,0.8574,0.3057,1.2051
		c0.2041,0.3486,0.4883,0.6201,0.8525,0.8164C51.6777,71.4795,52.0879,71.5771,52.5439,71.5771z"/>
</g>
<g enable-background="new    ">
	<path fill="#FFFFFF" d="M19.6406,90.4902c-0.624,0-1.1821-0.1377-1.6743-0.4131c-0.4917-0.2764-0.8779-0.6563-1.1577-1.1406
		c-0.2803-0.4834-0.4204-1.0381-0.4204-1.6621c0-0.6318,0.1401-1.1875,0.4204-1.668c0.2798-0.4795,0.666-0.8555,1.1577-1.1279
		c0.4922-0.2715,1.0503-0.4082,1.6743-0.4082c0.5356,0,1.02,0.1045,1.4517,0.3125c0.4321,0.208,0.772,0.5195,1.02,0.9355
		l-0.6357,0.4326c-0.2163-0.3203-0.4844-0.5566-0.8042-0.708c-0.3198-0.1523-0.668-0.2285-1.0439-0.2285
		c-0.4482,0-0.8521,0.1025-1.2119,0.3066c-0.3599,0.2031-0.644,0.4893-0.8521,0.8574s-0.312,0.7998-0.312,1.2959
		s0.104,0.9287,0.312,1.2959c0.208,0.3682,0.4922,0.6543,0.8521,0.8584s0.7637,0.3057,1.2119,0.3057
		c0.376,0,0.7241-0.0752,1.0439-0.2275s0.5879-0.3838,0.8042-0.6963l0.6357,0.4316c-0.248,0.4082-0.5879,0.7188-1.02,0.9307
		C20.6606,90.3848,20.1763,90.4902,19.6406,90.4902z"/>
	<path fill="#FFFFFF" d="M23.6846,90.4307v-8.9033h0.8521v8.9033H23.6846z"/>
	<path fill="#FFFFFF" d="M27.3442,82.7383c-0.1763,0-0.3242-0.0596-0.4443-0.1797c-0.1196-0.1201-0.1797-0.2637-0.1797-0.4316
		s0.0601-0.3096,0.1797-0.4258c0.1201-0.1162,0.2681-0.1738,0.4443-0.1738c0.1758,0,0.3237,0.0557,0.4438,0.168
		c0.1201,0.1113,0.1802,0.252,0.1802,0.4199c0,0.1758-0.0581,0.3232-0.1743,0.4434C27.6782,82.6787,27.5278,82.7383,27.3442,82.7383
		z M26.9121,90.4307v-6.2998h0.8521v6.2998H26.9121z"/>
	<path fill="#FFFFFF" d="M32.8159,90.4902c-0.6558,0-1.2319-0.1377-1.7275-0.4131c-0.4966-0.2764-0.8843-0.6563-1.1641-1.1406
		c-0.2803-0.4834-0.4204-1.0381-0.4204-1.6621s0.1343-1.1758,0.4023-1.6553c0.2681-0.4805,0.6357-0.8584,1.104-1.1348
		c0.4678-0.2754,0.9937-0.4141,1.5781-0.4141c0.5918,0,1.1177,0.1348,1.5776,0.4023c0.46,0.2686,0.8223,0.6445,1.0859,1.1279
		c0.2642,0.4844,0.396,1.042,0.396,1.6738c0,0.04-0.002,0.082-0.0059,0.126s-0.0059,0.0898-0.0059,0.1387h-5.4839v-0.6367h5.0278
		l-0.3359,0.252c0-0.4561-0.0981-0.8613-0.2939-1.2178c-0.1963-0.3555-0.4619-0.6338-0.7983-0.834
		c-0.3359-0.2002-0.7241-0.2998-1.1636-0.2998c-0.4321,0-0.8203,0.0996-1.1641,0.2998c-0.3442,0.2002-0.6123,0.4805-0.8042,0.8398
		c-0.1919,0.3604-0.2881,0.7725-0.2881,1.2363v0.1318c0,0.4805,0.106,0.9023,0.3184,1.2666
		c0.2114,0.3633,0.5078,0.6475,0.8877,0.8516s0.814,0.3057,1.3022,0.3057c0.3838,0,0.7417-0.0674,1.0737-0.2041
		c0.332-0.1357,0.6182-0.3438,0.8579-0.624l0.48,0.5527c-0.2798,0.3359-0.6299,0.5918-1.0498,0.7676
		S33.3203,90.4902,32.8159,90.4902z"/>
	<path fill="#FFFFFF" d="M40.604,84.0703c0.5122,0,0.9619,0.0986,1.3501,0.2939c0.3882,0.1963,0.6919,0.4941,0.9121,0.8945
		c0.2197,0.4004,0.3301,0.9043,0.3301,1.5117v3.6602h-0.8521v-3.5762c0-0.6641-0.166-1.166-0.498-1.5059
		s-0.7979-0.5098-1.3979-0.5098c-0.4482,0-0.8384,0.0898-1.1699,0.2695c-0.332,0.1807-0.5879,0.4404-0.7681,0.7803
		s-0.27,0.75-0.27,1.2305v3.3115h-0.8521v-6.2998h0.8159v1.7275l-0.1318-0.3242c0.1997-0.4551,0.52-0.8135,0.96-1.0732
		S39.9961,84.0703,40.604,84.0703z"/>
	<path fill="#FFFFFF" d="M44.5161,84.8389v-0.708h3.8999v0.708H44.5161z M47.4922,90.4902c-0.5923,0-1.0483-0.1592-1.3682-0.4795
		c-0.3203-0.3203-0.48-0.7725-0.48-1.3564v-5.916h0.8521v5.8682c0,0.3682,0.0938,0.6523,0.2817,0.8525s0.458,0.2998,0.8101,0.2998
		c0.376,0,0.688-0.1084,0.936-0.3242l0.3003,0.6123c-0.168,0.1514-0.3701,0.2637-0.6064,0.3359
		C47.9819,90.4551,47.7397,90.4902,47.4922,90.4902z"/>
	<path fill="#FFFFFF" d="M52.0635,90.4902c-0.5195,0-1.0117-0.0732-1.4756-0.2217c-0.4639-0.1475-0.8276-0.334-1.0918-0.5576
		l0.3838-0.6719c0.2559,0.1914,0.584,0.3574,0.9844,0.498c0.3994,0.1396,0.8193,0.21,1.2598,0.21
		c0.5996,0,1.0322-0.0947,1.2959-0.2822c0.2637-0.1885,0.3955-0.4385,0.3955-0.75c0-0.2324-0.0732-0.4141-0.2217-0.5459
		s-0.3418-0.2324-0.582-0.2998c-0.2402-0.0684-0.5078-0.127-0.8037-0.1748s-0.5898-0.1035-0.8818-0.168
		c-0.292-0.0635-0.5586-0.1572-0.7979-0.2813c-0.2402-0.124-0.4346-0.2949-0.582-0.5107c-0.1484-0.2158-0.2222-0.5039-0.2222-0.8633
		c0-0.3447,0.0962-0.6523,0.2876-0.9248c0.1924-0.2715,0.4736-0.4854,0.8457-0.6416s0.8262-0.2344,1.3623-0.2344
		c0.4082,0,0.8164,0.0547,1.2236,0.1621c0.4082,0.1084,0.7441,0.25,1.0088,0.4258l-0.3721,0.6846
		c-0.2803-0.1924-0.5801-0.3301-0.9004-0.4141s-0.6396-0.126-0.96-0.126c-0.5684,0-0.9863,0.0977-1.2539,0.2939
		c-0.2686,0.1963-0.4023,0.4463-0.4023,0.75c0,0.2402,0.0742,0.4277,0.2227,0.5645c0.1475,0.1357,0.3438,0.2412,0.5879,0.3174
		s0.5117,0.1377,0.8037,0.1865c0.292,0.0479,0.584,0.1055,0.876,0.1738c0.292,0.0674,0.5596,0.1602,0.8037,0.2754
		c0.2441,0.1162,0.4404,0.2803,0.5889,0.4922c0.1475,0.2119,0.2217,0.4902,0.2217,0.834c0,0.3682-0.1025,0.6865-0.3057,0.9541
		c-0.2041,0.2686-0.501,0.4766-0.8887,0.624C53.0859,90.417,52.6162,90.4902,52.0635,90.4902z"/>
</g>
</svg>
