<?xml version="1.0" encoding="utf-8"?>
<!-- Generator: Adobe Illustrator 18.1.1, SVG Export Plug-In . SVG Version: 6.00 Build 0)  -->
<svg version="1.1" id="Layer_1" xmlns="http://www.w3.org/2000/svg" xmlns:xlink="http://www.w3.org/1999/xlink" x="0px" y="0px"
	 viewBox="0 0 286 336" enable-background="new 0 0 286 336" xml:space="preserve">
<rect width="286" height="336"/>
<g>
	<path fill="#FFFFFF" d="M22.1,75.9l11.5-25.2h2.6l11.5,25.2H45L34.4,52.3h1.1L24.9,75.9H22.1z M26.7,69.2l0.8-2.2h14.7l0.8,2.2
		H26.7z"/>
	<path fill="#FFFFFF" d="M48.3,59.1V57H60v2.1H48.3z M57.2,76.1c-1.8,0-3.1-0.5-4.1-1.4c-1-1-1.4-2.3-1.4-4.1V52.8h2.6v17.6
		c0,1.1,0.3,2,0.8,2.6c0.6,0.6,1.4,0.9,2.4,0.9c1.1,0,2.1-0.3,2.8-1l0.9,1.8c-0.5,0.5-1.1,0.8-1.8,1S58,76.1,57.2,76.1z"/>
	<path fill="#FFFFFF" d="M62.4,59.1V57h11.7v2.1H62.4z M71.3,76.1c-1.8,0-3.1-0.5-4.1-1.4c-1-1-1.4-2.3-1.4-4.1V52.8h2.6v17.6
		c0,1.1,0.3,2,0.8,2.6c0.6,0.6,1.4,0.9,2.4,0.9c1.1,0,2.1-0.3,2.8-1l0.9,1.8c-0.5,0.5-1.1,0.8-1.8,1S72.1,76.1,71.3,76.1z"/>
	<path fill="#FFFFFF" d="M80,75.9V57h2.4v5.1l-0.3-0.9c0.5-1.4,1.4-2.5,2.7-3.3c1.2-0.8,2.8-1.1,4.6-1.1v2.5c-0.1,0-0.2,0-0.3,0
		c-0.1,0-0.2,0-0.3,0c-2,0-3.6,0.6-4.7,1.8c-1.1,1.2-1.7,2.9-1.7,5.2v9.6H80z"/>
	<path fill="#FFFFFF" d="M98.1,76.1c-1.4,0-2.6-0.2-3.7-0.7c-1-0.5-1.8-1.1-2.4-1.9c-0.6-0.8-0.8-1.8-0.8-2.9c0-1,0.2-1.9,0.7-2.7
		c0.5-0.8,1.2-1.5,2.3-1.9c1.1-0.5,2.5-0.7,4.3-0.7h6.5v1.9h-6.4c-1.8,0-3.1,0.3-3.8,1c-0.7,0.6-1.1,1.5-1.1,2.4
		c0,1.1,0.4,1.9,1.3,2.6c0.8,0.6,2,1,3.5,1c1.4,0,2.7-0.3,3.7-1c1-0.7,1.8-1.6,2.3-2.9L105,72c-0.5,1.2-1.3,2.2-2.5,3
		C101.4,75.7,99.9,76.1,98.1,76.1z M104.6,75.9v-4.2l-0.1-0.7v-7c0-1.6-0.4-2.8-1.3-3.7c-0.9-0.9-2.2-1.3-4-1.3
		c-1.2,0-2.4,0.2-3.5,0.6s-2,0.9-2.8,1.6l-1.2-1.9c1-0.8,2.1-1.4,3.5-1.9c1.3-0.4,2.8-0.7,4.2-0.7c2.4,0,4.3,0.6,5.7,1.8
		c1.3,1.2,2,3.1,2,5.5v11.7H104.6z"/>
	<path fill="#FFFFFF" d="M121.8,76.1c-1.9,0-3.5-0.4-5-1.2s-2.6-2-3.5-3.4c-0.8-1.5-1.3-3.1-1.3-5c0-1.9,0.4-3.6,1.3-5
		c0.8-1.4,2-2.6,3.5-3.4c1.5-0.8,3.1-1.2,5-1.2c1.6,0,3.1,0.3,4.4,0.9c1.3,0.6,2.3,1.6,3.1,2.8l-1.9,1.3c-0.6-1-1.5-1.7-2.4-2.1
		c-1-0.5-2-0.7-3.1-0.7c-1.3,0-2.6,0.3-3.6,0.9c-1.1,0.6-1.9,1.5-2.6,2.6c-0.6,1.1-0.9,2.4-0.9,3.9s0.3,2.8,0.9,3.9
		c0.6,1.1,1.5,2,2.6,2.6c1.1,0.6,2.3,0.9,3.6,0.9c1.1,0,2.2-0.2,3.1-0.7c1-0.5,1.8-1.2,2.4-2.1l1.9,1.3c-0.7,1.2-1.8,2.2-3.1,2.8
		C124.9,75.8,123.4,76.1,121.8,76.1z"/>
	<path fill="#FFFFFF" d="M131.5,59.1V57h11.7v2.1H131.5z M140.4,76.1c-1.8,0-3.1-0.5-4.1-1.4c-1-1-1.4-2.3-1.4-4.1V52.8h2.6v17.6
		c0,1.1,0.3,2,0.8,2.6c0.6,0.6,1.4,0.9,2.4,0.9c1.1,0,2.1-0.3,2.8-1l0.9,1.8c-0.5,0.5-1.1,0.8-1.8,1S141.2,76.1,140.4,76.1z"/>
	<path fill="#FFFFFF" d="M150.4,52.8c-0.5,0-1-0.2-1.3-0.5c-0.4-0.4-0.5-0.8-0.5-1.3s0.2-0.9,0.5-1.3c0.4-0.3,0.8-0.5,1.3-0.5
		c0.5,0,1,0.2,1.3,0.5c0.4,0.3,0.5,0.8,0.5,1.3c0,0.5-0.2,1-0.5,1.3C151.4,52.7,150.9,52.8,150.4,52.8z M149.1,75.9V57h2.6v18.9
		H149.1z"/>
	<path fill="#FFFFFF" d="M168.4,56.8c1.5,0,2.9,0.3,4,0.9c1.2,0.6,2.1,1.5,2.7,2.7c0.7,1.2,1,2.7,1,4.5v11h-2.6V65.2
		c0-2-0.5-3.5-1.5-4.5c-1-1-2.4-1.5-4.2-1.5c-1.3,0-2.5,0.3-3.5,0.8s-1.8,1.3-2.3,2.3c-0.5,1-0.8,2.3-0.8,3.7v9.9h-2.6V57h2.4v5.2
		l-0.4-1c0.6-1.4,1.6-2.4,2.9-3.2C165,57.2,166.6,56.8,168.4,56.8z"/>
	<path fill="#FFFFFF" d="M190.7,75.2c-1.8,0-3.4-0.4-4.9-1.2c-1.4-0.8-2.6-1.9-3.4-3.3c-0.8-1.4-1.2-3-1.2-4.8s0.4-3.4,1.2-4.8
		c0.8-1.4,2-2.5,3.4-3.2c1.4-0.8,3.1-1.2,4.9-1.2c1.7,0,3.2,0.3,4.5,1c1.3,0.7,2.4,1.7,3.2,3.1s1.2,3,1.2,5c0,2-0.4,3.6-1.2,5
		c-0.8,1.4-1.9,2.4-3.2,3.1C193.9,74.8,192.4,75.2,190.7,75.2z M191.2,83.1c-1.7,0-3.4-0.3-5-0.8c-1.6-0.5-2.9-1.2-3.9-2.2l1.3-1.9
		c0.9,0.8,2,1.4,3.3,1.9c1.3,0.5,2.7,0.7,4.2,0.7c2.4,0,4.2-0.6,5.3-1.7c1.1-1.1,1.7-2.9,1.7-5.2v-4.7l0.4-3.2l-0.3-3.2V57h2.4v16.6
		c0,3.3-0.8,5.7-2.4,7.2C196.6,82.3,194.3,83.1,191.2,83.1z M190.9,72.9c1.4,0,2.6-0.3,3.7-0.9c1.1-0.6,1.9-1.4,2.6-2.4
		s0.9-2.3,0.9-3.6s-0.3-2.6-0.9-3.6c-0.6-1-1.5-1.8-2.6-2.4c-1.1-0.6-2.3-0.9-3.7-0.9c-1.4,0-2.6,0.3-3.7,0.9
		c-1.1,0.6-1.9,1.4-2.6,2.4c-0.6,1-0.9,2.2-0.9,3.6s0.3,2.6,0.9,3.6c0.6,1,1.5,1.9,2.6,2.4C188.3,72.6,189.6,72.9,190.9,72.9z"/>
	<path fill="#FFFFFF" d="M223.8,76.1c-1.6,0-3.1-0.3-4.4-0.8c-1.3-0.5-2.3-1.3-3-2.3c-0.7-1-1.1-2.1-1.1-3.3c0-1.1,0.2-2.1,0.7-3
		c0.5-0.9,1.3-1.8,2.3-2.7c1.1-0.9,2.5-1.8,4.3-2.8c1.5-0.8,2.7-1.6,3.5-2.2c0.9-0.6,1.5-1.2,1.8-1.8c0.4-0.6,0.5-1.2,0.5-1.8
		c0-0.9-0.3-1.7-1-2.3c-0.6-0.6-1.5-0.9-2.7-0.9c-1.3,0-2.3,0.3-3,1c-0.7,0.6-1,1.5-1,2.5c0,0.5,0.1,1,0.2,1.4
		c0.2,0.5,0.5,1,0.9,1.5c0.4,0.6,1.1,1.2,1.9,2.1l13.3,13.7l-1.5,1.7L221.9,62c-0.8-0.9-1.5-1.7-2-2.3s-0.8-1.3-1-1.9
		c-0.2-0.6-0.3-1.2-0.3-1.9c0-1.1,0.3-2,0.8-2.8c0.5-0.8,1.3-1.4,2.2-1.9c1-0.4,2.1-0.7,3.4-0.7c1.2,0,2.2,0.2,3.1,0.6
		s1.6,1,2.1,1.7c0.5,0.7,0.7,1.6,0.7,2.7c0,0.9-0.2,1.8-0.7,2.6s-1.2,1.6-2.2,2.3s-2.4,1.6-4.1,2.5c-1.5,0.8-2.7,1.6-3.6,2.3
		c-0.9,0.7-1.5,1.4-1.9,2c-0.4,0.7-0.5,1.4-0.5,2.2c0,0.9,0.3,1.7,0.8,2.4c0.5,0.7,1.2,1.2,2.2,1.6c0.9,0.4,2,0.6,3.2,0.6
		c1.7,0,3.2-0.3,4.5-1c1.3-0.7,2.4-1.8,3.3-3.2c0.9-1.4,1.6-3.2,2-5.3l2.1,0.6c-0.5,2.4-1.2,4.4-2.3,6c-1.1,1.6-2.5,2.9-4.1,3.7
		C227.8,75.7,225.9,76.1,223.8,76.1z"/>
	<path fill="#FFFFFF" d="M33.5,125.1c-1.9,0-3.5-0.4-5-1.2s-2.6-2-3.5-3.4c-0.8-1.5-1.3-3.1-1.3-5c0-1.9,0.4-3.6,1.3-5
		c0.8-1.4,2-2.6,3.5-3.4c1.5-0.8,3.1-1.2,5-1.2c1.6,0,3.1,0.3,4.4,0.9c1.3,0.6,2.3,1.6,3.1,2.8l-1.9,1.3c-0.6-1-1.5-1.7-2.4-2.1
		c-1-0.5-2-0.7-3.1-0.7c-1.3,0-2.6,0.3-3.6,0.9c-1.1,0.6-1.9,1.5-2.6,2.6c-0.6,1.1-0.9,2.4-0.9,3.9s0.3,2.8,0.9,3.9
		c0.6,1.1,1.5,2,2.6,2.6c1.1,0.6,2.3,0.9,3.6,0.9c1.1,0,2.2-0.2,3.1-0.7c1-0.5,1.8-1.2,2.4-2.1l1.9,1.3c-0.7,1.2-1.8,2.2-3.1,2.8
		C36.5,124.8,35.1,125.1,33.5,125.1z"/>
	<path fill="#FFFFFF" d="M53.3,125.1c-1.8,0-3.5-0.4-4.9-1.2c-1.5-0.8-2.6-2-3.4-3.4c-0.8-1.5-1.3-3.1-1.3-5c0-1.9,0.4-3.6,1.3-5
		c0.8-1.4,2-2.6,3.4-3.4c1.4-0.8,3.1-1.2,4.9-1.2c1.9,0,3.5,0.4,5,1.2c1.5,0.8,2.6,1.9,3.4,3.4c0.8,1.4,1.2,3.1,1.2,5
		c0,1.9-0.4,3.5-1.2,5c-0.8,1.5-2,2.6-3.4,3.4S55.1,125.1,53.3,125.1z M53.3,122.8c1.4,0,2.6-0.3,3.6-0.9c1.1-0.6,1.9-1.5,2.5-2.6
		c0.6-1.1,0.9-2.4,0.9-3.9c0-1.5-0.3-2.8-0.9-3.9c-0.6-1.1-1.4-2-2.5-2.6c-1.1-0.6-2.3-0.9-3.6-0.9c-1.3,0-2.5,0.3-3.6,0.9
		c-1.1,0.6-1.9,1.5-2.5,2.6c-0.6,1.1-0.9,2.4-0.9,3.9c0,1.5,0.3,2.8,0.9,3.9c0.6,1.1,1.5,2,2.5,2.6C50.8,122.5,52,122.8,53.3,122.8z
		"/>
	<path fill="#FFFFFF" d="M77.8,105.8c1.5,0,2.9,0.3,4.1,0.9c1.2,0.6,2.1,1.5,2.7,2.7c0.7,1.2,1,2.7,1,4.5v11H83v-10.7
		c0-2-0.5-3.5-1.5-4.5c-1-1-2.4-1.5-4.2-1.5c-1.3,0-2.5,0.3-3.5,0.8c-1,0.5-1.8,1.3-2.3,2.3c-0.5,1-0.8,2.3-0.8,3.7v9.9h-2.6V106
		h2.4v5.2l-0.4-1c0.6-1.4,1.6-2.4,2.9-3.2C74.4,106.2,76,105.8,77.8,105.8z"/>
	<path fill="#FFFFFF" d="M97,124.9L88.6,106h2.7l7.7,17.5h-1.3l7.8-17.5h2.5l-8.4,18.9H97z"/>
	<path fill="#FFFFFF" d="M119.1,125.1c-2,0-3.7-0.4-5.2-1.2c-1.5-0.8-2.7-2-3.5-3.4c-0.8-1.5-1.3-3.1-1.3-5c0-1.9,0.4-3.5,1.2-5
		s1.9-2.6,3.3-3.4c1.4-0.8,3-1.2,4.7-1.2c1.8,0,3.4,0.4,4.7,1.2c1.4,0.8,2.5,1.9,3.3,3.4c0.8,1.5,1.2,3.1,1.2,5c0,0.1,0,0.2,0,0.4
		s0,0.3,0,0.4h-16.5v-1.9h15.1l-1,0.8c0-1.4-0.3-2.6-0.9-3.7c-0.6-1.1-1.4-1.9-2.4-2.5c-1-0.6-2.2-0.9-3.5-0.9
		c-1.3,0-2.5,0.3-3.5,0.9c-1,0.6-1.8,1.4-2.4,2.5c-0.6,1.1-0.9,2.3-0.9,3.7v0.4c0,1.4,0.3,2.7,1,3.8c0.6,1.1,1.5,1.9,2.7,2.6
		c1.1,0.6,2.4,0.9,3.9,0.9c1.2,0,2.2-0.2,3.2-0.6c1-0.4,1.9-1,2.6-1.9l1.4,1.7c-0.8,1-1.9,1.8-3.1,2.3S120.6,125.1,119.1,125.1z"/>
	<path fill="#FFFFFF" d="M132.8,124.9V106h2.4v5.1l-0.3-0.9c0.5-1.4,1.4-2.5,2.7-3.3c1.2-0.8,2.8-1.1,4.6-1.1v2.5
		c-0.1,0-0.2,0-0.3,0c-0.1,0-0.2,0-0.3,0c-2,0-3.6,0.6-4.7,1.8c-1.1,1.2-1.7,2.9-1.7,5.2v9.6H132.8z"/>
	<path fill="#FFFFFF" d="M144.9,108.1V106h11.7v2.1H144.9z M153.8,125.1c-1.8,0-3.1-0.5-4.1-1.4c-1-1-1.4-2.3-1.4-4.1v-17.7h2.6
		v17.6c0,1.1,0.3,2,0.8,2.6c0.6,0.6,1.4,0.9,2.4,0.9c1.1,0,2.1-0.3,2.8-1l0.9,1.8c-0.5,0.5-1.1,0.8-1.8,1S154.5,125.1,153.8,125.1z"
		/>
	<path fill="#FFFFFF" d="M163.7,101.8c-0.5,0-1-0.2-1.3-0.5c-0.4-0.4-0.5-0.8-0.5-1.3s0.2-0.9,0.5-1.3c0.4-0.3,0.8-0.5,1.3-0.5
		c0.5,0,1,0.2,1.3,0.5c0.4,0.3,0.5,0.8,0.5,1.3c0,0.5-0.2,1-0.5,1.3C164.7,101.7,164.3,101.8,163.7,101.8z M162.4,124.9V106h2.6
		v18.9H162.4z"/>
	<path fill="#FFFFFF" d="M181.8,105.8c1.5,0,2.9,0.3,4.1,0.9c1.2,0.6,2.1,1.5,2.7,2.7c0.7,1.2,1,2.7,1,4.5v11H187v-10.7
		c0-2-0.5-3.5-1.5-4.5c-1-1-2.4-1.5-4.2-1.5c-1.3,0-2.5,0.3-3.5,0.8c-1,0.5-1.8,1.3-2.3,2.3c-0.5,1-0.8,2.3-0.8,3.7v9.9h-2.6V106
		h2.4v5.2l-0.4-1c0.6-1.4,1.6-2.4,2.9-3.2C178.4,106.2,179.9,105.8,181.8,105.8z"/>
	<path fill="#FFFFFF" d="M204,124.2c-1.8,0-3.4-0.4-4.9-1.2c-1.4-0.8-2.6-1.9-3.4-3.3c-0.8-1.4-1.2-3-1.2-4.8s0.4-3.4,1.2-4.8
		c0.8-1.4,2-2.5,3.4-3.2c1.4-0.8,3.1-1.2,4.9-1.2c1.7,0,3.2,0.3,4.5,1c1.3,0.7,2.4,1.7,3.2,3.1s1.2,3,1.2,5c0,2-0.4,3.6-1.2,5
		c-0.8,1.4-1.9,2.4-3.2,3.1C207.2,123.8,205.7,124.2,204,124.2z M204.5,132.1c-1.7,0-3.4-0.3-5-0.8c-1.6-0.5-2.9-1.2-3.9-2.2
		l1.3-1.9c0.9,0.8,2,1.4,3.3,1.9c1.3,0.5,2.7,0.7,4.2,0.7c2.4,0,4.2-0.6,5.3-1.7c1.1-1.1,1.7-2.9,1.7-5.2v-4.7l0.4-3.2l-0.3-3.2V106
		h2.4v16.6c0,3.3-0.8,5.7-2.4,7.2C210,131.3,207.6,132.1,204.5,132.1z M204.3,121.9c1.4,0,2.6-0.3,3.7-0.9c1.1-0.6,1.9-1.4,2.6-2.4
		s0.9-2.3,0.9-3.6s-0.3-2.6-0.9-3.6c-0.6-1-1.5-1.8-2.6-2.4c-1.1-0.6-2.3-0.9-3.7-0.9c-1.4,0-2.6,0.3-3.7,0.9
		c-1.1,0.6-1.9,1.4-2.6,2.4c-0.6,1-0.9,2.2-0.9,3.6s0.3,2.6,0.9,3.6c0.6,1,1.5,1.9,2.6,2.4C201.7,121.6,202.9,121.9,204.3,121.9z"/>
	<path fill="#FFFFFF" d="M35.3,154.8c1.5,0,2.9,0.3,4.1,0.9c1.2,0.6,2.1,1.5,2.7,2.7c0.7,1.2,1,2.7,1,4.5v11h-2.6v-10.7
		c0-2-0.5-3.5-1.5-4.5c-1-1-2.4-1.5-4.2-1.5c-1.3,0-2.5,0.3-3.5,0.8c-1,0.5-1.8,1.3-2.3,2.3c-0.5,1-0.8,2.3-0.8,3.7v9.9h-2.6v-26.7
		h2.6v13l-0.5-1c0.6-1.4,1.6-2.4,2.9-3.2C31.9,155.2,33.5,154.8,35.3,154.8z"/>
	<path fill="#FFFFFF" d="M51.3,150.8c-0.5,0-1-0.2-1.3-0.5c-0.4-0.4-0.5-0.8-0.5-1.3s0.2-0.9,0.5-1.3c0.4-0.3,0.8-0.5,1.3-0.5
		s1,0.2,1.3,0.5s0.5,0.8,0.5,1.3c0,0.5-0.2,1-0.5,1.3C52.3,150.7,51.8,150.8,51.3,150.8z M50,173.9V155h2.6v18.9H50z"/>
	<path fill="#FFFFFF" d="M67.2,173.2c-1.8,0-3.4-0.4-4.9-1.2c-1.4-0.8-2.6-1.9-3.4-3.3c-0.8-1.4-1.2-3-1.2-4.8
		c0-1.8,0.4-3.4,1.2-4.8c0.8-1.4,2-2.5,3.4-3.2c1.4-0.8,3.1-1.2,4.9-1.2c1.7,0,3.2,0.3,4.5,1c1.3,0.7,2.4,1.7,3.2,3.1
		c0.8,1.4,1.2,3,1.2,5s-0.4,3.6-1.2,5c-0.8,1.4-1.9,2.4-3.2,3.1S68.9,173.2,67.2,173.2z M67.7,181.1c-1.7,0-3.4-0.3-5-0.8
		s-2.9-1.2-3.9-2.2l1.3-1.9c0.9,0.8,2,1.4,3.3,1.9c1.3,0.5,2.7,0.7,4.2,0.7c2.4,0,4.2-0.6,5.3-1.7c1.1-1.1,1.7-2.8,1.7-5.2v-4.7
		L75,164l-0.3-3.2V155h2.4v16.6c0,3.3-0.8,5.7-2.4,7.2C73.2,180.3,70.8,181.1,67.7,181.1z M67.5,170.9c1.4,0,2.6-0.3,3.7-0.9
		c1.1-0.6,1.9-1.4,2.6-2.4s0.9-2.3,0.9-3.6c0-1.4-0.3-2.6-0.9-3.6c-0.6-1-1.5-1.8-2.6-2.4s-2.3-0.9-3.7-0.9c-1.4,0-2.6,0.3-3.7,0.9
		c-1.1,0.6-1.9,1.4-2.6,2.4c-0.6,1-0.9,2.2-0.9,3.6c0,1.4,0.3,2.6,0.9,3.6s1.5,1.9,2.6,2.4C64.9,170.6,66.1,170.9,67.5,170.9z"/>
	<path fill="#FFFFFF" d="M94,154.8c1.5,0,2.9,0.3,4.1,0.9c1.2,0.6,2.1,1.5,2.7,2.7c0.7,1.2,1,2.7,1,4.5v11h-2.6v-10.7
		c0-2-0.5-3.5-1.5-4.5c-1-1-2.4-1.5-4.2-1.5c-1.3,0-2.5,0.3-3.5,0.8c-1,0.5-1.8,1.3-2.3,2.3c-0.5,1-0.8,2.3-0.8,3.7v9.9h-2.6v-26.7
		h2.6v13l-0.5-1c0.6-1.4,1.6-2.4,2.9-3.2C90.6,155.2,92.1,154.8,94,154.8z"/>
	<path fill="#FFFFFF" d="M107.2,165.3V163h9.4v2.2H107.2z"/>
	<path fill="#FFFFFF" d="M130.3,174.1c-1.8,0-3.4-0.4-4.8-1.2c-1.4-0.8-2.6-1.9-3.4-3.4c-0.8-1.4-1.2-3.1-1.2-5c0-1.9,0.4-3.6,1.2-5
		c0.8-1.5,1.9-2.6,3.4-3.4c1.4-0.8,3-1.2,4.8-1.2c1.7,0,3.2,0.4,4.5,1.1s2.3,1.8,3.1,3.3c0.8,1.4,1.2,3.2,1.2,5.2s-0.4,3.8-1.2,5.2
		c-0.8,1.4-1.8,2.5-3.1,3.3C133.4,173.7,131.9,174.1,130.3,174.1z M130.5,171.8c1.3,0,2.5-0.3,3.6-0.9c1.1-0.6,1.9-1.5,2.5-2.6
		c0.6-1.1,0.9-2.4,0.9-3.9s-0.3-2.7-0.9-3.9c-0.6-1.1-1.5-2-2.5-2.6c-1.1-0.6-2.3-0.9-3.6-0.9c-1.3,0-2.5,0.3-3.6,0.9
		c-1.1,0.6-1.9,1.5-2.5,2.6c-0.6,1.1-0.9,2.4-0.9,3.9s0.3,2.8,0.9,3.9c0.6,1.1,1.5,2,2.5,2.6C128,171.5,129.1,171.8,130.5,171.8z
		 M137.5,180.9v-12.6l0.4-3.8l-0.3-3.8V155h2.4v25.9H137.5z"/>
	<path fill="#FFFFFF" d="M155,174.1c-1.6,0-3-0.3-4.2-0.9c-1.2-0.6-2.1-1.5-2.8-2.7c-0.7-1.2-1-2.7-1-4.5v-11h2.6v10.7
		c0,2,0.5,3.5,1.5,4.6c1,1,2.4,1.5,4.2,1.5c1.3,0,2.5-0.3,3.4-0.8c1-0.5,1.7-1.3,2.2-2.4c0.5-1,0.8-2.3,0.8-3.7V155h2.6v18.9h-2.4
		v-5.2l0.4,0.9c-0.6,1.4-1.5,2.5-2.8,3.3C158.1,173.7,156.7,174.1,155,174.1z"/>
	<path fill="#FFFFFF" d="M176.7,174.1c-1.4,0-2.6-0.2-3.7-0.7c-1-0.5-1.8-1.1-2.4-1.9c-0.6-0.8-0.8-1.8-0.8-2.9c0-1,0.2-1.9,0.7-2.7
		c0.5-0.8,1.2-1.5,2.3-1.9c1.1-0.5,2.5-0.7,4.3-0.7h6.5v1.9h-6.4c-1.8,0-3.1,0.3-3.8,1c-0.7,0.6-1.1,1.5-1.1,2.4
		c0,1.1,0.4,1.9,1.3,2.6c0.8,0.6,2,1,3.5,1c1.4,0,2.7-0.3,3.7-1c1-0.7,1.8-1.6,2.3-2.9l0.6,1.8c-0.5,1.2-1.3,2.2-2.5,3
		C180,173.7,178.5,174.1,176.7,174.1z M183.2,173.9v-4.2l-0.1-0.7v-7c0-1.6-0.4-2.8-1.3-3.7c-0.9-0.9-2.2-1.3-4-1.3
		c-1.2,0-2.4,0.2-3.5,0.6c-1.1,0.4-2,0.9-2.8,1.6l-1.2-1.9c1-0.8,2.1-1.4,3.5-1.9c1.3-0.4,2.8-0.7,4.2-0.7c2.4,0,4.3,0.6,5.7,1.8
		s2,3.1,2,5.5v11.7H183.2z"/>
	<path fill="#FFFFFF" d="M192.6,173.9v-26.7h2.6v26.7H192.6z"/>
	<path fill="#FFFFFF" d="M203.6,150.8c-0.5,0-1-0.2-1.3-0.5c-0.4-0.4-0.5-0.8-0.5-1.3s0.2-0.9,0.5-1.3c0.4-0.3,0.8-0.5,1.3-0.5
		c0.5,0,1,0.2,1.3,0.5c0.4,0.3,0.5,0.8,0.5,1.3c0,0.5-0.2,1-0.5,1.3C204.6,150.7,204.1,150.8,203.6,150.8z M202.3,173.9V155h2.6
		v18.9H202.3z"/>
	<path fill="#FFFFFF" d="M209,157.1V155h11.7v2.1H209z M217.9,174.1c-1.8,0-3.1-0.5-4.1-1.4c-1-1-1.4-2.3-1.4-4.1v-17.7h2.6v17.6
		c0,1.1,0.3,2,0.8,2.6c0.6,0.6,1.4,0.9,2.4,0.9c1.1,0,2.1-0.3,2.8-1l0.9,1.8c-0.5,0.5-1.1,0.8-1.8,1
		C219.4,174,218.7,174.1,217.9,174.1z"/>
	<path fill="#FFFFFF" d="M226.4,181.1c-0.9,0-1.7-0.1-2.5-0.4c-0.8-0.3-1.5-0.7-2.1-1.3l1.2-1.9c0.5,0.5,1,0.8,1.6,1.1
		c0.6,0.3,1.2,0.4,1.9,0.4c0.8,0,1.6-0.2,2.2-0.7c0.6-0.5,1.2-1.3,1.7-2.5l1.2-2.8l0.3-0.4l7.8-17.5h2.5l-9.5,21.2
		c-0.5,1.2-1.1,2.2-1.7,2.9c-0.6,0.7-1.3,1.2-2.1,1.5C228.1,180.9,227.3,181.1,226.4,181.1z M231.4,174.5l-8.7-19.4h2.7l7.7,17.4
		L231.4,174.5z"/>
	<path fill="#FFFFFF" d="M25.6,222.9v-26.7h2.6v26.7H25.6z"/>
	<path fill="#FFFFFF" d="M43.3,223.1c-2,0-3.7-0.4-5.2-1.2c-1.5-0.8-2.7-2-3.5-3.4c-0.8-1.5-1.3-3.1-1.3-5s0.4-3.5,1.2-5
		c0.8-1.4,1.9-2.6,3.3-3.4c1.4-0.8,3-1.2,4.7-1.2c1.8,0,3.4,0.4,4.7,1.2c1.4,0.8,2.5,1.9,3.3,3.4c0.8,1.5,1.2,3.1,1.2,5
		c0,0.1,0,0.2,0,0.4s0,0.3,0,0.4H35.3v-1.9h15.1l-1,0.8c0-1.4-0.3-2.6-0.9-3.7c-0.6-1.1-1.4-1.9-2.4-2.5c-1-0.6-2.2-0.9-3.5-0.9
		c-1.3,0-2.5,0.3-3.5,0.9c-1,0.6-1.8,1.4-2.4,2.5c-0.6,1.1-0.9,2.3-0.9,3.7v0.4c0,1.4,0.3,2.7,1,3.8c0.6,1.1,1.5,1.9,2.7,2.6
		c1.1,0.6,2.4,0.9,3.9,0.9c1.2,0,2.2-0.2,3.2-0.6c1-0.4,1.9-1,2.6-1.9l1.4,1.7c-0.8,1-1.9,1.8-3.1,2.3
		C46.2,222.8,44.9,223.1,43.3,223.1z"/>
	<path fill="#FFFFFF" d="M61.8,223.1c-1.4,0-2.6-0.2-3.7-0.7c-1-0.5-1.8-1.1-2.4-1.9c-0.6-0.8-0.8-1.8-0.8-2.9c0-1,0.2-1.9,0.7-2.7
		c0.5-0.8,1.2-1.5,2.3-1.9c1.1-0.5,2.5-0.7,4.3-0.7h6.5v1.9h-6.4c-1.8,0-3.1,0.3-3.8,1c-0.7,0.6-1.1,1.5-1.1,2.4
		c0,1.1,0.4,1.9,1.3,2.6c0.8,0.6,2,1,3.5,1c1.4,0,2.7-0.3,3.7-1c1-0.7,1.8-1.6,2.3-2.9l0.6,1.8c-0.5,1.2-1.3,2.2-2.5,3
		S63.6,223.1,61.8,223.1z M68.4,222.9v-4.2l-0.1-0.7v-7c0-1.6-0.4-2.8-1.3-3.7c-0.9-0.9-2.2-1.3-4-1.3c-1.2,0-2.4,0.2-3.5,0.6
		c-1.1,0.4-2,0.9-2.8,1.6l-1.2-1.9c1-0.8,2.1-1.4,3.5-1.9c1.3-0.4,2.8-0.7,4.2-0.7c2.4,0,4.3,0.6,5.7,1.8s2,3.1,2,5.5v11.7H68.4z"/>
	<path fill="#FFFFFF" d="M85.3,223.1c-1.8,0-3.4-0.4-4.8-1.2c-1.4-0.8-2.6-1.9-3.4-3.4c-0.8-1.5-1.2-3.1-1.2-5c0-1.9,0.4-3.6,1.2-5
		c0.8-1.4,1.9-2.6,3.4-3.4c1.4-0.8,3-1.2,4.8-1.2c1.7,0,3.1,0.4,4.4,1.1c1.3,0.7,2.4,1.8,3.1,3.3c0.8,1.4,1.2,3.2,1.2,5.2
		c0,2-0.4,3.8-1.2,5.2c-0.8,1.4-1.8,2.5-3.1,3.3S87,223.1,85.3,223.1z M85.5,220.8c1.3,0,2.5-0.3,3.6-0.9c1.1-0.6,1.9-1.5,2.5-2.6
		c0.6-1.1,0.9-2.4,0.9-3.9c0-1.5-0.3-2.8-0.9-3.9c-0.6-1.1-1.5-2-2.5-2.6c-1.1-0.6-2.3-0.9-3.6-0.9c-1.3,0-2.5,0.3-3.6,0.9
		c-1.1,0.6-1.9,1.5-2.5,2.6c-0.6,1.1-0.9,2.4-0.9,3.9c0,1.5,0.3,2.8,0.9,3.9c0.6,1.1,1.5,2,2.5,2.6C83,220.5,84.1,220.8,85.5,220.8z
		 M92.6,222.9v-5.7l0.3-3.8l-0.4-3.8v-13.4H95v26.7H92.6z"/>
	<path fill="#FFFFFF" d="M107.2,223.1c-1.6,0-3-0.2-4.4-0.7c-1.4-0.4-2.5-1-3.3-1.7l1.2-2c0.8,0.6,1.8,1.1,3,1.5
		c1.2,0.4,2.5,0.6,3.8,0.6c1.8,0,3.1-0.3,3.9-0.8c0.8-0.6,1.2-1.3,1.2-2.3c0-0.7-0.2-1.2-0.7-1.6c-0.4-0.4-1-0.7-1.7-0.9
		c-0.7-0.2-1.5-0.4-2.4-0.5c-0.9-0.1-1.8-0.3-2.6-0.5s-1.7-0.5-2.4-0.8c-0.7-0.4-1.3-0.9-1.7-1.5c-0.4-0.6-0.7-1.5-0.7-2.6
		c0-1,0.3-2,0.9-2.8c0.6-0.8,1.4-1.5,2.5-1.9s2.5-0.7,4.1-0.7c1.2,0,2.4,0.2,3.7,0.5c1.2,0.3,2.2,0.8,3,1.3l-1.1,2.1
		c-0.8-0.6-1.7-1-2.7-1.2s-1.9-0.4-2.9-0.4c-1.7,0-3,0.3-3.8,0.9c-0.8,0.6-1.2,1.3-1.2,2.3c0,0.7,0.2,1.3,0.7,1.7
		c0.4,0.4,1,0.7,1.8,1c0.7,0.2,1.5,0.4,2.4,0.6c0.9,0.1,1.8,0.3,2.6,0.5c0.9,0.2,1.7,0.5,2.4,0.8c0.7,0.3,1.3,0.8,1.8,1.5
		c0.4,0.6,0.7,1.5,0.7,2.5c0,1.1-0.3,2.1-0.9,2.9c-0.6,0.8-1.5,1.4-2.7,1.9C110.3,222.9,108.9,223.1,107.2,223.1z"/>
	<path fill="#FFFFFF" d="M126.2,206.1V204h11.7v2.1H126.2z M129.6,222.9v-21.3c0-1.7,0.5-3,1.5-4.1c1-1,2.4-1.5,4.2-1.5
		c0.7,0,1.4,0.1,2.1,0.3c0.7,0.2,1.2,0.5,1.7,0.9l-0.9,1.9c-0.4-0.3-0.8-0.5-1.3-0.7c-0.5-0.2-1-0.2-1.5-0.2c-1.1,0-1.9,0.3-2.5,0.9
		c-0.6,0.6-0.9,1.5-0.9,2.7v2.9l0.1,1.2v17.1H129.6z"/>
	<path fill="#FFFFFF" d="M148.7,223.1c-1.8,0-3.5-0.4-4.9-1.2c-1.5-0.8-2.6-2-3.4-3.4c-0.8-1.5-1.3-3.1-1.3-5c0-1.9,0.4-3.6,1.3-5
		c0.8-1.4,2-2.6,3.4-3.4c1.4-0.8,3.1-1.2,4.9-1.2c1.9,0,3.5,0.4,5,1.2c1.5,0.8,2.6,1.9,3.4,3.4c0.8,1.4,1.2,3.1,1.2,5
		c0,1.9-0.4,3.5-1.2,5c-0.8,1.5-2,2.6-3.4,3.4C152.3,222.7,150.6,223.1,148.7,223.1z M148.7,220.8c1.4,0,2.6-0.3,3.6-0.9
		c1.1-0.6,1.9-1.5,2.5-2.6c0.6-1.1,0.9-2.4,0.9-3.9c0-1.5-0.3-2.8-0.9-3.9c-0.6-1.1-1.4-2-2.5-2.6c-1.1-0.6-2.3-0.9-3.6-0.9
		c-1.3,0-2.5,0.3-3.6,0.9c-1.1,0.6-1.9,1.5-2.5,2.6c-0.6,1.1-0.9,2.4-0.9,3.9c0,1.5,0.3,2.8,0.9,3.9c0.6,1.1,1.5,2,2.5,2.6
		C146.2,220.5,147.4,220.8,148.7,220.8z"/>
	<path fill="#FFFFFF" d="M163.6,222.9V204h2.4v5.1l-0.3-0.9c0.5-1.4,1.4-2.5,2.7-3.3c1.2-0.8,2.8-1.1,4.6-1.1v2.5
		c-0.1,0-0.2,0-0.3,0c-0.1,0-0.2,0-0.3,0c-2,0-3.6,0.6-4.7,1.8c-1.1,1.2-1.7,2.9-1.7,5.2v9.6H163.6z"/>
	<path fill="#FFFFFF" d="M187.6,230.1c-0.9,0-1.7-0.1-2.5-0.4c-0.8-0.3-1.5-0.7-2.1-1.3l1.2-1.9c0.5,0.5,1,0.8,1.6,1.1
		s1.2,0.4,1.9,0.4c0.8,0,1.6-0.2,2.2-0.7c0.6-0.5,1.2-1.3,1.7-2.5l1.2-2.8l0.3-0.4l7.8-17.5h2.5l-9.5,21.2c-0.5,1.2-1.1,2.2-1.7,2.9
		c-0.6,0.7-1.3,1.2-2.1,1.5S188.5,230.1,187.6,230.1z M192.7,223.5L184,204h2.7l7.7,17.4L192.7,223.5z"/>
	<path fill="#FFFFFF" d="M214.2,223.1c-1.8,0-3.5-0.4-4.9-1.2c-1.5-0.8-2.6-2-3.4-3.4c-0.8-1.5-1.3-3.1-1.3-5c0-1.9,0.4-3.6,1.3-5
		c0.8-1.4,2-2.6,3.4-3.4c1.4-0.8,3.1-1.2,4.9-1.2c1.9,0,3.5,0.4,5,1.2c1.5,0.8,2.6,1.9,3.4,3.4c0.8,1.4,1.2,3.1,1.2,5
		c0,1.9-0.4,3.5-1.2,5c-0.8,1.5-2,2.6-3.4,3.4C217.7,222.7,216,223.1,214.2,223.1z M214.2,220.8c1.4,0,2.6-0.3,3.6-0.9
		c1.1-0.6,1.9-1.5,2.5-2.6c0.6-1.1,0.9-2.4,0.9-3.9c0-1.5-0.3-2.8-0.9-3.9c-0.6-1.1-1.4-2-2.5-2.6c-1.1-0.6-2.3-0.9-3.6-0.9
		c-1.3,0-2.5,0.3-3.6,0.9c-1.1,0.6-1.9,1.5-2.5,2.6c-0.6,1.1-0.9,2.4-0.9,3.9c0,1.5,0.3,2.8,0.9,3.9c0.6,1.1,1.5,2,2.5,2.6
		C211.7,220.5,212.8,220.8,214.2,220.8z"/>
	<path fill="#FFFFFF" d="M236.8,223.1c-1.6,0-3-0.3-4.2-0.9s-2.1-1.5-2.8-2.7s-1-2.7-1-4.5v-11h2.6v10.7c0,2,0.5,3.5,1.5,4.6
		c1,1,2.4,1.5,4.2,1.5c1.3,0,2.5-0.3,3.4-0.8s1.7-1.3,2.2-2.4c0.5-1,0.8-2.3,0.8-3.7V204h2.6v18.9h-2.4v-5.2l0.4,0.9
		c-0.6,1.4-1.5,2.5-2.8,3.3C240,222.7,238.5,223.1,236.8,223.1z"/>
	<path fill="#FFFFFF" d="M253.2,222.9V204h2.4v5.1l-0.3-0.9c0.5-1.4,1.4-2.5,2.7-3.3c1.2-0.8,2.8-1.1,4.6-1.1v2.5
		c-0.1,0-0.2,0-0.3,0c-0.1,0-0.2,0-0.3,0c-2,0-3.6,0.6-4.7,1.8c-1.1,1.2-1.7,2.9-1.7,5.2v9.6H253.2z"/>
	<path fill="#FFFFFF" d="M25.6,271.9v-26.7h2.6v13.4l-0.4,3.8l0.3,3.8v5.7H25.6z M35.4,272.1c-1.7,0-3.1-0.4-4.5-1.1
		c-1.3-0.8-2.4-1.9-3.1-3.3c-0.8-1.4-1.2-3.2-1.2-5.2c0-2.1,0.4-3.8,1.2-5.2c0.8-1.4,1.8-2.5,3.1-3.3c1.3-0.7,2.8-1.1,4.4-1.1
		c1.8,0,3.4,0.4,4.8,1.2c1.4,0.8,2.5,1.9,3.4,3.4c0.8,1.4,1.2,3.1,1.2,5c0,1.9-0.4,3.6-1.2,5c-0.8,1.5-1.9,2.6-3.4,3.4
		C38.8,271.7,37.2,272.1,35.4,272.1z M35.2,269.8c1.3,0,2.5-0.3,3.6-0.9c1.1-0.6,1.9-1.5,2.5-2.6c0.6-1.1,0.9-2.4,0.9-3.9
		c0-1.5-0.3-2.8-0.9-3.9c-0.6-1.1-1.5-2-2.5-2.6c-1.1-0.6-2.3-0.9-3.6-0.9c-1.3,0-2.6,0.3-3.6,0.9c-1.1,0.6-1.9,1.5-2.5,2.6
		c-0.6,1.1-0.9,2.4-0.9,3.9c0,1.5,0.3,2.8,0.9,3.9c0.6,1.1,1.5,2,2.5,2.6C32.7,269.5,33.9,269.8,35.2,269.8z"/>
	<path fill="#FFFFFF" d="M57.8,272.1c-1.6,0-3-0.3-4.2-0.9c-1.2-0.6-2.1-1.5-2.8-2.7c-0.7-1.2-1-2.7-1-4.5v-11h2.6v10.7
		c0,2,0.5,3.5,1.5,4.6c1,1,2.4,1.5,4.2,1.5c1.3,0,2.5-0.3,3.4-0.8c1-0.5,1.7-1.3,2.2-2.4c0.5-1,0.8-2.3,0.8-3.7V253h2.6v18.9h-2.4
		v-5.2l0.4,0.9c-0.6,1.4-1.5,2.5-2.8,3.3C61,271.7,59.5,272.1,57.8,272.1z"/>
	<path fill="#FFFFFF" d="M79.3,272.1c-1.6,0-3-0.2-4.4-0.7c-1.4-0.4-2.5-1-3.3-1.7l1.2-2c0.8,0.6,1.8,1.1,3,1.5
		c1.2,0.4,2.5,0.6,3.8,0.6c1.8,0,3.1-0.3,3.9-0.8c0.8-0.6,1.2-1.3,1.2-2.3c0-0.7-0.2-1.2-0.7-1.6c-0.4-0.4-1-0.7-1.7-0.9
		c-0.7-0.2-1.5-0.4-2.4-0.5c-0.9-0.1-1.8-0.3-2.6-0.5s-1.7-0.5-2.4-0.8c-0.7-0.4-1.3-0.9-1.7-1.5c-0.4-0.6-0.7-1.5-0.7-2.6
		c0-1,0.3-2,0.9-2.8c0.6-0.8,1.4-1.5,2.5-1.9s2.5-0.7,4.1-0.7c1.2,0,2.4,0.2,3.7,0.5c1.2,0.3,2.2,0.8,3,1.3l-1.1,2.1
		c-0.8-0.6-1.7-1-2.7-1.2s-1.9-0.4-2.9-0.4c-1.7,0-3,0.3-3.8,0.9c-0.8,0.6-1.2,1.3-1.2,2.3c0,0.7,0.2,1.3,0.7,1.7
		c0.4,0.4,1,0.7,1.8,1c0.7,0.2,1.5,0.4,2.4,0.6c0.9,0.1,1.8,0.3,2.6,0.5c0.9,0.2,1.7,0.5,2.4,0.8c0.7,0.3,1.3,0.8,1.8,1.5
		c0.4,0.6,0.7,1.5,0.7,2.5c0,1.1-0.3,2.1-0.9,2.9c-0.6,0.8-1.5,1.4-2.7,1.9C82.4,271.9,81,272.1,79.3,272.1z"/>
	<path fill="#FFFFFF" d="M93.1,248.8c-0.5,0-1-0.2-1.3-0.5c-0.4-0.4-0.5-0.8-0.5-1.3s0.2-0.9,0.5-1.3c0.4-0.3,0.8-0.5,1.3-0.5
		s1,0.2,1.3,0.5s0.5,0.8,0.5,1.3c0,0.5-0.2,1-0.5,1.3C94.1,248.7,93.6,248.8,93.1,248.8z M91.8,271.9V253h2.6v18.9H91.8z"/>
	<path fill="#FFFFFF" d="M111.1,252.8c1.5,0,2.9,0.3,4.1,0.9c1.2,0.6,2.1,1.5,2.7,2.7c0.7,1.2,1,2.7,1,4.5v11h-2.6v-10.7
		c0-2-0.5-3.5-1.5-4.5c-1-1-2.4-1.5-4.2-1.5c-1.3,0-2.5,0.3-3.5,0.8c-1,0.5-1.8,1.3-2.3,2.3c-0.5,1-0.8,2.3-0.8,3.7v9.9h-2.6V253
		h2.4v5.2l-0.4-1c0.6-1.4,1.6-2.4,2.9-3.2C107.7,253.2,109.3,252.8,111.1,252.8z"/>
	<path fill="#FFFFFF" d="M133.8,272.1c-2,0-3.7-0.4-5.2-1.2c-1.5-0.8-2.7-2-3.5-3.4c-0.8-1.5-1.3-3.1-1.3-5s0.4-3.5,1.2-5
		c0.8-1.4,1.9-2.6,3.3-3.4c1.4-0.8,3-1.2,4.7-1.2c1.8,0,3.4,0.4,4.7,1.2c1.4,0.8,2.5,1.9,3.3,3.4c0.8,1.5,1.2,3.1,1.2,5
		c0,0.1,0,0.2,0,0.4s0,0.3,0,0.4h-16.5v-1.9h15.1l-1,0.8c0-1.4-0.3-2.6-0.9-3.7c-0.6-1.1-1.4-1.9-2.4-2.5c-1-0.6-2.2-0.9-3.5-0.9
		c-1.3,0-2.5,0.3-3.5,0.9c-1,0.6-1.8,1.4-2.4,2.5c-0.6,1.1-0.9,2.3-0.9,3.7v0.4c0,1.4,0.3,2.7,1,3.8c0.6,1.1,1.5,1.9,2.7,2.6
		c1.1,0.6,2.4,0.9,3.9,0.9c1.2,0,2.2-0.2,3.2-0.6c1-0.4,1.9-1,2.6-1.9l1.4,1.7c-0.8,1-1.9,1.8-3.1,2.3
		C136.7,271.8,135.4,272.1,133.8,272.1z"/>
	<path fill="#FFFFFF" d="M152.6,272.1c-1.6,0-3-0.2-4.4-0.7c-1.4-0.4-2.5-1-3.3-1.7l1.2-2c0.8,0.6,1.8,1.1,3,1.5s2.5,0.6,3.8,0.6
		c1.8,0,3.1-0.3,3.9-0.8c0.8-0.6,1.2-1.3,1.2-2.3c0-0.7-0.2-1.2-0.7-1.6c-0.4-0.4-1-0.7-1.7-0.9s-1.5-0.4-2.4-0.5
		c-0.9-0.1-1.8-0.3-2.6-0.5s-1.7-0.5-2.4-0.8s-1.3-0.9-1.7-1.5c-0.4-0.6-0.7-1.5-0.7-2.6c0-1,0.3-2,0.9-2.8c0.6-0.8,1.4-1.5,2.5-1.9
		s2.5-0.7,4.1-0.7c1.2,0,2.4,0.2,3.7,0.5s2.2,0.8,3,1.3l-1.1,2.1c-0.8-0.6-1.7-1-2.7-1.2s-1.9-0.4-2.9-0.4c-1.7,0-3,0.3-3.8,0.9
		c-0.8,0.6-1.2,1.3-1.2,2.3c0,0.7,0.2,1.3,0.7,1.7c0.4,0.4,1,0.7,1.8,1c0.7,0.2,1.5,0.4,2.4,0.6c0.9,0.1,1.8,0.3,2.6,0.5
		c0.9,0.2,1.7,0.5,2.4,0.8c0.7,0.3,1.3,0.8,1.8,1.5s0.7,1.5,0.7,2.5c0,1.1-0.3,2.1-0.9,2.9c-0.6,0.8-1.5,1.4-2.7,1.9
		C155.7,271.9,154.3,272.1,152.6,272.1z"/>
	<path fill="#FFFFFF" d="M170.2,272.1c-1.6,0-3-0.2-4.4-0.7c-1.4-0.4-2.5-1-3.3-1.7l1.2-2c0.8,0.6,1.8,1.1,3,1.5
		c1.2,0.4,2.5,0.6,3.8,0.6c1.8,0,3.1-0.3,3.9-0.8c0.8-0.6,1.2-1.3,1.2-2.3c0-0.7-0.2-1.2-0.7-1.6c-0.4-0.4-1-0.7-1.7-0.9
		c-0.7-0.2-1.5-0.4-2.4-0.5s-1.8-0.3-2.6-0.5s-1.7-0.5-2.4-0.8c-0.7-0.4-1.3-0.9-1.7-1.5c-0.4-0.6-0.7-1.5-0.7-2.6
		c0-1,0.3-2,0.9-2.8c0.6-0.8,1.4-1.5,2.5-1.9s2.5-0.7,4.1-0.7c1.2,0,2.4,0.2,3.7,0.5c1.2,0.3,2.2,0.8,3,1.3l-1.1,2.1
		c-0.8-0.6-1.7-1-2.7-1.2s-1.9-0.4-2.9-0.4c-1.7,0-3,0.3-3.8,0.9c-0.8,0.6-1.2,1.3-1.2,2.3c0,0.7,0.2,1.3,0.7,1.7s1,0.7,1.8,1
		c0.7,0.2,1.5,0.4,2.4,0.6c0.9,0.1,1.8,0.3,2.6,0.5c0.9,0.2,1.7,0.5,2.4,0.8c0.7,0.3,1.3,0.8,1.8,1.5c0.4,0.6,0.7,1.5,0.7,2.5
		c0,1.1-0.3,2.1-0.9,2.9c-0.6,0.8-1.5,1.4-2.7,1.9C173.3,271.9,171.9,272.1,170.2,272.1z"/>
</g>
<text transform="matrix(1 0 0 1 -313.5901 86.5775)"><tspan x="0" y="0" fill="#FFFFFF" font-family="'Montserrat-Regular'" font-size="36">Attracting &amp;</tspan><tspan x="0" y="49" fill="#FFFFFF" font-family="'Montserrat-Regular'" font-size="36">converting</tspan><tspan x="0" y="98" fill="#FFFFFF" font-family="'Montserrat-Regular'" font-size="36">high-quality</tspan><tspan x="0" y="147" fill="#FFFFFF" font-family="'Montserrat-Regular'" font-size="36">leads for your</tspan><tspan x="0" y="196" fill="#FFFFFF" font-family="'Montserrat-Regular'" font-size="36">business</tspan></text>
</svg>
