<?xml version="1.0" encoding="utf-8"?>
<!-- Generator: Adobe Illustrator 18.1.1, SVG Export Plug-In . SVG Version: 6.00 Build 0)  -->
<svg version="1.1" id="Layer_1" xmlns="http://www.w3.org/2000/svg" xmlns:xlink="http://www.w3.org/1999/xlink" x="0px" y="0px"
	 viewBox="0 0 286 336" enable-background="new 0 0 286 336" xml:space="preserve">
<rect width="286" height="336"/>
<g>
	<path fill="#FFFFFF" d="M22.3,54.9V29.7h10.3c2.7,0,5,0.5,7.1,1.6c2,1.1,3.6,2.6,4.7,4.4c1.1,1.9,1.7,4.1,1.7,6.6
		c0,2.5-0.6,4.7-1.7,6.6c-1.1,1.9-2.7,3.4-4.7,4.4c-2,1.1-4.4,1.6-7.1,1.6H22.3z M25,52.6h7.5c2.2,0,4.2-0.4,5.8-1.3
		c1.6-0.9,2.9-2.1,3.8-3.6c0.9-1.5,1.4-3.3,1.4-5.3c0-2-0.5-3.8-1.4-5.4c-0.9-1.5-2.2-2.7-3.8-3.6c-1.6-0.9-3.6-1.3-5.8-1.3H25V52.6
		z"/>
	<path fill="#FFFFFF" d="M59.5,55.1c-2,0-3.7-0.4-5.2-1.2c-1.5-0.8-2.7-2-3.5-3.4c-0.8-1.5-1.3-3.1-1.3-5c0-1.9,0.4-3.5,1.2-5
		s1.9-2.6,3.3-3.4c1.4-0.8,3-1.2,4.7-1.2c1.8,0,3.4,0.4,4.7,1.2c1.4,0.8,2.5,1.9,3.3,3.4c0.8,1.5,1.2,3.1,1.2,5c0,0.1,0,0.2,0,0.4
		s0,0.3,0,0.4H51.5v-1.9h15.1l-1,0.8c0-1.4-0.3-2.6-0.9-3.7c-0.6-1.1-1.4-1.9-2.4-2.5c-1-0.6-2.2-0.9-3.5-0.9
		c-1.3,0-2.5,0.3-3.5,0.9c-1,0.6-1.8,1.4-2.4,2.5c-0.6,1.1-0.9,2.3-0.9,3.7v0.4c0,1.4,0.3,2.7,1,3.8c0.6,1.1,1.5,1.9,2.7,2.6
		c1.1,0.6,2.4,0.9,3.9,0.9c1.2,0,2.2-0.2,3.2-0.6c1-0.4,1.9-1,2.6-1.9l1.4,1.7c-0.8,1-1.9,1.8-3.1,2.3S61,55.1,59.5,55.1z"/>
	<path fill="#FFFFFF" d="M77.7,54.9L69.4,36H72l7.7,17.5h-1.3L86.3,36h2.5l-8.4,18.9H77.7z"/>
	<path fill="#FFFFFF" d="M99.9,55.1c-2,0-3.7-0.4-5.2-1.2c-1.5-0.8-2.7-2-3.5-3.4c-0.8-1.5-1.3-3.1-1.3-5c0-1.9,0.4-3.5,1.2-5
		s1.9-2.6,3.3-3.4c1.4-0.8,3-1.2,4.7-1.2c1.8,0,3.4,0.4,4.7,1.2c1.4,0.8,2.5,1.9,3.3,3.4c0.8,1.5,1.2,3.1,1.2,5c0,0.1,0,0.2,0,0.4
		s0,0.3,0,0.4H91.9v-1.9H107l-1,0.8c0-1.4-0.3-2.6-0.9-3.7c-0.6-1.1-1.4-1.9-2.4-2.5c-1-0.6-2.2-0.9-3.5-0.9c-1.3,0-2.5,0.3-3.5,0.9
		c-1,0.6-1.8,1.4-2.4,2.5c-0.6,1.1-0.9,2.3-0.9,3.7v0.4c0,1.4,0.3,2.7,1,3.8c0.6,1.1,1.5,1.9,2.7,2.6c1.1,0.6,2.4,0.9,3.9,0.9
		c1.2,0,2.2-0.2,3.2-0.6c1-0.4,1.9-1,2.6-1.9l1.4,1.7c-0.8,1-1.9,1.8-3.1,2.3S101.4,55.1,99.9,55.1z"/>
	<path fill="#FFFFFF" d="M113.6,54.9V28.2h2.6v26.7H113.6z"/>
	<path fill="#FFFFFF" d="M131,55.1c-1.8,0-3.5-0.4-4.9-1.2c-1.5-0.8-2.6-2-3.4-3.4c-0.8-1.5-1.3-3.1-1.3-5c0-1.9,0.4-3.6,1.3-5
		c0.8-1.4,2-2.6,3.4-3.4c1.4-0.8,3.1-1.2,4.9-1.2c1.9,0,3.5,0.4,5,1.2c1.5,0.8,2.6,1.9,3.4,3.4c0.8,1.4,1.2,3.1,1.2,5
		c0,1.9-0.4,3.5-1.2,5c-0.8,1.5-2,2.6-3.4,3.4S132.8,55.1,131,55.1z M131,52.8c1.4,0,2.6-0.3,3.6-0.9c1.1-0.6,1.9-1.5,2.5-2.6
		c0.6-1.1,0.9-2.4,0.9-3.9c0-1.5-0.3-2.8-0.9-3.9c-0.6-1.1-1.4-2-2.5-2.6c-1.1-0.6-2.3-0.9-3.6-0.9c-1.3,0-2.5,0.3-3.6,0.9
		c-1.1,0.6-1.9,1.5-2.5,2.6c-0.6,1.1-0.9,2.4-0.9,3.9c0,1.5,0.3,2.8,0.9,3.9c0.6,1.1,1.5,2,2.5,2.6C128.5,52.5,129.7,52.8,131,52.8z
		"/>
	<path fill="#FFFFFF" d="M145.9,61.9V36h2.4v5.7l-0.3,3.8l0.4,3.8v12.6H145.9z M155.6,55.1c-1.6,0-3.1-0.4-4.4-1.1
		c-1.3-0.8-2.4-1.8-3.1-3.3c-0.8-1.4-1.2-3.2-1.2-5.2s0.4-3.8,1.2-5.2c0.8-1.4,1.8-2.5,3.1-3.3c1.3-0.7,2.8-1.1,4.5-1.1
		c1.8,0,3.4,0.4,4.8,1.2c1.4,0.8,2.5,1.9,3.4,3.4c0.8,1.5,1.2,3.1,1.2,5c0,1.9-0.4,3.6-1.2,5c-0.8,1.4-1.9,2.6-3.4,3.4
		C159,54.7,157.4,55.1,155.6,55.1z M155.4,52.8c1.3,0,2.5-0.3,3.6-0.9c1.1-0.6,1.9-1.5,2.5-2.6c0.6-1.1,0.9-2.4,0.9-3.9
		s-0.3-2.7-0.9-3.9s-1.5-2-2.5-2.6c-1.1-0.6-2.3-0.9-3.6-0.9c-1.3,0-2.5,0.3-3.6,0.9c-1.1,0.6-1.9,1.5-2.5,2.6
		c-0.6,1.1-0.9,2.4-0.9,3.9s0.3,2.8,0.9,3.9c0.6,1.1,1.5,2,2.5,2.6C152.9,52.5,154.1,52.8,155.4,52.8z"/>
	<path fill="#FFFFFF" d="M171.6,31.8c-0.5,0-1-0.2-1.3-0.5c-0.4-0.4-0.5-0.8-0.5-1.3s0.2-0.9,0.5-1.3c0.4-0.3,0.8-0.5,1.3-0.5
		c0.5,0,1,0.2,1.3,0.5c0.4,0.3,0.5,0.8,0.5,1.3c0,0.5-0.2,1-0.5,1.3C172.6,31.6,172.1,31.8,171.6,31.8z M170.3,54.9V36h2.6v18.9
		H170.3z"/>
	<path fill="#FFFFFF" d="M189.6,35.8c1.5,0,2.9,0.3,4,0.9c1.2,0.6,2.1,1.5,2.7,2.7c0.7,1.2,1,2.7,1,4.5v11h-2.6V44.2
		c0-2-0.5-3.5-1.5-4.5c-1-1-2.4-1.5-4.2-1.5c-1.3,0-2.5,0.3-3.5,0.8s-1.8,1.3-2.3,2.3c-0.5,1-0.8,2.3-0.8,3.7v9.9h-2.6V36h2.4v5.2
		l-0.4-1c0.6-1.4,1.6-2.4,2.9-3.2C186.2,36.2,187.8,35.8,189.6,35.8z"/>
	<path fill="#FFFFFF" d="M211.9,54.2c-1.8,0-3.4-0.4-4.9-1.2c-1.4-0.8-2.6-1.9-3.4-3.3c-0.8-1.4-1.2-3-1.2-4.8s0.4-3.4,1.2-4.8
		c0.8-1.4,2-2.5,3.4-3.2c1.4-0.8,3.1-1.2,4.9-1.2c1.7,0,3.2,0.3,4.5,1c1.3,0.7,2.4,1.7,3.2,3.1s1.2,3,1.2,5c0,2-0.4,3.6-1.2,5
		c-0.8,1.4-1.9,2.4-3.2,3.1C215.1,53.8,213.6,54.2,211.9,54.2z M212.3,62.1c-1.7,0-3.4-0.3-5-0.8c-1.6-0.5-2.9-1.2-3.9-2.2l1.3-1.9
		c0.9,0.8,2,1.4,3.3,1.9c1.3,0.5,2.7,0.7,4.2,0.7c2.4,0,4.2-0.6,5.3-1.7c1.1-1.1,1.7-2.9,1.7-5.2v-4.7l0.4-3.2l-0.3-3.2V36h2.4v16.6
		c0,3.3-0.8,5.7-2.4,7.2C217.8,61.3,215.5,62.1,212.3,62.1z M212.1,51.9c1.4,0,2.6-0.3,3.7-0.9c1.1-0.6,1.9-1.4,2.6-2.4
		s0.9-2.3,0.9-3.6s-0.3-2.6-0.9-3.6c-0.6-1-1.5-1.8-2.6-2.4c-1.1-0.6-2.3-0.9-3.7-0.9c-1.4,0-2.6,0.3-3.7,0.9
		c-1.1,0.6-1.9,1.4-2.6,2.4c-0.6,1-0.9,2.2-0.9,3.6s0.3,2.6,0.9,3.6c0.6,1,1.5,1.9,2.6,2.4C209.5,51.6,210.8,51.9,212.1,51.9z"/>
	<path fill="#FFFFFF" d="M29.6,104.1c-1.9,0-3.5-0.4-5-1.2s-2.6-2-3.5-3.4c-0.8-1.5-1.3-3.1-1.3-5c0-1.9,0.4-3.6,1.3-5
		c0.8-1.4,2-2.6,3.5-3.4c1.5-0.8,3.1-1.2,5-1.2c1.6,0,3.1,0.3,4.4,0.9c1.3,0.6,2.3,1.6,3.1,2.8l-1.9,1.3c-0.6-1-1.5-1.7-2.4-2.1
		c-1-0.5-2-0.7-3.1-0.7c-1.3,0-2.6,0.3-3.6,0.9c-1.1,0.6-1.9,1.5-2.6,2.6c-0.6,1.1-0.9,2.4-0.9,3.9s0.3,2.8,0.9,3.9
		c0.6,1.1,1.5,2,2.6,2.6c1.1,0.6,2.3,0.9,3.6,0.9c1.1,0,2.2-0.2,3.1-0.7c1-0.5,1.8-1.2,2.4-2.1l1.9,1.3c-0.7,1.2-1.8,2.2-3.1,2.8
		C32.7,103.8,31.2,104.1,29.6,104.1z"/>
	<path fill="#FFFFFF" d="M49.4,104.1c-1.8,0-3.5-0.4-4.9-1.2c-1.5-0.8-2.6-2-3.4-3.4c-0.8-1.5-1.3-3.1-1.3-5c0-1.9,0.4-3.6,1.3-5
		c0.8-1.4,2-2.6,3.4-3.4c1.4-0.8,3.1-1.2,4.9-1.2c1.9,0,3.5,0.4,5,1.2c1.5,0.8,2.6,1.9,3.4,3.4c0.8,1.4,1.2,3.1,1.2,5
		c0,1.9-0.4,3.5-1.2,5c-0.8,1.5-2,2.6-3.4,3.4S51.3,104.1,49.4,104.1z M49.4,101.8c1.4,0,2.6-0.3,3.6-0.9c1.1-0.6,1.9-1.5,2.5-2.6
		c0.6-1.1,0.9-2.4,0.9-3.9c0-1.5-0.3-2.8-0.9-3.9c-0.6-1.1-1.4-2-2.5-2.6C52,87.3,50.8,87,49.4,87c-1.3,0-2.5,0.3-3.6,0.9
		c-1.1,0.6-1.9,1.5-2.5,2.6c-0.6,1.1-0.9,2.4-0.9,3.9c0,1.5,0.3,2.8,0.9,3.9c0.6,1.1,1.5,2,2.5,2.6
		C46.9,101.5,48.1,101.8,49.4,101.8z"/>
	<path fill="#FFFFFF" d="M73.9,84.8c1.5,0,2.9,0.3,4.1,0.9c1.2,0.6,2.1,1.5,2.7,2.7c0.7,1.2,1,2.7,1,4.5v11h-2.6V93.2
		c0-2-0.5-3.5-1.5-4.5c-1-1-2.4-1.5-4.2-1.5c-1.3,0-2.5,0.3-3.5,0.8c-1,0.5-1.8,1.3-2.3,2.3c-0.5,1-0.8,2.3-0.8,3.7v9.9h-2.6V77.2
		h2.6v13l-0.5-1c0.6-1.4,1.6-2.4,2.9-3.2C70.5,85.2,72.1,84.8,73.9,84.8z"/>
	<path fill="#FFFFFF" d="M96.6,104.1c-2,0-3.7-0.4-5.2-1.2c-1.5-0.8-2.7-2-3.5-3.4c-0.8-1.5-1.3-3.1-1.3-5c0-1.9,0.4-3.5,1.2-5
		s1.9-2.6,3.3-3.4c1.4-0.8,3-1.2,4.7-1.2c1.8,0,3.4,0.4,4.7,1.2c1.4,0.8,2.5,1.9,3.3,3.4c0.8,1.5,1.2,3.1,1.2,5c0,0.1,0,0.2,0,0.4
		s0,0.3,0,0.4H88.6v-1.9h15.1l-1,0.8c0-1.4-0.3-2.6-0.9-3.7c-0.6-1.1-1.4-1.9-2.4-2.5c-1-0.6-2.2-0.9-3.5-0.9
		c-1.3,0-2.5,0.3-3.5,0.9c-1,0.6-1.8,1.4-2.4,2.5c-0.6,1.1-0.9,2.3-0.9,3.7v0.4c0,1.4,0.3,2.7,1,3.8c0.6,1.1,1.5,1.9,2.7,2.6
		c1.1,0.6,2.4,0.9,3.9,0.9c1.2,0,2.2-0.2,3.2-0.6c1-0.4,1.9-1,2.6-1.9l1.4,1.7c-0.8,1-1.9,1.8-3.1,2.3S98.2,104.1,96.6,104.1z"/>
	<path fill="#FFFFFF" d="M115.4,104.1c-1.6,0-3-0.2-4.4-0.7c-1.4-0.4-2.5-1-3.3-1.7l1.2-2c0.8,0.6,1.8,1.1,3,1.5
		c1.2,0.4,2.5,0.6,3.8,0.6c1.8,0,3.1-0.3,3.9-0.8c0.8-0.6,1.2-1.3,1.2-2.3c0-0.7-0.2-1.2-0.7-1.6c-0.4-0.4-1-0.7-1.7-0.9
		c-0.7-0.2-1.5-0.4-2.4-0.5c-0.9-0.1-1.8-0.3-2.6-0.5c-0.9-0.2-1.7-0.5-2.4-0.8c-0.7-0.4-1.3-0.9-1.7-1.5c-0.4-0.6-0.7-1.5-0.7-2.6
		c0-1,0.3-2,0.9-2.8c0.6-0.8,1.4-1.5,2.5-1.9c1.1-0.5,2.5-0.7,4.1-0.7c1.2,0,2.4,0.2,3.7,0.5c1.2,0.3,2.2,0.8,3,1.3l-1.1,2.1
		c-0.8-0.6-1.7-1-2.7-1.2s-1.9-0.4-2.9-0.4c-1.7,0-3,0.3-3.8,0.9c-0.8,0.6-1.2,1.3-1.2,2.3c0,0.7,0.2,1.3,0.7,1.7
		c0.4,0.4,1,0.7,1.8,1c0.7,0.2,1.5,0.4,2.4,0.6c0.9,0.1,1.8,0.3,2.6,0.5c0.9,0.2,1.7,0.5,2.4,0.8c0.7,0.3,1.3,0.8,1.8,1.5
		c0.4,0.6,0.7,1.5,0.7,2.5c0,1.1-0.3,2.1-0.9,2.9c-0.6,0.8-1.5,1.4-2.7,1.9C118.5,103.8,117.1,104.1,115.4,104.1z"/>
	<path fill="#FFFFFF" d="M129.2,80.8c-0.5,0-1-0.2-1.3-0.5c-0.4-0.4-0.5-0.8-0.5-1.3s0.2-0.9,0.5-1.3c0.4-0.3,0.8-0.5,1.3-0.5
		s1,0.2,1.3,0.5c0.4,0.3,0.5,0.8,0.5,1.3c0,0.5-0.2,1-0.5,1.3C130.2,80.6,129.8,80.8,129.2,80.8z M127.9,103.9V85h2.6v18.9H127.9z"
		/>
	<path fill="#FFFFFF" d="M142.5,103.9L134.1,85h2.7l7.7,17.5h-1.3L151,85h2.5l-8.4,18.9H142.5z"/>
	<path fill="#FFFFFF" d="M164.6,104.1c-2,0-3.7-0.4-5.2-1.2c-1.5-0.8-2.7-2-3.5-3.4c-0.8-1.5-1.3-3.1-1.3-5c0-1.9,0.4-3.5,1.2-5
		c0.8-1.4,1.9-2.6,3.3-3.4s3-1.2,4.7-1.2c1.8,0,3.4,0.4,4.7,1.2c1.4,0.8,2.5,1.9,3.3,3.4c0.8,1.5,1.2,3.1,1.2,5c0,0.1,0,0.2,0,0.4
		c0,0.1,0,0.3,0,0.4h-16.5v-1.9h15.1l-1,0.8c0-1.4-0.3-2.6-0.9-3.7c-0.6-1.1-1.4-1.9-2.4-2.5c-1-0.6-2.2-0.9-3.5-0.9
		c-1.3,0-2.5,0.3-3.5,0.9c-1,0.6-1.8,1.4-2.4,2.5s-0.9,2.3-0.9,3.7v0.4c0,1.4,0.3,2.7,1,3.8c0.6,1.1,1.5,1.9,2.7,2.6
		c1.1,0.6,2.4,0.9,3.9,0.9c1.2,0,2.2-0.2,3.2-0.6c1-0.4,1.9-1,2.6-1.9l1.4,1.7c-0.8,1-1.9,1.8-3.1,2.3S166.1,104.1,164.6,104.1z"/>
	<path fill="#FFFFFF" d="M21.8,152.9v-26.7h2.6v13.4l-0.4,3.8l0.3,3.8v5.7H21.8z M31.5,153.1c-1.7,0-3.1-0.4-4.5-1.1
		c-1.3-0.8-2.4-1.9-3.1-3.3c-0.8-1.4-1.2-3.2-1.2-5.2c0-2.1,0.4-3.8,1.2-5.2c0.8-1.4,1.8-2.5,3.1-3.3c1.3-0.7,2.8-1.1,4.4-1.1
		c1.8,0,3.4,0.4,4.8,1.2c1.4,0.8,2.5,1.9,3.4,3.4c0.8,1.4,1.2,3.1,1.2,5c0,1.9-0.4,3.6-1.2,5c-0.8,1.5-1.9,2.6-3.4,3.4
		C34.9,152.7,33.3,153.1,31.5,153.1z M31.3,150.8c1.3,0,2.5-0.3,3.6-0.9c1.1-0.6,1.9-1.5,2.5-2.6c0.6-1.1,0.9-2.4,0.9-3.9
		c0-1.5-0.3-2.8-0.9-3.9c-0.6-1.1-1.5-2-2.5-2.6c-1.1-0.6-2.3-0.9-3.6-0.9c-1.3,0-2.6,0.3-3.6,0.9c-1.1,0.6-1.9,1.5-2.5,2.6
		c-0.6,1.1-0.9,2.4-0.9,3.9c0,1.5,0.3,2.8,0.9,3.9c0.6,1.1,1.5,2,2.5,2.6C28.8,150.5,30,150.8,31.3,150.8z"/>
	<path fill="#FFFFFF" d="M46.2,152.9V134h2.4v5.1l-0.3-0.9c0.5-1.4,1.4-2.5,2.7-3.3c1.2-0.8,2.8-1.1,4.6-1.1v2.5c-0.1,0-0.2,0-0.3,0
		c-0.1,0-0.2,0-0.3,0c-2,0-3.6,0.6-4.7,1.8c-1.1,1.2-1.7,2.9-1.7,5.2v9.6H46.2z"/>
	<path fill="#FFFFFF" d="M64.2,153.1c-1.4,0-2.6-0.2-3.7-0.7c-1-0.5-1.8-1.1-2.4-1.9c-0.6-0.8-0.8-1.8-0.8-2.9c0-1,0.2-1.9,0.7-2.7
		c0.5-0.8,1.2-1.5,2.3-1.9c1.1-0.5,2.5-0.7,4.3-0.7h6.5v1.9h-6.4c-1.8,0-3.1,0.3-3.8,1c-0.7,0.6-1.1,1.5-1.1,2.4
		c0,1.1,0.4,1.9,1.3,2.6c0.8,0.6,2,1,3.5,1c1.4,0,2.7-0.3,3.7-1c1-0.7,1.8-1.6,2.3-2.9l0.6,1.8c-0.5,1.2-1.3,2.2-2.5,3
		S66,153.1,64.2,153.1z M70.8,152.9v-4.2l-0.1-0.7v-7c0-1.6-0.4-2.8-1.3-3.7c-0.9-0.9-2.2-1.3-4-1.3c-1.2,0-2.4,0.2-3.5,0.6
		c-1.1,0.4-2,0.9-2.8,1.6l-1.2-1.9c1-0.8,2.1-1.4,3.5-1.9c1.3-0.4,2.8-0.7,4.2-0.7c2.4,0,4.3,0.6,5.7,1.8s2,3.1,2,5.5v11.7H70.8z"/>
	<path fill="#FFFFFF" d="M89.8,133.8c1.5,0,2.9,0.3,4.1,0.9c1.2,0.6,2.1,1.5,2.7,2.7c0.7,1.2,1,2.7,1,4.5v11H95v-10.7
		c0-2-0.5-3.5-1.5-4.5c-1-1-2.4-1.5-4.2-1.5c-1.3,0-2.5,0.3-3.5,0.8c-1,0.5-1.8,1.3-2.3,2.3c-0.5,1-0.8,2.3-0.8,3.7v9.9h-2.6V134
		h2.4v5.2l-0.4-1c0.6-1.4,1.6-2.4,2.9-3.2C86.4,134.2,88,133.8,89.8,133.8z"/>
	<path fill="#FFFFFF" d="M112,153.1c-1.8,0-3.4-0.4-4.8-1.2c-1.4-0.8-2.6-1.9-3.4-3.4c-0.8-1.5-1.2-3.1-1.2-5c0-1.9,0.4-3.6,1.2-5
		c0.8-1.4,1.9-2.6,3.4-3.4c1.4-0.8,3-1.2,4.8-1.2c1.7,0,3.1,0.4,4.4,1.1c1.3,0.7,2.4,1.8,3.1,3.3c0.8,1.4,1.2,3.2,1.2,5.2
		c0,2-0.4,3.8-1.2,5.2c-0.8,1.4-1.8,2.5-3.1,3.3S113.7,153.1,112,153.1z M112.2,150.8c1.3,0,2.5-0.3,3.6-0.9
		c1.1-0.6,1.9-1.5,2.5-2.6c0.6-1.1,0.9-2.4,0.9-3.9c0-1.5-0.3-2.8-0.9-3.9c-0.6-1.1-1.5-2-2.5-2.6c-1.1-0.6-2.3-0.9-3.6-0.9
		c-1.3,0-2.5,0.3-3.6,0.9c-1.1,0.6-1.9,1.5-2.5,2.6c-0.6,1.1-0.9,2.4-0.9,3.9c0,1.5,0.3,2.8,0.9,3.9c0.6,1.1,1.5,2,2.5,2.6
		C109.7,150.5,110.9,150.8,112.2,150.8z M119.3,152.9v-5.7l0.3-3.8l-0.4-3.8v-13.4h2.6v26.7H119.3z"/>
	<path fill="#FFFFFF" d="M130.2,129.8c-0.5,0-1-0.2-1.3-0.5c-0.4-0.4-0.5-0.8-0.5-1.3s0.2-0.9,0.5-1.3c0.4-0.3,0.8-0.5,1.3-0.5
		s1,0.2,1.3,0.5s0.5,0.8,0.5,1.3c0,0.5-0.2,1-0.5,1.3C131.2,129.6,130.7,129.8,130.2,129.8z M128.9,152.9V134h2.6v18.9H128.9z"/>
	<path fill="#FFFFFF" d="M148.2,133.8c1.5,0,2.9,0.3,4,0.9c1.2,0.6,2.1,1.5,2.7,2.7c0.7,1.2,1,2.7,1,4.5v11h-2.6v-10.7
		c0-2-0.5-3.5-1.5-4.5c-1-1-2.4-1.5-4.2-1.5c-1.3,0-2.5,0.3-3.5,0.8c-1,0.5-1.8,1.3-2.3,2.3c-0.5,1-0.8,2.3-0.8,3.7v9.9h-2.6V134
		h2.4v5.2l-0.4-1c0.6-1.4,1.6-2.4,2.9-3.2C144.8,134.2,146.4,133.8,148.2,133.8z"/>
	<path fill="#FFFFFF" d="M170.5,152.2c-1.8,0-3.4-0.4-4.9-1.2s-2.6-1.9-3.4-3.3c-0.8-1.4-1.2-3-1.2-4.8c0-1.8,0.4-3.4,1.2-4.8
		c0.8-1.4,2-2.5,3.4-3.2s3.1-1.2,4.9-1.2c1.7,0,3.2,0.3,4.5,1c1.3,0.7,2.4,1.7,3.2,3.1c0.8,1.4,1.2,3,1.2,5s-0.4,3.6-1.2,5
		c-0.8,1.4-1.9,2.4-3.2,3.1C173.7,151.8,172.2,152.2,170.5,152.2z M171,160.1c-1.7,0-3.4-0.3-5-0.8s-2.9-1.2-3.9-2.2l1.3-1.9
		c0.9,0.8,2,1.4,3.3,1.9c1.3,0.5,2.7,0.7,4.2,0.7c2.4,0,4.2-0.6,5.3-1.7c1.1-1.1,1.7-2.8,1.7-5.2v-4.7l0.4-3.2l-0.3-3.2V134h2.4
		v16.6c0,3.3-0.8,5.7-2.4,7.2C176.5,159.3,174.1,160.1,171,160.1z M170.8,149.9c1.4,0,2.6-0.3,3.7-0.9c1.1-0.6,1.9-1.4,2.6-2.4
		s0.9-2.3,0.9-3.6c0-1.4-0.3-2.6-0.9-3.6c-0.6-1-1.5-1.8-2.6-2.4s-2.3-0.9-3.7-0.9c-1.4,0-2.6,0.3-3.7,0.9c-1.1,0.6-1.9,1.4-2.6,2.4
		c-0.6,1-0.9,2.2-0.9,3.6c0,1.4,0.3,2.6,0.9,3.6c0.6,1,1.5,1.9,2.6,2.4C168.2,149.6,169.4,149.9,170.8,149.9z"/>
	<path fill="#FFFFFF" d="M194.1,136.1V134h11.7v2.1H194.1z M203,153.1c-1.8,0-3.1-0.5-4.1-1.4c-1-1-1.4-2.3-1.4-4.1v-17.7h2.6v17.6
		c0,1.1,0.3,2,0.8,2.6c0.6,0.6,1.4,0.9,2.4,0.9c1.1,0,2.1-0.3,2.8-1l0.9,1.8c-0.5,0.5-1.1,0.8-1.8,1
		C204.5,153,203.7,153.1,203,153.1z"/>
	<path fill="#FFFFFF" d="M221.3,133.8c1.5,0,2.9,0.3,4,0.9c1.2,0.6,2.1,1.5,2.7,2.7c0.7,1.2,1,2.7,1,4.5v11h-2.6v-10.7
		c0-2-0.5-3.5-1.5-4.5c-1-1-2.4-1.5-4.2-1.5c-1.3,0-2.5,0.3-3.5,0.8s-1.8,1.3-2.3,2.3c-0.5,1-0.8,2.3-0.8,3.7v9.9h-2.6v-26.7h2.6v13
		l-0.5-1c0.6-1.4,1.6-2.4,2.9-3.2C217.9,134.2,219.4,133.8,221.3,133.8z"/>
	<path fill="#FFFFFF" d="M241.3,153.1c-1.4,0-2.6-0.2-3.7-0.7c-1-0.5-1.8-1.1-2.4-1.9s-0.8-1.8-0.8-2.9c0-1,0.2-1.9,0.7-2.7
		s1.2-1.5,2.3-1.9c1.1-0.5,2.5-0.7,4.3-0.7h6.5v1.9h-6.4c-1.8,0-3.1,0.3-3.8,1c-0.7,0.6-1.1,1.5-1.1,2.4c0,1.1,0.4,1.9,1.3,2.6
		c0.8,0.6,2,1,3.5,1c1.4,0,2.7-0.3,3.7-1c1-0.7,1.8-1.6,2.3-2.9l0.6,1.8c-0.5,1.2-1.3,2.2-2.5,3
		C244.6,152.7,243.1,153.1,241.3,153.1z M247.8,152.9v-4.2l-0.1-0.7v-7c0-1.6-0.5-2.8-1.3-3.7c-0.9-0.9-2.2-1.3-4-1.3
		c-1.2,0-2.4,0.2-3.5,0.6c-1.1,0.4-2,0.9-2.8,1.6l-1.2-1.9c1-0.8,2.1-1.4,3.5-1.9c1.3-0.4,2.8-0.7,4.2-0.7c2.4,0,4.3,0.6,5.7,1.8
		s2,3.1,2,5.5v11.7H247.8z"/>
	<path fill="#FFFFFF" d="M254.2,136.1V134h11.7v2.1H254.2z M263.2,153.1c-1.8,0-3.1-0.5-4.1-1.4c-1-1-1.4-2.3-1.4-4.1v-17.7h2.6
		v17.6c0,1.1,0.3,2,0.8,2.6c0.6,0.6,1.4,0.9,2.4,0.9c1.1,0,2.1-0.3,2.8-1l0.9,1.8c-0.5,0.5-1.1,0.8-1.8,1
		C264.6,153,263.9,153.1,263.2,153.1z"/>
	<path fill="#FFFFFF" d="M21.8,201.9V183h2.4v5.1l-0.3-0.9c0.5-1.4,1.4-2.5,2.7-3.3c1.2-0.8,2.8-1.1,4.6-1.1v2.5c-0.1,0-0.2,0-0.3,0
		c-0.1,0-0.2,0-0.3,0c-2,0-3.6,0.6-4.7,1.8c-1.1,1.2-1.7,2.9-1.7,5.2v9.6H21.8z"/>
	<path fill="#FFFFFF" d="M43.8,202.1c-2,0-3.7-0.4-5.2-1.2c-1.5-0.8-2.7-2-3.5-3.4c-0.8-1.5-1.3-3.1-1.3-5s0.4-3.5,1.2-5
		c0.8-1.4,1.9-2.6,3.3-3.4c1.4-0.8,3-1.2,4.7-1.2c1.8,0,3.4,0.4,4.7,1.2c1.4,0.8,2.5,1.9,3.3,3.4c0.8,1.5,1.2,3.1,1.2,5
		c0,0.1,0,0.2,0,0.4s0,0.3,0,0.4H35.8v-1.9h15.1l-1,0.8c0-1.4-0.3-2.6-0.9-3.7c-0.6-1.1-1.4-1.9-2.4-2.5c-1-0.6-2.2-0.9-3.5-0.9
		c-1.3,0-2.5,0.3-3.5,0.9c-1,0.6-1.8,1.4-2.4,2.5c-0.6,1.1-0.9,2.3-0.9,3.7v0.4c0,1.4,0.3,2.7,1,3.8c0.6,1.1,1.5,1.9,2.7,2.6
		c1.1,0.6,2.4,0.9,3.9,0.9c1.2,0,2.2-0.2,3.2-0.6c1-0.4,1.9-1,2.6-1.9l1.4,1.7c-0.8,1-1.9,1.8-3.1,2.3
		C46.7,201.8,45.3,202.1,43.8,202.1z"/>
	<path fill="#FFFFFF" d="M62.5,202.1c-1.6,0-3-0.2-4.4-0.7c-1.4-0.4-2.5-1-3.3-1.7l1.2-2c0.8,0.6,1.8,1.1,3,1.5
		c1.2,0.4,2.5,0.6,3.8,0.6c1.8,0,3.1-0.3,3.9-0.8c0.8-0.6,1.2-1.3,1.2-2.3c0-0.7-0.2-1.2-0.7-1.6c-0.4-0.4-1-0.7-1.7-0.9
		c-0.7-0.2-1.5-0.4-2.4-0.5c-0.9-0.1-1.8-0.3-2.6-0.5s-1.7-0.5-2.4-0.8c-0.7-0.4-1.3-0.9-1.7-1.5c-0.4-0.6-0.7-1.5-0.7-2.6
		c0-1,0.3-2,0.9-2.8c0.6-0.8,1.4-1.5,2.5-1.9s2.5-0.7,4.1-0.7c1.2,0,2.4,0.2,3.7,0.5c1.2,0.3,2.2,0.8,3,1.3l-1.1,2.1
		c-0.8-0.6-1.7-1-2.7-1.2S64,185,63,185c-1.7,0-3,0.3-3.8,0.9c-0.8,0.6-1.2,1.3-1.2,2.3c0,0.7,0.2,1.3,0.7,1.7c0.4,0.4,1,0.7,1.8,1
		c0.7,0.2,1.5,0.4,2.4,0.6c0.9,0.1,1.8,0.3,2.6,0.5c0.9,0.2,1.7,0.5,2.4,0.8c0.7,0.3,1.3,0.8,1.8,1.5c0.4,0.6,0.7,1.5,0.7,2.5
		c0,1.1-0.3,2.1-0.9,2.9c-0.6,0.8-1.5,1.4-2.7,1.9C65.6,201.8,64.2,202.1,62.5,202.1z"/>
	<path fill="#FFFFFF" d="M82.7,202.1c-1.8,0-3.5-0.4-4.9-1.2c-1.5-0.8-2.6-2-3.4-3.4c-0.8-1.5-1.3-3.1-1.3-5c0-1.9,0.4-3.6,1.3-5
		c0.8-1.4,2-2.6,3.4-3.4c1.4-0.8,3.1-1.2,4.9-1.2c1.9,0,3.5,0.4,5,1.2c1.5,0.8,2.6,1.9,3.4,3.4c0.8,1.4,1.2,3.1,1.2,5
		c0,1.9-0.4,3.5-1.2,5c-0.8,1.5-2,2.6-3.4,3.4C86.2,201.7,84.6,202.1,82.7,202.1z M82.7,199.8c1.4,0,2.6-0.3,3.6-0.9
		s1.9-1.5,2.5-2.6c0.6-1.1,0.9-2.4,0.9-3.9c0-1.5-0.3-2.8-0.9-3.9c-0.6-1.1-1.4-2-2.5-2.6c-1.1-0.6-2.3-0.9-3.6-0.9
		c-1.3,0-2.5,0.3-3.6,0.9c-1.1,0.6-1.9,1.5-2.5,2.6c-0.6,1.1-0.9,2.4-0.9,3.9c0,1.5,0.3,2.8,0.9,3.9c0.6,1.1,1.5,2,2.5,2.6
		C80.2,199.5,81.4,199.8,82.7,199.8z"/>
	<path fill="#FFFFFF" d="M107.3,182.8c1.5,0,2.9,0.3,4.1,0.9c1.2,0.6,2.1,1.5,2.7,2.7c0.7,1.2,1,2.7,1,4.5v11h-2.6v-10.7
		c0-2-0.5-3.5-1.5-4.5c-1-1-2.4-1.5-4.2-1.5c-1.3,0-2.5,0.3-3.5,0.8c-1,0.5-1.8,1.3-2.3,2.3c-0.5,1-0.8,2.3-0.8,3.7v9.9h-2.6V183
		h2.4v5.2l-0.4-1c0.6-1.4,1.6-2.4,2.9-3.2C103.9,183.2,105.4,182.8,107.3,182.8z"/>
	<path fill="#FFFFFF" d="M127.3,202.1c-1.4,0-2.6-0.2-3.7-0.7c-1-0.5-1.8-1.1-2.4-1.9c-0.6-0.8-0.8-1.8-0.8-2.9c0-1,0.2-1.9,0.7-2.7
		c0.5-0.8,1.2-1.5,2.3-1.9c1.1-0.5,2.5-0.7,4.3-0.7h6.5v1.9h-6.4c-1.8,0-3.1,0.3-3.8,1c-0.7,0.6-1.1,1.5-1.1,2.4
		c0,1.1,0.4,1.9,1.3,2.6c0.8,0.6,2,1,3.5,1c1.4,0,2.7-0.3,3.7-1c1-0.7,1.8-1.6,2.3-2.9l0.6,1.8c-0.5,1.2-1.3,2.2-2.5,3
		S129.1,202.1,127.3,202.1z M133.8,201.9v-4.2l-0.1-0.7v-7c0-1.6-0.4-2.8-1.3-3.7c-0.9-0.9-2.2-1.3-4-1.3c-1.2,0-2.4,0.2-3.5,0.6
		c-1.1,0.4-2,0.9-2.8,1.6l-1.2-1.9c1-0.8,2.1-1.4,3.5-1.9c1.3-0.4,2.8-0.7,4.2-0.7c2.4,0,4.3,0.6,5.7,1.8s2,3.1,2,5.5v11.7H133.8z"
		/>
	<path fill="#FFFFFF" d="M140.2,185.1V183h11.7v2.1H140.2z M149.2,202.1c-1.8,0-3.1-0.5-4.1-1.4c-1-1-1.4-2.3-1.4-4.1v-17.7h2.6
		v17.6c0,1.1,0.3,2,0.8,2.6c0.6,0.6,1.4,0.9,2.4,0.9c1.1,0,2.1-0.3,2.8-1l0.9,1.8c-0.5,0.5-1.1,0.8-1.8,1
		C150.6,202,149.9,202.1,149.2,202.1z"/>
	<path fill="#FFFFFF" d="M165.1,202.1c-2,0-3.7-0.4-5.2-1.2c-1.5-0.8-2.7-2-3.5-3.4c-0.8-1.5-1.3-3.1-1.3-5s0.4-3.5,1.2-5
		c0.8-1.4,1.9-2.6,3.3-3.4s3-1.2,4.7-1.2c1.8,0,3.4,0.4,4.7,1.2c1.4,0.8,2.5,1.9,3.3,3.4c0.8,1.5,1.2,3.1,1.2,5c0,0.1,0,0.2,0,0.4
		c0,0.1,0,0.3,0,0.4h-16.5v-1.9h15.1l-1,0.8c0-1.4-0.3-2.6-0.9-3.7c-0.6-1.1-1.4-1.9-2.4-2.5c-1-0.6-2.2-0.9-3.5-0.9
		c-1.3,0-2.5,0.3-3.5,0.9c-1,0.6-1.8,1.4-2.4,2.5s-0.9,2.3-0.9,3.7v0.4c0,1.4,0.3,2.7,1,3.8c0.6,1.1,1.5,1.9,2.7,2.6
		c1.1,0.6,2.4,0.9,3.9,0.9c1.2,0,2.2-0.2,3.2-0.6c1-0.4,1.9-1,2.6-1.9l1.4,1.7c-0.8,1-1.9,1.8-3.1,2.3
		C168,201.8,166.7,202.1,165.1,202.1z"/>
	<path fill="#FFFFFF" d="M183.9,202.1c-1.6,0-3-0.2-4.4-0.7c-1.4-0.4-2.5-1-3.3-1.7l1.2-2c0.8,0.6,1.8,1.1,3,1.5
		c1.2,0.4,2.5,0.6,3.8,0.6c1.8,0,3.1-0.3,3.9-0.8c0.8-0.6,1.2-1.3,1.2-2.3c0-0.7-0.2-1.2-0.7-1.6c-0.4-0.4-1-0.7-1.7-0.9
		c-0.7-0.2-1.5-0.4-2.4-0.5s-1.8-0.3-2.6-0.5s-1.7-0.5-2.4-0.8c-0.7-0.4-1.3-0.9-1.7-1.5c-0.4-0.6-0.7-1.5-0.7-2.6
		c0-1,0.3-2,0.9-2.8c0.6-0.8,1.4-1.5,2.5-1.9s2.5-0.7,4.1-0.7c1.2,0,2.4,0.2,3.7,0.5c1.2,0.3,2.2,0.8,3,1.3l-1.1,2.1
		c-0.8-0.6-1.7-1-2.7-1.2s-1.9-0.4-2.9-0.4c-1.7,0-3,0.3-3.8,0.9c-0.8,0.6-1.2,1.3-1.2,2.3c0,0.7,0.2,1.3,0.7,1.7s1,0.7,1.8,1
		c0.7,0.2,1.5,0.4,2.4,0.6c0.9,0.1,1.8,0.3,2.6,0.5c0.9,0.2,1.7,0.5,2.4,0.8c0.7,0.3,1.3,0.8,1.8,1.5c0.4,0.6,0.7,1.5,0.7,2.5
		c0,1.1-0.3,2.1-0.9,2.9c-0.6,0.8-1.5,1.4-2.7,1.9C187,201.8,185.6,202.1,183.9,202.1z"/>
	<path fill="#FFFFFF" d="M25.6,250.9L18.5,232h2.4l6.5,17.5h-1.1L33,232h2.2l6.6,17.5h-1.1l6.6-17.5h2.3l-7.2,18.9H40l-6.3-16.5h0.8
		L28,250.9H25.6z"/>
	<path fill="#FFFFFF" d="M54.7,227.8c-0.5,0-1-0.2-1.3-0.5c-0.4-0.4-0.5-0.8-0.5-1.3s0.2-0.9,0.5-1.3c0.4-0.3,0.8-0.5,1.3-0.5
		s1,0.2,1.3,0.5s0.5,0.8,0.5,1.3c0,0.5-0.2,1-0.5,1.3C55.7,227.6,55.3,227.8,54.7,227.8z M53.4,250.9V232H56v18.9H53.4z"/>
	<path fill="#FFFFFF" d="M60.1,234.1V232h11.7v2.1H60.1z M69.1,251.1c-1.8,0-3.1-0.5-4.1-1.4c-1-1-1.4-2.3-1.4-4.1v-17.7h2.6v17.6
		c0,1.1,0.3,2,0.8,2.6c0.6,0.6,1.4,0.9,2.4,0.9c1.1,0,2.1-0.3,2.8-1l0.9,1.8c-0.5,0.5-1.1,0.8-1.8,1C70.5,251,69.8,251.1,69.1,251.1
		z"/>
	<path fill="#FFFFFF" d="M87.4,231.8c1.5,0,2.9,0.3,4.1,0.9c1.2,0.6,2.1,1.5,2.7,2.7c0.7,1.2,1,2.7,1,4.5v11h-2.6v-10.7
		c0-2-0.5-3.5-1.5-4.5c-1-1-2.4-1.5-4.2-1.5c-1.3,0-2.5,0.3-3.5,0.8c-1,0.5-1.8,1.3-2.3,2.3c-0.5,1-0.8,2.3-0.8,3.7v9.9h-2.6v-26.7
		h2.6v13l-0.5-1c0.6-1.4,1.6-2.4,2.9-3.2C84,232.2,85.5,231.8,87.4,231.8z"/>
	<path fill="#FFFFFF" d="M111.6,258.1c-0.9,0-1.7-0.1-2.5-0.4c-0.8-0.3-1.5-0.7-2.1-1.3l1.2-1.9c0.5,0.5,1,0.8,1.6,1.1
		c0.6,0.3,1.2,0.4,1.9,0.4c0.8,0,1.6-0.2,2.2-0.7c0.6-0.5,1.2-1.3,1.7-2.5l1.2-2.8l0.3-0.4l7.8-17.5h2.5l-9.5,21.2
		c-0.5,1.2-1.1,2.2-1.7,2.9c-0.6,0.7-1.3,1.2-2.1,1.5C113.4,257.9,112.5,258.1,111.6,258.1z M116.7,251.4l-8.7-19.4h2.7l7.7,17.4
		L116.7,251.4z"/>
	<path fill="#FFFFFF" d="M138.1,251.1c-1.8,0-3.5-0.4-4.9-1.2c-1.5-0.8-2.6-2-3.4-3.4c-0.8-1.5-1.3-3.1-1.3-5c0-1.9,0.4-3.6,1.3-5
		c0.8-1.4,2-2.6,3.4-3.4c1.4-0.8,3.1-1.2,4.9-1.2c1.9,0,3.5,0.4,5,1.2c1.5,0.8,2.6,1.9,3.4,3.4c0.8,1.4,1.2,3.1,1.2,5
		c0,1.9-0.4,3.5-1.2,5c-0.8,1.5-2,2.6-3.4,3.4C141.7,250.7,140,251.1,138.1,251.1z M138.1,248.8c1.4,0,2.6-0.3,3.6-0.9
		s1.9-1.5,2.5-2.6c0.6-1.1,0.9-2.4,0.9-3.9c0-1.5-0.3-2.8-0.9-3.9c-0.6-1.1-1.4-2-2.5-2.6c-1.1-0.6-2.3-0.9-3.6-0.9
		c-1.3,0-2.5,0.3-3.6,0.9c-1.1,0.6-1.9,1.5-2.5,2.6c-0.6,1.1-0.9,2.4-0.9,3.9c0,1.5,0.3,2.8,0.9,3.9c0.6,1.1,1.5,2,2.5,2.6
		C135.6,248.5,136.8,248.8,138.1,248.8z"/>
	<path fill="#FFFFFF" d="M160.8,251.1c-1.6,0-3-0.3-4.2-0.9s-2.1-1.5-2.8-2.7s-1-2.7-1-4.5v-11h2.6v10.7c0,2,0.5,3.5,1.5,4.6
		c1,1,2.4,1.5,4.2,1.5c1.3,0,2.5-0.3,3.4-0.8s1.7-1.3,2.2-2.4c0.5-1,0.8-2.3,0.8-3.7V232h2.6v18.9h-2.4v-5.2l0.4,0.9
		c-0.6,1.4-1.5,2.5-2.8,3.3C164,250.7,162.5,251.1,160.8,251.1z"/>
	<path fill="#FFFFFF" d="M177.2,250.9V232h2.4v5.1l-0.3-0.9c0.5-1.4,1.4-2.5,2.7-3.3c1.2-0.8,2.8-1.1,4.6-1.1v2.5
		c-0.1,0-0.2,0-0.3,0c-0.1,0-0.2,0-0.3,0c-2,0-3.6,0.6-4.7,1.8c-1.1,1.2-1.7,2.9-1.7,5.2v9.6H177.2z"/>
	<path fill="#FFFFFF" d="M27.1,300.1c-1.4,0-2.6-0.2-3.7-0.7c-1-0.5-1.8-1.1-2.4-1.9c-0.6-0.8-0.8-1.8-0.8-2.9c0-1,0.2-1.9,0.7-2.7
		c0.5-0.8,1.2-1.5,2.3-1.9c1.1-0.5,2.5-0.7,4.3-0.7H34v1.9h-6.4c-1.8,0-3.1,0.3-3.8,1c-0.7,0.6-1.1,1.5-1.1,2.4
		c0,1.1,0.4,1.9,1.3,2.6c0.8,0.6,2,1,3.5,1c1.4,0,2.7-0.3,3.7-1c1-0.7,1.8-1.6,2.3-2.9l0.6,1.8c-0.5,1.2-1.3,2.2-2.5,3
		S28.9,300.1,27.1,300.1z M33.6,299.9v-4.2l-0.1-0.7v-7c0-1.6-0.4-2.8-1.3-3.7c-0.9-0.9-2.2-1.3-4-1.3c-1.2,0-2.4,0.2-3.5,0.6
		c-1.1,0.4-2,0.9-2.8,1.6l-1.2-1.9c1-0.8,2.1-1.4,3.5-1.9c1.3-0.4,2.8-0.7,4.2-0.7c2.4,0,4.3,0.6,5.7,1.8s2,3.1,2,5.5v11.7H33.6z"/>
	<path fill="#FFFFFF" d="M50.8,300.1c-1.6,0-3-0.3-4.2-0.9c-1.2-0.6-2.1-1.5-2.8-2.7c-0.7-1.2-1-2.7-1-4.5v-11h2.6v10.7
		c0,2,0.5,3.5,1.5,4.6c1,1,2.4,1.5,4.2,1.5c1.3,0,2.5-0.3,3.4-0.8c1-0.5,1.7-1.3,2.2-2.4c0.5-1,0.8-2.3,0.8-3.7V281h2.6v18.9h-2.4
		v-5.2l0.4,0.9c-0.6,1.4-1.5,2.5-2.8,3.3C54,299.7,52.5,300.1,50.8,300.1z"/>
	<path fill="#FFFFFF" d="M74.7,300.1c-1.8,0-3.4-0.4-4.8-1.2c-1.4-0.8-2.6-1.9-3.4-3.4c-0.8-1.5-1.2-3.1-1.2-5c0-1.9,0.4-3.6,1.2-5
		c0.8-1.4,1.9-2.6,3.4-3.4c1.4-0.8,3-1.2,4.8-1.2c1.7,0,3.1,0.4,4.4,1.1c1.3,0.7,2.4,1.8,3.1,3.3c0.8,1.4,1.2,3.2,1.2,5.2
		c0,2-0.4,3.8-1.2,5.2c-0.8,1.4-1.8,2.5-3.1,3.3S76.4,300.1,74.7,300.1z M74.9,297.8c1.3,0,2.5-0.3,3.6-0.9c1.1-0.6,1.9-1.5,2.5-2.6
		c0.6-1.1,0.9-2.4,0.9-3.9c0-1.5-0.3-2.8-0.9-3.9c-0.6-1.1-1.5-2-2.5-2.6c-1.1-0.6-2.3-0.9-3.6-0.9c-1.3,0-2.5,0.3-3.6,0.9
		c-1.1,0.6-1.9,1.5-2.5,2.6c-0.6,1.1-0.9,2.4-0.9,3.9c0,1.5,0.3,2.8,0.9,3.9c0.6,1.1,1.5,2,2.5,2.6
		C72.4,297.5,73.6,297.8,74.9,297.8z M82,299.9v-5.7l0.3-3.8l-0.4-3.8v-13.4h2.6v26.7H82z"/>
	<path fill="#FFFFFF" d="M92.9,276.8c-0.5,0-1-0.2-1.3-0.5c-0.4-0.4-0.5-0.8-0.5-1.3s0.2-0.9,0.5-1.3c0.4-0.3,0.8-0.5,1.3-0.5
		s1,0.2,1.3,0.5s0.5,0.8,0.5,1.3c0,0.5-0.2,1-0.5,1.3C93.9,276.6,93.4,276.8,92.9,276.8z M91.6,299.9V281h2.6v18.9H91.6z"/>
	<path fill="#FFFFFF" d="M109.3,300.1c-2,0-3.7-0.4-5.2-1.2c-1.5-0.8-2.7-2-3.5-3.4c-0.8-1.5-1.3-3.1-1.3-5s0.4-3.5,1.2-5
		c0.8-1.4,1.9-2.6,3.3-3.4c1.4-0.8,3-1.2,4.7-1.2c1.8,0,3.4,0.4,4.7,1.2c1.4,0.8,2.5,1.9,3.3,3.4c0.8,1.5,1.2,3.1,1.2,5
		c0,0.1,0,0.2,0,0.4s0,0.3,0,0.4h-16.5v-1.9h15.1l-1,0.8c0-1.4-0.3-2.6-0.9-3.7c-0.6-1.1-1.4-1.9-2.4-2.5c-1-0.6-2.2-0.9-3.5-0.9
		c-1.3,0-2.5,0.3-3.5,0.9c-1,0.6-1.8,1.4-2.4,2.5c-0.6,1.1-0.9,2.3-0.9,3.7v0.4c0,1.4,0.3,2.7,1,3.8c0.6,1.1,1.5,1.9,2.7,2.6
		c1.1,0.6,2.4,0.9,3.9,0.9c1.2,0,2.2-0.2,3.2-0.6c1-0.4,1.9-1,2.6-1.9l1.4,1.7c-0.8,1-1.9,1.8-3.1,2.3
		C112.2,299.8,110.8,300.1,109.3,300.1z"/>
	<path fill="#FFFFFF" d="M132.7,280.8c1.5,0,2.9,0.3,4.1,0.9c1.2,0.6,2.1,1.5,2.7,2.7c0.7,1.2,1,2.7,1,4.5v11h-2.6v-10.7
		c0-2-0.5-3.5-1.5-4.5c-1-1-2.4-1.5-4.2-1.5c-1.3,0-2.5,0.3-3.5,0.8c-1,0.5-1.8,1.3-2.3,2.3c-0.5,1-0.8,2.3-0.8,3.7v9.9H123V281h2.4
		v5.2l-0.4-1c0.6-1.4,1.6-2.4,2.9-3.2C129.3,281.2,130.9,280.8,132.7,280.8z"/>
	<path fill="#FFFFFF" d="M155.2,300.1c-1.9,0-3.5-0.4-5-1.2c-1.5-0.8-2.6-2-3.5-3.4c-0.8-1.5-1.3-3.1-1.3-5c0-1.9,0.4-3.6,1.3-5
		c0.8-1.4,2-2.6,3.5-3.4c1.5-0.8,3.2-1.2,5-1.2c1.6,0,3.1,0.3,4.4,0.9s2.3,1.6,3.1,2.8l-1.9,1.3c-0.6-1-1.5-1.7-2.4-2.1
		c-1-0.5-2-0.7-3.1-0.7c-1.3,0-2.6,0.3-3.6,0.9c-1.1,0.6-1.9,1.5-2.6,2.6c-0.6,1.1-0.9,2.4-0.9,3.9s0.3,2.8,0.9,3.9
		c0.6,1.1,1.5,2,2.6,2.6c1.1,0.6,2.3,0.9,3.6,0.9c1.1,0,2.2-0.2,3.1-0.7c1-0.5,1.8-1.2,2.4-2.1l1.9,1.3c-0.7,1.2-1.8,2.2-3.1,2.8
		C158.3,299.8,156.8,300.1,155.2,300.1z"/>
	<path fill="#FFFFFF" d="M175.3,300.1c-2,0-3.7-0.4-5.2-1.2c-1.5-0.8-2.7-2-3.5-3.4c-0.8-1.5-1.3-3.1-1.3-5s0.4-3.5,1.2-5
		c0.8-1.4,1.9-2.6,3.3-3.4c1.4-0.8,3-1.2,4.7-1.2c1.8,0,3.4,0.4,4.7,1.2c1.4,0.8,2.5,1.9,3.3,3.4c0.8,1.5,1.2,3.1,1.2,5
		c0,0.1,0,0.2,0,0.4c0,0.1,0,0.3,0,0.4h-16.5v-1.9h15.1l-1,0.8c0-1.4-0.3-2.6-0.9-3.7c-0.6-1.1-1.4-1.9-2.4-2.5
		c-1-0.6-2.2-0.9-3.5-0.9c-1.3,0-2.5,0.3-3.5,0.9c-1,0.6-1.8,1.4-2.4,2.5c-0.6,1.1-0.9,2.3-0.9,3.7v0.4c0,1.4,0.3,2.7,1,3.8
		c0.6,1.1,1.5,1.9,2.7,2.6s2.4,0.9,3.9,0.9c1.2,0,2.2-0.2,3.2-0.6c1-0.4,1.9-1,2.6-1.9l1.4,1.7c-0.8,1-1.9,1.8-3.2,2.3
		C178.2,299.8,176.8,300.1,175.3,300.1z"/>
</g>
</svg>
