<?xml version="1.0" encoding="utf-8"?>
<!-- Generator: Adobe Illustrator 18.1.1, SVG Export Plug-In . SVG Version: 6.00 Build 0)  -->
<svg version="1.1" id="Layer_1" xmlns="http://www.w3.org/2000/svg" xmlns:xlink="http://www.w3.org/1999/xlink" x="0px" y="0px"
	 width="100px" height="100px" viewBox="0 0 100 100" enable-background="new 0 0 100 100" xml:space="preserve">
<rect x="7.4405" width="85.119" height="100"/>
<g enable-background="new    ">
	<path fill="#FFFFFF" d="M19.791,26.1914l-2.832-8.3999h0.9121l2.6519,7.9077h-0.4561l2.7363-7.9077h0.8159l2.7002,7.9077h-0.4321
		l2.6758-7.9077h0.8521l-2.832,8.3999h-0.936l-2.5801-7.5h0.2402l-2.5918,7.5H19.791z"/>
	<path fill="#FFFFFF" d="M32.1509,26.2515c-0.4722,0-0.8818-0.0781-1.23-0.2339c-0.3477-0.1563-0.6138-0.3721-0.7979-0.6479
		c-0.1841-0.2764-0.2759-0.5942-0.2759-0.9541c0-0.3281,0.0776-0.626,0.2339-0.894c0.1558-0.2681,0.4121-0.4839,0.7681-0.6479
		s0.834-0.2461,1.4341-0.2461h2.1719v0.6357h-2.1479c-0.6084,0-1.0303,0.1084-1.2661,0.3242s-0.354,0.4839-0.354,0.8042
		c0,0.3599,0.1396,0.6479,0.4199,0.8638c0.2798,0.2158,0.6719,0.3242,1.1763,0.3242c0.48,0,0.894-0.1099,1.2417-0.3301
		c0.3481-0.2202,0.6021-0.5381,0.7622-0.9541l0.1919,0.5879c-0.1602,0.416-0.438,0.748-0.834,0.9961S32.751,26.2515,32.1509,26.2515
		z M34.3232,26.1914v-1.3921l-0.0361-0.228v-2.3281c0-0.5356-0.1499-0.9478-0.4502-1.2358
		c-0.2998-0.2881-0.7461-0.4321-1.3379-0.4321c-0.4082,0-0.7959,0.0684-1.1641,0.2041c-0.3682,0.1362-0.6802,0.3164-0.936,0.54
		l-0.3838-0.6357c0.3198-0.272,0.7036-0.4819,1.1519-0.6304c0.4478-0.1479,0.9199-0.2217,1.416-0.2217
		c0.8159,0,1.4458,0.2021,1.8901,0.606c0.4438,0.4038,0.666,1.0181,0.666,1.8418v3.9121H34.3232z"/>
	<path fill="#FFFFFF" d="M40.6709,19.8315c0.5122,0,0.9619,0.0981,1.3501,0.2939s0.6919,0.4941,0.9121,0.894
		c0.2197,0.3999,0.3301,0.9038,0.3301,1.5117v3.6602h-0.8521v-3.5762c0-0.6636-0.166-1.1655-0.498-1.5059
		c-0.332-0.3398-0.7979-0.5098-1.3979-0.5098c-0.4482,0-0.8384,0.0898-1.1699,0.27c-0.332,0.1797-0.5879,0.4399-0.7681,0.7798
		c-0.1802,0.3403-0.27,0.75-0.27,1.23v3.312h-0.8521v-6.2998h0.8159v1.728l-0.1318-0.3242c0.1997-0.4561,0.52-0.814,0.96-1.0742
		C39.5391,19.9614,40.063,19.8315,40.6709,19.8315z"/>
	<path fill="#FFFFFF" d="M44.583,20.5996v-0.708h3.8999v0.708H44.583z M47.5591,26.2515c-0.5923,0-1.0483-0.1602-1.3682-0.48
		c-0.3203-0.3198-0.48-0.772-0.48-1.356v-5.916h0.8521v5.8677c0,0.3682,0.0938,0.6523,0.2817,0.8521
		c0.188,0.2002,0.458,0.3003,0.8101,0.3003c0.376,0,0.688-0.1079,0.936-0.3242l0.3003,0.6123
		c-0.168,0.1519-0.3701,0.2637-0.6064,0.3359C48.0488,26.2153,47.8066,26.2515,47.5591,26.2515z"/>
	<path fill="#FFFFFF" d="M52.5996,20.5996v-0.708h3.8994v0.708H52.5996z M55.5752,26.2515c-0.5918,0-1.0479-0.1602-1.3682-0.48
		s-0.4795-0.772-0.4795-1.356v-5.916h0.8516v5.8677c0,0.3682,0.0938,0.6523,0.2822,0.8521c0.1875,0.2002,0.458,0.3003,0.8096,0.3003
		c0.376,0,0.6885-0.1079,0.9365-0.3242l0.2998,0.6123c-0.168,0.1519-0.3701,0.2637-0.6064,0.3359
		C56.0654,26.2153,55.8232,26.2515,55.5752,26.2515z"/>
	<path fill="#FFFFFF" d="M60.7949,26.2515c-0.6084,0-1.1543-0.1382-1.6377-0.4141c-0.4844-0.2759-0.8662-0.6558-1.1465-1.1401
		c-0.2803-0.4839-0.4199-1.0381-0.4199-1.6616c0-0.6323,0.1396-1.1885,0.4199-1.6685s0.6602-0.856,1.1396-1.1279
		c0.4805-0.2715,1.0283-0.4077,1.6445-0.4077c0.624,0,1.1777,0.1362,1.6621,0.4077c0.4834,0.272,0.8643,0.6479,1.1396,1.1279
		c0.2764,0.48,0.4141,1.0361,0.4141,1.6685c0,0.6235-0.1377,1.1777-0.4141,1.6616c-0.2754,0.4844-0.6582,0.8643-1.1455,1.1401
		C61.9629,26.1133,61.4111,26.2515,60.7949,26.2515z M60.7949,25.4956c0.4561,0,0.8594-0.1021,1.2119-0.3062
		c0.3516-0.2041,0.6299-0.4922,0.834-0.8643c0.2041-0.3716,0.3057-0.8018,0.3057-1.2896c0-0.4961-0.1016-0.9282-0.3057-1.2964
		c-0.2041-0.3677-0.4824-0.6538-0.834-0.8579c-0.3525-0.2041-0.752-0.3062-1.2002-0.3062s-0.8477,0.1021-1.2002,0.3062
		c-0.3516,0.2041-0.6318,0.4902-0.8398,0.8579c-0.208,0.3682-0.3115,0.8003-0.3115,1.2964c0,0.4878,0.1035,0.918,0.3115,1.2896
		c0.208,0.3721,0.4883,0.6602,0.8398,0.8643C59.959,25.3936,60.3545,25.4956,60.7949,25.4956z"/>
</g>
<g enable-background="new    ">
	<path fill="#FFFFFF" d="M19.395,40.8345c-0.52,0-1.0122-0.0737-1.4761-0.2222c-0.4639-0.1479-0.8276-0.334-1.0918-0.5581
		l0.3838-0.6719c0.2563,0.1919,0.584,0.3584,0.9844,0.498c0.3999,0.1401,0.8198,0.21,1.2598,0.21
		c0.6001,0,1.0322-0.0938,1.2959-0.2817c0.2642-0.188,0.396-0.438,0.396-0.75c0-0.2319-0.0737-0.4141-0.2217-0.5464
		c-0.1484-0.1318-0.3423-0.2319-0.582-0.2998c-0.2402-0.0679-0.5083-0.126-0.8042-0.1738c-0.2959-0.0483-0.5898-0.104-0.8818-0.168
		s-0.5581-0.1582-0.7979-0.2822c-0.2402-0.124-0.4341-0.2939-0.582-0.5098c-0.1484-0.2163-0.2222-0.5044-0.2222-0.8643
		c0-0.3438,0.0962-0.6519,0.2881-0.9238s0.4736-0.4863,0.8457-0.6421c0.3721-0.1563,0.8262-0.2339,1.3623-0.2339
		c0.4077,0,0.8159,0.0537,1.2236,0.1616c0.4082,0.1084,0.7441,0.2505,1.0083,0.4263l-0.3721,0.6841
		c-0.2803-0.1919-0.5801-0.3301-0.8999-0.4141c-0.3203-0.084-0.6401-0.126-0.96-0.126c-0.5684,0-0.9863,0.0981-1.2539,0.2939
		c-0.2686,0.1963-0.4023,0.4463-0.4023,0.75c0,0.2397,0.0742,0.4282,0.2222,0.564c0.1479,0.1362,0.3438,0.2422,0.5879,0.3179
		c0.2441,0.0762,0.5117,0.1382,0.8042,0.186c0.292,0.0483,0.5835,0.1064,0.876,0.1743c0.292,0.0679,0.5596,0.1602,0.8037,0.2759
		c0.2441,0.1162,0.4399,0.2803,0.5884,0.4917c0.1479,0.2124,0.2217,0.4902,0.2217,0.834c0,0.3682-0.1021,0.6865-0.3057,0.9541
		c-0.2041,0.2681-0.5005,0.4761-0.8882,0.624C20.417,40.7607,19.9473,40.8345,19.395,40.8345z"/>
	<path fill="#FFFFFF" d="M22.5752,35.1826v-0.708h3.8999v0.708H22.5752z M25.5513,40.8345c-0.5923,0-1.0483-0.1602-1.3682-0.48
		c-0.3203-0.3198-0.48-0.772-0.48-1.356v-5.916h0.8521v5.8677c0,0.3682,0.0938,0.6523,0.2817,0.8521
		c0.188,0.2002,0.458,0.3003,0.8101,0.3003c0.376,0,0.688-0.1079,0.936-0.3242l0.3003,0.6123
		c-0.168,0.1519-0.3701,0.2637-0.6064,0.3359C26.041,40.7983,25.7988,40.8345,25.5513,40.8345z"/>
	<path fill="#FFFFFF" d="M30.207,40.8345c-0.4722,0-0.8818-0.0781-1.23-0.2339c-0.3477-0.1563-0.6138-0.3721-0.7979-0.6479
		c-0.1841-0.2764-0.2759-0.5942-0.2759-0.9541c0-0.3281,0.0776-0.626,0.2339-0.894c0.1558-0.2681,0.4121-0.4839,0.7681-0.6479
		s0.834-0.2461,1.4341-0.2461h2.1719v0.6357h-2.1479c-0.6084,0-1.0303,0.1084-1.2661,0.3242s-0.354,0.4839-0.354,0.8042
		c0,0.3599,0.1396,0.6479,0.4199,0.8638c0.2798,0.2158,0.6719,0.3242,1.1763,0.3242c0.48,0,0.894-0.1099,1.2417-0.3301
		c0.3481-0.2202,0.6021-0.5381,0.7622-0.9541l0.1919,0.5879c-0.1602,0.416-0.438,0.748-0.834,0.9961S30.8071,40.8345,30.207,40.8345
		z M32.3794,40.7744v-1.3921l-0.0361-0.228v-2.3281c0-0.5356-0.1499-0.9478-0.4502-1.2358
		c-0.2998-0.2881-0.7461-0.4321-1.3379-0.4321c-0.4082,0-0.7959,0.0684-1.1641,0.2041c-0.3682,0.1362-0.6802,0.3164-0.936,0.54
		l-0.3838-0.6357c0.3198-0.272,0.7036-0.4819,1.1519-0.6304c0.4478-0.1479,0.9199-0.2217,1.416-0.2217
		c0.8159,0,1.4458,0.2021,1.8901,0.606c0.4438,0.4038,0.666,1.0181,0.666,1.8418v3.9121H32.3794z"/>
	<path fill="#FFFFFF" d="M38.7266,34.4146c0.5122,0,0.9619,0.0981,1.3501,0.2939s0.6919,0.4941,0.9121,0.894
		c0.2197,0.3999,0.3301,0.9038,0.3301,1.5117v3.6602h-0.8521v-3.5762c0-0.6636-0.166-1.1655-0.498-1.5059
		c-0.332-0.3398-0.7979-0.5098-1.3979-0.5098c-0.4482,0-0.8384,0.0898-1.1699,0.27c-0.332,0.1797-0.5879,0.4399-0.7681,0.7798
		c-0.1802,0.3403-0.27,0.75-0.27,1.23v3.312h-0.8521v-6.2998h0.8159v1.728l-0.1318-0.3242c0.1997-0.4561,0.52-0.814,0.96-1.0742
		C37.5947,34.5444,38.1187,34.4146,38.7266,34.4146z"/>
	<path fill="#FFFFFF" d="M46.1304,40.8345c-0.5996,0-1.1377-0.1362-1.6138-0.4082s-0.8501-0.6499-1.1221-1.1338
		s-0.4082-1.042-0.4082-1.6738c0-0.6401,0.1362-1.2002,0.4082-1.6802s0.646-0.854,1.1221-1.1221s1.0142-0.4019,1.6138-0.4019
		c0.5522,0,1.0459,0.124,1.4824,0.3721c0.4355,0.248,0.7837,0.6099,1.0439,1.0859c0.2598,0.4761,0.3896,1.0581,0.3896,1.7461
		c0,0.6797-0.1279,1.2598-0.3838,1.7397c-0.2563,0.48-0.6021,0.8462-1.0381,1.0981S46.6904,40.8345,46.1304,40.8345z
		 M46.1904,40.0786c0.4482,0,0.8501-0.1021,1.2061-0.3062s0.6362-0.4922,0.8398-0.8643c0.2041-0.3716,0.3062-0.8018,0.3062-1.2896
		c0-0.4961-0.1021-0.9282-0.3062-1.2964c-0.2036-0.3677-0.4839-0.6538-0.8398-0.8579s-0.7578-0.3062-1.2061-0.3062
		c-0.4399,0-0.8359,0.1021-1.188,0.3062s-0.6318,0.4902-0.8398,0.8579c-0.208,0.3682-0.312,0.8003-0.312,1.2964
		c0,0.4878,0.104,0.918,0.312,1.2896c0.208,0.3721,0.4878,0.6602,0.8398,0.8643S45.7505,40.0786,46.1904,40.0786z M48.5664,40.7744
		v-1.896l0.084-1.272l-0.1196-1.272v-4.4639h0.8521v8.9038H48.5664z"/>
	<path fill="#FFFFFF" d="M57.4707,40.8345c-0.6074,0-1.1533-0.1382-1.6377-0.4141s-0.8662-0.6558-1.1455-1.1401
		c-0.2803-0.4839-0.4209-1.0381-0.4209-1.6616c0-0.6323,0.1406-1.1885,0.4209-1.6685c0.2793-0.48,0.6592-0.856,1.1396-1.1279
		c0.4795-0.2715,1.0273-0.4077,1.6436-0.4077c0.624,0,1.1787,0.1362,1.6621,0.4077c0.4844,0.272,0.8643,0.6479,1.1406,1.1279
		c0.2754,0.48,0.4141,1.0361,0.4141,1.6685c0,0.6235-0.1387,1.1777-0.4141,1.6616c-0.2764,0.4844-0.6582,0.8643-1.1465,1.1401
		S58.0869,40.8345,57.4707,40.8345z M57.4707,40.0786c0.4561,0,0.8604-0.1021,1.2119-0.3062
		c0.3525-0.2041,0.6309-0.4922,0.834-0.8643c0.2041-0.3716,0.3066-0.8018,0.3066-1.2896c0-0.4961-0.1025-0.9282-0.3066-1.2964
		c-0.2031-0.3677-0.4814-0.6538-0.834-0.8579c-0.3516-0.2041-0.752-0.3062-1.1992-0.3062c-0.4482,0-0.8486,0.1021-1.2002,0.3062
		c-0.3525,0.2041-0.6318,0.4902-0.8398,0.8579c-0.208,0.3682-0.3125,0.8003-0.3125,1.2964c0,0.4878,0.1045,0.918,0.3125,1.2896
		c0.208,0.3721,0.4873,0.6602,0.8398,0.8643C56.6348,39.9766,57.0313,40.0786,57.4707,40.0786z"/>
	<path fill="#FFFFFF" d="M65.0313,40.8345c-0.5361,0-1.0039-0.1001-1.4043-0.3003c-0.4004-0.1997-0.71-0.4995-0.9297-0.8999
		c-0.2207-0.3999-0.3301-0.8999-0.3301-1.5v-3.6597h0.8516v3.564c0,0.6719,0.166,1.1777,0.498,1.5181
		c0.332,0.3398,0.7979,0.5098,1.3984,0.5098c0.4395,0,0.8223-0.0898,1.1455-0.27c0.3242-0.1802,0.5723-0.4419,0.7441-0.7861
		c0.1719-0.3438,0.2578-0.7559,0.2578-1.2358v-3.2998h0.8525v6.2998h-0.8164v-1.728l0.1318,0.312
		c-0.2002,0.4639-0.5098,0.8262-0.9297,1.0859C66.0811,40.7046,65.5908,40.8345,65.0313,40.8345z"/>
	<path fill="#FFFFFF" d="M69.5068,35.1826v-0.708h3.9004v0.708H69.5068z M72.4834,40.8345c-0.5928,0-1.0488-0.1602-1.3682-0.48
		c-0.3203-0.3198-0.4805-0.772-0.4805-1.356v-5.916h0.8525v5.8677c0,0.3682,0.0938,0.6523,0.2813,0.8521
		c0.1885,0.2002,0.458,0.3003,0.8105,0.3003c0.376,0,0.6875-0.1079,0.9355-0.3242l0.3008,0.6123
		c-0.168,0.1519-0.3701,0.2637-0.6064,0.3359C72.9727,40.7983,72.7305,40.8345,72.4834,40.8345z"/>
</g>
<g enable-background="new    ">
	<path fill="#FFFFFF" d="M18.1353,47.6655c-0.1763,0-0.3242-0.0601-0.4443-0.1802c-0.1196-0.1201-0.1797-0.2642-0.1797-0.4321
		s0.0601-0.3096,0.1797-0.4258c0.1201-0.1157,0.2681-0.1738,0.4443-0.1738c0.1758,0,0.3237,0.0557,0.4438,0.168
		c0.1201,0.1118,0.1802,0.252,0.1802,0.4199c0,0.1758-0.0581,0.3237-0.1743,0.4438C18.4692,47.6055,18.3188,47.6655,18.1353,47.6655
		z M17.7031,55.3574v-6.2998h0.8521v6.2998H17.7031z"/>
	<path fill="#FFFFFF" d="M24.147,48.9976c0.5122,0,0.9619,0.0981,1.3501,0.2939s0.6919,0.4941,0.9121,0.894
		c0.2197,0.4004,0.3301,0.9043,0.3301,1.5117v3.6602h-0.8521v-3.5762c0-0.6641-0.166-1.166-0.498-1.5059
		s-0.7979-0.5098-1.3979-0.5098c-0.4482,0-0.8384,0.0898-1.1699,0.2705c-0.332,0.1797-0.5879,0.4395-0.7681,0.7793
		c-0.1802,0.3408-0.27,0.75-0.27,1.2305v3.3115h-0.8521v-6.2998h0.8159v1.7275l-0.1318-0.3242
		c0.1997-0.4551,0.52-0.8135,0.96-1.0737C23.0151,49.1274,23.5391,48.9976,24.147,48.9976z"/>
	<path fill="#FFFFFF" d="M33.9629,55.417c-0.4722,0-0.8818-0.0771-1.23-0.2334c-0.3477-0.1563-0.6138-0.3721-0.7979-0.6484
		c-0.1841-0.2754-0.2759-0.5938-0.2759-0.9541c0-0.3271,0.0776-0.626,0.2339-0.8936c0.1558-0.2676,0.4121-0.4844,0.7681-0.6484
		c0.356-0.1631,0.834-0.2461,1.4341-0.2461h2.1719v0.6367h-2.1479c-0.6084,0-1.0303,0.1074-1.2661,0.3242
		c-0.2358,0.2158-0.354,0.4834-0.354,0.8037c0,0.3594,0.1396,0.6475,0.4199,0.8643c0.2798,0.2158,0.6719,0.3232,1.1763,0.3232
		c0.48,0,0.894-0.1094,1.2417-0.3301c0.3481-0.2197,0.6021-0.5371,0.7622-0.9541l0.1919,0.5889
		c-0.1602,0.416-0.438,0.748-0.834,0.9961S34.563,55.417,33.9629,55.417z M36.1353,55.3574v-1.3916l-0.0361-0.2285v-2.3281
		c0-0.5361-0.1499-0.9482-0.4502-1.2354c-0.2998-0.2886-0.7461-0.4326-1.3379-0.4326c-0.4082,0-0.7959,0.0684-1.1641,0.2041
		c-0.3682,0.1367-0.6802,0.3164-0.936,0.54l-0.3838-0.6357c0.3198-0.272,0.7036-0.4819,1.1519-0.6304
		c0.4478-0.1479,0.9199-0.2217,1.416-0.2217c0.8159,0,1.4458,0.2021,1.8901,0.606c0.4438,0.4043,0.666,1.0176,0.666,1.8418v3.9121
		H36.1353z"/>
</g>
<g enable-background="new    ">
	<path fill="#FFFFFF" d="M20.3193,70.001c-0.624,0-1.1821-0.1377-1.6743-0.4131c-0.4917-0.2764-0.8779-0.6563-1.1577-1.1406
		c-0.2803-0.4834-0.4204-1.0381-0.4204-1.6621c0-0.6318,0.1401-1.1875,0.4204-1.668c0.2798-0.4795,0.666-0.8555,1.1577-1.1279
		c0.4922-0.2715,1.0503-0.4082,1.6743-0.4082c0.5356,0,1.02,0.1045,1.4517,0.3125c0.4321,0.208,0.772,0.5195,1.02,0.9355
		l-0.6357,0.4326c-0.2163-0.3203-0.4844-0.5566-0.8042-0.708c-0.3198-0.1523-0.668-0.2285-1.0439-0.2285
		c-0.4482,0-0.8521,0.1025-1.2119,0.3066c-0.3599,0.2031-0.644,0.4893-0.8521,0.8574s-0.312,0.7998-0.312,1.2959
		s0.104,0.9287,0.312,1.2959c0.208,0.3682,0.4922,0.6543,0.8521,0.8584s0.7637,0.3057,1.2119,0.3057
		c0.376,0,0.7241-0.0752,1.0439-0.2275s0.5879-0.3838,0.8042-0.6963l0.6357,0.4316c-0.248,0.4082-0.5879,0.7188-1.02,0.9307
		C21.3394,69.8955,20.855,70.001,20.3193,70.001z"/>
	<path fill="#FFFFFF" d="M24.459,69.9414v-6.2998h0.8159v1.7158l-0.084-0.2998c0.1758-0.4805,0.4722-0.8467,0.8882-1.0986
		c0.4155-0.252,0.9316-0.3779,1.5479-0.3779v0.8281c-0.0322,0-0.064-0.002-0.0962-0.0059c-0.0317-0.0039-0.064-0.0059-0.0957-0.0059
		c-0.6641,0-1.1841,0.2021-1.5601,0.6055c-0.376,0.4043-0.564,0.9785-0.564,1.7227v3.2158H24.459z"/>
	<path fill="#FFFFFF" d="M31.6826,70.001c-0.6079,0-1.1538-0.1377-1.6377-0.4131c-0.4844-0.2764-0.8662-0.6563-1.146-1.1406
		c-0.2803-0.4834-0.4204-1.0381-0.4204-1.6621c0-0.6318,0.1401-1.1875,0.4204-1.668c0.2798-0.4795,0.6597-0.8555,1.1396-1.1279
		c0.48-0.2715,1.0278-0.4082,1.644-0.4082c0.624,0,1.1782,0.1367,1.6621,0.4082c0.4839,0.2725,0.8643,0.6484,1.1401,1.1279
		c0.2759,0.4805,0.4141,1.0361,0.4141,1.668c0,0.624-0.1382,1.1787-0.4141,1.6621c-0.2759,0.4844-0.6582,0.8643-1.146,1.1406
		C32.8506,69.8633,32.2988,70.001,31.6826,70.001z M31.6826,69.2451c0.4561,0,0.8599-0.1016,1.2119-0.3057
		s0.6304-0.4922,0.834-0.8643c0.2041-0.3721,0.3062-0.8018,0.3062-1.29c0-0.4961-0.1021-0.9277-0.3062-1.2959
		c-0.2036-0.3682-0.4819-0.6543-0.834-0.8574c-0.3521-0.2041-0.752-0.3066-1.1997-0.3066c-0.4482,0-0.8481,0.1025-1.2002,0.3066
		c-0.3521,0.2031-0.6318,0.4893-0.8398,0.8574s-0.312,0.7998-0.312,1.2959c0,0.4883,0.104,0.918,0.312,1.29
		s0.4878,0.6602,0.8398,0.8643S31.2427,69.2451,31.6826,69.2451z"/>
	<path fill="#FFFFFF" d="M37.7432,69.9414l-2.376-6.2998h0.8159l2.1597,5.8438h-0.3716l2.2197-5.8438h0.7319l2.1963,5.8438h-0.3721
		l2.1958-5.8438h0.7803l-2.3882,6.2998h-0.8042l-2.1118-5.4961h0.252l-2.124,5.4961H37.7432z"/>
	<path fill="#FFFFFF" d="M49.335,70.001c-0.5996,0-1.1377-0.1357-1.6138-0.4072c-0.4761-0.2725-0.8501-0.6504-1.1221-1.1348
		c-0.272-0.4834-0.4082-1.042-0.4082-1.6738c0-0.6396,0.1362-1.2002,0.4082-1.6797c0.272-0.4805,0.646-0.8535,1.1221-1.1221
		c0.4761-0.2676,1.0142-0.4023,1.6138-0.4023c0.5522,0,1.0459,0.124,1.4824,0.3721c0.4355,0.248,0.7842,0.6104,1.0439,1.0859
		c0.2598,0.4766,0.3896,1.0586,0.3896,1.7461c0,0.6807-0.1279,1.2598-0.3838,1.7402s-0.6016,0.8457-1.0381,1.0977
		C50.3931,69.875,49.895,70.001,49.335,70.001z M49.395,69.2451c0.4482,0,0.8501-0.1016,1.2061-0.3057s0.6362-0.4922,0.8403-0.8643
		s0.3057-0.8018,0.3057-1.29c0-0.4961-0.1016-0.9277-0.3057-1.2959s-0.4844-0.6543-0.8403-0.8574
		c-0.356-0.2041-0.7578-0.3066-1.2061-0.3066c-0.4399,0-0.8359,0.1025-1.188,0.3066c-0.3521,0.2031-0.6318,0.4893-0.8398,0.8574
		s-0.312,0.7998-0.312,1.2959c0,0.4883,0.104,0.918,0.312,1.29s0.4878,0.6602,0.8398,0.8643S48.9551,69.2451,49.395,69.2451z
		 M51.7715,69.9414v-1.8965l0.084-1.2715l-0.1201-1.2725v-4.4639h0.8525v8.9043H51.7715z"/>
	<path fill="#FFFFFF" d="M57.6387,70.001c-0.6553,0-1.2314-0.1377-1.7275-0.4131c-0.4961-0.2764-0.8838-0.6563-1.1641-1.1406
		c-0.2803-0.4834-0.4199-1.0381-0.4199-1.6621s0.1338-1.1758,0.4023-1.6553c0.2676-0.4805,0.6357-0.8584,1.1035-1.1348
		c0.4678-0.2754,0.9941-0.4141,1.5781-0.4141c0.5918,0,1.1182,0.1348,1.5781,0.4023c0.46,0.2686,0.8223,0.6445,1.0859,1.1279
		c0.2637,0.4844,0.3955,1.042,0.3955,1.6738c0,0.04-0.002,0.082-0.0059,0.126s-0.0059,0.0898-0.0059,0.1387h-5.4834v-0.6367h5.0273
		l-0.3359,0.252c0-0.4561-0.0977-0.8613-0.2939-1.2178c-0.1963-0.3555-0.4619-0.6338-0.7979-0.834s-0.7246-0.2998-1.1641-0.2998
		c-0.4316,0-0.8203,0.0996-1.1641,0.2998s-0.6123,0.4805-0.8037,0.8398c-0.1924,0.3604-0.2881,0.7725-0.2881,1.2363v0.1318
		c0,0.4805,0.1055,0.9023,0.3184,1.2666c0.2109,0.3633,0.5078,0.6475,0.8877,0.8516s0.8135,0.3057,1.3018,0.3057
		c0.3838,0,0.7422-0.0674,1.0742-0.2041c0.332-0.1357,0.6182-0.3438,0.8574-0.624l0.4805,0.5527
		c-0.2803,0.3359-0.6299,0.5918-1.0498,0.7676S58.1436,70.001,57.6387,70.001z"/>
	<path fill="#FFFFFF" d="M64.7188,70.001c-0.5996,0-1.1377-0.1357-1.6133-0.4072c-0.4766-0.2725-0.8506-0.6504-1.1221-1.1348
		c-0.2725-0.4834-0.4082-1.042-0.4082-1.6738c0-0.6396,0.1357-1.2002,0.4082-1.6797c0.2715-0.4805,0.6455-0.8535,1.1221-1.1221
		c0.4756-0.2676,1.0137-0.4023,1.6133-0.4023c0.5527,0,1.0459,0.124,1.4824,0.3721c0.4355,0.248,0.7842,0.6104,1.0439,1.0859
		c0.2598,0.4766,0.3896,1.0586,0.3896,1.7461c0,0.6807-0.1279,1.2598-0.3838,1.7402s-0.6016,0.8457-1.0381,1.0977
		C65.7773,69.875,65.2793,70.001,64.7188,70.001z M64.7793,69.2451c0.4482,0,0.8496-0.1016,1.2061-0.3057
		c0.3555-0.2041,0.6357-0.4922,0.8398-0.8643s0.3057-0.8018,0.3057-1.29c0-0.4961-0.1016-0.9277-0.3057-1.2959
		s-0.4844-0.6543-0.8398-0.8574c-0.3564-0.2041-0.7578-0.3066-1.2061-0.3066c-0.4404,0-0.8359,0.1025-1.1885,0.3066
		c-0.3516,0.2031-0.6318,0.4893-0.8398,0.8574s-0.3115,0.7998-0.3115,1.2959c0,0.4883,0.1035,0.918,0.3115,1.29
		s0.4883,0.6602,0.8398,0.8643C63.9434,69.1436,64.3389,69.2451,64.7793,69.2451z M67.1553,69.9414v-1.8965l0.084-1.2715
		l-0.1201-1.2725v-4.4639h0.8525v8.9043H67.1553z"/>
</g>
<g enable-background="new    ">
	<path fill="#FFFFFF" d="M25.5752,78.2686c0.5117,0,0.958,0.0986,1.3379,0.2939c0.3799,0.1963,0.6758,0.4941,0.8882,0.8945
		c0.2119,0.4004,0.3179,0.9043,0.3179,1.5117v3.6602h-0.8521v-3.5762c0-0.6641-0.1582-1.166-0.4741-1.5059
		s-0.7617-0.5098-1.3379-0.5098c-0.4321,0-0.8062,0.0898-1.1221,0.2695c-0.3159,0.1807-0.5601,0.4404-0.7319,0.7803
		s-0.2578,0.75-0.2578,1.2305v3.3115h-0.8521v-3.5762c0-0.6641-0.1602-1.166-0.48-1.5059
		c-0.3203-0.3398-0.7681-0.5098-1.3442-0.5098c-0.4238,0-0.7959,0.0898-1.1157,0.2695c-0.3203,0.1807-0.5664,0.4404-0.7383,0.7803
		s-0.2578,0.75-0.2578,1.2305v3.3115h-0.8521v-6.2998h0.8159v1.7041l-0.1318-0.3008c0.1919-0.4551,0.502-0.8135,0.9297-1.0732
		c0.4282-0.2598,0.9341-0.3906,1.5181-0.3906c0.6162,0,1.1401,0.1543,1.5723,0.4619c0.4321,0.3086,0.7119,0.7705,0.8398,1.3867
		l-0.3359-0.1318c0.1841-0.5127,0.5098-0.9268,0.978-1.2422C24.3569,78.4268,24.9189,78.2686,25.5752,78.2686z"/>
	<path fill="#FFFFFF" d="M32.2109,84.6885c-0.4722,0-0.8818-0.0771-1.23-0.2334c-0.3477-0.1563-0.6138-0.3721-0.7979-0.6484
		c-0.1841-0.2754-0.2759-0.5938-0.2759-0.9541c0-0.3271,0.0776-0.626,0.2339-0.8936c0.1558-0.2676,0.4121-0.4844,0.7681-0.6484
		c0.356-0.1631,0.834-0.2461,1.4341-0.2461h2.1719v0.6367h-2.1479c-0.6084,0-1.0303,0.1074-1.2661,0.3242
		c-0.2358,0.2158-0.354,0.4834-0.354,0.8037c0,0.3594,0.1396,0.6475,0.4199,0.8643c0.2798,0.2158,0.6719,0.3232,1.1763,0.3232
		c0.48,0,0.894-0.1094,1.2417-0.3301c0.3481-0.2197,0.6021-0.5371,0.7622-0.9541l0.1919,0.5889
		c-0.1602,0.416-0.438,0.748-0.834,0.9961S32.811,84.6885,32.2109,84.6885z M34.3833,84.6289v-1.3916l-0.0361-0.2285v-2.3281
		c0-0.5352-0.1499-0.9482-0.4502-1.2354c-0.2998-0.2881-0.7461-0.4326-1.3379-0.4326c-0.4082,0-0.7959,0.0684-1.1641,0.2041
		c-0.3682,0.1367-0.6802,0.3164-0.936,0.54l-0.3838-0.6357c0.3198-0.2725,0.7036-0.4824,1.1519-0.6299
		c0.4478-0.1484,0.9199-0.2227,1.416-0.2227c0.8159,0,1.4458,0.2021,1.8901,0.6064c0.4438,0.4043,0.666,1.0176,0.666,1.8418v3.9121
		H34.3833z"/>
	<path fill="#FFFFFF" d="M37.5151,84.6289v-6.2998h0.8159v1.7158l-0.084-0.2998c0.1758-0.4805,0.4722-0.8467,0.8882-1.0986
		c0.4155-0.252,0.9316-0.3779,1.5479-0.3779v0.8281c-0.0322,0-0.064-0.002-0.0962-0.0059c-0.0317-0.0039-0.064-0.0059-0.0957-0.0059
		c-0.6641,0-1.1841,0.2021-1.5601,0.6055c-0.376,0.4043-0.564,0.9785-0.564,1.7227v3.2158H37.5151z"/>
	<path fill="#FFFFFF" d="M42.231,84.6289v-8.9043h0.8521v8.9043H42.231z M42.9028,82.9971l0.0239-1.0918l3.9243-3.5762h1.0439
		l-2.772,2.6514l-0.48,0.4082L42.9028,82.9971z M47.1147,84.6289l-2.6279-3.2764l0.5522-0.6592l3.1201,3.9355H47.1147z"/>
	<path fill="#FFFFFF" d="M51.8662,84.6885c-0.6553,0-1.2314-0.1377-1.7271-0.4131c-0.4966-0.2764-0.8843-0.6563-1.1641-1.1406
		c-0.2803-0.4834-0.4204-1.0381-0.4204-1.6621s0.1343-1.1758,0.4023-1.6553c0.2681-0.4805,0.6357-0.8584,1.104-1.1348
		c0.4678-0.2754,0.9937-0.4141,1.5776-0.4141c0.5918,0,1.1182,0.1348,1.5781,0.4023c0.46,0.2686,0.8223,0.6445,1.0859,1.1279
		c0.2637,0.4844,0.3955,1.042,0.3955,1.6738c0,0.04-0.002,0.082-0.0059,0.126s-0.0059,0.0898-0.0059,0.1387h-5.4834v-0.6367h5.0273
		l-0.3359,0.252c0-0.4561-0.0977-0.8613-0.2939-1.2178c-0.1963-0.3555-0.4619-0.6338-0.7979-0.834s-0.7246-0.2998-1.1641-0.2998
		c-0.4316,0-0.8198,0.0996-1.1636,0.2998c-0.3442,0.2002-0.6123,0.4805-0.8042,0.8398c-0.1919,0.3604-0.2881,0.7725-0.2881,1.2363
		v0.1318c0,0.4805,0.106,0.9023,0.3184,1.2666c0.2114,0.3633,0.5078,0.6475,0.8877,0.8516s0.8135,0.3057,1.3018,0.3057
		c0.3838,0,0.7422-0.0674,1.0742-0.2041c0.332-0.1357,0.6182-0.3438,0.8574-0.624l0.4805,0.5527
		c-0.2803,0.3359-0.6299,0.5918-1.0498,0.7676S52.3711,84.6885,51.8662,84.6885z"/>
	<path fill="#FFFFFF" d="M55.4551,79.0371v-0.708h3.8994v0.708H55.4551z M58.4307,84.6885c-0.5918,0-1.0479-0.1592-1.3682-0.4795
		s-0.4795-0.7725-0.4795-1.3564v-5.916h0.8516v5.8682c0,0.3682,0.0938,0.6523,0.2822,0.8525
		c0.1875,0.2002,0.458,0.2998,0.8096,0.2998c0.376,0,0.6885-0.1084,0.9365-0.3242l0.2998,0.6123
		c-0.168,0.1514-0.3701,0.2637-0.6064,0.3359C58.9209,84.6533,58.6787,84.6885,58.4307,84.6885z"/>
</g>
</svg>
